<svg id="svg1342" xmlns="http://www.w3.org/2000/svg" viewBox="0 0 224.94 200.3">
  <defs>
    <style>
      .cls-1, .cls-5 {
        fill: #008bfd;
      }

      .cls-1, .cls-10, .cls-2, .cls-6 {
        fill-rule: evenodd;
      }

      .cls-2, .cls-3 {
        fill: #0078d7;
      }

      .cls-4 {
        isolation: isolate;
      }

      .cls-6 {
        fill: gray;
      }

      .cls-7, .cls-9 {
        fill: none;
      }

      .cls-8 {
        fill: #00b0f0;
      }

      .cls-9 {
        stroke: #505050;
        stroke-miterlimit: 10;
      }

      .cls-10, .cls-11 {
        fill: #505050;
      }
    </style>
  </defs>
  <title>OJ104440668</title>
  <g id="shape1029-46">
    <path id="path1130" class="cls-1" d="M211.09,79h-20.5a1.09,1.09,0,0,0-1.09,1.1V96.88a1.09,1.09,0,0,0,1.09,1.1h5.28a3.29,3.29,0,0,0,3.21,2.27,3.38,3.38,0,0,0,0-6.75,3.29,3.29,0,0,0-3.21,2.27h-4.19v-12H210v12h-3.45a7.61,7.61,0,0,0-7.46-6.56,8.25,8.25,0,0,0-3.64.92l1,2a5.27,5.27,0,0,1,2.55-.67,5.46,5.46,0,0,1,0,10.91,5.27,5.27,0,0,1-2.55-.67l-1,2a7.51,7.51,0,0,0,3.64.92A7.61,7.61,0,0,0,206.54,98h4.55a1.09,1.09,0,0,0,1.09-1.1V80.13A1.14,1.14,0,0,0,211.09,79Z"/>
  </g>
  <g id="group1030-50">
    <g id="shape1031-51">
      <path id="path1143" class="cls-2" d="M73.65,106H59.44V77.6H73.65v7.67h.76V76.83H58.68v29.91H74.41v-2.32h-.76Z"/>
    </g>
    <g id="shape1032-53">
      <path id="path1148" class="cls-2" d="M72.88,78.39H60.24V83H72.88ZM63.3,80.31h6.53v.76H63.3Zm6.59,1.84H63.27v-.76h6.62Z"/>
    </g>
    <g id="shape1033-55">
      <path id="path1153" class="cls-2" d="M60.21,83.74V86.8h8.6V85.27h4.08V83.74Z"/>
    </g>
    <g id="shape1034-57">
      <rect id="rect1158" class="cls-3" x="60.21" y="87.57" width="8.6" height="2.68"/>
    </g>
    <g id="shape1035-59">
      <path id="path1163" class="cls-2" d="M60.21,105.21H72.86v-.8H68.78V91h-8.6v14.17Zm1.53-2.74H64v1.21H61.74Z"/>
    </g>
    <g id="shape1036-61">
      <path id="path1168" class="cls-2" d="M83.43,102.15H81v-1.87H78.46v1.87H76a1.32,1.32,0,0,0-1.31,1.15h10A1.29,1.29,0,0,0,83.43,102.15Z"/>
    </g>
    <g id="shape1037-63">
      <path id="path1173" class="cls-2" d="M88.27,88.17H71.17a.65.65,0,0,0-.67.61V98.91a.65.65,0,0,0,.67.6h17.1a.64.64,0,0,0,.67-.6V88.78A.63.63,0,0,0,88.27,88.17Zm-1,9.84H72.19V89.7H87.25Z"/>
    </g>
    <g id="shape1038-65">
      <path id="path1178" class="cls-2" d="M83.63,95.52V92.08l-3.51-1.84L76.62,92v3.54l3.5,1.81Zm-4.4-2.29.89-.45.86.45-.86.48Zm0-1.15.86-.44.86.44-.86.48Zm1.91,4.53-1,.51v-.93l1-.51Zm0-1.18-1,.51V95l1-.51Zm0-1.12-1,.51V93.9l1-.51Zm-.82-1.65.86-.45.89.45-.86.44Zm2,3.34-.95.51v-.92l.95-.51Zm0-1.18-.95.51v-.92l.95-.51Zm0-1.14-.95.51v-.9l.95-.51Zm1.05,1.75-.86.44V95l.86-.45Zm0-1.15-.86.45V93.8l.86-.44Zm0-1.14-.86.44v-.92l.86-.45Zm-.19-1.06-.89.45-.89-.45.86-.44Zm-1.11-.57-.89.45-.86-.45.86-.44Zm-2-1.05.86.45-.86.44-.89-.44ZM79,91.07l.86.44L79,92l-.86-.45Zm-1.08.57.89.44-.89.45-.9-.45Zm-.26,4.27-.86-.45v-.92l.86.44Zm0-1.18-.86-.45v-.92l.86.44Zm0-1.15-.86-.44v-.9l.86.45Zm1.18,2.93-1-.51v-.92l1,.51Zm0-1.18-1-.51V93.9l1,.51Zm0-1.14-1-.51v-.9l1,.51Zm-.7-1.53.89-.45.86.45-.89.48ZM80,97.12l-1-.51v-.89l1,.5ZM80,96l-1-.51v-.92l1,.51Zm0-1.15-1-.51v-.92l1,.51Z"/>
    </g>
  </g>
  <path id="path1241" class="cls-1" d="M84.06,152.79H63.56a1.09,1.09,0,0,0-1.09,1.1v16.75a1.09,1.09,0,0,0,1.09,1.1h5.28A3.29,3.29,0,0,0,72.05,174a3.38,3.38,0,0,0,0-6.75,3.29,3.29,0,0,0-3.21,2.27H64.65v-12H83v12H79.51A7.61,7.61,0,0,0,72.05,163a8.25,8.25,0,0,0-3.64.92l1,2a5.27,5.27,0,0,1,2.55-.67,5.46,5.46,0,0,1,0,10.91,5.27,5.27,0,0,1-2.55-.67l-1,2a7.51,7.51,0,0,0,3.64.92,7.61,7.61,0,0,0,7.46-6.56h4.55a1.09,1.09,0,0,0,1.09-1.1V153.89A1.14,1.14,0,0,0,84.06,152.79Z"/>
  <g id="text1243" class="cls-4">
    <path class="cls-5" d="M56,186.11v-6.3h1.74q3.33,0,3.33,3.07a3.08,3.08,0,0,1-.92,2.35,3.43,3.43,0,0,1-2.48.88Zm.74-5.63v5h.94a2.67,2.67,0,0,0,1.93-.66,2.48,2.48,0,0,0,.69-1.88c0-1.61-.86-2.42-2.57-2.42Z"/>
    <path class="cls-5" d="M65.42,186.11H64.7v-.7h0a1.64,1.64,0,0,1-2.44.45,1.24,1.24,0,0,1-.38-.94c0-.84.5-1.33,1.49-1.47l1.35-.19c0-.76-.31-1.15-.93-1.15a2.23,2.23,0,0,0-1.47.56v-.74a2.79,2.79,0,0,1,1.53-.42q1.59,0,1.59,1.68Zm-.72-2.27-1.09.15a1.79,1.79,0,0,0-.75.24.72.72,0,0,0-.26.63.68.68,0,0,0,.24.54.88.88,0,0,0,.62.21,1.17,1.17,0,0,0,.89-.37,1.37,1.37,0,0,0,.35-1Z"/>
    <path class="cls-5" d="M70.39,184H67.22a1.66,1.66,0,0,0,.4,1.16,1.36,1.36,0,0,0,1.06.41,2.22,2.22,0,0,0,1.4-.5v.68a2.65,2.65,0,0,1-1.57.43,1.92,1.92,0,0,1-1.5-.62,2.89,2.89,0,0,1,0-3.43,1.92,1.92,0,0,1,1.48-.66,1.7,1.7,0,0,1,1.37.57,2.4,2.4,0,0,1,.48,1.59Zm-.74-.61a1.44,1.44,0,0,0-.3-1,1,1,0,0,0-.82-.35,1.19,1.19,0,0,0-.87.37,1.72,1.72,0,0,0-.44,1Z"/>
    <path class="cls-5" d="M77.87,186.11h-.72v-2.58a2,2,0,0,0-.23-1.08.85.85,0,0,0-.77-.34,1,1,0,0,0-.79.43,1.62,1.62,0,0,0-.32,1v2.56h-.72v-2.67c0-.88-.34-1.33-1-1.33a1,1,0,0,0-.78.4,1.69,1.69,0,0,0-.31,1v2.56h-.72v-4.5h.72v.71h0a1.54,1.54,0,0,1,1.4-.81,1.28,1.28,0,0,1,1.27.93,1.61,1.61,0,0,1,1.5-.93c1,0,1.48.61,1.48,1.83Z"/>
    <path class="cls-5" d="M81.12,186.22a2.1,2.1,0,0,1-1.6-.63,2.36,2.36,0,0,1-.59-1.67,2.43,2.43,0,0,1,.62-1.78,2.23,2.23,0,0,1,1.67-.63,2,2,0,0,1,1.57.62,2.42,2.42,0,0,1,.57,1.71,2.45,2.45,0,0,1-.61,1.73A2.15,2.15,0,0,1,81.12,186.22Zm0-4.11a1.37,1.37,0,0,0-1.1.48,1.91,1.91,0,0,0-.4,1.3,1.85,1.85,0,0,0,.4,1.26,1.4,1.4,0,0,0,1.1.46,1.32,1.32,0,0,0,1.07-.45,2,2,0,0,0,.38-1.29,2,2,0,0,0-.38-1.3A1.33,1.33,0,0,0,81.17,182.11Z"/>
    <path class="cls-5" d="M88.24,186.11h-.72v-2.56c0-1-.35-1.44-1-1.44a1.16,1.16,0,0,0-.9.41,1.53,1.53,0,0,0-.35,1v2.56h-.72v-4.5h.72v.75h0a1.61,1.61,0,0,1,1.47-.85,1.4,1.4,0,0,1,1.13.47,2.14,2.14,0,0,1,.39,1.38Z"/>
    <path class="cls-5" d="M91.9,183.89H89.5v-.57h2.4Z"/>
    <path class="cls-5" d="M64.66,190.61l-1.78,6.3H62l-1.3-4.6a3.17,3.17,0,0,1-.1-.64h0a2.78,2.78,0,0,1-.11.63l-1.31,4.61h-.85l-1.85-6.3h.81l1.35,4.83a3.41,3.41,0,0,1,.1.64h0a4,4,0,0,1,.14-.64l1.39-4.83H61l1.34,4.87a4,4,0,0,1,.1.59h0a3.21,3.21,0,0,1,.12-.61l1.28-4.85Z"/>
    <path class="cls-5" d="M68.77,194.84H65.59A1.66,1.66,0,0,0,66,196a1.35,1.35,0,0,0,1.06.41,2.24,2.24,0,0,0,1.4-.5v.68a2.68,2.68,0,0,1-1.57.43,1.89,1.89,0,0,1-1.5-.62,2.5,2.5,0,0,1-.55-1.72,2.44,2.44,0,0,1,.6-1.71,1.92,1.92,0,0,1,1.48-.66,1.71,1.71,0,0,1,1.37.57,2.39,2.39,0,0,1,.48,1.58Zm-.74-.61a1.44,1.44,0,0,0-.3-1,1,1,0,0,0-.82-.35,1.19,1.19,0,0,0-.87.37,1.65,1.65,0,0,0-.44.95Z"/>
    <path class="cls-5" d="M70.6,196.26h0v.65h-.72v-6.66h.72v2.95h0a1.7,1.7,0,0,1,1.55-.89,1.66,1.66,0,0,1,1.36.6,2.52,2.52,0,0,1,.49,1.62,2.77,2.77,0,0,1-.55,1.81A1.84,1.84,0,0,1,72,197,1.46,1.46,0,0,1,70.6,196.26Zm0-1.81v.63a1.33,1.33,0,0,0,.36.94,1.2,1.2,0,0,0,.92.39,1.22,1.22,0,0,0,1-.5,2.27,2.27,0,0,0,.37-1.39,1.82,1.82,0,0,0-.35-1.18,1.15,1.15,0,0,0-.94-.43,1.29,1.29,0,0,0-1,.44A1.63,1.63,0,0,0,70.58,194.45Z"/>
    <path class="cls-5" d="M77.45,194.69h-2.4v-.57h2.4Z"/>
    <path class="cls-5" d="M83.72,196.91h-.81l-.67-1.76H79.57l-.63,1.76h-.82l2.41-6.3h.77ZM82,194.48l-1-2.68a2.61,2.61,0,0,1-.1-.42h0a2.61,2.61,0,0,1-.1.42l-1,2.68Z"/>
    <path class="cls-5" d="M85.39,194.53v2.38h-.74v-6.3h1.73a2.27,2.27,0,0,1,1.57.49,1.76,1.76,0,0,1,.55,1.39,1.91,1.91,0,0,1-.61,1.47,2.37,2.37,0,0,1-1.67.57Zm0-3.25v2.58h.77a1.71,1.71,0,0,0,1.17-.35,1.22,1.22,0,0,0,.4-1c0-.84-.49-1.25-1.48-1.25Z"/>
    <path class="cls-5" d="M90.43,196.91h-.74v-6.3h.74Z"/>
  </g>
  <g id="group1060-114">
    <g id="shape1061-115">
      <path id="path1292" class="cls-6" d="M22.37,169.49H15.65a.59.59,0,0,1-.61-.57v-6.44H17v-1.77H29.4a.59.59,0,0,1,.62.57v.09a6.4,6.4,0,0,1,1,.33v-.42a1.53,1.53,0,0,0-1.58-1.46h-13L14.08,162v6.9a1.51,1.51,0,0,0,1.57,1.46h7.28A5.8,5.8,0,0,1,22.37,169.49Z"/>
    </g>
    <g id="group1062-117">
      <g id="group1063-118">
        <g id="shape1064-119">
          <path id="path1301" class="cls-6" d="M31,171l2.34,3.26-2.17-.54-.61,1.64-2.34-2.88-1.75,2.88-.8-1.74-2.17.54,2.14-3.42s.58.92,2.69.92S31,171,31,171Z"/>
        </g>
      </g>
      <g id="group1065-121">
        <g id="shape1066-122">
          <path id="path1309" class="cls-6" d="M28.43,170.42A3.43,3.43,0,1,1,32.15,167,3.58,3.58,0,0,1,28.43,170.42Zm0-6.06a2.66,2.66,0,1,0,2.9,2.65A2.78,2.78,0,0,0,28.43,164.36Z"/>
        </g>
      </g>
      <g id="group1067-124">
        <g id="shape1068-125">
          <path id="path1317" class="cls-6" d="M28.43,172.23a5.24,5.24,0,1,1,0-10.45,5.24,5.24,0,1,1,0,10.45Zm0-9.69a4.48,4.48,0,1,0,0,8.93,4.48,4.48,0,1,0,0-8.93Z"/>
        </g>
      </g>
    </g>
  </g>
  <g id="shape1215-134">
    <rect id="rect1335" class="cls-7" x="104.46" y="61.11" width="114.21" height="20"/>
    <g id="text1337" class="cls-4">
      <path class="cls-8" d="M116.26,58.48H113.8v2.18h2.28v.66H113.8v2.79h-.74v-6.3h3.2Z"/>
      <path class="cls-8" d="M118,64.11h-.72V57.45H118Z"/>
      <path class="cls-8" d="M121.24,64.22a2.06,2.06,0,0,1-1.59-.63,2.33,2.33,0,0,1-.6-1.67,2.47,2.47,0,0,1,.62-1.78,2.23,2.23,0,0,1,1.67-.63,2,2,0,0,1,1.58.62,2.46,2.46,0,0,1,.56,1.71,2.41,2.41,0,0,1-.61,1.73A2.15,2.15,0,0,1,121.24,64.22Zm.05-4.11a1.37,1.37,0,0,0-1.1.48,1.91,1.91,0,0,0-.4,1.3,1.81,1.81,0,0,0,.41,1.26,1.36,1.36,0,0,0,1.09.46,1.33,1.33,0,0,0,1.08-.45,2,2,0,0,0,.37-1.29,2,2,0,0,0-.37-1.3A1.33,1.33,0,0,0,121.29,60.11Z"/>
      <path class="cls-8" d="M130.21,59.61l-1.35,4.5h-.75l-.92-3.22a1.67,1.67,0,0,1-.07-.42h0a2.06,2.06,0,0,1-.09.41l-1,3.23h-.72l-1.36-4.5h.75L125.6,63a2.47,2.47,0,0,1,.07.4h0a2.12,2.12,0,0,1,.08-.41l1-3.38h.66l.93,3.39a2.11,2.11,0,0,1,.06.41h0a2.51,2.51,0,0,1,.07-.41l.92-3.39Z"/>
      <path class="cls-8" d="M135.55,58.08a.94.94,0,0,0-.47-.12c-.51,0-.76.32-.76,1v.69h1.05v.62h-1.05v3.88h-.72V60.23h-.77v-.62h.77v-.73a1.54,1.54,0,0,1,.41-1.12,1.39,1.39,0,0,1,1-.41,1.45,1.45,0,0,1,.52.08Z"/>
      <path class="cls-8" d="M139.7,64.11H139V63.4h0a1.47,1.47,0,0,1-1.39.82c-1.07,0-1.61-.64-1.61-1.92V59.61h.72v2.58c0,1,.36,1.42,1.09,1.42a1.08,1.08,0,0,0,.86-.39,1.48,1.48,0,0,0,.35-1v-2.6h.72ZM137,58.76a.42.42,0,0,1-.31-.13.41.41,0,0,1-.13-.3.39.39,0,0,1,.13-.31.42.42,0,0,1,.3-.13.44.44,0,0,1,.31.13.41.41,0,0,1,.14.31.44.44,0,0,1-.44.43Zm1.69,0a.41.41,0,0,1-.3-.12.45.45,0,0,1,0-.62.45.45,0,0,1,.3-.13A.42.42,0,0,1,139,58a.4.4,0,0,1,.13.31.41.41,0,0,1-.12.3A.4.4,0,0,1,138.71,58.76Z"/>
      <path class="cls-8" d="M143.41,60.34a1,1,0,0,0-.55-.14.91.91,0,0,0-.77.43,2,2,0,0,0-.31,1.19v2.29h-.72v-4.5h.72v.93h0a1.55,1.55,0,0,1,.47-.74,1.07,1.07,0,0,1,.71-.27,1.23,1.23,0,0,1,.43.06Z"/>
      <path class="cls-8" d="M117.35,74.65a3.8,3.8,0,0,1-1.74.37,2.79,2.79,0,0,1-2.15-.87,3.17,3.17,0,0,1-.81-2.27,3.32,3.32,0,0,1,.91-2.44,3.07,3.07,0,0,1,2.3-.94,3.76,3.76,0,0,1,1.49.26v.79a3,3,0,0,0-1.49-.38,2.25,2.25,0,0,0-1.76.73,2.73,2.73,0,0,0-.68,1.94,2.61,2.61,0,0,0,.63,1.83,2.13,2.13,0,0,0,1.66.68,3.1,3.1,0,0,0,1.64-.42Z"/>
      <path class="cls-8" d="M119.17,74.91h-.72V68.25h.72Z"/>
      <path class="cls-8" d="M120.9,69.27a.44.44,0,0,1-.32-.13.42.42,0,0,1-.14-.34.42.42,0,0,1,.14-.33.45.45,0,0,1,.32-.14.46.46,0,0,1,.34.14.46.46,0,0,1,0,.66A.46.46,0,0,1,120.9,69.27Zm.36,5.64h-.72v-4.5h.72Z"/>
      <path class="cls-8" d="M126.24,72.84h-3.18a1.71,1.71,0,0,0,.41,1.16,1.36,1.36,0,0,0,1.06.41,2.24,2.24,0,0,0,1.4-.5v.68a2.68,2.68,0,0,1-1.57.43,1.92,1.92,0,0,1-1.5-.62,2.89,2.89,0,0,1,0-3.43,1.92,1.92,0,0,1,1.48-.66,1.7,1.7,0,0,1,1.37.57,2.39,2.39,0,0,1,.48,1.58Zm-.74-.61a1.44,1.44,0,0,0-.3-1,1,1,0,0,0-.82-.35,1.19,1.19,0,0,0-.87.37,1.72,1.72,0,0,0-.44,1Z"/>
      <path class="cls-8" d="M131,74.91h-.72V72.35q0-1.44-1-1.44a1.12,1.12,0,0,0-.89.41,1.49,1.49,0,0,0-.36,1v2.56h-.72v-4.5H128v.75h0a1.62,1.62,0,0,1,1.48-.85,1.4,1.4,0,0,1,1.13.47,2.14,2.14,0,0,1,.39,1.38Z"/>
      <path class="cls-8" d="M134.33,74.87a1.42,1.42,0,0,1-.67.14c-.79,0-1.18-.44-1.18-1.32V71h-.78v-.62h.78v-1.1l.72-.23v1.33h1.13V71H133.2v2.53a1.07,1.07,0,0,0,.15.65.63.63,0,0,0,.51.19.75.75,0,0,0,.47-.15Z"/>
      <path class="cls-8" d="M138.43,74.91h-.72v-.7h0a1.52,1.52,0,0,1-1.39.81,1.47,1.47,0,0,1-1.05-.36,1.24,1.24,0,0,1-.38-.94c0-.84.5-1.33,1.49-1.47l1.35-.19c0-.77-.31-1.15-.93-1.15a2.23,2.23,0,0,0-1.47.56v-.74a2.79,2.79,0,0,1,1.53-.42q1.59,0,1.59,1.68Zm-.72-2.27-1.09.15a1.84,1.84,0,0,0-.76.24.83.83,0,0,0,0,1.17.92.92,0,0,0,.63.21,1.17,1.17,0,0,0,.89-.37,1.37,1.37,0,0,0,.35-1Z"/>
      <path class="cls-8" d="M143.43,74.91h-.72V72.35q0-1.44-1.05-1.44a1.12,1.12,0,0,0-.89.41,1.48,1.48,0,0,0-.35,1v2.56h-.73v-4.5h.73v.75h0a1.62,1.62,0,0,1,1.48-.85,1.4,1.4,0,0,1,1.13.47,2.14,2.14,0,0,1,.39,1.38Z"/>
      <path class="cls-8" d="M151.09,74.91h-.72V72.33a2,2,0,0,0-.23-1.08.88.88,0,0,0-.78-.34.94.94,0,0,0-.78.42,1.62,1.62,0,0,0-.33,1v2.56h-.72V72.24c0-.88-.34-1.33-1-1.33a1,1,0,0,0-.78.4,1.63,1.63,0,0,0-.31,1v2.56h-.72v-4.5h.72v.71h0a1.51,1.51,0,0,1,1.39-.81,1.32,1.32,0,0,1,.81.25,1.36,1.36,0,0,1,.47.68,1.6,1.6,0,0,1,1.49-.93c1,0,1.49.61,1.49,1.83Z"/>
      <path class="cls-8" d="M156,72.84H152.8a1.71,1.71,0,0,0,.4,1.16,1.39,1.39,0,0,0,1.07.41,2.22,2.22,0,0,0,1.39-.5v.68a2.63,2.63,0,0,1-1.57.43,1.89,1.89,0,0,1-1.49-.62,2.85,2.85,0,0,1,.05-3.43,1.9,1.9,0,0,1,1.48-.66,1.69,1.69,0,0,1,1.36.57,2.39,2.39,0,0,1,.49,1.58Zm-.74-.61a1.56,1.56,0,0,0-.3-1,1.05,1.05,0,0,0-.83-.35,1.16,1.16,0,0,0-.86.37,1.59,1.59,0,0,0-.44,1Z"/>
      <path class="cls-8" d="M157.7,74.91H157V68.25h.72Z"/>
      <path class="cls-8" d="M162.91,74.91h-.72v-.76h0a1.67,1.67,0,0,1-1.55.87,1.65,1.65,0,0,1-1.35-.61,2.46,2.46,0,0,1-.51-1.64,2.72,2.72,0,0,1,.56-1.79,1.85,1.85,0,0,1,1.5-.67,1.43,1.43,0,0,1,1.35.73h0V68.25h.72Zm-.72-2v-.67a1.28,1.28,0,0,0-.36-.92,1.33,1.33,0,0,0-2,.11,2.1,2.1,0,0,0-.37,1.33,1.92,1.92,0,0,0,.36,1.23,1.17,1.17,0,0,0,1,.45,1.23,1.23,0,0,0,1-.43A1.63,1.63,0,0,0,162.19,72.88Z"/>
      <path class="cls-8" d="M167.89,72.84h-3.18a1.71,1.71,0,0,0,.41,1.16,1.36,1.36,0,0,0,1.06.41,2.22,2.22,0,0,0,1.4-.5v.68A2.68,2.68,0,0,1,166,75a1.92,1.92,0,0,1-1.5-.62,2.89,2.89,0,0,1,.05-3.43,1.92,1.92,0,0,1,1.48-.66,1.7,1.7,0,0,1,1.37.57,2.39,2.39,0,0,1,.48,1.58Zm-.74-.61a1.44,1.44,0,0,0-.3-1,1,1,0,0,0-.82-.35,1.19,1.19,0,0,0-.87.37,1.72,1.72,0,0,0-.44,1Z"/>
      <path class="cls-8" d="M169.26,69.27a.44.44,0,0,1-.33-.13.46.46,0,0,1-.14-.34.48.48,0,0,1,.47-.47.49.49,0,0,1,.34.14.46.46,0,0,1,0,.66A.49.49,0,0,1,169.26,69.27Zm.35,5.64h-.72v-4.5h.72Z"/>
      <path class="cls-8" d="M174.72,74.91H174V72.35q0-1.44-1.05-1.44a1.12,1.12,0,0,0-.89.41,1.49,1.49,0,0,0-.36,1v2.56H171v-4.5h.72v.75h0a1.62,1.62,0,0,1,1.48-.85,1.4,1.4,0,0,1,1.13.47,2.14,2.14,0,0,1,.39,1.38Z"/>
      <path class="cls-8" d="M178.21,68.88a1,1,0,0,0-.48-.12c-.5,0-.76.32-.76,1v.69H178V71H177v3.88h-.71V71h-.77v-.62h.77v-.73a1.5,1.5,0,0,1,.41-1.12,1.39,1.39,0,0,1,1-.41,1.45,1.45,0,0,1,.52.08Z"/>
      <path class="cls-8" d="M180.59,75a2.09,2.09,0,0,1-1.59-.63,2.33,2.33,0,0,1-.6-1.68,2.46,2.46,0,0,1,.62-1.77,2.27,2.27,0,0,1,1.68-.63,2,2,0,0,1,1.57.62,2.42,2.42,0,0,1,.56,1.71,2.44,2.44,0,0,1-.6,1.73A2.15,2.15,0,0,1,180.59,75Zm.06-4.11a1.35,1.35,0,0,0-1.1.48,1.91,1.91,0,0,0-.41,1.3,1.85,1.85,0,0,0,.41,1.26,1.38,1.38,0,0,0,1.1.46,1.32,1.32,0,0,0,1.07-.45,2,2,0,0,0,.38-1.29,2,2,0,0,0-.38-1.3A1.33,1.33,0,0,0,180.65,70.91Z"/>
      <path class="cls-8" d="M186.24,71.14a.85.85,0,0,0-.54-.14.9.9,0,0,0-.77.43,2,2,0,0,0-.31,1.19v2.29h-.72v-4.5h.72v.93h0a1.63,1.63,0,0,1,.47-.74,1.07,1.07,0,0,1,.71-.27,1.19,1.19,0,0,1,.43.06Z"/>
      <path class="cls-8" d="M193.32,74.91h-.72V72.33a1.88,1.88,0,0,0-.23-1.08.85.85,0,0,0-.77-.34,1,1,0,0,0-.79.42,1.68,1.68,0,0,0-.32,1v2.56h-.72V72.24c0-.88-.34-1.33-1-1.33a1,1,0,0,0-.78.4,1.69,1.69,0,0,0-.31,1v2.56h-.72v-4.5h.72v.71h0a1.54,1.54,0,0,1,1.4-.81,1.27,1.27,0,0,1,.8.25,1.3,1.3,0,0,1,.47.68,1.62,1.62,0,0,1,1.5-.93c1,0,1.48.61,1.48,1.83Z"/>
      <path class="cls-8" d="M197.82,74.91h-.72v-.7h0a1.51,1.51,0,0,1-1.39.81,1.49,1.49,0,0,1-1.05-.36,1.24,1.24,0,0,1-.38-.94c0-.84.5-1.33,1.49-1.47l1.35-.19c0-.77-.31-1.15-.93-1.15a2.23,2.23,0,0,0-1.47.56v-.74a2.79,2.79,0,0,1,1.53-.42q1.59,0,1.59,1.68Zm-.72-2.27-1.09.15a1.84,1.84,0,0,0-.76.24.72.72,0,0,0-.25.63.68.68,0,0,0,.24.54.88.88,0,0,0,.62.21,1.17,1.17,0,0,0,.89-.37,1.37,1.37,0,0,0,.35-1Z"/>
      <path class="cls-8" d="M201.17,74.87a1.42,1.42,0,0,1-.67.14c-.79,0-1.18-.44-1.18-1.32V71h-.78v-.62h.78v-1.1l.72-.23v1.33h1.13V71H200v2.53a1.07,1.07,0,0,0,.15.65.6.6,0,0,0,.51.19.75.75,0,0,0,.47-.15Z"/>
      <path class="cls-8" d="M202.41,69.27a.46.46,0,0,1-.33-.13.45.45,0,0,1-.13-.34.44.44,0,0,1,.13-.33.47.47,0,0,1,.33-.14.46.46,0,0,1,.34.14.46.46,0,0,1,0,.66A.46.46,0,0,1,202.41,69.27Zm.36,5.64H202v-4.5h.73Z"/>
      <path class="cls-8" d="M206,75a2.1,2.1,0,0,1-1.6-.63,2.37,2.37,0,0,1-.59-1.68,2.42,2.42,0,0,1,.62-1.77,2.23,2.23,0,0,1,1.67-.63,2,2,0,0,1,1.57.62,2.42,2.42,0,0,1,.57,1.71,2.45,2.45,0,0,1-.61,1.73A2.15,2.15,0,0,1,206,75Zm0-4.11a1.37,1.37,0,0,0-1.1.48,1.91,1.91,0,0,0-.4,1.3A1.85,1.85,0,0,0,205,74a1.4,1.4,0,0,0,1.1.46,1.32,1.32,0,0,0,1.07-.45,2,2,0,0,0,.38-1.29,2,2,0,0,0-.38-1.3A1.33,1.33,0,0,0,206.07,70.91Z"/>
      <path class="cls-8" d="M213.05,74.91h-.72V72.35c0-1-.35-1.44-1-1.44a1.16,1.16,0,0,0-.9.41,1.53,1.53,0,0,0-.35,1v2.56h-.72v-4.5H210v.75h0a1.61,1.61,0,0,1,1.47-.85,1.39,1.39,0,0,1,1.13.47,2.14,2.14,0,0,1,.39,1.38Z"/>
      <path class="cls-8" d="M217.94,72.84h-3.18a1.66,1.66,0,0,0,.41,1.16,1.35,1.35,0,0,0,1.06.41,2.24,2.24,0,0,0,1.4-.5v.68a2.68,2.68,0,0,1-1.57.43,1.89,1.89,0,0,1-1.5-.62,2.5,2.5,0,0,1-.55-1.72,2.44,2.44,0,0,1,.6-1.71,1.92,1.92,0,0,1,1.48-.66,1.68,1.68,0,0,1,1.36.57,2.34,2.34,0,0,1,.49,1.58Zm-.74-.61a1.44,1.44,0,0,0-.3-1,1,1,0,0,0-.83-.35,1.17,1.17,0,0,0-.86.37,1.65,1.65,0,0,0-.44,1Z"/>
      <path class="cls-8" d="M222.67,74.91H222V72.35c0-1-.35-1.44-1-1.44a1.16,1.16,0,0,0-.9.41,1.53,1.53,0,0,0-.35,1v2.56h-.72v-4.5h.72v.75h0a1.61,1.61,0,0,1,1.47-.85,1.4,1.4,0,0,1,1.13.47,2.14,2.14,0,0,1,.39,1.38Z"/>
    </g>
  </g>
  <g>
    <path class="cls-5" d="M55.52,41.57v-6.3h1.74q3.35,0,3.34,3.07a3.08,3.08,0,0,1-.93,2.34,3.44,3.44,0,0,1-2.48.89Zm.74-5.64v5h.94a2.67,2.67,0,0,0,1.93-.66,2.5,2.5,0,0,0,.69-1.88c0-1.62-.86-2.43-2.57-2.43Z"/>
    <path class="cls-5" d="M65.11,41.57h-.72v-.71h0a1.64,1.64,0,0,1-2.43.46,1.21,1.21,0,0,1-.38-1c0-.84.49-1.33,1.48-1.47l1.35-.18c0-.77-.31-1.15-.93-1.15a2.18,2.18,0,0,0-1.46.55v-.74A2.79,2.79,0,0,1,63.53,37c1,0,1.58.56,1.58,1.68Zm-.72-2.28-1.08.15a1.78,1.78,0,0,0-.76.25.72.72,0,0,0-.25.63.68.68,0,0,0,.23.54.92.92,0,0,0,.63.21,1.16,1.16,0,0,0,.88-.38,1.36,1.36,0,0,0,.35-.95Z"/>
    <path class="cls-5" d="M70.24,39.5H67.06a1.66,1.66,0,0,0,.41,1.16,1.4,1.4,0,0,0,1.06.41,2.24,2.24,0,0,0,1.4-.5v.67a2.61,2.61,0,0,1-1.57.43,1.89,1.89,0,0,1-1.5-.61,2.52,2.52,0,0,1-.54-1.72,2.46,2.46,0,0,1,.59-1.72A1.92,1.92,0,0,1,68.39,37a1.71,1.71,0,0,1,1.37.57,2.4,2.4,0,0,1,.48,1.59Zm-.74-.61a1.43,1.43,0,0,0-.3-1,1,1,0,0,0-.82-.35,1.19,1.19,0,0,0-.87.36,1.68,1.68,0,0,0-.44,1Z"/>
    <path class="cls-5" d="M77.87,41.57h-.72V39a1.93,1.93,0,0,0-.23-1.08.87.87,0,0,0-.77-.33,1,1,0,0,0-.79.42A1.65,1.65,0,0,0,75,39v2.57h-.72V38.9c0-.89-.34-1.33-1-1.33a1,1,0,0,0-.78.4,1.66,1.66,0,0,0-.31,1v2.57h-.72v-4.5h.72v.71h0a1.53,1.53,0,0,1,1.4-.82,1.31,1.31,0,0,1,1.27.93,1.62,1.62,0,0,1,1.5-.93c1,0,1.48.61,1.48,1.83Z"/>
    <path class="cls-5" d="M81.27,41.67A2.06,2.06,0,0,1,79.68,41a2.33,2.33,0,0,1-.6-1.67,2.43,2.43,0,0,1,.62-1.77A2.21,2.21,0,0,1,81.38,37a2,2,0,0,1,1.57.62,2.51,2.51,0,0,1,.56,1.72A2.38,2.38,0,0,1,82.9,41,2.1,2.1,0,0,1,81.27,41.67Zm0-4.1a1.39,1.39,0,0,0-1.1.47,1.94,1.94,0,0,0-.4,1.3,1.86,1.86,0,0,0,.41,1.27,1.41,1.41,0,0,0,1.09.46,1.3,1.3,0,0,0,1.08-.46,2,2,0,0,0,.37-1.28A2,2,0,0,0,82.4,38,1.3,1.3,0,0,0,81.32,37.57Z"/>
    <path class="cls-5" d="M88.55,41.57h-.72V39c0-1-.35-1.43-1-1.43a1.11,1.11,0,0,0-.89.41,1.47,1.47,0,0,0-.35,1v2.57h-.73v-4.5h.73v.74h0A1.65,1.65,0,0,1,87,37a1.38,1.38,0,0,1,1.13.48,2.14,2.14,0,0,1,.39,1.38Z"/>
    <path class="cls-5" d="M92.36,39.34H90v-.56h2.39Z"/>
    <path class="cls-5" d="M62.46,46.07l-1.78,6.3h-.87l-1.3-4.61a3.91,3.91,0,0,1-.1-.64h0a3.19,3.19,0,0,1-.12.63L57,52.37h-.86l-1.85-6.3h.82l1.34,4.83a3.19,3.19,0,0,1,.1.63h0a4.18,4.18,0,0,1,.14-.63l1.39-4.83h.71l1.34,4.87a3.85,3.85,0,0,1,.1.58h0a3.13,3.13,0,0,1,.12-.6l1.29-4.85Z"/>
    <path class="cls-5" d="M67.06,50.3H63.89a1.66,1.66,0,0,0,.4,1.16,1.41,1.41,0,0,0,1.07.41,2.22,2.22,0,0,0,1.39-.5V52a2.59,2.59,0,0,1-1.57.43,1.88,1.88,0,0,1-1.49-.61,2.86,2.86,0,0,1,.05-3.44,1.9,1.9,0,0,1,1.48-.66,1.69,1.69,0,0,1,1.36.57,2.4,2.4,0,0,1,.48,1.59Zm-.73-.61a1.54,1.54,0,0,0-.3-1,1,1,0,0,0-.83-.35,1.15,1.15,0,0,0-.86.36,1.62,1.62,0,0,0-.44,1Z"/>
    <path class="cls-5" d="M69.05,51.72h0v.65h-.72V45.71H69v2.95h0a1.69,1.69,0,0,1,1.55-.9,1.64,1.64,0,0,1,1.36.61A2.52,2.52,0,0,1,72.45,50a2.8,2.8,0,0,1-.55,1.8,1.82,1.82,0,0,1-1.5.68A1.47,1.47,0,0,1,69.05,51.72Zm0-1.82v.63a1.36,1.36,0,0,0,.36.95,1.2,1.2,0,0,0,.92.39,1.22,1.22,0,0,0,1-.5,2.31,2.31,0,0,0,.37-1.4,1.84,1.84,0,0,0-.35-1.18,1.15,1.15,0,0,0-.94-.42,1.26,1.26,0,0,0-1,.44A1.61,1.61,0,0,0,69,49.9Z"/>
    <path class="cls-5" d="M76.06,50.14h-2.4v-.56h2.4Z"/>
    <path class="cls-5" d="M82.48,52.37h-.82L81,50.6H78.32l-.63,1.77h-.82l2.42-6.3h.76Zm-1.73-2.43-1-2.69a2.85,2.85,0,0,1-.09-.42h0a2.17,2.17,0,0,1-.1.42l-1,2.69Z"/>
    <path class="cls-5" d="M84.2,51.72h0v2.72h-.72V47.87h.72v.79h0a1.7,1.7,0,0,1,1.56-.9,1.61,1.61,0,0,1,1.35.61A2.47,2.47,0,0,1,87.6,50a2.74,2.74,0,0,1-.55,1.8,1.8,1.8,0,0,1-1.5.68A1.52,1.52,0,0,1,84.2,51.72Zm0-1.82v.63a1.36,1.36,0,0,0,.36.95,1.3,1.3,0,0,0,1.95-.11,2.31,2.31,0,0,0,.37-1.4,1.84,1.84,0,0,0-.34-1.18,1.17,1.17,0,0,0-.94-.42,1.28,1.28,0,0,0-1,.44A1.61,1.61,0,0,0,84.18,49.9Z"/>
    <path class="cls-5" d="M89.64,51.72h0v2.72h-.72V47.87h.72v.79h0a1.72,1.72,0,0,1,1.56-.9,1.64,1.64,0,0,1,1.36.61A2.52,2.52,0,0,1,93.05,50a2.8,2.8,0,0,1-.55,1.8,1.82,1.82,0,0,1-1.51.68A1.52,1.52,0,0,1,89.64,51.72Zm0-1.82v.63a1.36,1.36,0,0,0,.36.95,1.2,1.2,0,0,0,.92.39,1.22,1.22,0,0,0,1-.5,2.38,2.38,0,0,0,.37-1.4A1.84,1.84,0,0,0,92,48.79a1.16,1.16,0,0,0-.94-.42,1.24,1.24,0,0,0-1,.44A1.56,1.56,0,0,0,89.63,49.9Z"/>
  </g>
  <g>
    <path class="cls-5" d="M182.55,116.65v-6.3h1.74c2.22,0,3.33,1,3.33,3.07a3.08,3.08,0,0,1-.92,2.35,3.43,3.43,0,0,1-2.48.88Zm.74-5.63v5h.94a2.68,2.68,0,0,0,1.93-.67,2.48,2.48,0,0,0,.69-1.88c0-1.61-.86-2.42-2.57-2.42Z"/>
    <path class="cls-5" d="M192.14,116.65h-.72V116h0a1.5,1.5,0,0,1-1.38.81,1.45,1.45,0,0,1-1.05-.36,1.19,1.19,0,0,1-.38-.94c0-.84.49-1.33,1.48-1.47l1.35-.19c0-.76-.31-1.15-.93-1.15a2.19,2.19,0,0,0-1.46.56v-.74a2.78,2.78,0,0,1,1.52-.42q1.59,0,1.59,1.68Zm-.72-2.27-1.09.15a1.79,1.79,0,0,0-.75.24.73.73,0,0,0-.26.64.66.66,0,0,0,.24.53.9.9,0,0,0,.63.21,1.15,1.15,0,0,0,.88-.37,1.36,1.36,0,0,0,.35-1Z"/>
    <path class="cls-5" d="M197.27,114.58h-3.18a1.66,1.66,0,0,0,.41,1.16,1.35,1.35,0,0,0,1.06.41,2.19,2.19,0,0,0,1.4-.5v.68a2.61,2.61,0,0,1-1.57.43,1.92,1.92,0,0,1-1.5-.61,2.55,2.55,0,0,1-.55-1.73,2.44,2.44,0,0,1,.6-1.71,1.92,1.92,0,0,1,1.48-.66,1.71,1.71,0,0,1,1.37.57,2.4,2.4,0,0,1,.48,1.59Zm-.74-.61a1.44,1.44,0,0,0-.3-1,1,1,0,0,0-.83-.35,1.17,1.17,0,0,0-.86.37,1.65,1.65,0,0,0-.44,1Z"/>
    <path class="cls-5" d="M204.9,116.65h-.72v-2.58A2,2,0,0,0,204,113a.89.89,0,0,0-.78-.34.94.94,0,0,0-.78.43,1.57,1.57,0,0,0-.32,1v2.56h-.72V114c0-.88-.35-1.33-1-1.33a1,1,0,0,0-.78.4,1.63,1.63,0,0,0-.31,1v2.56h-.72v-4.5h.72v.72h0a1.52,1.52,0,0,1,1.4-.82,1.31,1.31,0,0,1,.8.25,1.3,1.3,0,0,1,.47.68,1.6,1.6,0,0,1,1.5-.93c1,0,1.48.61,1.48,1.83Z"/>
    <path class="cls-5" d="M208.3,116.76a2.1,2.1,0,0,1-1.6-.63,2.36,2.36,0,0,1-.59-1.67,2.47,2.47,0,0,1,.62-1.78,2.23,2.23,0,0,1,1.67-.63,2,2,0,0,1,1.57.62,2.8,2.8,0,0,1,0,3.44A2.15,2.15,0,0,1,208.3,116.76Zm0-4.11a1.37,1.37,0,0,0-1.1.48,1.93,1.93,0,0,0-.4,1.3,1.85,1.85,0,0,0,.4,1.26,1.4,1.4,0,0,0,1.1.46,1.31,1.31,0,0,0,1.07-.45,2,2,0,0,0,.38-1.29,2,2,0,0,0-.38-1.3A1.31,1.31,0,0,0,208.35,112.65Z"/>
    <path class="cls-5" d="M215.58,116.65h-.72v-2.56q0-1.44-1.05-1.44a1.12,1.12,0,0,0-.89.41,1.49,1.49,0,0,0-.36,1v2.56h-.72v-4.5h.72v.75h0a1.62,1.62,0,0,1,1.48-.85,1.41,1.41,0,0,1,1.13.47,2.14,2.14,0,0,1,.39,1.38Z"/>
    <path class="cls-5" d="M219.39,114.43H217v-.57h2.4Z"/>
    <path class="cls-5" d="M189.47,127.45h-.81l-.67-1.76h-2.67l-.63,1.76h-.82l2.41-6.3h.77ZM187.75,125l-1-2.68a2.61,2.61,0,0,1-.1-.42h0a1.73,1.73,0,0,1-.1.42l-1,2.68Z"/>
    <path class="cls-5" d="M191.29,125.07v2.38h-.74v-6.3h1.74a2.31,2.31,0,0,1,1.56.49,1.76,1.76,0,0,1,.56,1.39,1.92,1.92,0,0,1-.62,1.47,2.37,2.37,0,0,1-1.67.57Zm0-3.25v2.58h.78a1.68,1.68,0,0,0,1.16-.35,1.22,1.22,0,0,0,.4-1c0-.83-.49-1.25-1.47-1.25Z"/>
    <path class="cls-5" d="M196.49,127.45h-.74v-6.3h.74Z"/>
    <path class="cls-5" d="M200.5,125.23h-2.4v-.57h2.4Z"/>
    <path class="cls-5" d="M206.93,127.45h-.82l-.67-1.76h-2.67l-.63,1.76h-.82l2.42-6.3h.76ZM205.2,125l-1-2.68c0-.09-.06-.23-.1-.42h0a3.78,3.78,0,0,1-.1.42L203,125Z"/>
    <path class="cls-5" d="M208.65,126.8h0v2.72h-.72V123h.72v.79h0a1.7,1.7,0,0,1,1.55-.89,1.65,1.65,0,0,1,1.36.6,2.47,2.47,0,0,1,.49,1.62,2.83,2.83,0,0,1-.55,1.81,1.84,1.84,0,0,1-1.5.68A1.48,1.48,0,0,1,208.65,126.8Zm0-1.81v.63a1.33,1.33,0,0,0,.36.94,1.3,1.3,0,0,0,1.95-.11,2.27,2.27,0,0,0,.37-1.39,1.82,1.82,0,0,0-.35-1.18,1.15,1.15,0,0,0-.94-.43,1.29,1.29,0,0,0-1,.44A1.63,1.63,0,0,0,208.63,125Z"/>
    <path class="cls-5" d="M214.09,126.8h0v2.72h-.72V123h.72v.79h0a1.72,1.72,0,0,1,1.56-.89,1.63,1.63,0,0,1,1.35.6,2.47,2.47,0,0,1,.49,1.62,2.77,2.77,0,0,1-.55,1.81,1.82,1.82,0,0,1-1.5.68A1.51,1.51,0,0,1,214.09,126.8Zm0-1.81v.63a1.3,1.3,0,0,0,.37.94,1.29,1.29,0,0,0,1.94-.11,2.27,2.27,0,0,0,.37-1.39,1.82,1.82,0,0,0-.34-1.18,1.18,1.18,0,0,0-.94-.43,1.27,1.27,0,0,0-1,.44A1.59,1.59,0,0,0,214.07,125Z"/>
  </g>
  <g>
    <path class="cls-3" d="M55.52,116.65v-6.3h1.74c2.22,0,3.34,1,3.34,3.07a3.09,3.09,0,0,1-.93,2.35,3.43,3.43,0,0,1-2.48.88Zm.74-5.63v5h.94a2.68,2.68,0,0,0,1.93-.67,2.48,2.48,0,0,0,.69-1.88c0-1.61-.86-2.42-2.57-2.42Z"/>
    <path class="cls-3" d="M65.11,116.65h-.72V116h0a1.5,1.5,0,0,1-1.38.81,1.45,1.45,0,0,1-1.05-.36,1.19,1.19,0,0,1-.38-.94c0-.84.49-1.33,1.48-1.47l1.35-.19c0-.76-.31-1.15-.93-1.15a2.19,2.19,0,0,0-1.46.56v-.74a2.79,2.79,0,0,1,1.53-.42c1,0,1.58.56,1.58,1.68Zm-.72-2.27-1.08.15a1.79,1.79,0,0,0-.76.24.72.72,0,0,0-.25.64.66.66,0,0,0,.23.53.92.92,0,0,0,.63.21,1.15,1.15,0,0,0,.88-.37,1.36,1.36,0,0,0,.35-1Z"/>
    <path class="cls-3" d="M70.24,114.58H67.06a1.66,1.66,0,0,0,.41,1.16,1.35,1.35,0,0,0,1.06.41,2.19,2.19,0,0,0,1.4-.5v.68a2.61,2.61,0,0,1-1.57.43,1.92,1.92,0,0,1-1.5-.61,2.55,2.55,0,0,1-.55-1.73,2.44,2.44,0,0,1,.6-1.71,1.92,1.92,0,0,1,1.48-.66,1.71,1.71,0,0,1,1.37.57,2.4,2.4,0,0,1,.48,1.59ZM69.5,114a1.44,1.44,0,0,0-.3-1,1,1,0,0,0-.82-.35,1.19,1.19,0,0,0-.87.37,1.65,1.65,0,0,0-.44,1Z"/>
    <path class="cls-3" d="M77.87,116.65h-.72v-2.58a2,2,0,0,0-.23-1.08.87.87,0,0,0-.77-.34,1,1,0,0,0-.79.43,1.62,1.62,0,0,0-.32,1v2.56h-.72V114c0-.88-.34-1.33-1-1.33a1,1,0,0,0-.78.4,1.69,1.69,0,0,0-.31,1v2.56h-.72v-4.5h.72v.72h0a1.53,1.53,0,0,1,1.4-.82,1.28,1.28,0,0,1,1.27.93,1.61,1.61,0,0,1,1.5-.93c1,0,1.48.61,1.48,1.83Z"/>
    <path class="cls-3" d="M81.27,116.76a2.06,2.06,0,0,1-1.59-.63,2.33,2.33,0,0,1-.6-1.67,2.47,2.47,0,0,1,.62-1.78,2.23,2.23,0,0,1,1.67-.63,2,2,0,0,1,1.57.62,2.43,2.43,0,0,1,.57,1.72,2.4,2.4,0,0,1-.61,1.72A2.15,2.15,0,0,1,81.27,116.76Zm0-4.11a1.37,1.37,0,0,0-1.1.48,1.93,1.93,0,0,0-.4,1.3,1.81,1.81,0,0,0,.41,1.26,1.36,1.36,0,0,0,1.09.46,1.33,1.33,0,0,0,1.08-.45,2,2,0,0,0,.37-1.29,2,2,0,0,0-.37-1.3A1.33,1.33,0,0,0,81.32,112.65Z"/>
    <path class="cls-3" d="M88.55,116.65h-.72v-2.56q0-1.44-1-1.44a1.12,1.12,0,0,0-.89.41,1.49,1.49,0,0,0-.36,1v2.56h-.72v-4.5h.72v.75h0a1.62,1.62,0,0,1,1.48-.85,1.4,1.4,0,0,1,1.13.47,2.14,2.14,0,0,1,.39,1.38Z"/>
    <path class="cls-3" d="M92.36,114.43H90v-.57h2.4Z"/>
    <path class="cls-3" d="M47.42,127.45v-6.3h1.74q3.33,0,3.33,3.07a3.12,3.12,0,0,1-.92,2.35,3.45,3.45,0,0,1-2.48.88Zm.74-5.63v5h.94a2.68,2.68,0,0,0,1.93-.67,2.48,2.48,0,0,0,.69-1.88c0-1.61-.86-2.42-2.58-2.42Z"/>
    <path class="cls-3" d="M57.4,125.38H54.23a1.66,1.66,0,0,0,.4,1.16,1.36,1.36,0,0,0,1.06.41,2.17,2.17,0,0,0,1.4-.5v.68a2.59,2.59,0,0,1-1.57.43A2,2,0,0,1,54,127a2.54,2.54,0,0,1-.54-1.73,2.44,2.44,0,0,1,.6-1.71,1.88,1.88,0,0,1,1.47-.66,1.7,1.7,0,0,1,1.37.57A2.39,2.39,0,0,1,57.4,125Zm-.73-.61a1.5,1.5,0,0,0-.31-1,1,1,0,0,0-.82-.35,1.19,1.19,0,0,0-.87.37,1.64,1.64,0,0,0-.43,1Z"/>
    <path class="cls-3" d="M58.37,127.29v-.77a2.16,2.16,0,0,0,1.3.43c.63,0,.95-.21.95-.63a.62.62,0,0,0-.08-.31,1.14,1.14,0,0,0-.22-.22,1.69,1.69,0,0,0-.33-.17l-.4-.16a5.2,5.2,0,0,1-.52-.24,1.61,1.61,0,0,1-.38-.27,1.12,1.12,0,0,1-.23-.35,1.25,1.25,0,0,1-.08-.45,1,1,0,0,1,.15-.56,1.35,1.35,0,0,1,.38-.41,2,2,0,0,1,.56-.25,2.67,2.67,0,0,1,.64-.08,2.64,2.64,0,0,1,1,.2v.73a2,2,0,0,0-1.14-.33,1.38,1.38,0,0,0-.37,0,.75.75,0,0,0-.27.13.57.57,0,0,0-.18.2.46.46,0,0,0-.07.26.54.54,0,0,0,.07.29.6.6,0,0,0,.18.21,1.39,1.39,0,0,0,.3.17l.4.16.54.24a1.75,1.75,0,0,1,.4.27,1.1,1.1,0,0,1,.26.35,1.13,1.13,0,0,1,.09.47,1.09,1.09,0,0,1-.15.58,1.38,1.38,0,0,1-.39.41,1.81,1.81,0,0,1-.57.24,2.93,2.93,0,0,1-.67.08A2.57,2.57,0,0,1,58.37,127.29Z"/>
    <path class="cls-3" d="M66.35,127.45h-1l-2-2.16h0v2.16h-.72v-6.66h.72V125h0L65.25,123h.94l-2.09,2.17Z"/>
    <path class="cls-3" d="M69.33,127.41a1.42,1.42,0,0,1-.67.14c-.79,0-1.18-.44-1.18-1.32v-2.66h-.77V123h.77v-1.1l.72-.23V123h1.13v.62H68.2v2.53a1.07,1.07,0,0,0,.15.65.63.63,0,0,0,.51.19.75.75,0,0,0,.47-.15Z"/>
    <path class="cls-3" d="M72.33,127.56a2.06,2.06,0,0,1-1.59-.63,2.33,2.33,0,0,1-.6-1.67,2.47,2.47,0,0,1,.62-1.78,2.23,2.23,0,0,1,1.67-.63,2,2,0,0,1,1.58.62,2.47,2.47,0,0,1,.56,1.72,2.4,2.4,0,0,1-.61,1.72A2.13,2.13,0,0,1,72.33,127.56Zm0-4.11a1.37,1.37,0,0,0-1.1.48,1.93,1.93,0,0,0-.4,1.3,1.85,1.85,0,0,0,.41,1.26,1.36,1.36,0,0,0,1.09.46,1.33,1.33,0,0,0,1.08-.45,2,2,0,0,0,.37-1.29,2,2,0,0,0-.37-1.3A1.33,1.33,0,0,0,72.38,123.45Z"/>
    <path class="cls-3" d="M76.61,126.8h0v2.72h-.73V123h.73v.79h0a1.73,1.73,0,0,1,1.56-.89,1.66,1.66,0,0,1,1.36.6,2.52,2.52,0,0,1,.48,1.62,2.83,2.83,0,0,1-.54,1.81,1.85,1.85,0,0,1-1.51.68A1.51,1.51,0,0,1,76.61,126.8Zm0-1.81v.63a1.33,1.33,0,0,0,.36.94,1.2,1.2,0,0,0,.92.39,1.18,1.18,0,0,0,1-.5,2.27,2.27,0,0,0,.38-1.39,1.82,1.82,0,0,0-.35-1.18,1.17,1.17,0,0,0-.94-.43,1.27,1.27,0,0,0-1,.44A1.59,1.59,0,0,0,76.6,125Z"/>
    <path class="cls-3" d="M83.62,125.23h-2.4v-.57h2.4Z"/>
    <path class="cls-3" d="M90.05,127.45h-.82l-.67-1.76H85.89l-.63,1.76h-.82l2.41-6.3h.77ZM88.32,125l-1-2.68c0-.09-.06-.23-.1-.42h0a2.27,2.27,0,0,1-.11.42l-1,2.68Z"/>
    <path class="cls-3" d="M91.77,126.8h0v2.72H91V123h.72v.79h0a1.7,1.7,0,0,1,1.55-.89,1.65,1.65,0,0,1,1.36.6,2.47,2.47,0,0,1,.49,1.62,2.83,2.83,0,0,1-.55,1.81,1.84,1.84,0,0,1-1.5.68A1.48,1.48,0,0,1,91.77,126.8Zm0-1.81v.63a1.33,1.33,0,0,0,.36.94,1.3,1.3,0,0,0,2-.11,2.27,2.27,0,0,0,.37-1.39,1.82,1.82,0,0,0-.35-1.18,1.15,1.15,0,0,0-.94-.43,1.29,1.29,0,0,0-1,.44A1.63,1.63,0,0,0,91.75,125Z"/>
    <path class="cls-3" d="M97.21,126.8h0v2.72h-.72V123h.72v.79h0a1.72,1.72,0,0,1,1.56-.89,1.63,1.63,0,0,1,1.35.6,2.47,2.47,0,0,1,.49,1.62,2.77,2.77,0,0,1-.55,1.81,1.82,1.82,0,0,1-1.5.68A1.51,1.51,0,0,1,97.21,126.8Zm0-1.81v.63a1.3,1.3,0,0,0,.37.94,1.29,1.29,0,0,0,1.94-.11,2.27,2.27,0,0,0,.37-1.39,1.82,1.82,0,0,0-.34-1.18,1.17,1.17,0,0,0-.94-.43,1.27,1.27,0,0,0-1,.44A1.59,1.59,0,0,0,97.19,125Z"/>
  </g>
  <g>
    <path class="cls-5" d="M8.6,111.44a4.17,4.17,0,0,1-2.11.54,2.88,2.88,0,0,1-2.18-.87,3.22,3.22,0,0,1-.83-2.31,3.31,3.31,0,0,1,.92-2.4,3.19,3.19,0,0,1,2.35-.94,4.07,4.07,0,0,1,1.73.34v.82a3.27,3.27,0,0,0-1.81-.49,2.29,2.29,0,0,0-1.74.73,3,3,0,0,0,0,3.77,2.23,2.23,0,0,0,1.71.68A2.68,2.68,0,0,0,7.86,111v-1.77H6.48v-.67H8.6Z"/>
    <path class="cls-5" d="M13.59,109.8H10.41a1.71,1.71,0,0,0,.4,1.16,1.42,1.42,0,0,0,1.07.41,2.22,2.22,0,0,0,1.39-.5v.68a2.62,2.62,0,0,1-1.56.43,1.89,1.89,0,0,1-1.5-.62,2.85,2.85,0,0,1,0-3.43,1.9,1.9,0,0,1,1.48-.66,1.68,1.68,0,0,1,1.36.57,2.34,2.34,0,0,1,.49,1.58Zm-.74-.61a1.43,1.43,0,0,0-.3-1,1.05,1.05,0,0,0-.83-.35,1.12,1.12,0,0,0-.86.37,1.59,1.59,0,0,0-.44,1Z"/>
    <path class="cls-5" d="M18.41,111.87h-.72v-2.59c0-.94-.35-1.41-1-1.41a1.14,1.14,0,0,0-.89.41,1.51,1.51,0,0,0-.36,1v2.55h-.72v-6.66h.72v2.91h0a1.64,1.64,0,0,1,1.48-.85c1,0,1.52.61,1.52,1.83Z"/>
    <path class="cls-5" d="M23.39,109.8H20.21a1.71,1.71,0,0,0,.4,1.16,1.42,1.42,0,0,0,1.07.41,2.22,2.22,0,0,0,1.39-.5v.68a2.62,2.62,0,0,1-1.56.43,1.89,1.89,0,0,1-1.5-.62,2.85,2.85,0,0,1,0-3.43,1.9,1.9,0,0,1,1.48-.66,1.68,1.68,0,0,1,1.36.57,2.34,2.34,0,0,1,.49,1.58Zm-.74-.61a1.48,1.48,0,0,0-.3-1,1.05,1.05,0,0,0-.83-.35,1.12,1.12,0,0,0-.86.37,1.59,1.59,0,0,0-.44,1Z"/>
    <path class="cls-5" d="M24.85,106.23a.49.49,0,0,1-.33-.13.42.42,0,0,1-.14-.34.42.42,0,0,1,.14-.33.47.47,0,1,1,.33.8Zm.35,5.64h-.72v-4.5h.72Z"/>
    <path class="cls-5" d="M33.05,111.87h-.73v-2.58a1.88,1.88,0,0,0-.23-1.08.85.85,0,0,0-.77-.34,1,1,0,0,0-.79.42,1.67,1.67,0,0,0-.32,1v2.57h-.72V109.2c0-.89-.34-1.33-1-1.33a1,1,0,0,0-.79.4,1.68,1.68,0,0,0-.3,1v2.57h-.72v-4.5h.72v.71h0a1.54,1.54,0,0,1,1.4-.81,1.32,1.32,0,0,1,.81.25,1.38,1.38,0,0,1,.47.68,1.6,1.6,0,0,1,1.49-.93c1,0,1.49.61,1.49,1.83Z"/>
    <path class="cls-5" d="M38.14,111.87h-.72V109.3c0-1-.35-1.43-1-1.43a1.16,1.16,0,0,0-.9.41,1.52,1.52,0,0,0-.35,1v2.57h-.72v-4.5h.72v.75h0a1.61,1.61,0,0,1,1.47-.85,1.37,1.37,0,0,1,1.13.47,2.14,2.14,0,0,1,.39,1.38Z"/>
    <path class="cls-5" d="M39.87,106.23a.49.49,0,0,1-.33-.13.46.46,0,0,1-.14-.34.48.48,0,0,1,.47-.47.49.49,0,0,1,.34.14.48.48,0,0,1,0,.66A.49.49,0,0,1,39.87,106.23Zm.35,5.64H39.5v-4.5h.72Z"/>
    <path class="cls-5" d="M41.41,111.71v-.77a2.17,2.17,0,0,0,1.29.43c.64,0,.95-.21.95-.63a.53.53,0,0,0-.08-.31.66.66,0,0,0-.22-.22A1.91,1.91,0,0,0,43,110l-.4-.16a5.46,5.46,0,0,1-.53-.24,1.63,1.63,0,0,1-.38-.28,1,1,0,0,1-.23-.34,1.25,1.25,0,0,1-.07-.45,1.13,1.13,0,0,1,.14-.56,1.27,1.27,0,0,1,.39-.41,1.85,1.85,0,0,1,.55-.25,2.29,2.29,0,0,1,.64-.08,2.52,2.52,0,0,1,1,.2v.73a2.06,2.06,0,0,0-1.15-.33,1.36,1.36,0,0,0-.36,0,.8.8,0,0,0-.28.13.49.49,0,0,0-.18.2.54.54,0,0,0-.06.25.67.67,0,0,0,.06.3.54.54,0,0,0,.19.21,1.58,1.58,0,0,0,.29.17l.4.16a4.58,4.58,0,0,1,.54.24,1.75,1.75,0,0,1,.4.27.89.89,0,0,1,.26.35,1.13,1.13,0,0,1,.09.47,1.21,1.21,0,0,1-.14.58,1.3,1.3,0,0,1-.4.41,2.13,2.13,0,0,1-.57.24,2.86,2.86,0,0,1-.67.08A2.53,2.53,0,0,1,41.41,111.71Z"/>
  </g>
  <g>
    <path class="cls-5" d="M9.33,182.56a4.17,4.17,0,0,1-2.11.54A2.88,2.88,0,0,1,5,182.23a3.21,3.21,0,0,1-.83-2.3,3.28,3.28,0,0,1,.92-2.4,3.15,3.15,0,0,1,2.35-.94,4.08,4.08,0,0,1,1.73.33v.82a3.35,3.35,0,0,0-1.81-.48,2.25,2.25,0,0,0-1.74.73,3,3,0,0,0,0,3.76,2.2,2.2,0,0,0,1.71.69,2.56,2.56,0,0,0,1.27-.3v-1.76H7.21v-.67H9.33Z"/>
    <path class="cls-5" d="M14.32,180.92H11.14a1.69,1.69,0,0,0,.4,1.16,1.39,1.39,0,0,0,1.07.41A2.16,2.16,0,0,0,14,182v.68a2.55,2.55,0,0,1-1.56.43,1.89,1.89,0,0,1-1.5-.61,2.5,2.5,0,0,1-.55-1.73,2.44,2.44,0,0,1,.6-1.71,1.9,1.9,0,0,1,1.48-.66,1.68,1.68,0,0,1,1.36.57,2.35,2.35,0,0,1,.49,1.59Zm-.74-.61a1.46,1.46,0,0,0-.3-1,1,1,0,0,0-.83-.34,1.15,1.15,0,0,0-.86.36,1.59,1.59,0,0,0-.44.95Z"/>
    <path class="cls-5" d="M19.14,183h-.72v-2.6c0-.94-.35-1.4-1-1.4a1.13,1.13,0,0,0-.89.4,1.52,1.52,0,0,0-.36,1V183h-.72v-6.67h.72v2.91h0a1.64,1.64,0,0,1,1.48-.85c1,0,1.52.61,1.52,1.83Z"/>
    <path class="cls-5" d="M24.12,180.92H20.94a1.69,1.69,0,0,0,.4,1.16,1.39,1.39,0,0,0,1.07.41,2.16,2.16,0,0,0,1.39-.5v.68a2.55,2.55,0,0,1-1.56.43,1.89,1.89,0,0,1-1.5-.61,2.5,2.5,0,0,1-.55-1.73,2.44,2.44,0,0,1,.6-1.71,1.9,1.9,0,0,1,1.48-.66,1.69,1.69,0,0,1,1.36.57,2.35,2.35,0,0,1,.49,1.59Zm-.74-.61a1.52,1.52,0,0,0-.3-1,1,1,0,0,0-.83-.34,1.15,1.15,0,0,0-.86.36,1.59,1.59,0,0,0-.44.95Z"/>
    <path class="cls-5" d="M25.58,177.35a.44.44,0,0,1-.33-.13.42.42,0,0,1-.14-.33.42.42,0,0,1,.14-.34.48.48,0,0,1,.66,0,.46.46,0,0,1,.14.34.45.45,0,0,1-.14.33A.44.44,0,0,1,25.58,177.35Zm.35,5.65h-.72v-4.5h.72Z"/>
    <path class="cls-5" d="M33.78,183h-.73v-2.59a1.88,1.88,0,0,0-.23-1.08.87.87,0,0,0-.77-.33,1,1,0,0,0-.79.42,1.65,1.65,0,0,0-.32,1V183h-.72v-2.68q0-1.32-1-1.32a1,1,0,0,0-.79.39,1.69,1.69,0,0,0-.3,1V183h-.72v-4.5h.72v.71h0a1.53,1.53,0,0,1,1.4-.82,1.33,1.33,0,0,1,.81.26,1.35,1.35,0,0,1,.47.67,1.6,1.6,0,0,1,1.49-.93c1,0,1.49.61,1.49,1.83Z"/>
    <path class="cls-5" d="M38.87,183h-.72v-2.57c0-1-.35-1.43-1-1.43a1.15,1.15,0,0,0-.9.4,1.55,1.55,0,0,0-.35,1V183h-.72v-4.5h.72v.74h0a1.61,1.61,0,0,1,1.47-.85,1.38,1.38,0,0,1,1.13.48,2.09,2.09,0,0,1,.39,1.37Z"/>
    <path class="cls-5" d="M40.6,177.35a.44.44,0,0,1-.33-.13.45.45,0,0,1-.14-.33.46.46,0,0,1,.14-.34.44.44,0,0,1,.33-.13.48.48,0,0,1,.34.13.45.45,0,0,1,.13.34.44.44,0,0,1-.13.33A.48.48,0,0,1,40.6,177.35ZM41,183h-.72v-4.5H41Z"/>
    <path class="cls-5" d="M42.14,182.83v-.77a2.11,2.11,0,0,0,1.29.43c.64,0,1-.21,1-.63a.48.48,0,0,0-.08-.3.68.68,0,0,0-.22-.23,1.91,1.91,0,0,0-.32-.17l-.4-.16a5.46,5.46,0,0,1-.53-.24,1.61,1.61,0,0,1-.38-.27,1,1,0,0,1-.23-.35,1.25,1.25,0,0,1-.07-.45,1.13,1.13,0,0,1,.14-.56,1.38,1.38,0,0,1,.39-.41,1.85,1.85,0,0,1,.55-.25,2.74,2.74,0,0,1,.64-.08,2.69,2.69,0,0,1,1.05.2v.73a2.06,2.06,0,0,0-1.15-.32,1.37,1.37,0,0,0-.36,0,1,1,0,0,0-.28.13.57.57,0,0,0-.18.2.58.58,0,0,0-.06.26.62.62,0,0,0,.06.29.54.54,0,0,0,.19.21,1.17,1.17,0,0,0,.29.17l.4.16.54.24a1.75,1.75,0,0,1,.4.27,1,1,0,0,1,.26.35,1.13,1.13,0,0,1,.09.47,1.18,1.18,0,0,1-.14.58,1.21,1.21,0,0,1-.4.41A1.63,1.63,0,0,1,44,183a2.86,2.86,0,0,1-.67.08A2.53,2.53,0,0,1,42.14,182.83Z"/>
  </g>
  <g>
    <path class="cls-5" d="M9.33,34.25a4.26,4.26,0,0,1-2.11.53A2.88,2.88,0,0,1,5,33.91a3.2,3.2,0,0,1-.83-2.3,3.3,3.3,0,0,1,.92-2.4,3.15,3.15,0,0,1,2.35-.94,4.08,4.08,0,0,1,1.73.33v.82a3.35,3.35,0,0,0-1.81-.48,2.25,2.25,0,0,0-1.74.73A2.65,2.65,0,0,0,5,31.56a2.69,2.69,0,0,0,.63,1.88,2.23,2.23,0,0,0,1.71.68,2.68,2.68,0,0,0,1.27-.29V32.06H7.21v-.67H9.33Z"/>
    <path class="cls-5" d="M14.32,32.61H11.14a1.71,1.71,0,0,0,.4,1.16,1.42,1.42,0,0,0,1.07.41,2.22,2.22,0,0,0,1.39-.5v.67a2.55,2.55,0,0,1-1.56.43,1.89,1.89,0,0,1-1.5-.61A2.86,2.86,0,0,1,11,30.73a1.9,1.9,0,0,1,1.48-.66,1.68,1.68,0,0,1,1.36.57,2.35,2.35,0,0,1,.49,1.59ZM13.58,32a1.43,1.43,0,0,0-.3-1,1.05,1.05,0,0,0-.83-.35,1.15,1.15,0,0,0-.86.36,1.62,1.62,0,0,0-.44,1Z"/>
    <path class="cls-5" d="M19.14,34.68h-.72V32.09c0-.94-.35-1.41-1-1.41a1.11,1.11,0,0,0-.89.41,1.5,1.5,0,0,0-.36,1v2.55h-.72V28h.72v2.91h0a1.65,1.65,0,0,1,1.48-.86c1,0,1.52.61,1.52,1.83Z"/>
    <path class="cls-5" d="M24.12,32.61H20.94a1.71,1.71,0,0,0,.4,1.16,1.42,1.42,0,0,0,1.07.41,2.22,2.22,0,0,0,1.39-.5v.67a2.55,2.55,0,0,1-1.56.43,1.89,1.89,0,0,1-1.5-.61,2.86,2.86,0,0,1,.05-3.44,1.9,1.9,0,0,1,1.48-.66,1.69,1.69,0,0,1,1.36.57,2.35,2.35,0,0,1,.49,1.59ZM23.38,32a1.48,1.48,0,0,0-.3-1,1.05,1.05,0,0,0-.83-.35,1.15,1.15,0,0,0-.86.36A1.62,1.62,0,0,0,21,32Z"/>
    <path class="cls-5" d="M25.58,29a.45.45,0,0,1-.33-.14.4.4,0,0,1-.14-.33.44.44,0,0,1,.14-.34.48.48,0,0,1,.66,0,.48.48,0,0,1,.14.34.48.48,0,0,1-.47.47Zm.35,5.64h-.72v-4.5h.72Z"/>
    <path class="cls-5" d="M33.78,34.68h-.73V32.09A1.93,1.93,0,0,0,32.82,31a.87.87,0,0,0-.77-.33,1,1,0,0,0-.79.42,1.65,1.65,0,0,0-.32,1v2.57h-.72V32c0-.89-.34-1.33-1-1.33a1,1,0,0,0-.79.4,1.66,1.66,0,0,0-.3,1v2.57h-.72v-4.5h.72v.71h0a1.55,1.55,0,0,1,1.4-.82,1.33,1.33,0,0,1,.81.26,1.39,1.39,0,0,1,.47.67,1.6,1.6,0,0,1,1.49-.93c1,0,1.49.61,1.49,1.83Z"/>
    <path class="cls-5" d="M38.87,34.68h-.72V32.11c0-.95-.35-1.43-1-1.43a1.13,1.13,0,0,0-.9.41,1.52,1.52,0,0,0-.35,1v2.57h-.72v-4.5h.72v.75h0a1.62,1.62,0,0,1,1.47-.86,1.38,1.38,0,0,1,1.13.48,2.14,2.14,0,0,1,.39,1.38Z"/>
    <path class="cls-5" d="M40.6,29a.45.45,0,0,1-.33-.14.44.44,0,0,1-.14-.33.48.48,0,0,1,.14-.34.44.44,0,0,1,.33-.13.48.48,0,0,1,.34.13.47.47,0,0,1,.13.34.44.44,0,0,1-.13.33A.49.49,0,0,1,40.6,29ZM41,34.68h-.72v-4.5H41Z"/>
    <path class="cls-5" d="M42.14,34.52v-.78a2.12,2.12,0,0,0,1.29.44c.64,0,1-.21,1-.64a.48.48,0,0,0-.08-.3.66.66,0,0,0-.22-.22,1.92,1.92,0,0,0-.32-.18l-.4-.16a5.46,5.46,0,0,1-.53-.24,1.61,1.61,0,0,1-.38-.27,1,1,0,0,1-.23-.34,1.27,1.27,0,0,1-.07-.46,1.16,1.16,0,0,1,.14-.56,1.38,1.38,0,0,1,.39-.41,1.61,1.61,0,0,1,.55-.24,2.3,2.3,0,0,1,.64-.09,2.69,2.69,0,0,1,1.05.2V31a2.14,2.14,0,0,0-1.15-.32,1,1,0,0,0-.36.05,1,1,0,0,0-.28.12.6.6,0,0,0-.18.21.51.51,0,0,0-.06.25.67.67,0,0,0,.06.3.54.54,0,0,0,.19.21,1.15,1.15,0,0,0,.29.16l.4.17a4.61,4.61,0,0,1,.54.23,1.75,1.75,0,0,1,.4.27A1.06,1.06,0,0,1,45,33a1.27,1.27,0,0,1-.05,1,1.21,1.21,0,0,1-.4.41,1.63,1.63,0,0,1-.57.24,2.41,2.41,0,0,1-.67.08A2.65,2.65,0,0,1,42.14,34.52Z"/>
  </g>
  <g id="group1060-114-2" data-name="group1060-114">
    <g id="shape1061-115-2" data-name="shape1061-115">
      <path id="path1292-2" data-name="path1292" class="cls-6" d="M22.37,98.69H15.65a.59.59,0,0,1-.61-.57V91.68H17V89.91H29.4a.59.59,0,0,1,.62.57v.09a6.4,6.4,0,0,1,1,.33v-.42A1.53,1.53,0,0,0,29.4,89h-13l-2.34,2.2v6.9a1.51,1.51,0,0,0,1.57,1.46h7.28A5.8,5.8,0,0,1,22.37,98.69Z"/>
    </g>
    <g id="group1062-117-2" data-name="group1062-117">
      <g id="group1063-118-2" data-name="group1063-118">
        <g id="shape1064-119-2" data-name="shape1064-119">
          <path id="path1301-2" data-name="path1301" class="cls-6" d="M31,100.22l2.34,3.26-2.17-.54-.61,1.64-2.34-2.88-1.75,2.88-.8-1.74-2.17.54L25.65,100s.58.92,2.69.92S31,100.22,31,100.22Z"/>
        </g>
      </g>
      <g id="group1065-121-2" data-name="group1065-121">
        <g id="shape1066-122-2" data-name="shape1066-122">
          <path id="path1309-2" data-name="path1309" class="cls-6" d="M28.43,99.63a3.43,3.43,0,1,1,3.72-3.41A3.58,3.58,0,0,1,28.43,99.63Zm0-6.06a2.66,2.66,0,1,0,2.9,2.65A2.78,2.78,0,0,0,28.43,93.57Z"/>
        </g>
      </g>
      <g id="group1067-124-2" data-name="group1067-124">
        <g id="shape1068-125-2" data-name="shape1068-125">
          <path id="path1317-2" data-name="path1317" class="cls-6" d="M28.43,101.44a5.24,5.24,0,1,1,0-10.45,5.24,5.24,0,1,1,0,10.45Zm0-9.69a4.48,4.48,0,1,0,0,8.93,4.48,4.48,0,1,0,0-8.93Z"/>
        </g>
      </g>
    </g>
  </g>
  <g id="group1060-114-3" data-name="group1060-114">
    <g id="shape1061-115-3" data-name="shape1061-115">
      <path id="path1292-3" data-name="path1292" class="cls-6" d="M22.37,21.52H15.65A.59.59,0,0,1,15,21V14.51H17V12.74H29.4a.59.59,0,0,1,.62.57v.09a6.4,6.4,0,0,1,1,.33v-.42a1.53,1.53,0,0,0-1.58-1.46h-13l-2.34,2.2V21a1.51,1.51,0,0,0,1.57,1.46h7.28A5.8,5.8,0,0,1,22.37,21.52Z"/>
    </g>
    <g id="group1062-117-3" data-name="group1062-117">
      <g id="group1063-118-3" data-name="group1063-118">
        <g id="shape1064-119-3" data-name="shape1064-119">
          <path id="path1301-3" data-name="path1301" class="cls-6" d="M31,23.05l2.34,3.26-2.17-.54-.61,1.64-2.34-2.88-1.75,2.88-.8-1.74-2.17.54,2.14-3.42s.58.92,2.69.92S31,23.05,31,23.05Z"/>
        </g>
      </g>
      <g id="group1065-121-3" data-name="group1065-121">
        <g id="shape1066-122-3" data-name="shape1066-122">
          <path id="path1309-3" data-name="path1309" class="cls-6" d="M28.43,22.45A3.58,3.58,0,0,1,24.72,19a3.73,3.73,0,0,1,7.43,0A3.58,3.58,0,0,1,28.43,22.45Zm0-6.06A2.78,2.78,0,0,0,25.54,19a2.91,2.91,0,0,0,5.79,0A2.79,2.79,0,0,0,28.43,16.39Z"/>
        </g>
      </g>
      <g id="group1067-124-3" data-name="group1067-124">
        <g id="shape1068-125-3" data-name="shape1068-125">
          <path id="path1317-3" data-name="path1317" class="cls-6" d="M28.43,24.27a5.48,5.48,0,0,1-5.7-5.22,5.48,5.48,0,0,1,5.7-5.23,5.48,5.48,0,0,1,5.69,5.23A5.47,5.47,0,0,1,28.43,24.27Zm0-9.69a4.7,4.7,0,0,0-4.88,4.47,4.69,4.69,0,0,0,4.88,4.46,4.68,4.68,0,0,0,4.87-4.46A4.69,4.69,0,0,0,28.43,14.58Z"/>
        </g>
      </g>
    </g>
  </g>
  <g>
    <g id="group1113-2">
      <g id="shape1114-3">
        <path id="path21" class="cls-5" d="M80.65,24.41a11.81,11.81,0,0,1-16.84-2.29A12.56,12.56,0,0,1,66.05,4.83a11.82,11.82,0,0,1,16.84,2.3A12.54,12.54,0,0,1,80.65,24.41ZM84.31,6A13.57,13.57,0,0,0,65,3.37,14.43,14.43,0,0,0,62.4,23.24a13.62,13.62,0,0,0,11,5.55,13.45,13.45,0,0,0,8.39-2.92A14.44,14.44,0,0,0,84.31,6Z"/>
      </g>
    </g>
    <g id="group1115-5">
      <g id="group1116-6">
        <g id="group1117-7">
          <g id="shape1118-8">
            <path id="path33" class="cls-5" d="M66.68,17.19a17,17,0,0,1-2-2.35,18.28,18.28,0,0,0-1.66,6.88c.11.16.11.29.23.44a12.55,12.55,0,0,0,2,2.05A14.13,14.13,0,0,1,66.68,17.19Z"/>
          </g>
        </g>
        <g id="shape1119-10">
          <path id="path39" class="cls-5" d="M71.29,7.75a21,21,0,0,0-3.33,3,15.71,15.71,0,0,0-1.61,2,15.42,15.42,0,0,0,1.9,2.46,16.32,16.32,0,0,1,2.2-2.56,26.47,26.47,0,0,1,3.13-2.61C72.78,9.31,72,8.54,71.29,7.75Z"/>
        </g>
        <g id="group1120-12">
          <g id="shape1121-13">
            <path id="path46" class="cls-5" d="M82.76,7A12,12,0,0,0,81,5.13a12.53,12.53,0,0,0-8,1.53c.76.84,1.51,1.63,2.24,2.36C79.63,6.59,82.76,7,82.76,7Z"/>
          </g>
        </g>
        <g id="group1122-15">
          <g id="shape1123-16">
            <path id="path54" class="cls-5" d="M65,15a19.82,19.82,0,0,1,1.19-2.06,9.84,9.84,0,0,1-1.6-6.79,13.09,13.09,0,0,0-1.29,1.6C62.87,9.34,62.85,11.9,65,15Z"/>
          </g>
        </g>
        <g id="group1124-18">
          <g id="shape1125-19">
            <path id="path62" class="cls-5" d="M70.52,17.37a21.6,21.6,0,0,1-2.27-2.14,14.25,14.25,0,0,0-1.14,1.95,23.54,23.54,0,0,0,2.09,1.91,19.12,19.12,0,0,0,12.56,4.38,9,9,0,0,0,1.54-1.94C82.07,21.79,76.81,22.48,70.52,17.37Z"/>
          </g>
        </g>
        <g id="group1126-21">
          <g id="shape1127-22">
            <path id="path70" class="cls-5" d="M65.16,14.83a15.72,15.72,0,0,0,2,2.35,15.36,15.36,0,0,1,1.14-1.95,15.42,15.42,0,0,1-1.9-2.46A15.58,15.58,0,0,0,65.16,14.83Z"/>
          </g>
        </g>
        <g id="group1128-24">
          <g id="shape1129-25">
            <path id="path78" class="cls-5" d="M73.58,10.07a97,97,0,0,0,11.15,8.82,9.82,9.82,0,0,0,.33-1.05A95.51,95.51,0,0,1,75.23,9Q74.44,9.47,73.58,10.07Z"/>
          </g>
        </g>
        <g id="group1130-27">
          <g id="shape1131-28">
            <path id="path86" class="cls-5" d="M73,6.66q-1.65-1.77-3.36-3.8A10.05,10.05,0,0,0,68,3.52a26.3,26.3,0,0,0,3.24,4.22A17.22,17.22,0,0,1,73,6.66Z"/>
          </g>
        </g>
        <g id="shape1132-30">
          <path id="path92" class="cls-5" d="M73.06,6.62a18.74,18.74,0,0,0-1.87,1.19c.72.78,1.45,1.59,2.25,2.35.57-.4,1.34-.88,1.87-1.18C74.57,8.25,73.82,7.46,73.06,6.62Z"/>
        </g>
        <g id="shape1133-32">
          <path id="path97" class="cls-5" d="M72.86,6.52a16.24,16.24,0,0,0-1.67,1.12c.72.79,1.74,1.81,2.54,2.57.57-.4,1-.8,1.58-1.11C74.57,8.38,73.61,7.35,72.86,6.52Z"/>
        </g>
      </g>
      <g id="group1134-34">
        <g id="shape1135-35">
          <path id="path105" class="cls-5" d="M78.92,13.07a2.7,2.7,0,0,0-.48,3.7,2.56,2.56,0,0,0,3.63.51,2.72,2.72,0,0,0,.48-3.72A2.55,2.55,0,0,0,78.92,13.07Z"/>
        </g>
      </g>
      <g id="group1136-37">
        <g id="shape1137-38">
          <path id="path113" class="cls-5" d="M73.75,19.2a2.52,2.52,0,0,0-.45,3.44,2.37,2.37,0,0,0,3.36.45,2.49,2.49,0,0,0,.44-3.43A2.36,2.36,0,0,0,73.75,19.2Z"/>
        </g>
      </g>
      <g id="group1138-40">
        <g id="shape1139-41">
          <path id="path121" class="cls-5" d="M64.6,11.87a3.79,3.79,0,0,0-.68,5.21,3.58,3.58,0,0,0,5.1.7,3.8,3.8,0,0,0,.67-5.23A3.59,3.59,0,0,0,64.6,11.87Z"/>
        </g>
      </g>
    </g>
  </g>
  <g>
    <g>
      <path class="cls-9" d="M107,154V131.82C107,113.88,106,92,144,92"/>
      <path class="cls-9" d="M87.59,165.63h8.24c6.36,0,11.15-3.46,11.15-9.41v-16.7"/>
    </g>
    <g>
      <path class="cls-9" d="M106.19,29.55V51.92c0,18.06-1,40.08,37,40.08"/>
      <path class="cls-9" d="M89.12,16.36h7.26c5.59,0,9.81,3.67,9.81,10V44.08"/>
    </g>
    <g>
      <g id="shape1048-85">
        <g id="use1001">
          <g id="lend5">
            <path id="path998" class="cls-10" d="M181,87.78l8,4-8,4a9,9,0,0,0,0-8"/>
          </g>
        </g>
      </g>
      <g id="shape1049-91">
        <path class="cls-10" d="M181,87.79l8,4-8,4a9,9,0,0,0,0-8"/>
      </g>
      <g id="shape1070-129">
        <path class="cls-10" d="M181,87.79l8,4-8,4a9.06,9.06,0,0,0,0-8"/>
      </g>
      <rect class="cls-11" x="91.55" y="91.49" width="91.09" height="1" rx="0.42"/>
    </g>
  </g>
</svg>
