<svg id="svg111" xmlns="http://www.w3.org/2000/svg" viewBox="0 0 204.7 66.2">
  <defs>
    <style>
      .cls-1 {
        fill: #007efd;
      }

      .cls-2, .cls-9 {
        fill: none;
      }

      .cls-3 {
        isolation: isolate;
      }

      .cls-4, .cls-5 {
        fill: #008bfd;
      }

      .cls-5 {
        stroke: gray;
        stroke-linejoin: round;
        stroke-width: 0.75px;
      }

      .cls-5, .cls-9 {
        stroke-linecap: round;
      }

      .cls-6 {
        fill: #fff;
      }

      .cls-7 {
        fill: #00b0f0;
      }

      .cls-8 {
        fill: #505050;
      }

      .cls-9 {
        stroke: #505050;
        stroke-miterlimit: 10;
        stroke-width: 1.91px;
      }
    </style>
  </defs>
  <title>OJ104546516</title>
  <g id="group1195-2">
    <g id="shape1200-7">
      <path id="path33" class="cls-1" d="M69.65,9.3h-6.1a.46.46,0,0,0-.4.5V12a.43.43,0,0,0,.4.4h3.5v3.4a.43.43,0,0,0,.4.4h2.2a.37.37,0,0,0,.4-.4v-6A.46.46,0,0,0,69.65,9.3Zm-17.2,21H49V26.9a.46.46,0,0,0-.5-.4h-2.2a.37.37,0,0,0-.4.4v6a.43.43,0,0,0,.4.4h6.1a.46.46,0,0,0,.4-.5V30.6C52.85,30.5,52.65,30.3,52.45,30.3Zm13.6-3.7c-.2,0-.3,0-.4.1l-2.3-4.1a2.76,2.76,0,0,0-1.9-4.8,3.59,3.59,0,0,0-1.1.2l-2.6-3.4a2,2,0,0,0,.5-1.5A2.26,2.26,0,0,0,56,10.8a2.3,2.3,0,0,0,0,4.6,2.35,2.35,0,0,0,.8-.2l2.5,3.5a3.09,3.09,0,0,0-.7,1.4l-7.2.6a1.82,1.82,0,0,0-1.7-1,1.9,1.9,0,0,0,0,3.8,2,2,0,0,0,1.9-1.6l7.1-.6a4.73,4.73,0,0,0,.7,1.2l-1.8,2.9h-.2a1.9,1.9,0,0,0,0,3.8,1.91,1.91,0,0,0,1.4-3.2l1.7-2.9a3,3,0,0,0,1,.2,2.35,2.35,0,0,0,.8-.2l2.3,4.1a2.36,2.36,0,0,0-.7,1.6,2.2,2.2,0,1,0,2.2-2.2Z"/>
    </g>
  </g>
  <rect class="cls-2" x="26.2" y="38.6" width="64.6" height="24.2"/>
  <g id="Brows..." class="cls-3">
    <g class="cls-3">
      <path class="cls-1" d="M36.51,47.26a3.07,3.07,0,0,1-2.39-1,3.65,3.65,0,0,1-.89-2.55,3.85,3.85,0,0,1,.91-2.7,3.2,3.2,0,0,1,2.49-1A3,3,0,0,1,39,41a3.68,3.68,0,0,1,.89,2.56,3.86,3.86,0,0,1-.91,2.71A3.12,3.12,0,0,1,36.51,47.26Zm.06-6.49a2.25,2.25,0,0,0-1.79.79,3.55,3.55,0,0,0,0,4.18,2.21,2.21,0,0,0,1.75.79,2.32,2.32,0,0,0,1.82-.76,3.07,3.07,0,0,0,.66-2.1,3.18,3.18,0,0,0-.64-2.14A2.21,2.21,0,0,0,36.57,40.77Z"/>
      <path class="cls-1" d="M45.27,47.15h-.8V44.27c0-1.05-.39-1.57-1.16-1.57a1.28,1.28,0,0,0-1,.45,1.69,1.69,0,0,0-.4,1.16v2.84h-.8V39.74h.8V43h0A1.8,1.8,0,0,1,43.58,42c1.13,0,1.69.68,1.69,2Z"/>
      <path class="cls-1" d="M50.93,47.15h-.8V44.29c0-1.06-.39-1.59-1.16-1.59a1.27,1.27,0,0,0-1,.45,1.71,1.71,0,0,0-.39,1.14v2.86h-.8v-5h.8V43h0A1.79,1.79,0,0,1,49.24,42a1.53,1.53,0,0,1,1.25.53,2.35,2.35,0,0,1,.44,1.53Z"/>
      <path class="cls-1" d="M56.46,44.85H52.93a1.87,1.87,0,0,0,.45,1.29,1.54,1.54,0,0,0,1.18.45A2.46,2.46,0,0,0,56.11,46v.75a2.89,2.89,0,0,1-1.74.48,2.09,2.09,0,0,1-1.67-.68,2.79,2.79,0,0,1-.6-1.91,2.76,2.76,0,0,1,.66-1.91A2.12,2.12,0,0,1,54.4,42a1.9,1.9,0,0,1,1.52.63,2.66,2.66,0,0,1,.54,1.77Zm-.82-.68a1.68,1.68,0,0,0-.34-1.08,1.12,1.12,0,0,0-.91-.39,1.32,1.32,0,0,0-1,.41,1.83,1.83,0,0,0-.48,1.06Z"/>
      <path class="cls-1" d="M60.51,47.15v-7h2a2.18,2.18,0,0,1,1.44.45,1.44,1.44,0,0,1,.53,1.16,1.73,1.73,0,0,1-.32,1,1.82,1.82,0,0,1-.89.63v0A1.75,1.75,0,0,1,64.4,44a1.65,1.65,0,0,1,.43,1.17,1.84,1.84,0,0,1-.65,1.46,2.41,2.41,0,0,1-1.63.56Zm.82-6.26v2.26h.84a1.56,1.56,0,0,0,1.06-.33,1.11,1.11,0,0,0,.39-.91c0-.68-.45-1-1.34-1Zm0,3V46.4h1.12a1.67,1.67,0,0,0,1.12-.34,1.19,1.19,0,0,0,.4-.94c0-.82-.57-1.24-1.69-1.24Z"/>
      <path class="cls-1" d="M68.75,43a1,1,0,0,0-.61-.16,1,1,0,0,0-.86.48,2.23,2.23,0,0,0-.34,1.32v2.55h-.8v-5h.8v1h0a1.74,1.74,0,0,1,.52-.83,1.24,1.24,0,0,1,.79-.29,1.22,1.22,0,0,1,.48.07Z"/>
      <path class="cls-1" d="M71.71,47.26a2.31,2.31,0,0,1-1.77-.7,2.54,2.54,0,0,1-.67-1.86,2.68,2.68,0,0,1,.69-2A2.49,2.49,0,0,1,71.82,42a2.25,2.25,0,0,1,1.75.69,2.72,2.72,0,0,1,.63,1.91,2.69,2.69,0,0,1-.68,1.91A2.37,2.37,0,0,1,71.71,47.26Zm.05-4.56a1.53,1.53,0,0,0-1.22.53,2.15,2.15,0,0,0-.45,1.45,2.07,2.07,0,0,0,.46,1.4,1.54,1.54,0,0,0,1.21.51,1.49,1.49,0,0,0,1.2-.5,2.2,2.2,0,0,0,.42-1.43A2.22,2.22,0,0,0,73,43.21,1.47,1.47,0,0,0,71.76,42.7Z"/>
      <path class="cls-1" d="M81.77,42.15l-1.5,5h-.83l-1-3.58a2.93,2.93,0,0,1-.07-.47h0a2.27,2.27,0,0,1-.11.46L77.1,47.15h-.81l-1.51-5h.84l1,3.76a2.22,2.22,0,0,1,.06.44h0a2,2,0,0,1,.09-.45L78,42.15h.74l1,3.77a2.39,2.39,0,0,1,.07.44h0a2.29,2.29,0,0,1,.09-.44l1-3.77Z"/>
      <path class="cls-1" d="M82.4,47v-.86a2.35,2.35,0,0,0,1.44.48c.7,0,1-.24,1-.7a.59.59,0,0,0-.09-.34.82.82,0,0,0-.24-.25,1.52,1.52,0,0,0-.36-.19l-.45-.18a5.37,5.37,0,0,1-.58-.27,1.74,1.74,0,0,1-.42-.3,1.22,1.22,0,0,1-.26-.38,1.56,1.56,0,0,1-.08-.51,1.17,1.17,0,0,1,.16-.62A1.42,1.42,0,0,1,83,42.4a1.79,1.79,0,0,1,.61-.28,3,3,0,0,1,1.87.13v.81a2.25,2.25,0,0,0-1.27-.36,1.62,1.62,0,0,0-.4,0,1.28,1.28,0,0,0-.31.15.6.6,0,0,0-.2.22.57.57,0,0,0-.07.29.63.63,0,0,0,.07.32.79.79,0,0,0,.21.24,1.29,1.29,0,0,0,.33.18l.44.18.6.27a1.77,1.77,0,0,1,.45.3,1.08,1.08,0,0,1,.28.39,1.18,1.18,0,0,1,.1.52,1.19,1.19,0,0,1-.16.64,1.29,1.29,0,0,1-.44.46,2,2,0,0,1-.63.27,3.5,3.5,0,0,1-.74.08A2.94,2.94,0,0,1,82.4,47Z"/>
      <path class="cls-1" d="M91,44.85H87.43a2,2,0,0,0,.45,1.29,1.56,1.56,0,0,0,1.18.45A2.49,2.49,0,0,0,90.62,46v.75a2.9,2.9,0,0,1-1.75.48,2.09,2.09,0,0,1-1.66-.68,3.19,3.19,0,0,1,.05-3.82A2.14,2.14,0,0,1,88.91,42a1.9,1.9,0,0,1,1.52.63A2.71,2.71,0,0,1,91,44.43Zm-.82-.68a1.62,1.62,0,0,0-.33-1.08,1.14,1.14,0,0,0-.92-.39,1.3,1.3,0,0,0-1,.41,1.84,1.84,0,0,0-.49,1.06Z"/>
      <path class="cls-1" d="M94.78,43a1,1,0,0,0-.6-.16,1,1,0,0,0-.86.48A2.22,2.22,0,0,0,93,44.6v2.55h-.8v-5H93v1h0a1.76,1.76,0,0,1,.53-.83,1.2,1.2,0,0,1,.78-.29,1.22,1.22,0,0,1,.48.07Z"/>
    </g>
    <g class="cls-3">
      <path class="cls-1" d="M55.71,59.15H54.8l-.74-2h-3l-.7,2h-.91l2.68-7H53Zm-1.92-2.7-1.1-3a2.75,2.75,0,0,1-.11-.47h0a2.53,2.53,0,0,1-.11.47l-1.09,3Z"/>
      <path class="cls-1" d="M57.45,58.42h0v3h-.8v-7.3h.8V55h0a1.89,1.89,0,0,1,1.73-1,1.83,1.83,0,0,1,1.51.67,2.8,2.8,0,0,1,.54,1.8,3.07,3.07,0,0,1-.61,2,2,2,0,0,1-1.67.75A1.67,1.67,0,0,1,57.45,58.42Zm0-2v.69a1.49,1.49,0,0,0,.4,1.06,1.37,1.37,0,0,0,1,.43A1.36,1.36,0,0,0,60,58a2.57,2.57,0,0,0,.41-1.55,2,2,0,0,0-.39-1.3,1.25,1.25,0,0,0-1-.48,1.39,1.39,0,0,0-1.12.49A1.75,1.75,0,0,0,57.43,56.41Z"/>
      <path class="cls-1" d="M63.33,58.42h0v3h-.8v-7.3h.8V55h0a1.89,1.89,0,0,1,1.73-1,1.83,1.83,0,0,1,1.51.67,2.8,2.8,0,0,1,.54,1.8,3.13,3.13,0,0,1-.61,2,2,2,0,0,1-1.67.75A1.67,1.67,0,0,1,63.33,58.42Zm0-2v.69a1.49,1.49,0,0,0,.4,1.06,1.37,1.37,0,0,0,1,.43A1.36,1.36,0,0,0,65.88,58a2.57,2.57,0,0,0,.41-1.55,2,2,0,0,0-.39-1.3,1.25,1.25,0,0,0-1-.48,1.42,1.42,0,0,0-1.13.49A1.79,1.79,0,0,0,63.31,56.41Z"/>
    </g>
  </g>
  <g id="group1201-12">
    <g id="group1202-13">
      <g id="group1203-14">
        <g id="group1204-15">
          <g id="shape1205-16">
            <path id="path53" class="cls-4" d="M7.83,13.64a4.6,4.6,0,0,0-3,5.7c.7,2.6,3,4.2,5.3,3.7a4.6,4.6,0,0,0,3-5.7C12.53,14.64,10.13,12.94,7.83,13.64Z"/>
          </g>
        </g>
        <g id="group1206-18">
          <g id="shape1207-19">
            <path id="path61" class="cls-4" d="M12.77,23.61c-.39,0-.89.8-1.5,1.1a2.88,2.88,0,0,1-3.2,0C6.17,23.81,6,23,4.47,23S.38,25.81.38,29.91H16a11.38,11.38,0,0,0-1.1-4.2C13.77,23.61,13.27,23.61,12.77,23.61Z"/>
          </g>
        </g>
      </g>
    </g>
    <g id="group1208-21">
      <g id="shape1209-22">
        <path id="path71" class="cls-5" d="M14.22,18.65h-4.1a.67.67,0,0,0-.6.7v2.8a.77.77,0,0,0,.8.7h.8V28a1,1,0,0,0,1,1.1.94.94,0,0,0,1-1h.2v-.7c0-.2.3-.3.3-.3v-.3c-.3-.1-.5-.3-.5-.4v-.3l.2-.2c-.1-.2.1-.6.1-.6a2.19,2.19,0,0,1-.3-.5c-.1-.1-.1-.3-.2-.4v-.2a2.75,2.75,0,0,1,.7-1.2h.5c.3,0,.7-.3.7-.6v-3A.66.66,0,0,0,14.22,18.65Zm-2.4,9.6c0,.2,0,.3-.2.3s-.2-.2-.2-.3v-4.8c0-.2.1-.3.2-.3s.2.2.2.3Zm.3-7.8a.7.7,0,0,1,0-1.4.67.67,0,0,1,.6.7A.56.56,0,0,1,12.12,20.45Z"/>
      </g>
      <g id="shape1210-24">
        <path id="path76" class="cls-6" d="M11.55,28.48a.22.22,0,0,1-.2-.2v-5a.2.2,0,0,1,.4,0v5.1C11.75,28.48,11.65,28.48,11.55,28.48Z"/>
      </g>
      <g id="shape1211-26">
        <circle id="ellipse81" class="cls-6" cx="12.18" cy="19.78" r="0.7"/>
      </g>
    </g>
  </g>
  <path id="path90" class="cls-4" d="M191.8,8.2H171.3a1.11,1.11,0,0,0-1.1,1.1V26a1.11,1.11,0,0,0,1.1,1.1h5.3a3.35,3.35,0,1,0,3.2-4.5,3.24,3.24,0,0,0-3.2,2.3h-4.2V13h18.3V25h-3.4a7.64,7.64,0,0,0-7.5-6.6,8.7,8.7,0,0,0-3.6.9l1,2a5.59,5.59,0,0,1,2.6-.7,5.53,5.53,0,0,1,5.4,5.5,5.46,5.46,0,0,1-5.4,5.5,4.84,4.84,0,0,1-2.6-.7l-1,2a7.58,7.58,0,0,0,11.1-5.7h4.6a1.11,1.11,0,0,0,1.1-1.1V9.3A1.38,1.38,0,0,0,191.8,8.2Z"/>
  <g id="text92" class="cls-3">
    <path class="cls-4" d="M170,46.72h-.91l-.74-2h-3l-.7,2h-.91l2.68-7h.85ZM168.1,44,167,41a2.75,2.75,0,0,1-.11-.47h0a2.53,2.53,0,0,1-.11.47l-1.09,3Z"/>
    <path class="cls-4" d="M171.87,44.07v2.65h-.82v-7H173a2.56,2.56,0,0,1,1.74.55,1.93,1.93,0,0,1,.62,1.54,2.1,2.1,0,0,1-.69,1.63,2.57,2.57,0,0,1-1.85.64Zm0-3.61v2.87h.86a1.89,1.89,0,0,0,1.29-.39,1.38,1.38,0,0,0,.45-1.1c0-.92-.55-1.38-1.64-1.38Z"/>
    <path class="cls-4" d="M177.47,46.72h-.82v-7h.82Z"/>
    <path class="cls-4" d="M181.76,44.25H179.1v-.63h2.66Z"/>
    <path class="cls-4" d="M188.73,46.72h-.91l-.74-2h-3l-.7,2h-.91l2.68-7H186ZM186.81,44l-1.1-3a4.26,4.26,0,0,1-.11-.47h0a2.53,2.53,0,0,1-.11.47l-1.09,3Z"/>
    <path class="cls-4" d="M190.47,46h0v3h-.8v-7.3h.8v.88h0a1.89,1.89,0,0,1,1.73-1,1.82,1.82,0,0,1,1.51.67,2.8,2.8,0,0,1,.54,1.8,3.07,3.07,0,0,1-.61,2,2,2,0,0,1-1.67.75A1.67,1.67,0,0,1,190.47,46Zm0-2v.7a1.49,1.49,0,0,0,.41,1,1.3,1.3,0,0,0,1,.43A1.36,1.36,0,0,0,193,45.6a2.56,2.56,0,0,0,.41-1.54,2,2,0,0,0-.38-1.31,1.28,1.28,0,0,0-1.05-.48,1.4,1.4,0,0,0-1.12.49A1.75,1.75,0,0,0,190.45,44Z"/>
    <path class="cls-4" d="M196.35,46h0v3h-.8v-7.3h.8v.88h0a1.89,1.89,0,0,1,1.73-1,1.83,1.83,0,0,1,1.51.67,2.8,2.8,0,0,1,.54,1.8,3.07,3.07,0,0,1-.61,2,2,2,0,0,1-1.67.75A1.67,1.67,0,0,1,196.35,46Zm0-2v.7a1.53,1.53,0,0,0,.4,1,1.34,1.34,0,0,0,1,.43,1.36,1.36,0,0,0,1.14-.56,2.56,2.56,0,0,0,.41-1.54,2,2,0,0,0-.39-1.31,1.25,1.25,0,0,0-1-.48,1.39,1.39,0,0,0-1.12.49A1.75,1.75,0,0,0,196.33,44Z"/>
  </g>
  <g id="shape1214-37">
    <rect id="rect104" class="cls-2" x="73.89" y="0.42" width="90.4" height="20"/>
    <g id="text106" class="cls-3">
      <path class="cls-7" d="M89.06,12.9a4.73,4.73,0,0,1-2.34.59,3.16,3.16,0,0,1-2.42-1A3.51,3.51,0,0,1,83.37,10a3.61,3.61,0,0,1,1-2.67,3.47,3.47,0,0,1,2.6-1,4.38,4.38,0,0,1,1.92.37v.9a3.72,3.72,0,0,0-2-.53A2.52,2.52,0,0,0,85,7.81a3,3,0,0,0-.75,2.1,3,3,0,0,0,.7,2.09,2.46,2.46,0,0,0,1.89.75,3,3,0,0,0,1.42-.32v-2H86.71V9.72h2.35Z"/>
      <path class="cls-7" d="M94.6,11.07H91.07a1.83,1.83,0,0,0,.45,1.29,1.53,1.53,0,0,0,1.18.46,2.46,2.46,0,0,0,1.55-.56V13a2.89,2.89,0,0,1-1.74.48,2.07,2.07,0,0,1-1.66-.68,2.75,2.75,0,0,1-.61-1.92A2.75,2.75,0,0,1,90.9,9a2.12,2.12,0,0,1,1.65-.73,1.86,1.86,0,0,1,1.51.63,2.63,2.63,0,0,1,.54,1.76Zm-.82-.67a1.59,1.59,0,0,0-.33-1.08,1.14,1.14,0,0,0-.92-.39,1.28,1.28,0,0,0-1,.41,1.84,1.84,0,0,0-.49,1.06Z"/>
      <path class="cls-7" d="M98.42,9.18A1,1,0,0,0,97.81,9a1,1,0,0,0-.85.49,2.22,2.22,0,0,0-.35,1.32v2.54h-.8v-5h.8v1h0a1.84,1.84,0,0,1,.52-.82,1.24,1.24,0,0,1,.79-.29,1.48,1.48,0,0,1,.48.06Z"/>
      <path class="cls-7" d="M102.87,13.37h-.8v-.78h0a1.68,1.68,0,0,1-1.54.9,1.65,1.65,0,0,1-1.17-.39,1.39,1.39,0,0,1-.42-1c0-.94.55-1.48,1.65-1.63l1.5-.21c0-.85-.35-1.28-1-1.28a2.44,2.44,0,0,0-1.63.62V8.73a3,3,0,0,1,1.69-.47q1.77,0,1.77,1.86Zm-2.81-5.94a.47.47,0,0,1-.35-.15.48.48,0,0,1,0-.68.45.45,0,0,1,.34-.13.48.48,0,0,1,.34.13.46.46,0,0,1,.15.34.5.5,0,0,1-.14.35A.49.49,0,0,1,100.06,7.43Zm2,3.42-1.21.16a2,2,0,0,0-.84.28.78.78,0,0,0-.28.7.76.76,0,0,0,.26.6,1,1,0,0,0,.69.23,1.29,1.29,0,0,0,1-.42,1.49,1.49,0,0,0,.39-1.06Zm-.13-3.42a.46.46,0,0,1-.34-.14.45.45,0,0,1-.14-.35.47.47,0,0,1,.13-.34.45.45,0,0,1,.34-.13.47.47,0,0,1,.34.13.45.45,0,0,1,.14.34.49.49,0,0,1-.13.35A.48.48,0,0,1,101.94,7.43Z"/>
      <path class="cls-7" d="M106.7,13.33a1.61,1.61,0,0,1-.75.15c-.88,0-1.31-.49-1.31-1.46v-3h-.86V8.37h.86V7.15l.8-.26V8.37h1.26v.69h-1.26v2.82a1.11,1.11,0,0,0,.17.71.65.65,0,0,0,.56.22.86.86,0,0,0,.53-.17Z"/>
      <path class="cls-7" d="M111.78,11.07h-3.53a1.93,1.93,0,0,0,.45,1.29,1.53,1.53,0,0,0,1.18.46,2.49,2.49,0,0,0,1.56-.56V13a2.9,2.9,0,0,1-1.75.48,2.09,2.09,0,0,1-1.66-.68,2.8,2.8,0,0,1-.61-1.92,2.75,2.75,0,0,1,.66-1.9,2.14,2.14,0,0,1,1.65-.73,1.9,1.9,0,0,1,1.52.63,2.68,2.68,0,0,1,.53,1.76ZM111,10.4a1.59,1.59,0,0,0-.33-1.08,1.14,1.14,0,0,0-.92-.39,1.32,1.32,0,0,0-1,.41,1.91,1.91,0,0,0-.49,1.06Z"/>
      <path class="cls-7" d="M116.4,13.14a2.51,2.51,0,0,1-1.36.35,2.27,2.27,0,0,1-1.73-.69,2.54,2.54,0,0,1-.66-1.81,2.78,2.78,0,0,1,.71-2,2.47,2.47,0,0,1,1.89-.75,2.64,2.64,0,0,1,1.16.24v.82a2,2,0,0,0-1.19-.39,1.61,1.61,0,0,0-1.26.55,2.13,2.13,0,0,0-.49,1.44,2,2,0,0,0,.46,1.39,1.61,1.61,0,0,0,1.24.51,2,2,0,0,0,1.23-.44Z"/>
      <path class="cls-7" d="M119.7,13.49a2.32,2.32,0,0,1-1.77-.7,2.61,2.61,0,0,1-.66-1.86A2.68,2.68,0,0,1,118,9a2.45,2.45,0,0,1,1.86-.71,2.25,2.25,0,0,1,1.75.69,2.69,2.69,0,0,1,.62,1.9,2.69,2.69,0,0,1-.67,1.92A2.38,2.38,0,0,1,119.7,13.49Zm.06-4.56a1.53,1.53,0,0,0-1.22.53,2.14,2.14,0,0,0-.45,1.44,2,2,0,0,0,.46,1.41,1.53,1.53,0,0,0,1.21.51,1.47,1.47,0,0,0,1.2-.51,2.21,2.21,0,0,0,.41-1.43A2.26,2.26,0,0,0,121,9.44,1.47,1.47,0,0,0,119.76,8.93Z"/>
      <path class="cls-7" d="M127.74,13.37h-.8v-.85h0a2,2,0,0,1-3.22.3,2.75,2.75,0,0,1-.57-1.83,3,3,0,0,1,.63-2,2.07,2.07,0,0,1,1.66-.74,1.6,1.6,0,0,1,1.5.81h0V6h.8Zm-.8-2.26v-.73a1.42,1.42,0,0,0-.4-1,1.36,1.36,0,0,0-1-.42,1.39,1.39,0,0,0-1.15.54A2.35,2.35,0,0,0,124,11a2.19,2.19,0,0,0,.4,1.37,1.44,1.44,0,0,0,2.17,0A1.79,1.79,0,0,0,126.94,11.11Z"/>
      <path class="cls-7" d="M133.38,11.07h-3.53a1.83,1.83,0,0,0,.45,1.29,1.53,1.53,0,0,0,1.18.46,2.46,2.46,0,0,0,1.55-.56V13a2.89,2.89,0,0,1-1.74.48,2.07,2.07,0,0,1-1.66-.68,2.75,2.75,0,0,1-.61-1.92,2.75,2.75,0,0,1,.66-1.9,2.12,2.12,0,0,1,1.65-.73,1.86,1.86,0,0,1,1.51.63,2.63,2.63,0,0,1,.54,1.76Zm-.82-.67a1.59,1.59,0,0,0-.33-1.08,1.14,1.14,0,0,0-.92-.39,1.28,1.28,0,0,0-1,.41,1.78,1.78,0,0,0-.49,1.06Z"/>
      <path class="cls-7" d="M137.06,6.68a1,1,0,0,0-.53-.14c-.56,0-.84.36-.84,1.06v.77h1.17v.69h-1.17v4.31h-.8V9.06H134V8.37h.85V7.56a1.71,1.71,0,0,1,.46-1.24,1.55,1.55,0,0,1,1.13-.46,1.5,1.5,0,0,1,.58.09Z"/>
      <path class="cls-7" d="M138.52,13.37h-.8V6h.8Z"/>
      <path class="cls-7" d="M142.23,13.49a2.31,2.31,0,0,1-1.77-.7,2.61,2.61,0,0,1-.66-1.86,2.68,2.68,0,0,1,.69-2,2.45,2.45,0,0,1,1.86-.71A2.25,2.25,0,0,1,144.1,9a2.73,2.73,0,0,1,.62,1.9,2.69,2.69,0,0,1-.67,1.92A2.38,2.38,0,0,1,142.23,13.49Zm.06-4.56a1.53,1.53,0,0,0-1.22.53,2.14,2.14,0,0,0-.45,1.44,2,2,0,0,0,.46,1.41,1.53,1.53,0,0,0,1.21.51,1.47,1.47,0,0,0,1.2-.51,2.21,2.21,0,0,0,.41-1.43,2.26,2.26,0,0,0-.41-1.44A1.47,1.47,0,0,0,142.29,8.93Z"/>
      <path class="cls-7" d="M152.3,8.37l-1.5,5H150l-1-3.57a3.06,3.06,0,0,1-.08-.47h0a2.15,2.15,0,0,1-.1.46l-1.12,3.58h-.8l-1.51-5h.84l1,3.76a1.77,1.77,0,0,1,.07.45h0a2.18,2.18,0,0,1,.09-.46l1.15-3.75h.73l1,3.77a2.37,2.37,0,0,1,.07.45h0a2.53,2.53,0,0,1,.09-.45l1-3.77Z"/>
    </g>
  </g>
  <g id="shape1100-52">
    <g id="use1353">
      <g id="lend5">
        <path id="path1350" class="cls-8" d="M159.36,20.2l8,4-8,4a9,9,0,0,0,0-8"/>
      </g>
    </g>
  </g>
  <line class="cls-9" x1="162.38" y1="24.39" x2="76.25" y2="24.39"/>
</svg>
