<svg id="svg990" xmlns="http://www.w3.org/2000/svg" viewBox="0 0 424.04 484">
  <defs>
    <style>
      .cls-1, .cls-6 {
        fill: #008bfd;
      }

      .cls-2 {
        isolation: isolate;
      }

      .cls-3 {
        fill: #007efd;
      }

      .cls-4 {
        fill: #505050;
      }

      .cls-5 {
        fill: #0078d7;
      }

      .cls-6 {
        stroke: gray;
        stroke-width: 0.75px;
      }

      .cls-6, .cls-8 {
        stroke-linecap: round;
        stroke-linejoin: round;
      }

      .cls-7, .cls-8 {
        fill: #fff;
      }

      .cls-8 {
        stroke: #000;
        stroke-width: 0.24px;
      }

      .cls-9 {
        fill: none;
        stroke: #505050;
        stroke-miterlimit: 10;
      }
    </style>
  </defs>
  <title>OJ104440672</title>
  <g>
    <g id="group1113-2">
      <g id="shape1114-3">
        <path id="path21" class="cls-1" d="M70,24.4a11.81,11.81,0,0,1-16.84-2.29A12.56,12.56,0,0,1,55.43,4.82a11.82,11.82,0,0,1,16.84,2.3A12.54,12.54,0,0,1,70,24.4ZM73.69,6A13.57,13.57,0,0,0,54.33,3.36a14.43,14.43,0,0,0-2.55,19.87,13.62,13.62,0,0,0,11,5.55,13.45,13.45,0,0,0,8.39-2.92A14.44,14.44,0,0,0,73.69,6Z"/>
      </g>
    </g>
    <g id="group1115-5">
      <g id="group1116-6">
        <g id="group1117-7">
          <g id="shape1118-8">
            <path id="path33" class="cls-1" d="M56.06,17.19a17,17,0,0,1-2-2.35,18.28,18.28,0,0,0-1.66,6.88c.11.16.11.29.23.44a12.55,12.55,0,0,0,2,2.05A14.13,14.13,0,0,1,56.06,17.19Z"/>
          </g>
        </g>
        <g id="shape1119-10">
          <path id="path39" class="cls-1" d="M60.67,7.74a21,21,0,0,0-3.33,3,15.71,15.71,0,0,0-1.61,2,15.42,15.42,0,0,0,1.9,2.46,16.32,16.32,0,0,1,2.2-2.56A26.47,26.47,0,0,1,63,10.06C62.16,9.3,61.38,8.53,60.67,7.74Z"/>
        </g>
        <g id="group1120-12">
          <g id="shape1121-13">
            <path id="path46" class="cls-1" d="M72.15,7a12,12,0,0,0-1.73-1.82,12.53,12.53,0,0,0-8,1.53c.76.84,1.51,1.63,2.24,2.36C69,6.59,72.15,7,72.15,7Z"/>
          </g>
        </g>
        <g id="group1122-15">
          <g id="shape1123-16">
            <path id="path54" class="cls-1" d="M54.34,15a19.82,19.82,0,0,1,1.19-2.06,9.84,9.84,0,0,1-1.6-6.79,13.09,13.09,0,0,0-1.29,1.6C52.26,9.34,52.24,11.9,54.34,15Z"/>
          </g>
        </g>
        <g id="group1124-18">
          <g id="shape1125-19">
            <path id="path62" class="cls-1" d="M59.9,17.37a21.6,21.6,0,0,1-2.27-2.14,14.25,14.25,0,0,0-1.14,1.95,23.54,23.54,0,0,0,2.09,1.91,19.12,19.12,0,0,0,12.56,4.38,9,9,0,0,0,1.54-1.94C71.45,21.79,66.19,22.48,59.9,17.37Z"/>
          </g>
        </g>
        <g id="group1126-21">
          <g id="shape1127-22">
            <path id="path70" class="cls-1" d="M54.55,14.83a15.72,15.72,0,0,0,2,2.35,15.36,15.36,0,0,1,1.14-1.95,15.42,15.42,0,0,1-1.9-2.46A15.58,15.58,0,0,0,54.55,14.83Z"/>
          </g>
        </g>
        <g id="group1128-24">
          <g id="shape1129-25">
            <path id="path78" class="cls-1" d="M63,10.07a97,97,0,0,0,11.15,8.82,9.82,9.82,0,0,0,.33-1.05A95.51,95.51,0,0,1,64.61,9Q63.82,9.47,63,10.07Z"/>
          </g>
        </g>
        <g id="group1130-27">
          <g id="shape1131-28">
            <path id="path86" class="cls-1" d="M62.38,6.66Q60.73,4.89,59,2.86a10.05,10.05,0,0,0-1.59.66,26.3,26.3,0,0,0,3.24,4.22A17.22,17.22,0,0,1,62.38,6.66Z"/>
          </g>
        </g>
        <g id="shape1132-30">
          <path id="path92" class="cls-1" d="M62.45,6.62a18.74,18.74,0,0,0-1.87,1.19c.72.78,1.45,1.59,2.25,2.35.57-.4,1.34-.88,1.87-1.18C64,8.25,63.21,7.46,62.45,6.62Z"/>
        </g>
        <g id="shape1133-32">
          <path id="path97" class="cls-1" d="M62.25,6.52a16.24,16.24,0,0,0-1.67,1.12c.72.79,1.74,1.81,2.54,2.57.57-.4,1.05-.8,1.58-1.11C64,8.38,63,7.35,62.25,6.52Z"/>
        </g>
      </g>
      <g id="group1134-34">
        <g id="shape1135-35">
          <path id="path105" class="cls-1" d="M68.3,13.07a2.7,2.7,0,0,0-.48,3.7,2.56,2.56,0,0,0,3.63.51,2.72,2.72,0,0,0,.48-3.72A2.55,2.55,0,0,0,68.3,13.07Z"/>
        </g>
      </g>
      <g id="group1136-37">
        <g id="shape1137-38">
          <path id="path113" class="cls-1" d="M63.13,19.19a2.52,2.52,0,0,0-.45,3.44,2.37,2.37,0,0,0,3.36.45,2.49,2.49,0,0,0,.44-3.43A2.36,2.36,0,0,0,63.13,19.19Z"/>
        </g>
      </g>
      <g id="group1138-40">
        <g id="shape1139-41">
          <path id="path121" class="cls-1" d="M54,11.86a3.79,3.79,0,0,0-.68,5.21,3.58,3.58,0,0,0,5.1.7,3.8,3.8,0,0,0,.67-5.23A3.59,3.59,0,0,0,54,11.86Z"/>
        </g>
      </g>
    </g>
  </g>
  <g>
    <g id="group1113-2-2" data-name="group1113-2">
      <g id="shape1114-3-2" data-name="shape1114-3">
        <path id="path21-2" data-name="path21" class="cls-1" d="M70,164a11.81,11.81,0,0,1-16.84-2.29,12.56,12.56,0,0,1,2.24-17.29,11.82,11.82,0,0,1,16.84,2.3A12.54,12.54,0,0,1,70,164Zm3.66-18.41A13.57,13.57,0,0,0,54.33,143a14.43,14.43,0,0,0-2.55,19.87,13.62,13.62,0,0,0,11,5.55,13.45,13.45,0,0,0,8.39-2.92A14.44,14.44,0,0,0,73.69,145.6Z"/>
      </g>
    </g>
    <g id="group1115-5-2" data-name="group1115-5">
      <g id="group1116-6-2" data-name="group1116-6">
        <g id="group1117-7-2" data-name="group1117-7">
          <g id="shape1118-8-2" data-name="shape1118-8">
            <path id="path33-2" data-name="path33" class="cls-1" d="M56.06,156.8a17,17,0,0,1-2-2.35,18.28,18.28,0,0,0-1.66,6.88c.11.16.11.29.23.44a12.55,12.55,0,0,0,2,2A14.13,14.13,0,0,1,56.06,156.8Z"/>
          </g>
        </g>
        <g id="shape1119-10-2" data-name="shape1119-10">
          <path id="path39-2" data-name="path39" class="cls-1" d="M60.67,147.35a21,21,0,0,0-3.33,3,15.71,15.71,0,0,0-1.61,2,15.42,15.42,0,0,0,1.9,2.46,16.32,16.32,0,0,1,2.2-2.56A26.47,26.47,0,0,1,63,149.67C62.16,148.91,61.38,148.14,60.67,147.35Z"/>
        </g>
        <g id="group1120-12-2" data-name="group1120-12">
          <g id="shape1121-13-2" data-name="shape1121-13">
            <path id="path46-2" data-name="path46" class="cls-1" d="M72.15,146.55a12,12,0,0,0-1.73-1.82,12.53,12.53,0,0,0-8,1.53c.76.84,1.51,1.63,2.24,2.36C69,146.19,72.15,146.55,72.15,146.55Z"/>
          </g>
        </g>
        <g id="group1122-15-2" data-name="group1122-15">
          <g id="shape1123-16-2" data-name="shape1123-16">
            <path id="path54-2" data-name="path54" class="cls-1" d="M54.34,154.58a19.82,19.82,0,0,1,1.19-2.06,9.84,9.84,0,0,1-1.6-6.79,13.09,13.09,0,0,0-1.29,1.6C52.26,148.94,52.24,151.5,54.34,154.58Z"/>
          </g>
        </g>
        <g id="group1124-18-2" data-name="group1124-18">
          <g id="shape1125-19-2" data-name="shape1125-19">
            <path id="path62-2" data-name="path62" class="cls-1" d="M59.9,157a21.6,21.6,0,0,1-2.27-2.14,14.25,14.25,0,0,0-1.14,1.95,23.54,23.54,0,0,0,2.09,1.91,19.12,19.12,0,0,0,12.56,4.38,9,9,0,0,0,1.54-1.94C71.45,161.4,66.19,162.09,59.9,157Z"/>
          </g>
        </g>
        <g id="group1126-21-2" data-name="group1126-21">
          <g id="shape1127-22-2" data-name="shape1127-22">
            <path id="path70-2" data-name="path70" class="cls-1" d="M54.55,154.44a15.72,15.72,0,0,0,2,2.35,15.36,15.36,0,0,1,1.14-1.95,15.42,15.42,0,0,1-1.9-2.46A15.58,15.58,0,0,0,54.55,154.44Z"/>
          </g>
        </g>
        <g id="group1128-24-2" data-name="group1128-24">
          <g id="shape1129-25-2" data-name="shape1129-25">
            <path id="path78-2" data-name="path78" class="cls-1" d="M63,149.67a97,97,0,0,0,11.15,8.82,9.82,9.82,0,0,0,.33-1.05,95.51,95.51,0,0,1-9.83-8.82Q63.82,149.07,63,149.67Z"/>
          </g>
        </g>
        <g id="group1130-27-2" data-name="group1130-27">
          <g id="shape1131-28-2" data-name="shape1131-28">
            <path id="path86-2" data-name="path86" class="cls-1" d="M62.38,146.27q-1.65-1.77-3.36-3.8a10.05,10.05,0,0,0-1.59.66,26.3,26.3,0,0,0,3.24,4.22A17.22,17.22,0,0,1,62.38,146.27Z"/>
          </g>
        </g>
        <g id="shape1132-30-2" data-name="shape1132-30">
          <path id="path92-2" data-name="path92" class="cls-1" d="M62.45,146.23a18.74,18.74,0,0,0-1.87,1.19c.72.78,1.45,1.59,2.25,2.35.57-.4,1.34-.88,1.87-1.18C64,147.86,63.21,147.07,62.45,146.23Z"/>
        </g>
        <g id="shape1133-32-2" data-name="shape1133-32">
          <path id="path97-2" data-name="path97" class="cls-1" d="M62.25,146.12a16.24,16.24,0,0,0-1.67,1.12c.72.79,1.74,1.81,2.54,2.57.57-.4,1.05-.8,1.58-1.11C64,148,63,147,62.25,146.12Z"/>
        </g>
      </g>
      <g id="group1134-34-2" data-name="group1134-34">
        <g id="shape1135-35-2" data-name="shape1135-35">
          <path id="path105-2" data-name="path105" class="cls-1" d="M68.3,152.68a2.7,2.7,0,0,0-.48,3.7,2.56,2.56,0,0,0,3.63.51,2.72,2.72,0,0,0,.48-3.72A2.55,2.55,0,0,0,68.3,152.68Z"/>
        </g>
      </g>
      <g id="group1136-37-2" data-name="group1136-37">
        <g id="shape1137-38-2" data-name="shape1137-38">
          <path id="path113-2" data-name="path113" class="cls-1" d="M63.13,158.8a2.52,2.52,0,0,0-.45,3.44,2.37,2.37,0,0,0,3.36.45,2.49,2.49,0,0,0,.44-3.43A2.36,2.36,0,0,0,63.13,158.8Z"/>
        </g>
      </g>
      <g id="group1138-40-2" data-name="group1138-40">
        <g id="shape1139-41-2" data-name="shape1139-41">
          <path id="path121-2" data-name="path121" class="cls-1" d="M54,151.47a3.79,3.79,0,0,0-.68,5.21,3.58,3.58,0,0,0,5.1.7,3.8,3.8,0,0,0,.67-5.23A3.59,3.59,0,0,0,54,151.47Z"/>
        </g>
      </g>
    </g>
  </g>
  <g>
    <g id="group1113-2-3" data-name="group1113-2">
      <g id="shape1114-3-3" data-name="shape1114-3">
        <path id="path21-3" data-name="path21" class="cls-1" d="M70,94.28A11.81,11.81,0,0,1,53.19,92,12.56,12.56,0,0,1,55.43,74.7,11.82,11.82,0,0,1,72.27,77,12.54,12.54,0,0,1,70,94.28Zm3.66-18.41a13.57,13.57,0,0,0-19.36-2.63,14.43,14.43,0,0,0-2.55,19.87,13.62,13.62,0,0,0,11,5.55,13.45,13.45,0,0,0,8.39-2.92A14.44,14.44,0,0,0,73.69,75.87Z"/>
      </g>
    </g>
    <g id="group1115-5-3" data-name="group1115-5">
      <g id="group1116-6-3" data-name="group1116-6">
        <g id="group1117-7-3" data-name="group1117-7">
          <g id="shape1118-8-3" data-name="shape1118-8">
            <path id="path33-3" data-name="path33" class="cls-1" d="M56.06,87.07a17,17,0,0,1-2-2.35,18.28,18.28,0,0,0-1.66,6.88c.11.16.11.29.23.44a12.55,12.55,0,0,0,2,2A14.13,14.13,0,0,1,56.06,87.07Z"/>
          </g>
        </g>
        <g id="shape1119-10-3" data-name="shape1119-10">
          <path id="path39-3" data-name="path39" class="cls-1" d="M60.67,77.62a21,21,0,0,0-3.33,3,15.71,15.71,0,0,0-1.61,2.05,15.42,15.42,0,0,0,1.9,2.46,16.32,16.32,0,0,1,2.2-2.56A26.47,26.47,0,0,1,63,79.94C62.16,79.18,61.38,78.41,60.67,77.62Z"/>
        </g>
        <g id="group1120-12-3" data-name="group1120-12">
          <g id="shape1121-13-3" data-name="shape1121-13">
            <path id="path46-3" data-name="path46" class="cls-1" d="M72.15,76.83A12,12,0,0,0,70.42,75a12.53,12.53,0,0,0-8,1.53c.76.84,1.51,1.63,2.24,2.36C69,76.47,72.15,76.83,72.15,76.83Z"/>
          </g>
        </g>
        <g id="group1122-15-3" data-name="group1122-15">
          <g id="shape1123-16-3" data-name="shape1123-16">
            <path id="path54-3" data-name="path54" class="cls-1" d="M54.34,84.86a19.82,19.82,0,0,1,1.19-2.06A9.84,9.84,0,0,1,53.93,76a13.09,13.09,0,0,0-1.29,1.6C52.26,79.22,52.24,81.78,54.34,84.86Z"/>
          </g>
        </g>
        <g id="group1124-18-3" data-name="group1124-18">
          <g id="shape1125-19-3" data-name="shape1125-19">
            <path id="path62-3" data-name="path62" class="cls-1" d="M59.9,87.25a21.6,21.6,0,0,1-2.27-2.14,14.25,14.25,0,0,0-1.14,2A23.54,23.54,0,0,0,58.58,89a19.12,19.12,0,0,0,12.56,4.38,9,9,0,0,0,1.54-1.94C71.45,91.67,66.19,92.36,59.9,87.25Z"/>
          </g>
        </g>
        <g id="group1126-21-3" data-name="group1126-21">
          <g id="shape1127-22-3" data-name="shape1127-22">
            <path id="path70-3" data-name="path70" class="cls-1" d="M54.55,84.71a15.72,15.72,0,0,0,2,2.35,15.36,15.36,0,0,1,1.14-2,15.42,15.42,0,0,1-1.9-2.46A15.58,15.58,0,0,0,54.55,84.71Z"/>
          </g>
        </g>
        <g id="group1128-24-3" data-name="group1128-24">
          <g id="shape1129-25-3" data-name="shape1129-25">
            <path id="path78-3" data-name="path78" class="cls-1" d="M63,80a97,97,0,0,0,11.15,8.82,9.82,9.82,0,0,0,.33-1,95.51,95.51,0,0,1-9.83-8.82Q63.82,79.35,63,80Z"/>
          </g>
        </g>
        <g id="group1130-27-3" data-name="group1130-27">
          <g id="shape1131-28-3" data-name="shape1131-28">
            <path id="path86-3" data-name="path86" class="cls-1" d="M62.38,76.54q-1.65-1.77-3.36-3.8a10.05,10.05,0,0,0-1.59.66,26.3,26.3,0,0,0,3.24,4.22A17.22,17.22,0,0,1,62.38,76.54Z"/>
          </g>
        </g>
        <g id="shape1132-30-3" data-name="shape1132-30">
          <path id="path92-3" data-name="path92" class="cls-1" d="M62.45,76.5a18.74,18.74,0,0,0-1.87,1.19c.72.78,1.45,1.59,2.25,2.35.57-.4,1.34-.88,1.87-1.18C64,78.13,63.21,77.34,62.45,76.5Z"/>
        </g>
        <g id="shape1133-32-3" data-name="shape1133-32">
          <path id="path97-3" data-name="path97" class="cls-1" d="M62.25,76.4a16.24,16.24,0,0,0-1.67,1.12c.72.79,1.74,1.81,2.54,2.57.57-.4,1.05-.8,1.58-1.11C64,78.26,63,77.23,62.25,76.4Z"/>
        </g>
      </g>
      <g id="group1134-34-3" data-name="group1134-34">
        <g id="shape1135-35-3" data-name="shape1135-35">
          <path id="path105-3" data-name="path105" class="cls-1" d="M68.3,83a2.7,2.7,0,0,0-.48,3.7,2.56,2.56,0,0,0,3.63.51,2.72,2.72,0,0,0,.48-3.72A2.55,2.55,0,0,0,68.3,83Z"/>
        </g>
      </g>
      <g id="group1136-37-3" data-name="group1136-37">
        <g id="shape1137-38-3" data-name="shape1137-38">
          <path id="path113-3" data-name="path113" class="cls-1" d="M63.13,89.07a2.52,2.52,0,0,0-.45,3.44A2.37,2.37,0,0,0,66,93a2.49,2.49,0,0,0,.44-3.43A2.36,2.36,0,0,0,63.13,89.07Z"/>
        </g>
      </g>
      <g id="group1138-40-3" data-name="group1138-40">
        <g id="shape1139-41-3" data-name="shape1139-41">
          <path id="path121-3" data-name="path121" class="cls-1" d="M54,81.74A3.79,3.79,0,0,0,53.31,87a3.58,3.58,0,0,0,5.1.7,3.8,3.8,0,0,0,.67-5.23A3.59,3.59,0,0,0,54,81.74Z"/>
        </g>
      </g>
    </g>
  </g>
  <g id="shape1101-88">
    <g id="text253" class="cls-2">
      <path class="cls-1" d="M50.46,244.54l-2,7h-1l-1.45-5.11a3.88,3.88,0,0,1-.11-.72h0a4,4,0,0,1-.12.71l-1.45,5.12h-1l-2.05-7h.91l1.49,5.37a3.29,3.29,0,0,1,.11.71h0a3.23,3.23,0,0,1,.15-.71l1.55-5.37h.78L47.88,250a3.78,3.78,0,0,1,.11.66h0a4.33,4.33,0,0,1,.14-.68l1.43-5.39Z"/>
      <path class="cls-1" d="M55,249.24H51.5a1.87,1.87,0,0,0,.44,1.29,1.55,1.55,0,0,0,1.19.46,2.46,2.46,0,0,0,1.55-.56v.75a2.89,2.89,0,0,1-1.74.48,2.13,2.13,0,0,1-1.67-.68,2.8,2.8,0,0,1-.6-1.92,2.75,2.75,0,0,1,.66-1.9,2.12,2.12,0,0,1,1.64-.73,1.9,1.9,0,0,1,1.52.63,2.63,2.63,0,0,1,.54,1.76Zm-.82-.67a1.64,1.64,0,0,0-.34-1.08,1.12,1.12,0,0,0-.91-.39,1.32,1.32,0,0,0-1,.41,1.91,1.91,0,0,0-.49,1.06Z"/>
      <path class="cls-1" d="M57.06,250.82h0v.72h-.8v-7.4H57v3.28h0a1.89,1.89,0,0,1,1.73-1,1.81,1.81,0,0,1,1.5.67,2.8,2.8,0,0,1,.55,1.8,3.17,3.17,0,0,1-.61,2,2,2,0,0,1-1.67.75A1.65,1.65,0,0,1,57.06,250.82Zm0-2v.69a1.49,1.49,0,0,0,.4,1.06,1.37,1.37,0,0,0,1,.43,1.33,1.33,0,0,0,1.14-.56,2.53,2.53,0,0,0,.42-1.55,2,2,0,0,0-.39-1.31,1.3,1.3,0,0,0-1.05-.47,1.41,1.41,0,0,0-1.12.49A1.79,1.79,0,0,0,57,248.81Z"/>
      <path class="cls-1" d="M64.67,249.07H62v-.63h2.66Z"/>
      <path class="cls-1" d="M71.64,251.54h-.91l-.74-2H67l-.7,2h-.91l2.69-7H69Zm-1.92-2.7-1.1-3a3,3,0,0,1-.1-.47h0a2.42,2.42,0,0,1-.12.47l-1.08,3Z"/>
      <path class="cls-1" d="M73.38,250.82h0v3h-.81v-7.3h.81v.88h0a1.91,1.91,0,0,1,1.73-1,1.82,1.82,0,0,1,1.51.67,2.8,2.8,0,0,1,.54,1.8,3.11,3.11,0,0,1-.61,2,2,2,0,0,1-1.67.75A1.69,1.69,0,0,1,73.38,250.82Zm0-2v.69a1.49,1.49,0,0,0,.4,1.06,1.37,1.37,0,0,0,1,.43,1.33,1.33,0,0,0,1.14-.56,2.53,2.53,0,0,0,.41-1.55,2,2,0,0,0-.38-1.31,1.3,1.3,0,0,0-1-.47,1.4,1.4,0,0,0-1.12.49A1.79,1.79,0,0,0,73.37,248.81Z"/>
      <path class="cls-1" d="M79.26,250.82h0v3h-.8v-7.3h.8v.88h0a1.9,1.9,0,0,1,1.73-1,1.82,1.82,0,0,1,1.51.67,2.8,2.8,0,0,1,.54,1.8,3.11,3.11,0,0,1-.61,2,2,2,0,0,1-1.67.75A1.69,1.69,0,0,1,79.26,250.82Zm0-2v.69a1.5,1.5,0,0,0,.41,1.06,1.37,1.37,0,0,0,1,.43,1.33,1.33,0,0,0,1.14-.56,2.6,2.6,0,0,0,.41-1.55,2.08,2.08,0,0,0-.38-1.31,1.3,1.3,0,0,0-1-.47,1.4,1.4,0,0,0-1.12.49A1.8,1.8,0,0,0,79.24,248.81Z"/>
    </g>
  </g>
  <path id="path261" class="cls-1" d="M305.43,284h-20.5a1.1,1.1,0,0,0-1.09,1.11v16.74a1.09,1.09,0,0,0,1.09,1.1h5.28a3.29,3.29,0,0,0,3.21,2.27,3.38,3.38,0,0,0,0-6.75,3.29,3.29,0,0,0-3.21,2.27H286v-12h18.31v12h-3.45a7.61,7.61,0,0,0-7.46-6.56,8.25,8.25,0,0,0-3.64.92l1,2a5.27,5.27,0,0,1,2.55-.67,5.46,5.46,0,0,1,0,10.92,5.28,5.28,0,0,1-2.55-.68l-1,2a7.4,7.4,0,0,0,3.64.92,7.61,7.61,0,0,0,7.46-6.56h4.55a1.09,1.09,0,0,0,1.09-1.1V285.08A1.14,1.14,0,0,0,305.43,284Z"/>
  <g id="text263" class="cls-2">
    <path class="cls-1" d="M283.06,322.84h-.91l-.74-2h-3l-.7,2h-.91l2.68-7h.85Zm-1.92-2.7-1.1-3a2.75,2.75,0,0,1-.11-.47h0a2.53,2.53,0,0,1-.11.47l-1.09,3Z"/>
    <path class="cls-1" d="M284.91,320.19v2.65h-.82v-7H286a2.56,2.56,0,0,1,1.74.55,1.92,1.92,0,0,1,.62,1.54,2.1,2.1,0,0,1-.69,1.63,2.57,2.57,0,0,1-1.85.64Zm0-3.61v2.87h.86a1.89,1.89,0,0,0,1.29-.39,1.38,1.38,0,0,0,.45-1.1c0-.92-.55-1.38-1.64-1.38Z"/>
    <path class="cls-1" d="M290.51,322.84h-.82v-7h.82Z"/>
    <path class="cls-1" d="M294.8,320.36h-2.66v-.63h2.66Z"/>
    <path class="cls-1" d="M301.77,322.84h-.91l-.74-2h-3l-.7,2h-.91l2.68-7h.85Zm-1.92-2.7-1.1-3a4.26,4.26,0,0,1-.11-.47h0a3.46,3.46,0,0,1-.12.47l-1.09,3Z"/>
    <path class="cls-1" d="M303.51,322.11h0v3h-.8v-7.3h.8v.87h0a1.9,1.9,0,0,1,1.73-1,1.82,1.82,0,0,1,1.51.67,2.8,2.8,0,0,1,.54,1.8,3.09,3.09,0,0,1-.61,2A2,2,0,0,1,305,323,1.67,1.67,0,0,1,303.51,322.11Zm0-2v.69a1.5,1.5,0,0,0,.41,1.06,1.33,1.33,0,0,0,1,.43,1.36,1.36,0,0,0,1.14-.56,2.57,2.57,0,0,0,.41-1.55,2,2,0,0,0-.38-1.3,1.28,1.28,0,0,0-1-.48,1.4,1.4,0,0,0-1.12.49A1.75,1.75,0,0,0,303.49,320.1Z"/>
    <path class="cls-1" d="M309.39,322.11h0v3h-.8v-7.3h.8v.87h0a1.9,1.9,0,0,1,1.73-1,1.83,1.83,0,0,1,1.51.67,2.8,2.8,0,0,1,.54,1.8,3.09,3.09,0,0,1-.61,2,2,2,0,0,1-1.67.75A1.67,1.67,0,0,1,309.39,322.11Zm0-2v.69a1.53,1.53,0,0,0,.4,1.06,1.37,1.37,0,0,0,1,.43,1.36,1.36,0,0,0,1.14-.56,2.57,2.57,0,0,0,.41-1.55,2,2,0,0,0-.39-1.3,1.25,1.25,0,0,0-1-.48,1.39,1.39,0,0,0-1.12.49A1.75,1.75,0,0,0,309.37,320.1Z"/>
  </g>
  <g id="group1131-94">
    <g id="shape1136-99">
      <path id="path286" class="cls-3" d="M77.21,427.2H71.13c-.23,0-.38.14-.38.45v2.18a.36.36,0,0,0,.38.38h3.45v3.38c0,.22.15.37.45.37h2.18a.35.35,0,0,0,.37-.37v-6A.34.34,0,0,0,77.21,427.2ZM60,448.18H56.57V444.8c0-.22-.15-.37-.45-.37H54a.35.35,0,0,0-.38.37v6a.35.35,0,0,0,.38.37H60c.23,0,.38-.15.38-.46v-2.18A.36.36,0,0,0,60,448.18ZM73.6,444.5a.9.9,0,0,0-.45.08l-2.32-4.06a2.9,2.9,0,0,0,.9-2,2.79,2.79,0,0,0-3.9-2.56l-2.48-3.47a2,2,0,0,0,.53-1.5,2.33,2.33,0,1,0-2.33,2.32,2.38,2.38,0,0,0,.75-.14l2.48,3.54a2.82,2.82,0,0,0-.68,1.43l-7.2.6a1.78,1.78,0,0,0-1.65-1,1.88,1.88,0,0,0,0,3.76,1.92,1.92,0,0,0,1.87-1.59l7.06-.6a3.94,3.94,0,0,0,.67,1.22l-1.8,2.93h-.22a1.88,1.88,0,1,0,1.87,1.88,2.11,2.11,0,0,0-.52-1.35l1.72-2.86a4.59,4.59,0,0,0,1,.15,3.94,3.94,0,0,0,.82-.15L72,445.18a2.3,2.3,0,0,0-.68,1.57,2.18,2.18,0,1,0,2.25-2.25Z"/>
    </g>
  </g>
  <g class="cls-2">
    <path class="cls-3" d="M48.69,465.35h-.91l-.74-2h-3l-.7,2h-.91l2.68-7H46Zm-1.92-2.7-1.1-3a2.59,2.59,0,0,1-.11-.46h0a2.6,2.6,0,0,1-.11.46l-1.09,3Z"/>
    <path class="cls-3" d="M50.43,464.63h0v3h-.8v-7.3h.8v.88h0a1.88,1.88,0,0,1,1.73-1,1.83,1.83,0,0,1,1.51.67,2.8,2.8,0,0,1,.54,1.8,3.07,3.07,0,0,1-.61,2,2,2,0,0,1-1.67.76A1.67,1.67,0,0,1,50.43,464.63Zm0-2v.7a1.48,1.48,0,0,0,.4,1.05,1.44,1.44,0,0,0,2.17-.13,2.56,2.56,0,0,0,.41-1.54,2,2,0,0,0-.39-1.31,1.25,1.25,0,0,0-1-.48,1.42,1.42,0,0,0-1.12.49A1.75,1.75,0,0,0,50.41,462.61Z"/>
    <path class="cls-3" d="M56.31,464.63h0v3h-.8v-7.3h.8v.88h0a1.88,1.88,0,0,1,1.73-1,1.83,1.83,0,0,1,1.51.67,2.8,2.8,0,0,1,.54,1.8,3.13,3.13,0,0,1-.61,2,2.06,2.06,0,0,1-1.67.76A1.67,1.67,0,0,1,56.31,464.63Zm0-2v.7a1.48,1.48,0,0,0,.4,1.05,1.44,1.44,0,0,0,2.17-.13,2.56,2.56,0,0,0,.41-1.54,2,2,0,0,0-.39-1.31,1.25,1.25,0,0,0-1-.48,1.45,1.45,0,0,0-1.13.49A1.79,1.79,0,0,0,56.29,462.61Z"/>
    <path class="cls-3" d="M66.2,465.47a2.31,2.31,0,0,1-1.77-.71,2.57,2.57,0,0,1-.66-1.85,2.7,2.7,0,0,1,.68-2,2.49,2.49,0,0,1,1.86-.71,2.25,2.25,0,0,1,1.75.69,2.73,2.73,0,0,1,.63,1.91,2.65,2.65,0,0,1-.68,1.91A2.33,2.33,0,0,1,66.2,465.47Zm.06-4.57a1.54,1.54,0,0,0-1.23.53,2.2,2.2,0,0,0-.44,1.45,2,2,0,0,0,.45,1.4,1.55,1.55,0,0,0,1.22.51,1.48,1.48,0,0,0,1.19-.5,2.18,2.18,0,0,0,.42-1.43,2.22,2.22,0,0,0-.42-1.45A1.46,1.46,0,0,0,66.26,460.9Z"/>
    <path class="cls-3" d="M74.12,465.35h-.8v-2.88c0-1-.39-1.57-1.17-1.57a1.26,1.26,0,0,0-1,.46,1.65,1.65,0,0,0-.4,1.16v2.83H70V458h.8v3.23h0a1.82,1.82,0,0,1,1.64-.95c1.12,0,1.69.68,1.69,2Z"/>
    <path class="cls-3" d="M79.78,465.35H79V462.5c0-1.06-.39-1.6-1.17-1.6a1.26,1.26,0,0,0-1,.46,1.68,1.68,0,0,0-.39,1.14v2.85h-.8v-5h.8v.83h0a1.8,1.8,0,0,1,1.64-.95,1.54,1.54,0,0,1,1.25.53,2.35,2.35,0,0,1,.44,1.53Z"/>
    <path class="cls-3" d="M85.3,463.05H81.77a2,2,0,0,0,.45,1.29,1.56,1.56,0,0,0,1.18.45,2.43,2.43,0,0,0,1.56-.56V465a2.9,2.9,0,0,1-1.75.48,2.09,2.09,0,0,1-1.66-.69,3.18,3.18,0,0,1,0-3.81,2.14,2.14,0,0,1,1.65-.74,1.87,1.87,0,0,1,1.52.64,2.68,2.68,0,0,1,.53,1.76Zm-.82-.68a1.62,1.62,0,0,0-.33-1.08,1.14,1.14,0,0,0-.92-.39,1.3,1.3,0,0,0-1,.41,1.84,1.84,0,0,0-.49,1.06Z"/>
    <path class="cls-3" d="M47.32,477.35v-7h2a2.14,2.14,0,0,1,1.44.44,1.43,1.43,0,0,1,.54,1.16,1.65,1.65,0,0,1-.33,1,1.73,1.73,0,0,1-.88.63v0a1.75,1.75,0,0,1,1.13.53,1.67,1.67,0,0,1,.42,1.18,1.81,1.81,0,0,1-.64,1.45,2.41,2.41,0,0,1-1.63.56Zm.82-6.26v2.26H49A1.58,1.58,0,0,0,50,473a1.11,1.11,0,0,0,.39-.91q0-1-1.35-1Zm0,3v2.52h1.12a1.67,1.67,0,0,0,1.12-.35,1.17,1.17,0,0,0,.39-.93c0-.83-.56-1.24-1.69-1.24Z"/>
    <path class="cls-3" d="M55.55,473.16A1,1,0,0,0,55,473a1,1,0,0,0-.86.48,2.23,2.23,0,0,0-.34,1.32v2.55H53v-5h.8v1h0a1.71,1.71,0,0,1,.52-.82,1.31,1.31,0,0,1,1.26-.23Z"/>
    <path class="cls-3" d="M58.51,477.47a2.31,2.31,0,0,1-1.77-.71,2.57,2.57,0,0,1-.66-1.85,2.7,2.7,0,0,1,.69-2,2.49,2.49,0,0,1,1.86-.71,2.25,2.25,0,0,1,1.75.69,2.78,2.78,0,0,1,.62,1.91,2.65,2.65,0,0,1-.67,1.91A2.35,2.35,0,0,1,58.51,477.47Zm.06-4.57a1.53,1.53,0,0,0-1.22.53,2.15,2.15,0,0,0-.45,1.45,2,2,0,0,0,.46,1.4,1.53,1.53,0,0,0,1.21.51,1.49,1.49,0,0,0,1.2-.5,2.23,2.23,0,0,0,.41-1.43,2.28,2.28,0,0,0-.41-1.45A1.47,1.47,0,0,0,58.57,472.9Z"/>
    <path class="cls-3" d="M68.58,472.35l-1.5,5h-.83l-1-3.58a2.92,2.92,0,0,1-.08-.46h0a2.37,2.37,0,0,1-.11.45l-1.12,3.59h-.8l-1.51-5h.84l1,3.76a1.63,1.63,0,0,1,.07.45h0a2,2,0,0,1,.09-.46l1.15-3.75h.73l1,3.77a2.37,2.37,0,0,1,.07.45h0a2.23,2.23,0,0,1,.09-.45l1-3.77Z"/>
    <path class="cls-3" d="M69.21,477.17v-.86a2.35,2.35,0,0,0,1.44.48c.7,0,1-.23,1-.7a.59.59,0,0,0-.09-.34.94.94,0,0,0-.24-.25,2.42,2.42,0,0,0-.36-.19l-.45-.18a5.37,5.37,0,0,1-.58-.27,1.51,1.51,0,0,1-.42-.3,1.08,1.08,0,0,1-.26-.38,1.5,1.5,0,0,1-.08-.5,1.18,1.18,0,0,1,.16-.63,1.42,1.42,0,0,1,.43-.45,2.28,2.28,0,0,1,.61-.28,2.82,2.82,0,0,1,.71-.09,2.86,2.86,0,0,1,1.16.23v.81A2.18,2.18,0,0,0,71,472.9a1.25,1.25,0,0,0-.4.06.89.89,0,0,0-.31.14.69.69,0,0,0-.2.22.57.57,0,0,0-.07.29.67.67,0,0,0,.07.33.75.75,0,0,0,.21.23,1.69,1.69,0,0,0,.33.19l.44.18a5.68,5.68,0,0,1,.6.26,2.52,2.52,0,0,1,.45.3,1.08,1.08,0,0,1,.28.39,1.18,1.18,0,0,1,.1.52,1.19,1.19,0,0,1-.16.64,1.38,1.38,0,0,1-.44.46,2,2,0,0,1-.63.27,3,3,0,0,1-.75.09A2.78,2.78,0,0,1,69.21,477.17Z"/>
    <path class="cls-3" d="M77.77,475.05H74.24a1.85,1.85,0,0,0,.45,1.29,1.56,1.56,0,0,0,1.18.45,2.39,2.39,0,0,0,1.55-.56V477a2.87,2.87,0,0,1-1.74.48,2.09,2.09,0,0,1-1.66-.69,3.18,3.18,0,0,1,0-3.81,2.13,2.13,0,0,1,1.65-.74,1.84,1.84,0,0,1,1.51.64,2.63,2.63,0,0,1,.54,1.76Zm-.82-.68a1.62,1.62,0,0,0-.33-1.08,1.14,1.14,0,0,0-.92-.39,1.28,1.28,0,0,0-1,.41,1.84,1.84,0,0,0-.49,1.06Z"/>
    <path class="cls-3" d="M81.59,473.16A1,1,0,0,0,81,473a1,1,0,0,0-.85.48,2.22,2.22,0,0,0-.35,1.32v2.55H79v-5h.8v1h0a1.72,1.72,0,0,1,.53-.82,1.16,1.16,0,0,1,.78-.3,1.22,1.22,0,0,1,.48.07Z"/>
  </g>
  <g id="shape1138-105">
    <path id="path302" class="cls-1" d="M71.17,279.66H54.32c-1.48,0-1.5.4-1.5,2.23v29.55c0,1.83,0,2.17,1.49,2.22H71.17c1.47-.05,1.49-.39,1.49-2.22V281.89C72.66,280.06,72.64,279.71,71.17,279.66Zm-10.76,1.15h4.67a.18.18,0,0,1,0,.36H60.41a.18.18,0,0,1,0-.36Zm.12,31.09H59.39c-.19,0-.34-.07-.34-.27s.15-.26.34-.26h1.14c.19,0,.35.07.35.26S60.72,311.9,60.53,311.9Zm3,.2H62c-.26,0-.47-.11-.47-.37s.21-.36.47-.36h1.55c.26,0,.47.1.47.37S63.78,312.1,63.52,312.1Zm2.59-.2H65c-.18,0-.34-.08-.34-.27s.16-.27.34-.27h1.14c.19,0,.34.08.34.27S66.3,311.9,66.11,311.9Zm5.12-3.45c0,1.56-.14,1.9-1.56,1.92H55.81c-1.41,0-1.56-.36-1.56-1.92V283.87c0-1.63.16-1.63,1.74-1.63h13.5c1.59,0,1.75,0,1.75,1.63Z"/>
  </g>
  <g id="shape1139-107">
    <path id="path307" class="cls-1" d="M70.26,284.87c0-1.57-.19-1.58-1.73-1.58H56.9c-1.54,0-1.69,0-1.69,1.58v22.54c0,1.57.16,1.85,1.69,1.85H68.53c1.54,0,1.73-.28,1.73-1.86Zm-8,16.65-4.77-2.83V293l4.77,2.82ZM58,292.25l4.76-2.81,4.78,2.83-4.75,2.81Zm10,6.44-4.77,2.83v-5.63L68,293.07Z"/>
  </g>
  <g id="text312" class="cls-2">
    <g class="cls-2">
      <path class="cls-1" d="M55,327h-.81v-4.7c0-.37,0-.83.07-1.36h0a5.27,5.27,0,0,1-.21.68L51.67,327h-.4l-2.38-5.34a4.1,4.1,0,0,1-.21-.72h0c0,.28,0,.73,0,1.37V327H47.9v-7H49l2.15,4.88a6.76,6.76,0,0,1,.32.84h0c.14-.39.25-.67.33-.86L54,320h1Z"/>
      <path class="cls-1" d="M58.87,327.13a2.31,2.31,0,0,1-1.77-.7,2.53,2.53,0,0,1-.67-1.85,2.7,2.7,0,0,1,.69-2A2.49,2.49,0,0,1,59,321.9a2.25,2.25,0,0,1,1.75.69,2.72,2.72,0,0,1,.63,1.91,2.67,2.67,0,0,1-.68,1.91A2.37,2.37,0,0,1,58.87,327.13Zm.05-4.56a1.53,1.53,0,0,0-1.22.53,2.15,2.15,0,0,0-.45,1.45,2.05,2.05,0,0,0,.46,1.4,1.54,1.54,0,0,0,1.21.51,1.49,1.49,0,0,0,1.2-.5,2.18,2.18,0,0,0,.42-1.43,2.22,2.22,0,0,0-.42-1.45A1.47,1.47,0,0,0,58.92,322.57Z"/>
      <path class="cls-1" d="M63.46,326.29h0V327h-.8v-7.41h.8v3.29h0a1.88,1.88,0,0,1,1.72-1,1.82,1.82,0,0,1,1.51.67,2.8,2.8,0,0,1,.54,1.8,3.07,3.07,0,0,1-.61,2,2,2,0,0,1-1.67.75A1.62,1.62,0,0,1,63.46,326.29Zm0-2v.7a1.48,1.48,0,0,0,.4,1A1.43,1.43,0,0,0,66,325.9a2.49,2.49,0,0,0,.41-1.54,2,2,0,0,0-.38-1.31,1.28,1.28,0,0,0-1-.48,1.43,1.43,0,0,0-1.12.49A1.79,1.79,0,0,0,63.44,324.28Z"/>
      <path class="cls-1" d="M68.92,320.75a.49.49,0,0,1-.36-.15.53.53,0,0,1,0-.74.49.49,0,0,1,.36-.15.52.52,0,0,1,.38.15.5.5,0,0,1,.15.37.51.51,0,0,1-.15.37A.52.52,0,0,1,68.92,320.75Zm.39,6.27h-.8v-5h.8Z"/>
      <path class="cls-1" d="M71.74,327h-.8v-7.41h.8Z"/>
      <path class="cls-1" d="M77.38,324.72H73.85A1.87,1.87,0,0,0,74.3,326a1.54,1.54,0,0,0,1.18.45A2.46,2.46,0,0,0,77,325.9v.76a2.89,2.89,0,0,1-1.74.47,2.11,2.11,0,0,1-1.67-.68,2.79,2.79,0,0,1-.6-1.91,2.76,2.76,0,0,1,.66-1.91,2.15,2.15,0,0,1,1.64-.73,1.88,1.88,0,0,1,1.52.63,2.67,2.67,0,0,1,.54,1.77Zm-.82-.68a1.68,1.68,0,0,0-.34-1.08,1.12,1.12,0,0,0-.91-.39,1.32,1.32,0,0,0-1,.41,1.83,1.83,0,0,0-.48,1.06Z"/>
      <path class="cls-1" d="M59.62,339h-.91l-.75-2H55l-.7,2h-.92l2.69-7h.85Zm-1.92-2.7-1.1-3a2.53,2.53,0,0,1-.11-.47h0a2.53,2.53,0,0,1-.11.47l-1.09,3Z"/>
      <path class="cls-1" d="M61.36,338.29h0v3h-.8V334h.8v.88h0a1.88,1.88,0,0,1,1.73-1,1.84,1.84,0,0,1,1.51.67,2.8,2.8,0,0,1,.54,1.8,3.13,3.13,0,0,1-.61,2,2,2,0,0,1-1.67.75A1.67,1.67,0,0,1,61.36,338.29Zm0-2v.7a1.48,1.48,0,0,0,.4,1,1.43,1.43,0,0,0,2.16-.13,2.49,2.49,0,0,0,.42-1.54,2,2,0,0,0-.39-1.31,1.26,1.26,0,0,0-1-.48,1.45,1.45,0,0,0-1.13.49A1.79,1.79,0,0,0,61.34,336.28Z"/>
      <path class="cls-1" d="M67.24,338.29h0v3h-.8V334h.8v.88h0a1.88,1.88,0,0,1,1.73-1,1.81,1.81,0,0,1,1.5.67,2.74,2.74,0,0,1,.55,1.8,3.13,3.13,0,0,1-.61,2,2,2,0,0,1-1.67.75A1.67,1.67,0,0,1,67.24,338.29Zm0-2v.7a1.48,1.48,0,0,0,.4,1,1.43,1.43,0,0,0,2.16-.13,2.49,2.49,0,0,0,.42-1.54,2,2,0,0,0-.39-1.31,1.26,1.26,0,0,0-1-.48,1.45,1.45,0,0,0-1.13.49A1.79,1.79,0,0,0,67.22,336.28Z"/>
    </g>
  </g>
  <g id="shape1140-112">
    <g id="use15">
      <g id="lend5">
        <path id="path12" class="cls-4" d="M275.36,292.72l8,4-8,4a9.08,9.08,0,0,0,0-8"/>
      </g>
    </g>
  </g>
  <g id="shape1142-119">
    <path id="path327" class="cls-5" d="M67.79,384.27H53.58V355.89H67.79v7.68h.76v-8.44H52.82V385H68.55v-2.32h-.76Z"/>
  </g>
  <g id="shape1143-121">
    <path id="path332" class="cls-5" d="M67,356.69H54.38v4.58H67Zm-9.58,1.91H64v.76H57.44ZM64,360.45H57.41v-.77H64Z"/>
  </g>
  <g id="shape1144-123">
    <path id="path337" class="cls-5" d="M54.34,362v3h8.6v-1.53H67V362Z"/>
  </g>
  <g id="shape1145-125">
    <rect id="rect342" class="cls-5" x="54.34" y="365.86" width="8.6" height="2.68"/>
  </g>
  <g id="shape1146-127">
    <path id="path347" class="cls-5" d="M54.34,383.5H67v-.79H62.91V369.33h-8.6V383.5Zm1.53-2.74h2.29V382H55.87Z"/>
  </g>
  <g id="shape1147-129">
    <path id="path352" class="cls-5" d="M77.57,380.45H75.11v-1.88H72.6v1.88H70.15a1.32,1.32,0,0,0-1.31,1.14h10A1.28,1.28,0,0,0,77.57,380.45Z"/>
  </g>
  <g id="shape1148-131">
    <path id="path357" class="cls-5" d="M82.4,366.47H65.3a.64.64,0,0,0-.67.6V377.2a.64.64,0,0,0,.67.6H82.4a.64.64,0,0,0,.67-.6V367.07A.62.62,0,0,0,82.4,366.47Zm-1,9.84H66.32V368H81.38Z"/>
  </g>
  <g id="shape1149-133">
    <path id="path362" class="cls-5" d="M77.76,373.82v-3.44l-3.51-1.85-3.5,1.78v3.54l3.5,1.81Zm-4.4-2.3.89-.44.86.44-.86.48Zm0-1.14.86-.45.86.45-.86.47Zm1.91,4.52-1,.51v-.93l1-.5Zm0-1.18-1,.51v-.92l1-.51Zm0-1.11-1,.51v-.93l1-.51ZM74.48,371l.86-.45.89.45-.86.45Zm2,3.34-1,.51v-.92l1-.51Zm0-1.17-1,.5v-.92l1-.51Zm0-1.15-1,.51v-.89l1-.51Zm1,1.75-.86.45v-.93l.86-.44Zm0-1.15-.86.45v-.92l.86-.45Zm0-1.14-.86.44V371l.86-.45Zm-.19-1.05-.89.44-.89-.44.86-.45Zm-1.11-.58-.89.45-.86-.45.86-.44Zm-2-1.05.86.45-.86.44-.89-.44Zm-1.11.61.86.44-.86.45-.86-.45Zm-1.08.57.89.45-.89.44-.9-.44Zm-.26,4.27-.86-.45v-.92l.86.44Zm0-1.18-.86-.45v-.92l.86.45Zm0-1.15-.86-.44v-.89l.86.44ZM73,374.8l-1-.51v-.92l1,.51Zm0-1.18-1-.5v-.93l1,.51Zm0-1.14L72,372v-.89l1,.51Zm-.7-1.53.89-.45L74,371l-.89.48Zm1.88,4.46-1-.51V374l1,.51Zm0-1.15-1-.51v-.92l1,.51Zm0-1.14-1-.51v-.93l1,.51Z"/>
  </g>
  <g id="shape1141-135">
    <g id="text365" class="cls-2">
      <path class="cls-5" d="M33.81,395.73v-7h1.94c2.46,0,3.7,1.14,3.7,3.41a3.44,3.44,0,0,1-1,2.61,3.82,3.82,0,0,1-2.75,1Zm.82-6.26V395h1a3,3,0,0,0,2.14-.74,2.77,2.77,0,0,0,.77-2.09c0-1.79-1-2.69-2.86-2.69Z"/>
      <path class="cls-5" d="M44.74,393.43H41.21a1.83,1.83,0,0,0,.45,1.29,1.54,1.54,0,0,0,1.18.45,2.45,2.45,0,0,0,1.55-.55v.75a2.89,2.89,0,0,1-1.74.48,2.14,2.14,0,0,1-1.67-.68,2.83,2.83,0,0,1-.6-1.92,2.73,2.73,0,0,1,.66-1.9,2.12,2.12,0,0,1,1.64-.74,1.86,1.86,0,0,1,1.52.64,2.63,2.63,0,0,1,.54,1.76Zm-.82-.68a1.68,1.68,0,0,0-.34-1.08,1.15,1.15,0,0,0-.91-.38,1.31,1.31,0,0,0-1,.4,1.86,1.86,0,0,0-.48,1.06Z"/>
      <path class="cls-5" d="M45.65,395.55v-.86a2.35,2.35,0,0,0,1.44.48c.7,0,1-.23,1-.7a.62.62,0,0,0-.09-.34.91.91,0,0,0-.24-.24,1.86,1.86,0,0,0-.37-.2l-.44-.18a4.72,4.72,0,0,1-.59-.26,1.9,1.9,0,0,1-.42-.31,1.09,1.09,0,0,1-.25-.38,1.28,1.28,0,0,1-.09-.5,1.15,1.15,0,0,1,.17-.62,1.26,1.26,0,0,1,.43-.46,1.89,1.89,0,0,1,.61-.27,2.77,2.77,0,0,1,.71-.1,2.86,2.86,0,0,1,1.16.23v.81a2.27,2.27,0,0,0-1.27-.36,1.25,1.25,0,0,0-.4,0,.89.89,0,0,0-.31.14.6.6,0,0,0-.27.51.67.67,0,0,0,.07.33.7.7,0,0,0,.2.23,1.79,1.79,0,0,0,.34.19l.44.18a5.68,5.68,0,0,1,.6.26,2.12,2.12,0,0,1,.44.3,1.11,1.11,0,0,1,.29.39,1.21,1.21,0,0,1,.1.52,1.25,1.25,0,0,1-.16.65,1.45,1.45,0,0,1-.44.45,2,2,0,0,1-.63.27,3.08,3.08,0,0,1-.75.09A2.78,2.78,0,0,1,45.65,395.55Z"/>
      <path class="cls-5" d="M54.34,395.73H53.22L51,393.33h0v2.4h-.8v-7.4H51V393h0l2.1-2.29h1l-2.32,2.41Z"/>
      <path class="cls-5" d="M57.48,395.68a1.49,1.49,0,0,1-.75.16c-.87,0-1.31-.49-1.31-1.47v-3h-.86v-.68h.86v-1.22l.8-.26v1.48h1.26v.68H56.22v2.82a1.19,1.19,0,0,0,.17.72.7.7,0,0,0,.57.21.85.85,0,0,0,.52-.16Z"/>
      <path class="cls-5" d="M60.64,395.85a2.34,2.34,0,0,1-1.77-.7,2.61,2.61,0,0,1-.66-1.86,2.7,2.7,0,0,1,.69-2,2.49,2.49,0,0,1,1.86-.71,2.24,2.24,0,0,1,1.74.69,2.73,2.73,0,0,1,.63,1.91,2.7,2.7,0,0,1-.68,1.92A2.36,2.36,0,0,1,60.64,395.85Zm.06-4.56a1.51,1.51,0,0,0-1.22.52,2.17,2.17,0,0,0-.45,1.45,2,2,0,0,0,.45,1.4,1.56,1.56,0,0,0,1.22.51,1.44,1.44,0,0,0,1.19-.5,2.16,2.16,0,0,0,.42-1.43,2.19,2.19,0,0,0-.42-1.44A1.45,1.45,0,0,0,60.7,391.29Z"/>
      <path class="cls-5" d="M65.23,395h0v3h-.8v-7.3h.8v.88h0a1.9,1.9,0,0,1,1.73-1,1.86,1.86,0,0,1,1.51.67,2.8,2.8,0,0,1,.54,1.8,3.07,3.07,0,0,1-.61,2,2,2,0,0,1-1.67.76A1.67,1.67,0,0,1,65.23,395Zm0-2v.7a1.48,1.48,0,0,0,.4,1.05,1.45,1.45,0,0,0,2.17-.12,2.6,2.6,0,0,0,.41-1.55,2,2,0,0,0-.39-1.31,1.27,1.27,0,0,0-1-.47,1.41,1.41,0,0,0-1.12.48A1.77,1.77,0,0,0,65.21,393Z"/>
      <path class="cls-5" d="M72.85,393.26H70.18v-.63h2.67Z"/>
      <path class="cls-5" d="M79.81,395.73h-.9l-.75-2h-3l-.7,2h-.92l2.69-7h.85ZM77.9,393l-1.1-3a3,3,0,0,1-.11-.47h0a2.74,2.74,0,0,1-.11.47l-1.09,3Z"/>
      <path class="cls-5" d="M81.56,395h0v3h-.8v-7.3h.8v.88h0a1.9,1.9,0,0,1,1.73-1,1.87,1.87,0,0,1,1.51.67,2.8,2.8,0,0,1,.54,1.8,3.13,3.13,0,0,1-.61,2,2,2,0,0,1-1.67.76A1.67,1.67,0,0,1,81.56,395Zm0-2v.7a1.48,1.48,0,0,0,.4,1.05,1.44,1.44,0,0,0,2.16-.12,2.53,2.53,0,0,0,.42-1.55,2,2,0,0,0-.39-1.31,1.28,1.28,0,0,0-1-.47,1.44,1.44,0,0,0-1.13.48A1.81,1.81,0,0,0,81.54,393Z"/>
      <path class="cls-5" d="M87.44,395h0v3h-.8v-7.3h.8v.88h0a1.9,1.9,0,0,1,1.73-1,1.84,1.84,0,0,1,1.5.67,2.74,2.74,0,0,1,.55,1.8,3.13,3.13,0,0,1-.61,2,2,2,0,0,1-1.67.76A1.67,1.67,0,0,1,87.44,395Zm0-2v.7a1.48,1.48,0,0,0,.4,1.05,1.44,1.44,0,0,0,2.16-.12,2.53,2.53,0,0,0,.42-1.55,2,2,0,0,0-.39-1.31,1.3,1.3,0,0,0-1-.47,1.44,1.44,0,0,0-1.13.48A1.81,1.81,0,0,0,87.42,393Z"/>
    </g>
  </g>
  <g id="group1150-137">
    <g id="group1151-138">
      <g id="group1152-139">
        <g id="group1153-140">
          <g id="shape1154-141">
            <path id="path379" class="cls-1" d="M7.85,152.05a4.49,4.49,0,0,0-3,5.66c.66,2.56,3,4.22,5.27,3.67a4.49,4.49,0,0,0,3-5.66C12.57,153.05,10.16,151.39,7.85,152.05Z"/>
          </g>
        </g>
        <g id="group1155-143">
          <g id="shape1156-144">
            <path id="path387" class="cls-1" d="M12.78,162.07c-.43,0-.88.77-1.54,1.11s-1.31.88-3.17,0-2.1-1.67-3.64-1.67-4,2.78-4,6.88H16a12.24,12.24,0,0,0-1.11-4.22C13.77,162.07,13.23,162.07,12.78,162.07Z"/>
          </g>
        </g>
      </g>
    </g>
    <g id="group1157-146">
      <g id="shape1158-147">
        <path id="path397" class="cls-6" d="M14.19,157.12H10.07a.71.71,0,0,0-.65.66v2.85a.73.73,0,0,0,.76.66h.76v5.15a1,1,0,0,0,1,1.09,1,1,0,0,0,1-1h.21v-.66c0-.22.33-.33.33-.33v-.33c-.33-.11-.54-.33-.54-.44v-.32l.21-.22a3.53,3.53,0,0,0,.33-.55,2.4,2.4,0,0,1-.33-.55c-.1-.11-.1-.33-.21-.44v-.22a2.52,2.52,0,0,1,.76-1.09h.54a.71.71,0,0,0,.65-.66v-3A.63.63,0,0,0,14.19,157.12Zm-2.39,9.54c0,.22,0,.33-.21.33s-.22-.22-.22-.33v-4.82c0-.22.11-.33.22-.33s.21.22.21.33Zm.33-7.78a.66.66,0,0,1,0-1.32.71.71,0,0,1,.65.66A.63.63,0,0,1,12.13,158.88Z"/>
      </g>
      <g id="shape1159-149">
        <path id="path402" class="cls-7" d="M11.57,167a.24.24,0,0,1-.22-.22v-5a.22.22,0,1,1,.44,0v5.1C11.79,167,11.68,167,11.57,167Z"/>
      </g>
      <g id="shape1160-151">
        <ellipse id="ellipse407" class="cls-7" cx="12.14" cy="158.2" rx="0.66" ry="0.67"/>
      </g>
    </g>
  </g>
  <g id="shape1170-153">
    <g id="use15-2" data-name="use15">
      <g id="lend5-2" data-name="lend5">
        <path id="path12-2" data-name="path12" class="cls-4" d="M275.36,292.71l8,4-8,4a9.06,9.06,0,0,0,0-8"/>
      </g>
    </g>
  </g>
  <g id="shape1171-158">
    <g id="use15-3" data-name="use15">
      <g id="lend5-3" data-name="lend5">
        <path id="path12-3" data-name="path12" class="cls-4" d="M275.37,292.71l8,4-8,4a9,9,0,0,0,0-8"/>
      </g>
    </g>
  </g>
  <g id="shape1172-163">
    <g id="use15-4" data-name="use15">
      <g id="lend5-4" data-name="lend5">
        <path id="path12-4" data-name="path12" class="cls-4" d="M275.37,292.71l8,4-8,4a9,9,0,0,0,0-8"/>
      </g>
    </g>
  </g>
  <g id="shape1173-168">
    <g id="use15-5" data-name="use15">
      <g id="lend5-5" data-name="lend5">
        <path id="path12-5" data-name="path12" class="cls-4" d="M275.37,292.71l8,4-8,4a9,9,0,0,0,0-8"/>
      </g>
    </g>
  </g>
  <path id="path436" class="cls-1" d="M413.15,284h-20.5a1.1,1.1,0,0,0-1.09,1.11v16.74a1.09,1.09,0,0,0,1.09,1.1h5.28a3.29,3.29,0,0,0,3.21,2.27,3.38,3.38,0,0,0,0-6.75,3.29,3.29,0,0,0-3.21,2.27h-4.19v-12h18.31v12H408.6a7.61,7.61,0,0,0-7.46-6.56,8.25,8.25,0,0,0-3.64.92l1,2a5.27,5.27,0,0,1,2.55-.67,5.46,5.46,0,0,1,0,10.92,5.28,5.28,0,0,1-2.55-.68l-1,2a7.4,7.4,0,0,0,3.64.92,7.61,7.61,0,0,0,7.46-6.56h4.55a1.09,1.09,0,0,0,1.09-1.1V285.08A1.14,1.14,0,0,0,413.15,284Z"/>
  <g id="text438" class="cls-2">
    <path class="cls-1" d="M390.77,322.84h-.9l-.75-2h-3l-.7,2h-.92l2.69-7h.85Zm-1.91-2.7-1.1-3a2,2,0,0,1-.11-.47h0a2.53,2.53,0,0,1-.11.47l-1.09,3Z"/>
    <path class="cls-1" d="M392.63,320.19v2.65h-.83v-7h1.93a2.56,2.56,0,0,1,1.74.55,2,2,0,0,1,.62,1.54,2.1,2.1,0,0,1-.69,1.63,2.59,2.59,0,0,1-1.85.64Zm0-3.61v2.87h.85a1.92,1.92,0,0,0,1.3-.39,1.38,1.38,0,0,0,.45-1.1c0-.92-.55-1.38-1.64-1.38Z"/>
    <path class="cls-1" d="M398.23,322.84h-.82v-7h.82Z"/>
    <path class="cls-1" d="M402.52,320.36h-2.67v-.63h2.67Z"/>
    <path class="cls-1" d="M409.49,322.84h-.91l-.75-2h-3l-.7,2h-.92l2.69-7h.85Zm-1.92-2.7-1.1-3a2.75,2.75,0,0,1-.11-.47h0a2.53,2.53,0,0,1-.11.47l-1.09,3Z"/>
    <path class="cls-1" d="M411.23,322.11h0v3h-.8v-7.3h.8v.87h0a1.89,1.89,0,0,1,1.73-1,1.84,1.84,0,0,1,1.51.67,2.8,2.8,0,0,1,.54,1.8,3.15,3.15,0,0,1-.61,2,2,2,0,0,1-1.67.75A1.67,1.67,0,0,1,411.23,322.11Zm0-2v.69a1.49,1.49,0,0,0,.4,1.06,1.37,1.37,0,0,0,1,.43,1.33,1.33,0,0,0,1.14-.56,2.51,2.51,0,0,0,.42-1.55,2,2,0,0,0-.39-1.3,1.26,1.26,0,0,0-1-.48,1.42,1.42,0,0,0-1.13.49A1.79,1.79,0,0,0,411.21,320.1Z"/>
    <path class="cls-1" d="M417.11,322.11h0v3h-.8v-7.3h.8v.87h0a1.89,1.89,0,0,1,1.73-1,1.81,1.81,0,0,1,1.5.67,2.74,2.74,0,0,1,.55,1.8,3.15,3.15,0,0,1-.61,2,2,2,0,0,1-1.67.75A1.67,1.67,0,0,1,417.11,322.11Zm0-2v.69a1.49,1.49,0,0,0,.4,1.06,1.37,1.37,0,0,0,1,.43,1.33,1.33,0,0,0,1.14-.56,2.51,2.51,0,0,0,.42-1.55,2,2,0,0,0-.39-1.3,1.26,1.26,0,0,0-1-.48,1.42,1.42,0,0,0-1.13.49A1.79,1.79,0,0,0,417.09,320.1Z"/>
  </g>
  <g id="shape1175-176">
    <g id="use15-6" data-name="use15">
      <g id="lend5-6" data-name="lend5">
        <path id="path12-6" data-name="path12" class="cls-4" d="M383.08,292.71l8,4-8,4a9,9,0,0,0,0-8"/>
      </g>
    </g>
  </g>
  <g id="group1176-181">
    <g id="group1177-182">
      <g id="group1178-183">
        <g id="group1179-184">
          <g id="shape1180-185">
            <path id="path456" class="cls-1" d="M10.33,216.18a4.49,4.49,0,0,0-3,5.66c.66,2.56,3,4.22,5.27,3.67a4.49,4.49,0,0,0,3-5.66C15.05,217.18,12.64,215.52,10.33,216.18Z"/>
          </g>
        </g>
        <g id="group1181-187">
          <g id="shape1182-188">
            <path id="path464" class="cls-1" d="M15.27,226.2c-.44,0-.88.77-1.54,1.11s-1.32.88-3.18,0-2.09-1.67-3.63-1.67-4.06,2.78-4.06,6.88H18.45a12.14,12.14,0,0,0-1.1-4.22C16.25,226.2,15.71,226.2,15.27,226.2Z"/>
          </g>
        </g>
      </g>
    </g>
    <g id="group1183-190">
      <g id="shape1184-191">
        <path id="path474" class="cls-6" d="M16.67,221.25H12.55a.71.71,0,0,0-.65.66v2.85a.73.73,0,0,0,.76.66h.76v5.15a1,1,0,0,0,1,1.09,1,1,0,0,0,1-1h.21V230c0-.22.33-.33.33-.33v-.33c-.33-.11-.54-.33-.54-.44v-.32l.21-.22a3.53,3.53,0,0,0,.33-.55,2.4,2.4,0,0,1-.33-.55c-.1-.11-.1-.33-.21-.44v-.22a2.52,2.52,0,0,1,.76-1.09h.54a.71.71,0,0,0,.65-.66v-3A.63.63,0,0,0,16.67,221.25Zm-2.39,9.54c0,.22,0,.33-.21.33s-.22-.22-.22-.33V226c0-.22.11-.33.22-.33s.21.22.21.33Zm.33-7.78a.66.66,0,0,1,0-1.32.71.71,0,0,1,.65.66A.63.63,0,0,1,14.61,223Z"/>
      </g>
      <g id="shape1185-193">
        <path id="path479" class="cls-7" d="M14.05,231.09a.24.24,0,0,1-.22-.22v-5a.22.22,0,1,1,.44,0V231C14.27,231.09,14.16,231.09,14.05,231.09Z"/>
      </g>
      <g id="shape1186-195">
        <ellipse id="ellipse484" class="cls-7" cx="14.62" cy="222.34" rx="0.66" ry="0.67"/>
      </g>
    </g>
  </g>
  <g id="group1187-197">
    <g id="group1188-198">
      <g id="group1189-199">
        <g id="group1190-200">
          <g id="shape1191-201">
            <path id="path499" class="cls-1" d="M7.85,76.58a4.49,4.49,0,0,0-3,5.66c.66,2.56,3,4.22,5.27,3.67a4.49,4.49,0,0,0,3-5.66C12.57,77.58,10.16,75.92,7.85,76.58Z"/>
          </g>
        </g>
        <g id="group1192-203">
          <g id="shape1193-204">
            <path id="path507" class="cls-1" d="M12.78,86.6c-.43,0-.88.77-1.54,1.11s-1.31.88-3.17,0S6,86,4.43,86s-4,2.78-4,6.88H16a12.24,12.24,0,0,0-1.11-4.22C13.77,86.6,13.23,86.6,12.78,86.6Z"/>
          </g>
        </g>
      </g>
    </g>
    <g id="group1194-206">
      <g id="shape1195-207">
        <path id="path517" class="cls-6" d="M14.19,81.65H10.07a.71.71,0,0,0-.65.66v2.85a.73.73,0,0,0,.76.66h.76V91a1,1,0,0,0,1,1.09,1,1,0,0,0,1-1h.21v-.66c0-.22.33-.33.33-.33v-.33c-.33-.11-.54-.33-.54-.44V89l.21-.22a3.53,3.53,0,0,0,.33-.55,2.4,2.4,0,0,1-.33-.55c-.1-.11-.1-.33-.21-.44V87a2.52,2.52,0,0,1,.76-1.09h.54a.71.71,0,0,0,.65-.66v-3A.63.63,0,0,0,14.19,81.65ZM11.8,91.19c0,.22,0,.33-.21.33s-.22-.22-.22-.33V86.37c0-.22.11-.33.22-.33s.21.22.21.33Zm.33-7.78a.66.66,0,0,1,0-1.32.71.71,0,0,1,.65.66A.63.63,0,0,1,12.13,83.41Z"/>
      </g>
      <g id="shape1196-209">
        <path id="path522" class="cls-7" d="M11.57,91.49a.24.24,0,0,1-.22-.22v-5a.22.22,0,1,1,.44,0v5.1C11.79,91.49,11.68,91.49,11.57,91.49Z"/>
      </g>
      <g id="shape1197-211">
        <ellipse id="ellipse527" class="cls-7" cx="12.14" cy="82.73" rx="0.66" ry="0.67"/>
      </g>
    </g>
  </g>
  <g id="group1198-213">
    <g id="group1199-214">
      <g id="group1200-215">
        <g id="group1201-216">
          <g id="shape1202-217">
            <path id="path542" class="cls-1" d="M10.33,368.69a4.49,4.49,0,0,0-3,5.66c.66,2.56,3,4.22,5.27,3.67a4.49,4.49,0,0,0,3-5.66C15.05,369.69,12.64,368,10.33,368.69Z"/>
          </g>
        </g>
        <g id="group1203-219">
          <g id="shape1204-220">
            <path id="path550" class="cls-1" d="M15.27,378.71c-.44,0-.88.77-1.54,1.11s-1.32.88-3.18,0-2.09-1.67-3.63-1.67S2.86,380.93,2.86,385H18.45a12.14,12.14,0,0,0-1.1-4.22C16.25,378.71,15.71,378.71,15.27,378.71Z"/>
          </g>
        </g>
      </g>
    </g>
    <g id="group1205-222">
      <g id="shape1206-223">
        <path id="path560" class="cls-6" d="M16.67,373.76H12.55a.71.71,0,0,0-.65.66v2.85a.73.73,0,0,0,.76.66h.76v5.15a1,1,0,0,0,1,1.09,1,1,0,0,0,1-1h.21v-.66c0-.22.33-.33.33-.33v-.33c-.33-.11-.54-.33-.54-.44v-.32l.21-.22a3.53,3.53,0,0,0,.33-.55,2.4,2.4,0,0,1-.33-.55c-.1-.11-.1-.33-.21-.44v-.22a2.52,2.52,0,0,1,.76-1.09h.54a.71.71,0,0,0,.65-.66v-3A.63.63,0,0,0,16.67,373.76Zm-2.39,9.54c0,.22,0,.33-.21.33s-.22-.22-.22-.33v-4.82c0-.22.11-.33.22-.33s.21.22.21.33Zm.33-7.78a.66.66,0,0,1,0-1.32.71.71,0,0,1,.65.66A.63.63,0,0,1,14.61,375.52Z"/>
      </g>
      <g id="shape1207-225">
        <path id="path565" class="cls-7" d="M14.05,383.6a.24.24,0,0,1-.22-.22v-5a.22.22,0,1,1,.44,0v5.1C14.27,383.6,14.16,383.6,14.05,383.6Z"/>
      </g>
      <g id="shape1208-227">
        <ellipse id="ellipse570" class="cls-7" cx="14.62" cy="374.84" rx="0.66" ry="0.67"/>
      </g>
    </g>
  </g>
  <g id="group1218-229">
    <g id="group1219-230">
      <g id="group1220-231">
        <g id="group1221-232">
          <g id="shape1222-233">
            <path id="path585" class="cls-1" d="M10.33,431.4a4.49,4.49,0,0,0-3,5.66c.66,2.56,3,4.22,5.27,3.67a4.49,4.49,0,0,0,3-5.66C15.05,432.4,12.64,430.74,10.33,431.4Z"/>
          </g>
        </g>
        <g id="group1223-235">
          <g id="shape1224-236">
            <path id="path593" class="cls-1" d="M15.27,441.42c-.44,0-.88.77-1.54,1.11s-1.32.88-3.18,0-2.09-1.67-3.63-1.67-4.06,2.78-4.06,6.88H18.45a12.14,12.14,0,0,0-1.1-4.22C16.25,441.42,15.71,441.42,15.27,441.42Z"/>
          </g>
        </g>
      </g>
    </g>
    <g id="group1225-238">
      <g id="shape1226-239">
        <path id="path603" class="cls-6" d="M16.67,436.47H12.55a.71.71,0,0,0-.65.66V440a.73.73,0,0,0,.76.66h.76v5.15a1,1,0,0,0,1,1.09,1,1,0,0,0,1-1h.21v-.66c0-.22.33-.33.33-.33v-.33c-.33-.11-.54-.33-.54-.44v-.32l.21-.22a3.53,3.53,0,0,0,.33-.55,2.4,2.4,0,0,1-.33-.55c-.1-.11-.1-.33-.21-.44v-.22a2.52,2.52,0,0,1,.76-1.09h.54a.71.71,0,0,0,.65-.66v-3A.63.63,0,0,0,16.67,436.47ZM14.28,446c0,.22,0,.33-.21.33s-.22-.22-.22-.33v-4.82c0-.22.11-.33.22-.33s.21.22.21.33Zm.33-7.78a.66.66,0,0,1,0-1.32.71.71,0,0,1,.65.66A.63.63,0,0,1,14.61,438.23Z"/>
      </g>
      <g id="shape1227-241">
        <path id="path608" class="cls-7" d="M14.05,446.31a.24.24,0,0,1-.22-.22v-5a.22.22,0,1,1,.44,0v5.1C14.27,446.31,14.16,446.31,14.05,446.31Z"/>
      </g>
      <g id="shape1228-243">
        <ellipse id="ellipse613" class="cls-7" cx="14.62" cy="437.56" rx="0.66" ry="0.67"/>
      </g>
    </g>
  </g>
  <g class="cls-2">
    <path class="cls-1" d="M35.36,41.85v-1a1.75,1.75,0,0,0,.4.27,3.45,3.45,0,0,0,.48.2l.52.12a2.74,2.74,0,0,0,.48,0,1.86,1.86,0,0,0,1.13-.28.92.92,0,0,0,.37-.8,1,1,0,0,0-.12-.5,1.55,1.55,0,0,0-.35-.38,2.58,2.58,0,0,0-.52-.33l-.64-.34c-.25-.12-.48-.25-.69-.37a3.46,3.46,0,0,1-.55-.42,1.84,1.84,0,0,1-.37-.52,1.62,1.62,0,0,1-.13-.68,1.64,1.64,0,0,1,.21-.84,1.79,1.79,0,0,1,.55-.58,2.5,2.5,0,0,1,.78-.34A3.34,3.34,0,0,1,37.8,35a3.55,3.55,0,0,1,1.51.24v.93a2.71,2.71,0,0,0-1.59-.43,3.29,3.29,0,0,0-.54.05,1.46,1.46,0,0,0-.48.19,1,1,0,0,0-.34.32.88.88,0,0,0-.13.49,1,1,0,0,0,.1.47,1,1,0,0,0,.29.35,3.33,3.33,0,0,0,.48.32l.65.33a8.06,8.06,0,0,1,.71.39,3.4,3.4,0,0,1,.59.45,2.09,2.09,0,0,1,.4.55,1.6,1.6,0,0,1,.15.7,1.8,1.8,0,0,1-.2.87,1.73,1.73,0,0,1-.55.59,2.23,2.23,0,0,1-.79.32,4.19,4.19,0,0,1-1,.1l-.41,0-.5-.08L35.72,42A1.52,1.52,0,0,1,35.36,41.85Z"/>
    <path class="cls-1" d="M41.3,35.87a.53.53,0,0,1-.37-.15.5.5,0,0,1-.15-.37.52.52,0,0,1,.15-.38.57.57,0,0,1,.37-.14.53.53,0,0,1,.37.14.49.49,0,0,1,.16.38.46.46,0,0,1-.16.36A.51.51,0,0,1,41.3,35.87Zm.39,6.26h-.8v-5h.8Z"/>
    <path class="cls-1" d="M47.46,42.13h-.8V39.28c0-1.06-.39-1.59-1.16-1.59a1.25,1.25,0,0,0-1,.45,1.64,1.64,0,0,0-.4,1.14v2.85h-.8v-5h.8V38h0A1.81,1.81,0,0,1,45.77,37a1.52,1.52,0,0,1,1.26.53,2.34,2.34,0,0,1,.43,1.53Z"/>
    <path class="cls-1" d="M53.24,41.73q0,2.76-2.64,2.76A3.58,3.58,0,0,1,49,44.14v-.8a3.33,3.33,0,0,0,1.61.46c1.23,0,1.85-.65,1.85-2V41.3h0a2,2,0,0,1-3.22.29,2.67,2.67,0,0,1-.57-1.79,3.11,3.11,0,0,1,.61-2A2.06,2.06,0,0,1,50.92,37a1.64,1.64,0,0,1,1.5.81h0v-.7h.8Zm-.8-1.86v-.73a1.45,1.45,0,0,0-.4-1,1.32,1.32,0,0,0-1-.43,1.39,1.39,0,0,0-1.16.54,2.4,2.4,0,0,0-.42,1.51,2.08,2.08,0,0,0,.4,1.34,1.32,1.32,0,0,0,1.07.5A1.41,1.41,0,0,0,52,41.1,1.8,1.8,0,0,0,52.44,39.87Z"/>
    <path class="cls-1" d="M55.66,42.13h-.8v-7.4h.8Z"/>
    <path class="cls-1" d="M61.3,39.84H57.77a1.82,1.82,0,0,0,.45,1.28,1.53,1.53,0,0,0,1.18.46A2.46,2.46,0,0,0,61,41v.75a2.89,2.89,0,0,1-1.74.48,2.1,2.1,0,0,1-1.66-.68,3.19,3.19,0,0,1,.05-3.82A2.12,2.12,0,0,1,59.25,37a1.86,1.86,0,0,1,1.51.63,2.66,2.66,0,0,1,.54,1.77Zm-.82-.68a1.59,1.59,0,0,0-.33-1.08,1.14,1.14,0,0,0-.92-.39,1.28,1.28,0,0,0-1,.41,1.78,1.78,0,0,0-.49,1.06Z"/>
    <path class="cls-1" d="M65.07,39.66H62.4V39h2.67Z"/>
    <path class="cls-1" d="M67.44,39.49v2.64h-.82v-7h1.92a2.56,2.56,0,0,1,1.74.55,2,2,0,0,1,.62,1.54,2.1,2.1,0,0,1-.69,1.63,2.57,2.57,0,0,1-1.85.64Zm0-3.61v2.87h.86a1.89,1.89,0,0,0,1.29-.39,1.38,1.38,0,0,0,.45-1.1c0-.92-.55-1.38-1.64-1.38Z"/>
    <path class="cls-1" d="M75.35,42.13h-.8v-.78h0a1.68,1.68,0,0,1-1.54.9,1.65,1.65,0,0,1-1.17-.39,1.39,1.39,0,0,1-.42-1c0-.94.55-1.48,1.65-1.63l1.5-.21c0-.85-.35-1.28-1-1.28a2.46,2.46,0,0,0-1.63.62v-.82a3,3,0,0,1,1.7-.47c1.17,0,1.76.62,1.76,1.86Zm-.8-2.52-1.21.16a2,2,0,0,0-.84.28.78.78,0,0,0-.28.7.79.79,0,0,0,.26.6,1,1,0,0,0,.7.23,1.29,1.29,0,0,0,1-.42,1.49,1.49,0,0,0,.39-1.06Z"/>
    <path class="cls-1" d="M81.13,41.73q0,2.76-2.64,2.76a3.58,3.58,0,0,1-1.62-.35v-.8a3.33,3.33,0,0,0,1.61.46c1.23,0,1.84-.65,1.84-2V41.3h0a1.87,1.87,0,0,1-1.71,1,1.89,1.89,0,0,1-1.51-.66,2.72,2.72,0,0,1-.56-1.79,3.11,3.11,0,0,1,.61-2A2.06,2.06,0,0,1,78.81,37a1.61,1.61,0,0,1,1.49.81h0v-.7h.81Zm-.81-1.86v-.73a1.41,1.41,0,0,0-.4-1,1.3,1.3,0,0,0-1-.43,1.38,1.38,0,0,0-1.16.54,2.4,2.4,0,0,0-.42,1.51,2.08,2.08,0,0,0,.4,1.34,1.31,1.31,0,0,0,1.07.5,1.39,1.39,0,0,0,1.09-.48A1.8,1.8,0,0,0,80.32,39.87Z"/>
    <path class="cls-1" d="M86.76,39.84H83.23a1.92,1.92,0,0,0,.45,1.28,1.54,1.54,0,0,0,1.19.46A2.46,2.46,0,0,0,86.42,41v.75a2.9,2.9,0,0,1-1.75.48A2.12,2.12,0,0,1,83,41.57a2.8,2.8,0,0,1-.61-1.92,2.75,2.75,0,0,1,.67-1.9A2.1,2.1,0,0,1,84.71,37a1.9,1.9,0,0,1,1.52.63,2.65,2.65,0,0,1,.53,1.77Zm-.82-.68a1.59,1.59,0,0,0-.33-1.08,1.14,1.14,0,0,0-.92-.39,1.32,1.32,0,0,0-1,.41,1.91,1.91,0,0,0-.49,1.06Z"/>
    <path class="cls-1" d="M90.53,39.66H87.87V39h2.66Z"/>
    <path class="cls-1" d="M36.18,47.13l-2,7h-1L31.8,49a3.18,3.18,0,0,1-.12-.72h0a3.29,3.29,0,0,1-.12.71l-1.45,5.12h-.95l-2.06-7H28l1.49,5.37a3.29,3.29,0,0,1,.11.71h0a4,4,0,0,1,.15-.71l1.55-5.37h.78l1.49,5.41a4.92,4.92,0,0,1,.12.66h0a3.27,3.27,0,0,1,.13-.68l1.43-5.39Z"/>
    <path class="cls-1" d="M40.74,51.84H37.21a1.82,1.82,0,0,0,.45,1.28,1.52,1.52,0,0,0,1.18.46A2.46,2.46,0,0,0,40.39,53v.75a2.89,2.89,0,0,1-1.74.48A2.14,2.14,0,0,1,37,53.57a2.8,2.8,0,0,1-.6-1.92,2.75,2.75,0,0,1,.66-1.9A2.12,2.12,0,0,1,38.68,49a1.88,1.88,0,0,1,1.52.63,2.66,2.66,0,0,1,.54,1.77Zm-.82-.68a1.64,1.64,0,0,0-.34-1.08,1.12,1.12,0,0,0-.91-.39,1.32,1.32,0,0,0-1,.41,1.83,1.83,0,0,0-.48,1.06Z"/>
    <path class="cls-1" d="M42.77,53.41h0v.72H42v-7.4h.8V50h0a1.89,1.89,0,0,1,1.73-1,1.81,1.81,0,0,1,1.5.67,2.74,2.74,0,0,1,.55,1.8,3.15,3.15,0,0,1-.61,2,2,2,0,0,1-1.67.75A1.65,1.65,0,0,1,42.77,53.41Zm0-2v.69a1.49,1.49,0,0,0,.4,1.06,1.37,1.37,0,0,0,1,.43A1.33,1.33,0,0,0,45.31,53a2.53,2.53,0,0,0,.42-1.55,2,2,0,0,0-.39-1.3,1.26,1.26,0,0,0-1-.48,1.42,1.42,0,0,0-1.13.49A1.79,1.79,0,0,0,42.75,51.4Z"/>
    <path class="cls-1" d="M51.41,54.13H50.6v-.78h0a1.69,1.69,0,0,1-1.54.9,1.65,1.65,0,0,1-1.17-.39,1.39,1.39,0,0,1-.42-1c0-.94.55-1.48,1.65-1.63L50.6,51c0-.85-.34-1.28-1-1.28a2.48,2.48,0,0,0-1.63.62v-.82a3.06,3.06,0,0,1,1.7-.47q1.77,0,1.77,1.86Zm-.81-2.52-1.2.16a2,2,0,0,0-.84.28.78.78,0,0,0-.28.7.76.76,0,0,0,.26.6,1,1,0,0,0,.69.23,1.29,1.29,0,0,0,1-.42,1.48,1.48,0,0,0,.38-1.06Z"/>
    <path class="cls-1" d="M57.06,54.13h-.8V51.28c0-1.06-.38-1.59-1.16-1.59a1.25,1.25,0,0,0-1,.45,1.68,1.68,0,0,0-.39,1.14v2.85h-.81v-5h.81V50h0A1.81,1.81,0,0,1,55.38,49a1.51,1.51,0,0,1,1.25.53,2.34,2.34,0,0,1,.43,1.53Z"/>
    <path class="cls-1" d="M64.87,49.13l-1.5,5h-.83l-1-3.57a2.21,2.21,0,0,1-.07-.47h0a2.27,2.27,0,0,1-.11.46l-1.12,3.58h-.8l-1.51-5h.84l1,3.76a2.46,2.46,0,0,1,.06.45h0a2.18,2.18,0,0,1,.09-.46l1.15-3.75h.74l1,3.77a2.37,2.37,0,0,1,.07.45h0a2.53,2.53,0,0,1,.09-.45l1-3.77Z"/>
    <path class="cls-1" d="M69.82,51.84H66.29a1.82,1.82,0,0,0,.45,1.28,1.52,1.52,0,0,0,1.18.46A2.46,2.46,0,0,0,69.47,53v.75a2.89,2.89,0,0,1-1.74.48,2.14,2.14,0,0,1-1.67-.68,2.8,2.8,0,0,1-.6-1.92,2.75,2.75,0,0,1,.66-1.9A2.12,2.12,0,0,1,67.76,49a1.88,1.88,0,0,1,1.52.63,2.66,2.66,0,0,1,.54,1.77ZM69,51.16a1.59,1.59,0,0,0-.34-1.08,1.12,1.12,0,0,0-.91-.39,1.28,1.28,0,0,0-1,.41,1.78,1.78,0,0,0-.49,1.06Z"/>
    <path class="cls-1" d="M75.18,54.13h-.8V51.28c0-1.06-.39-1.59-1.16-1.59a1.29,1.29,0,0,0-1,.45,1.68,1.68,0,0,0-.39,1.14v2.85H71v-5h.8V50h0A1.8,1.8,0,0,1,73.49,49a1.52,1.52,0,0,1,1.26.53,2.34,2.34,0,0,1,.43,1.53Z"/>
    <path class="cls-1" d="M81,54.13h-.8v-.84h0a2,2,0,0,1-3.23.29,2.8,2.8,0,0,1-.56-1.83,3,3,0,0,1,.62-2A2.09,2.09,0,0,1,78.64,49a1.62,1.62,0,0,1,1.5.81h0v-3.1H81Zm-.8-2.26v-.73a1.46,1.46,0,0,0-.4-1,1.36,1.36,0,0,0-1-.42,1.37,1.37,0,0,0-1.15.54,2.35,2.35,0,0,0-.42,1.48,2.13,2.13,0,0,0,.4,1.37,1.33,1.33,0,0,0,1.08.5,1.35,1.35,0,0,0,1.09-.49A1.77,1.77,0,0,0,80.16,51.87Z"/>
    <path class="cls-1" d="M86.62,54.13h-.8v-.79h0a1.64,1.64,0,0,1-1.54.91c-1.19,0-1.79-.71-1.79-2.13v-3h.8V52c0,1,.4,1.58,1.21,1.58a1.24,1.24,0,0,0,1-.43A1.68,1.68,0,0,0,85.82,52V49.13h.8Z"/>
    <path class="cls-1" d="M92.39,54.13h-.8V51.28q0-1.59-1.17-1.59a1.25,1.25,0,0,0-1,.45A1.68,1.68,0,0,0,89,51.28v2.85h-.8v-5H89V50h0A1.79,1.79,0,0,1,90.7,49a1.51,1.51,0,0,1,1.25.53,2.35,2.35,0,0,1,.44,1.53Z"/>
    <path class="cls-1" d="M98.16,53.73c0,1.84-.88,2.76-2.63,2.76a3.58,3.58,0,0,1-1.62-.35v-.8a3.33,3.33,0,0,0,1.61.46c1.23,0,1.84-.65,1.84-2V53.3h0a2,2,0,0,1-3.22.29,2.67,2.67,0,0,1-.57-1.79,3.11,3.11,0,0,1,.62-2A2,2,0,0,1,95.84,49a1.62,1.62,0,0,1,1.5.81h0v-.7h.8Zm-.8-1.86v-.73a1.41,1.41,0,0,0-.4-1,1.3,1.3,0,0,0-1-.43,1.4,1.4,0,0,0-1.17.54,2.4,2.4,0,0,0-.42,1.51,2.08,2.08,0,0,0,.41,1.34,1.3,1.3,0,0,0,1.06.5,1.4,1.4,0,0,0,1.1-.48A1.8,1.8,0,0,0,97.36,51.87Z"/>
  </g>
  <g id="group1453-290">
    <g id="group1454-291">
      <g id="group1455-292">
        <g id="group1456-293">
          <g id="shape1457-294">
            <path id="path747" class="cls-1" d="M7.85,6.77a4.49,4.49,0,0,0-3,5.66c.66,2.56,3,4.22,5.27,3.67a4.49,4.49,0,0,0,3-5.66C12.57,7.77,10.16,6.11,7.85,6.77Z"/>
          </g>
        </g>
        <g id="group1458-296">
          <g id="shape1459-297">
            <path id="path755" class="cls-1" d="M12.78,16.79c-.43,0-.88.77-1.54,1.11s-1.31.88-3.17,0S6,16.23,4.43,16.23s-4,2.78-4,6.88H16a12.24,12.24,0,0,0-1.11-4.22C13.77,16.79,13.23,16.79,12.78,16.79Z"/>
          </g>
        </g>
      </g>
    </g>
    <g id="group1460-299">
      <g id="shape1461-300">
        <path id="path765" class="cls-6" d="M14.19,11.84H10.07a.71.71,0,0,0-.65.66v2.85a.73.73,0,0,0,.76.66h.76v5.15a1,1,0,0,0,1,1.09,1,1,0,0,0,1-1h.21v-.66c0-.22.33-.33.33-.33V20c-.33-.11-.54-.33-.54-.44v-.32L13.1,19a3.53,3.53,0,0,0,.33-.55,2.4,2.4,0,0,1-.33-.55c-.1-.11-.1-.33-.21-.44v-.22a2.52,2.52,0,0,1,.76-1.09h.54a.71.71,0,0,0,.65-.66v-3A.63.63,0,0,0,14.19,11.84ZM11.8,21.38c0,.22,0,.33-.21.33s-.22-.22-.22-.33V16.56c0-.22.11-.33.22-.33s.21.22.21.33Zm.33-7.78a.66.66,0,0,1,0-1.32.71.71,0,0,1,.65.66A.63.63,0,0,1,12.13,13.6Z"/>
      </g>
      <g id="shape1462-302">
        <path id="path770" class="cls-7" d="M11.57,21.68a.24.24,0,0,1-.22-.22v-5a.22.22,0,1,1,.44,0v5.1C11.79,21.68,11.68,21.68,11.57,21.68Z"/>
      </g>
      <g id="shape1463-304">
        <ellipse id="ellipse775" class="cls-7" cx="12.14" cy="12.93" rx="0.66" ry="0.67"/>
      </g>
    </g>
  </g>
  <g id="shape1464-348">
    <g id="text893" class="cls-2">
      <path class="cls-1" d="M51.05,104.94l-2,7h-1l-1.44-5.12a3.19,3.19,0,0,1-.11-.71h0a3.32,3.32,0,0,1-.13.7L45,111.94H44l-2-7h.9l1.49,5.37a3.2,3.2,0,0,1,.12.7h0a4.07,4.07,0,0,1,.16-.7l1.54-5.37H47l1.48,5.41a2.79,2.79,0,0,1,.12.65h0a4,4,0,0,1,.13-.67l1.43-5.39Z"/>
      <path class="cls-1" d="M55.61,109.64H52.08a2,2,0,0,0,.45,1.29,1.56,1.56,0,0,0,1.18.45,2.43,2.43,0,0,0,1.56-.56v.76a2.9,2.9,0,0,1-1.75.48,2.09,2.09,0,0,1-1.66-.69,3.18,3.18,0,0,1,0-3.81,2.13,2.13,0,0,1,1.65-.74,1.87,1.87,0,0,1,1.52.64,2.68,2.68,0,0,1,.53,1.76Zm-.82-.68a1.62,1.62,0,0,0-.33-1.08,1.14,1.14,0,0,0-.92-.39,1.3,1.3,0,0,0-1,.41,1.84,1.84,0,0,0-.49,1.06Z"/>
      <path class="cls-1" d="M57.64,111.22h0v.72h-.8v-7.4h.8v3.28h0a1.89,1.89,0,0,1,1.73-1,1.83,1.83,0,0,1,1.51.67,2.8,2.8,0,0,1,.54,1.8,3.07,3.07,0,0,1-.61,2,2,2,0,0,1-1.67.76A1.67,1.67,0,0,1,57.64,111.22Zm0-2v.7a1.49,1.49,0,0,0,.41,1,1.33,1.33,0,0,0,1,.43,1.31,1.31,0,0,0,1.14-.56,2.49,2.49,0,0,0,.41-1.54,2,2,0,0,0-.38-1.31,1.28,1.28,0,0,0-1-.48,1.43,1.43,0,0,0-1.12.49A1.8,1.8,0,0,0,57.62,109.2Z"/>
      <path class="cls-1" d="M65.26,109.47H62.6v-.63h2.66Z"/>
      <path class="cls-1" d="M72.23,111.94h-.91l-.74-2h-3l-.7,2H66l2.68-7h.85Zm-1.92-2.7-1.1-3a4,4,0,0,1-.11-.46h0a2.6,2.6,0,0,1-.11.46l-1.09,3Z"/>
      <path class="cls-1" d="M74,111.22h0v3h-.8v-7.3H74v.88h0a1.89,1.89,0,0,1,1.73-1,1.82,1.82,0,0,1,1.51.67,2.8,2.8,0,0,1,.54,1.8,3.07,3.07,0,0,1-.61,2,2,2,0,0,1-1.67.76A1.69,1.69,0,0,1,74,111.22Zm0-2v.7a1.49,1.49,0,0,0,.41,1,1.3,1.3,0,0,0,1,.43,1.33,1.33,0,0,0,1.14-.56,2.56,2.56,0,0,0,.41-1.54,2,2,0,0,0-.38-1.31,1.28,1.28,0,0,0-1-.48,1.43,1.43,0,0,0-1.12.49A1.75,1.75,0,0,0,74,109.2Z"/>
      <path class="cls-1" d="M79.85,111.22h0v3H79v-7.3h.8v.88h0a1.89,1.89,0,0,1,1.73-1,1.83,1.83,0,0,1,1.51.67,2.8,2.8,0,0,1,.54,1.8,3.07,3.07,0,0,1-.61,2,2,2,0,0,1-1.67.76A1.69,1.69,0,0,1,79.85,111.22Zm0-2v.7a1.53,1.53,0,0,0,.4,1,1.44,1.44,0,0,0,2.17-.13,2.56,2.56,0,0,0,.41-1.54,2,2,0,0,0-.39-1.31,1.25,1.25,0,0,0-1-.48,1.42,1.42,0,0,0-1.12.49A1.75,1.75,0,0,0,79.83,109.2Z"/>
    </g>
  </g>
  <g id="group1492-350">
    <g id="group1493-351">
      <g id="group1494-352">
        <g id="group1495-353">
          <g id="shape1496-354">
            <path id="path907" class="cls-1" d="M10.33,288.82a4.49,4.49,0,0,0-3,5.66c.66,2.56,3,4.22,5.27,3.67a4.49,4.49,0,0,0,3-5.66C15.05,289.82,12.64,288.16,10.33,288.82Z"/>
          </g>
        </g>
        <g id="group1497-356">
          <g id="shape1498-357">
            <path id="path915" class="cls-1" d="M15.27,298.84c-.44,0-.88.77-1.54,1.11s-1.32.88-3.18,0-2.09-1.67-3.63-1.67-4.06,2.78-4.06,6.88H18.45a12.14,12.14,0,0,0-1.1-4.22C16.25,298.84,15.71,298.84,15.27,298.84Z"/>
          </g>
        </g>
      </g>
    </g>
    <g id="group1499-359">
      <g id="shape1500-360">
        <path id="path925" class="cls-6" d="M16.67,293.89H12.55a.71.71,0,0,0-.65.66v2.85a.73.73,0,0,0,.76.66h.76v5.15a1,1,0,0,0,1,1.09,1,1,0,0,0,1-1h.21v-.66c0-.22.33-.33.33-.33V302c-.33-.11-.54-.33-.54-.44v-.32l.21-.22a3.53,3.53,0,0,0,.33-.55,2.4,2.4,0,0,1-.33-.55c-.1-.11-.1-.33-.21-.44v-.22a2.52,2.52,0,0,1,.76-1.09h.54a.71.71,0,0,0,.65-.66v-3A.63.63,0,0,0,16.67,293.89Zm-2.39,9.54c0,.22,0,.33-.21.33s-.22-.22-.22-.33v-4.82c0-.22.11-.33.22-.33s.21.22.21.33Zm.33-7.78a.66.66,0,0,1,0-1.32.71.71,0,0,1,.65.66A.63.63,0,0,1,14.61,295.65Z"/>
      </g>
      <g id="shape1501-362">
        <path id="path930" class="cls-7" d="M14.05,303.73a.24.24,0,0,1-.22-.22v-5a.22.22,0,1,1,.44,0v5.1C14.27,303.73,14.16,303.73,14.05,303.73Z"/>
      </g>
      <g id="shape1502-364">
        <ellipse id="ellipse935" class="cls-7" cx="14.62" cy="294.98" rx="0.66" ry="0.67"/>
      </g>
    </g>
  </g>
  <g id="shape1683-366">
    <path id="path942" class="cls-8" d="M264.46,263.21l-15.91,11.42,6.08,18.48h19.66l6.08-18.48Z"/>
  </g>
  <g id="group1684-368">
    <g id="group1685-369">
      <g id="group1686-370">
        <g id="group1687-371">
          <g id="shape1688-372">
            <path id="path955" class="cls-1" d="M264.14,270.32a4.49,4.49,0,0,0-3,5.66c.66,2.56,3,4.22,5.27,3.67a4.49,4.49,0,0,0,3-5.66C268.86,271.32,266.45,269.66,264.14,270.32Z"/>
          </g>
        </g>
        <g id="group1689-374">
          <g id="shape1690-375">
            <path id="path963" class="cls-1" d="M269.07,280.34c-.44,0-.88.77-1.54,1.11s-1.32.88-3.18,0-2.09-1.67-3.63-1.67-4.06,2.78-4.06,6.88h15.59a12.14,12.14,0,0,0-1.1-4.22C270.05,280.34,269.51,280.34,269.07,280.34Z"/>
          </g>
        </g>
      </g>
    </g>
    <g id="group1691-377">
      <g id="shape1692-378">
        <path id="path973" class="cls-6" d="M270.48,275.4h-4.12a.71.71,0,0,0-.65.66v2.85a.73.73,0,0,0,.76.66h.76v5.15a1,1,0,0,0,1,1.09,1,1,0,0,0,1-1h.21v-.66c0-.22.33-.33.33-.33v-.33c-.33-.11-.54-.33-.54-.44v-.32l.21-.22a3.53,3.53,0,0,0,.33-.55,2.4,2.4,0,0,1-.33-.55c-.1-.11-.1-.33-.21-.44v-.22a2.52,2.52,0,0,1,.76-1.09h.54a.71.71,0,0,0,.65-.66v-3A.63.63,0,0,0,270.48,275.4Zm-2.39,9.54c0,.22,0,.33-.21.33s-.22-.22-.22-.33v-4.82c0-.22.11-.33.22-.33s.21.22.21.33Zm.33-7.78a.66.66,0,0,1,0-1.32.71.71,0,0,1,.65.66A.63.63,0,0,1,268.42,277.16Z"/>
      </g>
      <g id="shape1693-380">
        <path id="path978" class="cls-7" d="M267.86,285.23a.24.24,0,0,1-.22-.22v-5a.22.22,0,1,1,.44,0v5.1C268.08,285.23,268,285.23,267.86,285.23Z"/>
      </g>
      <g id="shape1694-382">
        <ellipse id="ellipse983" class="cls-7" cx="268.43" cy="276.48" rx="0.66" ry="0.67"/>
      </g>
    </g>
  </g>
  <line class="cls-9" x1="276.38" y1="296.73" x2="73.36" y2="296.73"/>
  <line class="cls-9" x1="386.63" y1="296.73" x2="307.18" y2="296.73"/>
  <g>
    <path class="cls-9" d="M77.1,154h75.16C167.5,154,179,164.68,179,183v73.78c0,18-1,40,37,40"/>
    <path class="cls-9" d="M77.1,224.92h75.16c15.24,0,26.74,10.66,26.74,29"/>
  </g>
  <g>
    <path class="cls-9" d="M77.1,439.45h75.16c15.24,0,26.74-10.66,26.74-29V336.69c0-18-1-39.95,37-39.95"/>
    <path class="cls-9" d="M83.32,368.55h70.57c14.31,0,25.11-10.65,25.11-29"/>
  </g>
  <g class="cls-2">
    <path class="cls-1" d="M35.36,181.52v-1a1.75,1.75,0,0,0,.4.27,3.12,3.12,0,0,0,.49.19,3.18,3.18,0,0,0,.51.13,2.74,2.74,0,0,0,.48,0,1.86,1.86,0,0,0,1.13-.28,1.07,1.07,0,0,0,.25-1.3,1.25,1.25,0,0,0-.35-.38,3.12,3.12,0,0,0-.52-.34l-.64-.33a7.37,7.37,0,0,1-.69-.38,2.58,2.58,0,0,1-.55-.42,1.76,1.76,0,0,1-.37-.52,1.79,1.79,0,0,1,.08-1.51,1.7,1.7,0,0,1,.55-.58,2.51,2.51,0,0,1,.78-.35,3.8,3.8,0,0,1,.89-.11,3.52,3.52,0,0,1,1.51.25v.92a2.77,2.77,0,0,0-1.59-.43,2.48,2.48,0,0,0-.54.06,1.71,1.71,0,0,0-.48.18,1.19,1.19,0,0,0-.34.33.85.85,0,0,0-.13.49,1,1,0,0,0,.1.46,1.21,1.21,0,0,0,.29.36,2.66,2.66,0,0,0,.48.31l.65.33.71.39a3.44,3.44,0,0,1,.59.46,1.94,1.94,0,0,1,.4.55,1.52,1.52,0,0,1,.15.69,1.82,1.82,0,0,1-.2.88,1.7,1.7,0,0,1-.55.58,2.44,2.44,0,0,1-.79.33,4.19,4.19,0,0,1-1,.1l-.41,0a4.71,4.71,0,0,1-.5-.08,3.37,3.37,0,0,1-.48-.12A1.52,1.52,0,0,1,35.36,181.52Z"/>
    <path class="cls-1" d="M41.3,175.53a.52.52,0,0,1-.36-.14.49.49,0,0,1-.16-.38.47.47,0,0,1,.16-.37.49.49,0,0,1,.36-.15.5.5,0,0,1,.37.15.51.51,0,0,1,0,.74A.5.5,0,0,1,41.3,175.53Zm.39,6.27h-.8v-5h.8Z"/>
    <path class="cls-1" d="M47.46,181.8h-.8V179c0-1.06-.38-1.59-1.16-1.59a1.25,1.25,0,0,0-1,.45,1.64,1.64,0,0,0-.4,1.14v2.85h-.8v-5h.8v.83h0a1.82,1.82,0,0,1,1.64-.95,1.55,1.55,0,0,1,1.26.53,2.38,2.38,0,0,1,.43,1.53Z"/>
    <path class="cls-1" d="M53.24,181.4c0,1.84-.88,2.75-2.64,2.75A3.45,3.45,0,0,1,49,183.8V183a3.24,3.24,0,0,0,1.61.47c1.23,0,1.85-.65,1.85-2V181h0a2,2,0,0,1-3.22.29,2.65,2.65,0,0,1-.57-1.79,3.08,3.08,0,0,1,.61-2,2.06,2.06,0,0,1,1.68-.76,1.64,1.64,0,0,1,1.5.81h0v-.69h.8Zm-.8-1.86v-.74a1.49,1.49,0,0,0-.4-1,1.35,1.35,0,0,0-1-.42,1.39,1.39,0,0,0-1.16.54,2.4,2.4,0,0,0-.42,1.51,2,2,0,0,0,.4,1.33,1.29,1.29,0,0,0,1.07.5,1.4,1.4,0,0,0,1.1-.47A1.8,1.8,0,0,0,52.44,179.54Z"/>
    <path class="cls-1" d="M55.66,181.8h-.8v-7.4h.8Z"/>
    <path class="cls-1" d="M61.3,179.5H57.77a1.83,1.83,0,0,0,.45,1.29,1.56,1.56,0,0,0,1.18.45,2.45,2.45,0,0,0,1.55-.55v.75a2.87,2.87,0,0,1-1.74.48,2.1,2.1,0,0,1-1.66-.68,2.78,2.78,0,0,1-.61-1.92,2.73,2.73,0,0,1,.66-1.9,2.13,2.13,0,0,1,1.65-.74,1.87,1.87,0,0,1,1.51.64,2.63,2.63,0,0,1,.54,1.76Zm-.82-.68a1.62,1.62,0,0,0-.33-1.08,1.17,1.17,0,0,0-.92-.38,1.28,1.28,0,0,0-1,.4,1.87,1.87,0,0,0-.49,1.06Z"/>
    <path class="cls-1" d="M65.07,179.33H62.4v-.63h2.67Z"/>
    <path class="cls-1" d="M67.44,179.15v2.65h-.82v-7h1.92a2.51,2.51,0,0,1,1.74.55,2,2,0,0,1,.62,1.54,2.12,2.12,0,0,1-.69,1.63,2.61,2.61,0,0,1-1.85.63Zm0-3.61v2.87h.86a1.89,1.89,0,0,0,1.29-.39,1.35,1.35,0,0,0,.45-1.09c0-.93-.55-1.39-1.64-1.39Z"/>
    <path class="cls-1" d="M75.35,181.8h-.8V181h0a1.68,1.68,0,0,1-1.54.9,1.61,1.61,0,0,1-1.17-.4,1.36,1.36,0,0,1-.42-1.05c0-.93.55-1.47,1.65-1.63l1.5-.21c0-.85-.34-1.27-1-1.27a2.45,2.45,0,0,0-1.63.61v-.82a3.12,3.12,0,0,1,1.7-.47c1.17,0,1.76.63,1.76,1.87Zm-.8-2.53-1.21.17a2,2,0,0,0-.84.27.81.81,0,0,0-.28.7.76.76,0,0,0,.26.6,1,1,0,0,0,.7.23,1.28,1.28,0,0,0,1-.41,1.49,1.49,0,0,0,.39-1.06Z"/>
    <path class="cls-1" d="M81.13,181.4c0,1.84-.88,2.75-2.64,2.75a3.45,3.45,0,0,1-1.62-.35V183a3.24,3.24,0,0,0,1.61.47c1.23,0,1.84-.65,1.84-2V181h0a2,2,0,0,1-3.23.29,2.7,2.7,0,0,1-.56-1.79,3.08,3.08,0,0,1,.61-2,2.06,2.06,0,0,1,1.68-.76,1.64,1.64,0,0,1,1.5.81h0v-.69h.81Zm-.81-1.86v-.74a1.44,1.44,0,0,0-.4-1,1.33,1.33,0,0,0-1-.42,1.38,1.38,0,0,0-1.16.54,2.4,2.4,0,0,0-.42,1.51,2,2,0,0,0,.4,1.33,1.28,1.28,0,0,0,1.07.5,1.37,1.37,0,0,0,1.09-.47A1.8,1.8,0,0,0,80.32,179.54Z"/>
    <path class="cls-1" d="M86.77,179.5H83.23a1.93,1.93,0,0,0,.45,1.29,1.57,1.57,0,0,0,1.19.45,2.45,2.45,0,0,0,1.55-.55v.75a2.89,2.89,0,0,1-1.74.48,2.13,2.13,0,0,1-1.67-.68,2.83,2.83,0,0,1-.61-1.92,2.74,2.74,0,0,1,.67-1.9,2.12,2.12,0,0,1,1.64-.74,1.9,1.9,0,0,1,1.52.64,2.63,2.63,0,0,1,.54,1.76Zm-.83-.68a1.62,1.62,0,0,0-.33-1.08,1.16,1.16,0,0,0-.92-.38,1.31,1.31,0,0,0-1,.4,1.94,1.94,0,0,0-.49,1.06Z"/>
    <path class="cls-1" d="M90.53,179.33H87.87v-.63h2.66Z"/>
    <path class="cls-1" d="M36.18,186.8l-2,7h-1l-1.44-5.12a3,3,0,0,1-.12-.71h0a3.94,3.94,0,0,1-.13.7l-1.45,5.13h-.95l-2.06-7H28l1.49,5.37a3.29,3.29,0,0,1,.11.7h0a5.33,5.33,0,0,1,.15-.7l1.55-5.37h.78l1.49,5.41a4.75,4.75,0,0,1,.12.65h0a3.2,3.2,0,0,1,.13-.67l1.43-5.39Z"/>
    <path class="cls-1" d="M40.74,191.5H37.21a1.83,1.83,0,0,0,.45,1.29,1.54,1.54,0,0,0,1.18.45,2.45,2.45,0,0,0,1.55-.55v.75a2.89,2.89,0,0,1-1.74.48,2.14,2.14,0,0,1-1.67-.68,2.83,2.83,0,0,1-.6-1.92,2.73,2.73,0,0,1,.66-1.9,2.12,2.12,0,0,1,1.64-.74,1.89,1.89,0,0,1,1.52.64,2.63,2.63,0,0,1,.54,1.76Zm-.82-.68a1.68,1.68,0,0,0-.34-1.08,1.15,1.15,0,0,0-.91-.38,1.28,1.28,0,0,0-1,.4,1.81,1.81,0,0,0-.49,1.06Z"/>
    <path class="cls-1" d="M42.77,193.08h0v.72H42v-7.4h.8v3.28h0a1.9,1.9,0,0,1,1.73-1,1.82,1.82,0,0,1,1.5.68,2.7,2.7,0,0,1,.55,1.79,3.13,3.13,0,0,1-.61,2,2,2,0,0,1-1.67.76A1.65,1.65,0,0,1,42.77,193.08Zm0-2v.7a1.48,1.48,0,0,0,.4,1.05,1.44,1.44,0,0,0,2.16-.12,2.53,2.53,0,0,0,.42-1.55,2,2,0,0,0-.39-1.31,1.28,1.28,0,0,0-1-.47,1.44,1.44,0,0,0-1.13.48A1.81,1.81,0,0,0,42.75,191.06Z"/>
    <path class="cls-1" d="M51.41,193.8h-.8V193h0a1.68,1.68,0,0,1-1.54.9,1.61,1.61,0,0,1-1.17-.4,1.36,1.36,0,0,1-.42-1.05c0-.93.55-1.47,1.65-1.63l1.5-.21c0-.85-.35-1.27-1-1.27a2.47,2.47,0,0,0-1.64.61v-.82a3.15,3.15,0,0,1,1.7-.47c1.18,0,1.77.63,1.77,1.87Zm-.8-2.53-1.21.17a2,2,0,0,0-.84.27.81.81,0,0,0-.28.7.73.73,0,0,0,.26.6,1,1,0,0,0,.69.23,1.28,1.28,0,0,0,1-.41,1.49,1.49,0,0,0,.39-1.06Z"/>
    <path class="cls-1" d="M57.07,193.8h-.81V191c0-1.06-.38-1.59-1.16-1.59a1.25,1.25,0,0,0-1,.45,1.68,1.68,0,0,0-.39,1.14v2.85h-.8v-5h.8v.83h0a1.8,1.8,0,0,1,1.64-.95,1.54,1.54,0,0,1,1.25.53,2.38,2.38,0,0,1,.44,1.53Z"/>
    <path class="cls-1" d="M64.87,188.8l-1.5,5h-.83l-1-3.58a2,2,0,0,1-.07-.46h0a2.06,2.06,0,0,1-.11.45L60.2,193.8h-.81l-1.51-5h.84l1,3.76a2.34,2.34,0,0,1,.06.45h0a2.07,2.07,0,0,1,.09-.46l1.15-3.75h.74l1,3.77a2.37,2.37,0,0,1,.07.45h0a2.23,2.23,0,0,1,.09-.45l1-3.77Z"/>
    <path class="cls-1" d="M69.82,191.5H66.29a1.83,1.83,0,0,0,.45,1.29,1.54,1.54,0,0,0,1.18.45,2.45,2.45,0,0,0,1.55-.55v.75a2.89,2.89,0,0,1-1.74.48,2.14,2.14,0,0,1-1.67-.68,2.83,2.83,0,0,1-.6-1.92,2.73,2.73,0,0,1,.66-1.9,2.12,2.12,0,0,1,1.64-.74,1.89,1.89,0,0,1,1.52.64,2.63,2.63,0,0,1,.54,1.76Zm-.82-.68a1.62,1.62,0,0,0-.34-1.08,1.15,1.15,0,0,0-.91-.38,1.28,1.28,0,0,0-1,.4,1.81,1.81,0,0,0-.49,1.06Z"/>
    <path class="cls-1" d="M75.18,193.8h-.8V191c0-1.06-.39-1.59-1.16-1.59a1.29,1.29,0,0,0-1,.45,1.68,1.68,0,0,0-.39,1.14v2.85H71v-5h.8v.83h0a1.81,1.81,0,0,1,1.64-.95,1.55,1.55,0,0,1,1.26.53,2.38,2.38,0,0,1,.43,1.53Z"/>
    <path class="cls-1" d="M81,193.8h-.8V193h0a1.85,1.85,0,0,1-1.72,1,1.9,1.9,0,0,1-1.51-.67,2.8,2.8,0,0,1-.56-1.83,3,3,0,0,1,.62-2,2.06,2.06,0,0,1,1.67-.75,1.62,1.62,0,0,1,1.5.81h0V186.4H81Zm-.8-2.26v-.74a1.45,1.45,0,0,0-.4-1,1.36,1.36,0,0,0-1-.42,1.37,1.37,0,0,0-1.15.54,2.33,2.33,0,0,0-.42,1.48,2.08,2.08,0,0,0,.4,1.36,1.3,1.3,0,0,0,1.08.5,1.38,1.38,0,0,0,1.09-.48A1.79,1.79,0,0,0,80.16,191.54Z"/>
    <path class="cls-1" d="M86.62,193.8h-.8V193h0a1.64,1.64,0,0,1-1.54.91c-1.19,0-1.79-.71-1.79-2.13v-3h.8v2.86c0,1.06.4,1.58,1.21,1.58a1.21,1.21,0,0,0,1-.43,1.66,1.66,0,0,0,.38-1.13V188.8h.8Z"/>
    <path class="cls-1" d="M92.39,193.8h-.8V191q0-1.59-1.17-1.59a1.25,1.25,0,0,0-1,.45A1.68,1.68,0,0,0,89,191v2.85h-.8v-5H89v.83h0a1.81,1.81,0,0,1,1.64-.95,1.53,1.53,0,0,1,1.25.53,2.38,2.38,0,0,1,.44,1.53Z"/>
    <path class="cls-1" d="M98.16,193.4c0,1.84-.87,2.75-2.63,2.75a3.45,3.45,0,0,1-1.62-.35V195a3.24,3.24,0,0,0,1.61.47c1.23,0,1.84-.65,1.84-2V193h0a2,2,0,0,1-3.22.29,2.65,2.65,0,0,1-.57-1.79,3.09,3.09,0,0,1,.62-2,2.06,2.06,0,0,1,1.67-.76,1.62,1.62,0,0,1,1.5.81h0v-.69h.8Zm-.8-1.86v-.74a1.44,1.44,0,0,0-.4-1,1.33,1.33,0,0,0-1-.42,1.4,1.4,0,0,0-1.17.54,2.46,2.46,0,0,0-.41,1.51,2,2,0,0,0,.4,1.33,1.28,1.28,0,0,0,1.06.5,1.39,1.39,0,0,0,1.1-.47A1.8,1.8,0,0,0,97.36,191.54Z"/>
  </g>
  <g>
    <g id="group1113-2-4" data-name="group1113-2">
      <g id="shape1114-3-4" data-name="shape1114-3">
        <path id="path21-4" data-name="path21" class="cls-1" d="M70,233.73a11.81,11.81,0,0,1-16.84-2.29,12.56,12.56,0,0,1,2.24-17.29,11.82,11.82,0,0,1,16.84,2.3A12.54,12.54,0,0,1,70,233.73Zm3.66-18.41a13.57,13.57,0,0,0-19.36-2.63,14.43,14.43,0,0,0-2.55,19.87,13.62,13.62,0,0,0,11,5.55,13.45,13.45,0,0,0,8.39-2.92A14.44,14.44,0,0,0,73.69,215.32Z"/>
      </g>
    </g>
    <g id="group1115-5-4" data-name="group1115-5">
      <g id="group1116-6-4" data-name="group1116-6">
        <g id="group1117-7-4" data-name="group1117-7">
          <g id="shape1118-8-4" data-name="shape1118-8">
            <path id="path33-4" data-name="path33" class="cls-1" d="M56.06,226.52a17,17,0,0,1-2-2.35,18.28,18.28,0,0,0-1.66,6.88c.11.16.11.29.23.44a12.55,12.55,0,0,0,2,2A14.13,14.13,0,0,1,56.06,226.52Z"/>
          </g>
        </g>
        <g id="shape1119-10-4" data-name="shape1119-10">
          <path id="path39-4" data-name="path39" class="cls-1" d="M60.67,217.08a21,21,0,0,0-3.33,3,15.71,15.71,0,0,0-1.61,2.05,15.42,15.42,0,0,0,1.9,2.46,16.32,16.32,0,0,1,2.2-2.56A26.47,26.47,0,0,1,63,219.4C62.16,218.64,61.38,217.87,60.67,217.08Z"/>
        </g>
        <g id="group1120-12-4" data-name="group1120-12">
          <g id="shape1121-13-4" data-name="shape1121-13">
            <path id="path46-4" data-name="path46" class="cls-1" d="M72.15,216.28a12,12,0,0,0-1.73-1.82,12.53,12.53,0,0,0-8,1.53c.76.84,1.51,1.63,2.24,2.36C69,215.92,72.15,216.28,72.15,216.28Z"/>
          </g>
        </g>
        <g id="group1122-15-4" data-name="group1122-15">
          <g id="shape1123-16-4" data-name="shape1123-16">
            <path id="path54-4" data-name="path54" class="cls-1" d="M54.34,224.31a19.82,19.82,0,0,1,1.19-2.06,9.84,9.84,0,0,1-1.6-6.79,13.09,13.09,0,0,0-1.29,1.6C52.26,218.67,52.24,221.23,54.34,224.31Z"/>
          </g>
        </g>
        <g id="group1124-18-4" data-name="group1124-18">
          <g id="shape1125-19-4" data-name="shape1125-19">
            <path id="path62-4" data-name="path62" class="cls-1" d="M59.9,226.7a21.6,21.6,0,0,1-2.27-2.14,14.25,14.25,0,0,0-1.14,1.95,23.54,23.54,0,0,0,2.09,1.91,19.12,19.12,0,0,0,12.56,4.38,9,9,0,0,0,1.54-1.94C71.45,231.12,66.19,231.81,59.9,226.7Z"/>
          </g>
        </g>
        <g id="group1126-21-4" data-name="group1126-21">
          <g id="shape1127-22-4" data-name="shape1127-22">
            <path id="path70-4" data-name="path70" class="cls-1" d="M54.55,224.16a15.72,15.72,0,0,0,2,2.35,15.36,15.36,0,0,1,1.14-1.95,15.42,15.42,0,0,1-1.9-2.46A15.58,15.58,0,0,0,54.55,224.16Z"/>
          </g>
        </g>
        <g id="group1128-24-4" data-name="group1128-24">
          <g id="shape1129-25-4" data-name="shape1129-25">
            <path id="path78-4" data-name="path78" class="cls-1" d="M63,219.4a97,97,0,0,0,11.15,8.82,9.82,9.82,0,0,0,.33-1.05,95.51,95.51,0,0,1-9.83-8.82Q63.82,218.8,63,219.4Z"/>
          </g>
        </g>
        <g id="group1130-27-4" data-name="group1130-27">
          <g id="shape1131-28-4" data-name="shape1131-28">
            <path id="path86-4" data-name="path86" class="cls-1" d="M62.38,216q-1.65-1.77-3.36-3.8a10.05,10.05,0,0,0-1.59.66,26.3,26.3,0,0,0,3.24,4.22A17.22,17.22,0,0,1,62.38,216Z"/>
          </g>
        </g>
        <g id="shape1132-30-4" data-name="shape1132-30">
          <path id="path92-4" data-name="path92" class="cls-1" d="M62.45,216a18.74,18.74,0,0,0-1.87,1.19c.72.78,1.45,1.59,2.25,2.35.57-.4,1.34-.88,1.87-1.18C64,217.58,63.21,216.79,62.45,216Z"/>
        </g>
        <g id="shape1133-32-4" data-name="shape1133-32">
          <path id="path97-4" data-name="path97" class="cls-1" d="M62.25,215.85A16.24,16.24,0,0,0,60.58,217c.72.79,1.74,1.81,2.54,2.57.57-.4,1.05-.8,1.58-1.11C64,217.71,63,216.68,62.25,215.85Z"/>
        </g>
      </g>
      <g id="group1134-34-4" data-name="group1134-34">
        <g id="shape1135-35-4" data-name="shape1135-35">
          <path id="path105-4" data-name="path105" class="cls-1" d="M68.3,222.4a2.7,2.7,0,0,0-.48,3.7,2.56,2.56,0,0,0,3.63.51,2.72,2.72,0,0,0,.48-3.72A2.55,2.55,0,0,0,68.3,222.4Z"/>
        </g>
      </g>
      <g id="group1136-37-4" data-name="group1136-37">
        <g id="shape1137-38-4" data-name="shape1137-38">
          <path id="path113-4" data-name="path113" class="cls-1" d="M63.13,228.53a2.52,2.52,0,0,0-.45,3.44,2.37,2.37,0,0,0,3.36.45,2.49,2.49,0,0,0,.44-3.43A2.36,2.36,0,0,0,63.13,228.53Z"/>
        </g>
      </g>
      <g id="group1138-40-4" data-name="group1138-40">
        <g id="shape1139-41-4" data-name="shape1139-41">
          <path id="path121-4" data-name="path121" class="cls-1" d="M54,221.2a3.79,3.79,0,0,0-.68,5.21,3.58,3.58,0,0,0,5.1.7,3.8,3.8,0,0,0,.67-5.23A3.59,3.59,0,0,0,54,221.2Z"/>
        </g>
      </g>
    </g>
  </g>
</svg>
