<svg id="svg1546" xmlns="http://www.w3.org/2000/svg" viewBox="0 0 204.71 69.22">
  <defs>
    <style>
      .cls-1, .cls-8 {
        fill: none;
      }

      .cls-2 {
        isolation: isolate;
      }

      .cls-3 {
        fill: #00b0f0;
      }

      .cls-4, .cls-5, .cls-9 {
        fill: #008bfd;
      }

      .cls-5 {
        stroke: gray;
        stroke-linejoin: round;
        stroke-width: 0.75px;
      }

      .cls-5, .cls-8 {
        stroke-linecap: round;
      }

      .cls-6 {
        fill: #fff;
      }

      .cls-7 {
        fill: #505050;
      }

      .cls-8 {
        stroke: #505050;
        stroke-miterlimit: 10;
        stroke-width: 2px;
      }

      .cls-9 {
        fill-rule: evenodd;
      }
    </style>
  </defs>
  <title>OJ104546510</title>
  <g id="shape1069-1">
    <rect id="rect1363" class="cls-1" x="78.35" y="0.37" width="80.48" height="20"/>
    <g id="text1365" class="cls-2">
      <path class="cls-3" d="M93.43,13.38h-.82v-7h.82Z"/>
      <path class="cls-3" d="M102.26,13.38h-.8V10.51a2.13,2.13,0,0,0-.26-1.2,1,1,0,0,0-.86-.37,1.06,1.06,0,0,0-.87.46,1.82,1.82,0,0,0-.36,1.13v2.85h-.8v-3q0-1.47-1.14-1.47a1,1,0,0,0-.87.44A1.87,1.87,0,0,0,96,10.53v2.85h-.8v-5H96v.79h0a1.69,1.69,0,0,1,1.55-.91,1.47,1.47,0,0,1,.9.29A1.43,1.43,0,0,1,99,9.3a1.78,1.78,0,0,1,1.66-1q1.65,0,1.65,2Z"/>
      <path class="cls-3" d="M104.59,12.66h0v3h-.8V8.38h.8v.88h0a1.89,1.89,0,0,1,1.73-1,1.85,1.85,0,0,1,1.51.67,2.8,2.8,0,0,1,.54,1.8,3.07,3.07,0,0,1-.61,2,2,2,0,0,1-1.67.76A1.69,1.69,0,0,1,104.59,12.66Zm0-2v.7a1.49,1.49,0,0,0,.41,1.05,1.44,1.44,0,0,0,2.16-.12,2.55,2.55,0,0,0,.41-1.55,2,2,0,0,0-.38-1.31,1.27,1.27,0,0,0-1-.47,1.42,1.42,0,0,0-1.12.48A1.82,1.82,0,0,0,104.57,10.64Z"/>
      <path class="cls-3" d="M110.45,13.38h-.8V6h.8Z"/>
      <path class="cls-3" d="M112.48,7.11a.49.49,0,0,1-.36-.15.48.48,0,0,1-.15-.37.5.5,0,0,1,.15-.37.49.49,0,0,1,.36-.15.52.52,0,0,1,.38.15.53.53,0,0,1,0,.74A.52.52,0,0,1,112.48,7.11Zm.4,6.27h-.81v-5h.81Z"/>
      <path class="cls-3" d="M118,8.61l-3,4.09H118v.68h-4.1v-.25l3-4.07h-2.68V8.38H118Z"/>
      <path class="cls-3" d="M119.43,7.11a.51.51,0,0,1-.37-.15.48.48,0,0,1-.15-.37.5.5,0,0,1,.15-.37.53.53,0,0,1,.74,0,.51.51,0,0,1,0,.74A.51.51,0,0,1,119.43,7.11Zm.39,6.27H119v-5h.8Z"/>
      <path class="cls-3" d="M123.76,13.33a1.61,1.61,0,0,1-.75.16c-.87,0-1.31-.49-1.31-1.47v-3h-.86V8.38h.86V7.16l.8-.26V8.38h1.26v.68H122.5v2.82a1.21,1.21,0,0,0,.17.72.68.68,0,0,0,.57.21.85.85,0,0,0,.52-.16Z"/>
      <path class="cls-3" d="M128.85,11.08h-3.53a1.83,1.83,0,0,0,.45,1.29,1.54,1.54,0,0,0,1.18.45,2.45,2.45,0,0,0,1.55-.55V13a2.89,2.89,0,0,1-1.74.48,2.11,2.11,0,0,1-1.67-.69,2.79,2.79,0,0,1-.6-1.91,2.73,2.73,0,0,1,.66-1.9,2.12,2.12,0,0,1,1.64-.74,1.86,1.86,0,0,1,1.52.64,2.63,2.63,0,0,1,.54,1.76ZM128,10.4a1.68,1.68,0,0,0-.34-1.08,1.12,1.12,0,0,0-.91-.38,1.31,1.31,0,0,0-1,.4,1.83,1.83,0,0,0-.48,1.06Z"/>
      <path class="cls-3" d="M132.67,9.19a1,1,0,0,0-.61-.16,1,1,0,0,0-.86.48,2.23,2.23,0,0,0-.34,1.32v2.55h-.8v-5h.8v1h0a1.71,1.71,0,0,1,.52-.82,1.18,1.18,0,0,1,.79-.3,1.25,1.25,0,0,1,.48.07Z"/>
      <path class="cls-3" d="M139.94,7.12H137.2V9.54h2.53v.74H137.2v3.1h-.82v-7h3.56Z"/>
      <path class="cls-3" d="M142,13.38h-.8V6h.8Z"/>
      <path class="cls-3" d="M145.67,13.5a2.34,2.34,0,0,1-1.77-.7,2.61,2.61,0,0,1-.66-1.86,2.74,2.74,0,0,1,.68-2,2.49,2.49,0,0,1,1.87-.71,2.24,2.24,0,0,1,1.74.69,2.73,2.73,0,0,1,.63,1.91,2.7,2.7,0,0,1-.68,1.92A2.36,2.36,0,0,1,145.67,13.5Zm.06-4.56a1.51,1.51,0,0,0-1.22.52,2.15,2.15,0,0,0-.45,1.45,2,2,0,0,0,.45,1.4,1.55,1.55,0,0,0,1.22.51,1.48,1.48,0,0,0,1.19-.5,2.18,2.18,0,0,0,.42-1.43,2.22,2.22,0,0,0-.42-1.45A1.45,1.45,0,0,0,145.73,8.94Z"/>
      <path class="cls-3" d="M155.74,8.38l-1.5,5h-.83l-1-3.58a2.1,2.1,0,0,1-.08-.46h0a2.21,2.21,0,0,1-.1.45l-1.12,3.59h-.8l-1.52-5h.84l1,3.76a3.07,3.07,0,0,1,.07.45h0a2.61,2.61,0,0,1,.08-.46L152,8.38h.73l1,3.77a2.29,2.29,0,0,1,.08.45h0a1.65,1.65,0,0,1,.08-.45l1-3.77Z"/>
    </g>
  </g>
  <g id="Singl..." class="cls-2">
    <path class="cls-4" d="M31.3,49.77v-1a2.3,2.3,0,0,0,.4.26,3,3,0,0,0,.49.2,4.39,4.39,0,0,0,.52.13,4.26,4.26,0,0,0,.47,0,1.88,1.88,0,0,0,1.14-.28,1,1,0,0,0,.37-.81.88.88,0,0,0-.13-.49,1.36,1.36,0,0,0-.34-.39,4.71,4.71,0,0,0-.52-.33l-.65-.33c-.24-.13-.47-.25-.68-.38a3.06,3.06,0,0,1-.55-.42,1.62,1.62,0,0,1-.51-1.2,1.57,1.57,0,0,1,.21-.83,2,2,0,0,1,.56-.59,2.52,2.52,0,0,1,.78-.34,3.74,3.74,0,0,1,.89-.11,3.3,3.3,0,0,1,1.5.25v.92a2.77,2.77,0,0,0-1.59-.43,2.39,2.39,0,0,0-.53.06,1.71,1.71,0,0,0-.48.18,1,1,0,0,0-.34.33.84.84,0,0,0-.14.49,1.08,1.08,0,0,0,.1.46,1.25,1.25,0,0,0,.3.36,3.33,3.33,0,0,0,.48.31l.64.33.72.39A3.44,3.44,0,0,1,35,47a1.94,1.94,0,0,1,.4.55,1.52,1.52,0,0,1,.15.69,1.82,1.82,0,0,1-.2.88,1.7,1.7,0,0,1-.55.58,2.5,2.5,0,0,1-.8.33,4.67,4.67,0,0,1-.94.1l-.41,0a4.71,4.71,0,0,1-.5-.08,3.36,3.36,0,0,1-.48-.13A1.86,1.86,0,0,1,31.3,49.77Z"/>
    <path class="cls-4" d="M37.25,43.78a.5.5,0,0,1-.37-.15.48.48,0,0,1-.15-.37.51.51,0,0,1,.52-.52.51.51,0,0,1,.37.15.53.53,0,0,1,0,.74A.51.51,0,0,1,37.25,43.78Zm.39,6.27h-.8v-5h.8Z"/>
    <path class="cls-4" d="M43.41,50.05h-.8V47.2c0-1.06-.39-1.59-1.16-1.59a1.27,1.27,0,0,0-1,.45,1.68,1.68,0,0,0-.39,1.14v2.85h-.8v-5h.8v.83h0a1.81,1.81,0,0,1,1.64-1,1.51,1.51,0,0,1,1.25.53A2.36,2.36,0,0,1,43.41,47Z"/>
    <path class="cls-4" d="M49.19,49.65c0,1.83-.88,2.75-2.64,2.75a3.45,3.45,0,0,1-1.62-.35v-.8a3.35,3.35,0,0,0,1.61.47c1.23,0,1.84-.66,1.84-2v-.55h0a2,2,0,0,1-3.22.29,2.65,2.65,0,0,1-.57-1.79,3.11,3.11,0,0,1,.61-2,2.06,2.06,0,0,1,1.68-.75,1.64,1.64,0,0,1,1.5.81h0v-.69h.81Zm-.81-1.86v-.74a1.41,1.41,0,0,0-.4-1,1.33,1.33,0,0,0-1-.42,1.4,1.4,0,0,0-1.16.53,2.45,2.45,0,0,0-.42,1.52A2,2,0,0,0,45.8,49a1.28,1.28,0,0,0,1.07.5A1.38,1.38,0,0,0,48,49,1.77,1.77,0,0,0,48.38,47.79Z"/>
    <path class="cls-4" d="M51.61,50.05h-.8v-7.4h.8Z"/>
    <path class="cls-4" d="M57.25,47.75H53.72A1.83,1.83,0,0,0,54.17,49a1.54,1.54,0,0,0,1.18.45,2.45,2.45,0,0,0,1.55-.55v.75a2.89,2.89,0,0,1-1.74.48,2.11,2.11,0,0,1-1.67-.69,2.79,2.79,0,0,1-.6-1.91,2.73,2.73,0,0,1,.66-1.9,2.12,2.12,0,0,1,1.64-.74,1.86,1.86,0,0,1,1.52.64,2.63,2.63,0,0,1,.54,1.76Zm-.82-.68A1.68,1.68,0,0,0,56.09,46a1.12,1.12,0,0,0-.91-.38,1.31,1.31,0,0,0-1,.4,1.83,1.83,0,0,0-.48,1.06Z"/>
    <path class="cls-4" d="M61,47.58H58.35V47H61Z"/>
    <path class="cls-4" d="M63.38,47.4v2.65h-.82v-7h1.93a2.55,2.55,0,0,1,1.74.54,2,2,0,0,1,.62,1.55,2.12,2.12,0,0,1-.69,1.63,2.63,2.63,0,0,1-1.85.63Zm0-3.61v2.87h.86a1.92,1.92,0,0,0,1.3-.39A1.36,1.36,0,0,0,66,45.18c0-.93-.55-1.39-1.64-1.39Z"/>
    <path class="cls-4" d="M71.29,50.05h-.8v-.78h0a1.81,1.81,0,0,1-2.7.5,1.37,1.37,0,0,1-.43-1.05c0-.93.56-1.48,1.66-1.63l1.49-.21c0-.85-.34-1.27-1-1.27a2.47,2.47,0,0,0-1.63.61V45.4a3.15,3.15,0,0,1,1.7-.47c1.18,0,1.76.62,1.76,1.87Zm-.8-2.53-1.2.17a2,2,0,0,0-.84.27.79.79,0,0,0-.28.7.73.73,0,0,0,.26.6,1,1,0,0,0,.69.23,1.29,1.29,0,0,0,1-.42,1.46,1.46,0,0,0,.38-1Z"/>
    <path class="cls-4" d="M77.07,49.65c0,1.83-.88,2.75-2.64,2.75a3.51,3.51,0,0,1-1.62-.35v-.8a3.38,3.38,0,0,0,1.61.47c1.24,0,1.85-.66,1.85-2v-.55h0a1.87,1.87,0,0,1-1.72,1A1.89,1.89,0,0,1,73,49.5a2.65,2.65,0,0,1-.57-1.79,3.11,3.11,0,0,1,.62-2,2,2,0,0,1,1.67-.75,1.62,1.62,0,0,1,1.5.81h0v-.69h.8Zm-.8-1.86v-.74a1.41,1.41,0,0,0-.4-1,1.35,1.35,0,0,0-1-.42,1.41,1.41,0,0,0-1.16.53,2.45,2.45,0,0,0-.42,1.52A2.05,2.05,0,0,0,73.69,49a1.26,1.26,0,0,0,1.06.5,1.4,1.4,0,0,0,1.1-.48A1.77,1.77,0,0,0,76.27,47.79Z"/>
    <path class="cls-4" d="M82.71,47.75H79.18A1.83,1.83,0,0,0,79.63,49a1.56,1.56,0,0,0,1.18.45,2.43,2.43,0,0,0,1.55-.55v.75a2.89,2.89,0,0,1-1.74.48A2.09,2.09,0,0,1,79,49.48,3.18,3.18,0,0,1,79,45.67a2.13,2.13,0,0,1,1.65-.74,1.84,1.84,0,0,1,1.51.64,2.63,2.63,0,0,1,.54,1.76Zm-.82-.68A1.62,1.62,0,0,0,81.56,46a1.14,1.14,0,0,0-.92-.38,1.28,1.28,0,0,0-1,.4,1.84,1.84,0,0,0-.49,1.06Z"/>
    <path class="cls-4" d="M86.48,47.58H83.81V47h2.67Z"/>
    <path class="cls-4" d="M32.12,55.05l-2,7h-1l-1.44-5.12a3.11,3.11,0,0,1-.11-.71h0a3.32,3.32,0,0,1-.13.7L26,62.05h-1l-2-7h.9l1.49,5.37a3.2,3.2,0,0,1,.12.7h0a3.17,3.17,0,0,1,.15-.7l1.54-5.37h.79l1.49,5.41a3.5,3.5,0,0,1,.11.65h0a4,4,0,0,1,.13-.67l1.43-5.39Z"/>
    <path class="cls-4" d="M36.68,59.75H33.15A1.93,1.93,0,0,0,33.6,61a1.56,1.56,0,0,0,1.18.45,2.48,2.48,0,0,0,1.56-.55v.75a2.9,2.9,0,0,1-1.75.48,2.09,2.09,0,0,1-1.66-.69,3.18,3.18,0,0,1,0-3.81,2.14,2.14,0,0,1,1.65-.74,1.87,1.87,0,0,1,1.52.64,2.68,2.68,0,0,1,.53,1.76Zm-.82-.68A1.62,1.62,0,0,0,35.53,58a1.14,1.14,0,0,0-.92-.38,1.31,1.31,0,0,0-1,.4,1.84,1.84,0,0,0-.49,1.06Z"/>
    <path class="cls-4" d="M38.71,61.33h0v.72h-.81v-7.4h.81v3.28h0a1.89,1.89,0,0,1,1.73-1A1.86,1.86,0,0,1,42,57.6a2.8,2.8,0,0,1,.54,1.8,3.07,3.07,0,0,1-.61,2,2,2,0,0,1-1.67.76A1.65,1.65,0,0,1,38.71,61.33Zm0-2V60a1.48,1.48,0,0,0,.4,1.05,1.44,1.44,0,0,0,2.16-.12,2.55,2.55,0,0,0,.41-1.55,2,2,0,0,0-.38-1.31,1.27,1.27,0,0,0-1-.47,1.42,1.42,0,0,0-1.12.48A1.81,1.81,0,0,0,38.7,59.31Z"/>
    <path class="cls-4" d="M47.35,62.05h-.8v-.78h0a1.82,1.82,0,0,1-2.71.5,1.36,1.36,0,0,1-.42-1.05c0-.93.55-1.48,1.65-1.63l1.5-.21c0-.85-.34-1.27-1-1.27a2.47,2.47,0,0,0-1.63.61V57.4a3.12,3.12,0,0,1,1.7-.47c1.17,0,1.76.62,1.76,1.87Zm-.8-2.53-1.2.17a1.88,1.88,0,0,0-.84.27.8.8,0,0,0-.29.7.76.76,0,0,0,.26.6,1,1,0,0,0,.7.23,1.27,1.27,0,0,0,1-.42,1.47,1.47,0,0,0,.39-1Z"/>
    <path class="cls-4" d="M53,62.05h-.8V59.2c0-1.06-.39-1.59-1.16-1.59a1.29,1.29,0,0,0-1,.45,1.68,1.68,0,0,0-.39,1.14v2.85h-.8v-5h.8v.83h0a1.82,1.82,0,0,1,1.64-1,1.55,1.55,0,0,1,1.26.53A2.36,2.36,0,0,1,53,59Z"/>
    <path class="cls-4" d="M60.82,57.05l-1.5,5h-.83l-1-3.58a2.1,2.1,0,0,1-.08-.46h0a2.21,2.21,0,0,1-.1.45l-1.12,3.59h-.8l-1.51-5h.84l1,3.76a2.13,2.13,0,0,1,.07.45h0a2,2,0,0,1,.09-.46l1.15-3.75h.73l1,3.77a3.59,3.59,0,0,1,.07.45h0a2.14,2.14,0,0,1,.08-.45l1-3.77Z"/>
    <path class="cls-4" d="M65.77,59.75H62.24A1.87,1.87,0,0,0,62.68,61a1.57,1.57,0,0,0,1.19.45,2.45,2.45,0,0,0,1.55-.55v.75a2.89,2.89,0,0,1-1.74.48A2.1,2.1,0,0,1,62,61.48a2.79,2.79,0,0,1-.6-1.91,2.73,2.73,0,0,1,.66-1.9,2.12,2.12,0,0,1,1.64-.74,1.87,1.87,0,0,1,1.52.64,2.63,2.63,0,0,1,.54,1.76ZM65,59.07A1.68,1.68,0,0,0,64.61,58a1.12,1.12,0,0,0-.91-.38,1.31,1.31,0,0,0-1,.4,1.83,1.83,0,0,0-.48,1.06Z"/>
    <path class="cls-4" d="M71.13,62.05h-.8V59.2q0-1.59-1.17-1.59a1.25,1.25,0,0,0-1,.45,1.68,1.68,0,0,0-.39,1.14v2.85H67v-5h.8v.83h0a1.8,1.8,0,0,1,1.64-1,1.54,1.54,0,0,1,1.25.53A2.36,2.36,0,0,1,71.13,59Z"/>
    <path class="cls-4" d="M76.9,62.05h-.8V61.2h0a2,2,0,0,1-3.22.29,2.7,2.7,0,0,1-.57-1.82,3,3,0,0,1,.63-2,2,2,0,0,1,1.66-.75,1.6,1.6,0,0,1,1.5.81h0V54.65h.8Zm-.8-2.26v-.74a1.41,1.41,0,0,0-.4-1,1.34,1.34,0,0,0-1-.42,1.38,1.38,0,0,0-1.16.53,2.38,2.38,0,0,0-.42,1.49A2.1,2.1,0,0,0,73.52,61a1.3,1.3,0,0,0,1.08.5A1.36,1.36,0,0,0,75.68,61,1.79,1.79,0,0,0,76.1,59.79Z"/>
    <path class="cls-4" d="M82.57,62.05h-.8v-.79h0a1.66,1.66,0,0,1-1.55.91c-1.19,0-1.78-.71-1.78-2.13v-3h.79v2.86c0,1.06.41,1.58,1.21,1.58a1.23,1.23,0,0,0,1-.43,1.66,1.66,0,0,0,.38-1.13V57.05h.8Z"/>
    <path class="cls-4" d="M88.33,62.05h-.8V59.2c0-1.06-.38-1.59-1.16-1.59a1.25,1.25,0,0,0-1,.45A1.68,1.68,0,0,0,85,59.2v2.85h-.8v-5H85v.83h0a1.82,1.82,0,0,1,1.64-1,1.55,1.55,0,0,1,1.26.53A2.36,2.36,0,0,1,88.33,59Z"/>
    <path class="cls-4" d="M94.11,61.65c0,1.83-.88,2.75-2.64,2.75a3.45,3.45,0,0,1-1.62-.35v-.8a3.38,3.38,0,0,0,1.61.47c1.23,0,1.85-.66,1.85-2v-.55h0a1.87,1.87,0,0,1-1.72,1,1.89,1.89,0,0,1-1.5-.67,2.65,2.65,0,0,1-.57-1.79,3.17,3.17,0,0,1,.61-2,2.06,2.06,0,0,1,1.68-.75,1.64,1.64,0,0,1,1.5.81h0v-.69h.8Zm-.8-1.86v-.74a1.45,1.45,0,0,0-.4-1,1.35,1.35,0,0,0-1-.42,1.41,1.41,0,0,0-1.16.53,2.45,2.45,0,0,0-.42,1.52,2.11,2.11,0,0,0,.4,1.33,1.29,1.29,0,0,0,1.07.5,1.4,1.4,0,0,0,1.1-.48A1.77,1.77,0,0,0,93.31,59.79Z"/>
  </g>
  <path id="path1491" class="cls-4" d="M191.76,10.11h-20.5a1.1,1.1,0,0,0-1.09,1.11V28a1.09,1.09,0,0,0,1.09,1.1h5.28a3.29,3.29,0,0,0,3.21,2.27,3.37,3.37,0,0,0,0-6.74,3.29,3.29,0,0,0-3.21,2.27h-4.19v-12h18.31v12h-3.45a7.61,7.61,0,0,0-7.46-6.57,8.25,8.25,0,0,0-3.64.92l1,2a5.28,5.28,0,0,1,2.55-.68,5.46,5.46,0,0,1,0,10.92,5.28,5.28,0,0,1-2.55-.68l-1,2a7.51,7.51,0,0,0,3.64.92,7.61,7.61,0,0,0,7.46-6.57h4.55a1.09,1.09,0,0,0,1.09-1.1V11.22A1.14,1.14,0,0,0,191.76,10.11Z"/>
  <g id="text1493" class="cls-2">
    <path class="cls-4" d="M170,48.63h-.91l-.74-2h-3l-.7,2h-.91l2.68-7h.85Zm-1.92-2.7-1.1-3a2.59,2.59,0,0,1-.11-.46h0a2.6,2.6,0,0,1-.11.46l-1.09,3Z"/>
    <path class="cls-4" d="M171.87,46v2.65h-.82v-7H173a2.55,2.55,0,0,1,1.74.54,2,2,0,0,1,.62,1.55,2.13,2.13,0,0,1-.69,1.63,2.61,2.61,0,0,1-1.85.63Zm0-3.61v2.87h.86a1.89,1.89,0,0,0,1.29-.39,1.36,1.36,0,0,0,.45-1.09c0-.93-.55-1.39-1.64-1.39Z"/>
    <path class="cls-4" d="M177.47,48.63h-.82v-7h.82Z"/>
    <path class="cls-4" d="M181.76,46.16h-2.67v-.63h2.67Z"/>
    <path class="cls-4" d="M188.73,48.63h-.91l-.74-2h-3l-.7,2h-.91l2.68-7H186Zm-1.92-2.7-1.1-3a4,4,0,0,1-.11-.46h0a2.6,2.6,0,0,1-.11.46l-1.09,3Z"/>
    <path class="cls-4" d="M190.47,47.91h0v3h-.8v-7.3h.8v.88h0a1.89,1.89,0,0,1,1.73-1,1.83,1.83,0,0,1,1.51.67,2.8,2.8,0,0,1,.54,1.8,3.07,3.07,0,0,1-.61,2,2,2,0,0,1-1.67.76A1.67,1.67,0,0,1,190.47,47.91Zm0-2v.7a1.49,1.49,0,0,0,.41,1,1.3,1.3,0,0,0,1,.43,1.35,1.35,0,0,0,1.14-.55,2.62,2.62,0,0,0,.41-1.55,2,2,0,0,0-.39-1.31,1.25,1.25,0,0,0-1-.48,1.43,1.43,0,0,0-1.12.49A1.75,1.75,0,0,0,190.45,45.89Z"/>
    <path class="cls-4" d="M196.35,47.91h0v3h-.8v-7.3h.8v.88h0a1.89,1.89,0,0,1,1.73-1,1.83,1.83,0,0,1,1.51.67,2.8,2.8,0,0,1,.54,1.8,3.07,3.07,0,0,1-.61,2,2,2,0,0,1-1.67.76A1.67,1.67,0,0,1,196.35,47.91Zm0-2v.7a1.53,1.53,0,0,0,.4,1,1.45,1.45,0,0,0,2.17-.12,2.62,2.62,0,0,0,.41-1.55,2,2,0,0,0-.39-1.31,1.25,1.25,0,0,0-1-.48,1.42,1.42,0,0,0-1.12.49A1.75,1.75,0,0,0,196.33,45.89Z"/>
  </g>
  <g id="group1101-58">
    <g id="group1102-59">
      <g id="group1103-60">
        <g id="group1104-61">
          <g id="shape1105-62">
            <path id="path1511" class="cls-4" d="M7.85,15.21a4.49,4.49,0,0,0-3,5.66c.66,2.55,3,4.22,5.27,3.66a4.49,4.49,0,0,0,3-5.66C12.57,16.2,10.16,14.54,7.85,15.21Z"/>
          </g>
        </g>
        <g id="group1106-64">
          <g id="shape1107-65">
            <path id="path1519" class="cls-4" d="M12.79,25.22c-.44,0-.88.78-1.54,1.11s-1.32.89-3.18,0S6,24.66,4.44,24.66.38,27.44.38,31.55H16a12.09,12.09,0,0,0-1.1-4.22C13.77,25.22,13.23,25.22,12.79,25.22Z"/>
          </g>
        </g>
      </g>
    </g>
    <g id="group1108-67">
      <g id="shape1109-68">
        <path id="path1529" class="cls-5" d="M14.19,20.28H10.07a.71.71,0,0,0-.65.65v2.85a.73.73,0,0,0,.76.66h.76v5.15a1,1,0,0,0,1,1.1,1,1,0,0,0,1-1h.21V29c0-.22.33-.33.33-.33v-.33c-.33-.1-.54-.32-.54-.43v-.33l.21-.22a3.53,3.53,0,0,0,.33-.55,2.4,2.4,0,0,1-.33-.55c-.1-.11-.1-.33-.21-.44v-.21a2.51,2.51,0,0,1,.76-1.1h.54a.71.71,0,0,0,.65-.66v-3A.63.63,0,0,0,14.19,20.28ZM11.8,29.81c0,.22,0,.33-.21.33s-.22-.22-.22-.33V25c0-.22.11-.33.22-.33s.21.22.21.33ZM12.13,22a.66.66,0,0,1,0-1.32.71.71,0,0,1,.65.66A.63.63,0,0,1,12.13,22Z"/>
      </g>
      <g id="shape1110-70">
        <path id="path1534" class="cls-6" d="M11.57,30.12a.25.25,0,0,1-.22-.23v-5a.22.22,0,1,1,.44,0V30C11.79,30.12,11.68,30.12,11.57,30.12Z"/>
      </g>
      <g id="shape1111-72">
        <ellipse id="ellipse1539" class="cls-6" cx="12.14" cy="21.35" rx="0.66" ry="0.67"/>
      </g>
    </g>
  </g>
  <g>
    <g id="shape1100-52">
      <g id="use1353">
        <g id="lend5">
          <path id="path1350" class="cls-7" d="M161.69,18.87l8.05,4-8,4a9,9,0,0,0,0-8"/>
        </g>
      </g>
    </g>
    <line class="cls-8" x1="74.63" y1="23.02" x2="166.03" y2="23.02"/>
  </g>
  <g>
    <g id="group1072-5">
      <g id="shape1073-6">
        <path id="path1376" class="cls-4" d="M66,32.83a11.78,11.78,0,0,1-16.84-2.29,12.56,12.56,0,0,1,2.24-17.29,11.82,11.82,0,0,1,16.84,2.3A12.54,12.54,0,0,1,66,32.83Zm3.66-18.41a13.57,13.57,0,0,0-19.36-2.63,14.43,14.43,0,0,0-2.55,19.87A13.55,13.55,0,0,0,67.13,34.3,14.45,14.45,0,0,0,69.69,14.42Z"/>
      </g>
    </g>
    <g id="group1074-8">
      <g id="group1075-9">
        <g id="group1076-10">
          <g id="shape1077-11">
            <path id="path1388" class="cls-4" d="M52.06,25.61a17,17,0,0,1-2-2.35,18.28,18.28,0,0,0-1.66,6.88c.11.16.11.29.23.45a13.4,13.4,0,0,0,2,2.05A14.14,14.14,0,0,1,52.06,25.61Z"/>
          </g>
        </g>
        <g id="shape1078-13">
          <path id="path1394" class="cls-4" d="M56.67,16.17a21,21,0,0,0-3.33,3,15.71,15.71,0,0,0-1.61,2.05,15.93,15.93,0,0,0,1.9,2.47,15.93,15.93,0,0,1,2.2-2.57A26.31,26.31,0,0,1,59,18.5C58.16,17.73,57.38,17,56.67,16.17Z"/>
        </g>
        <g id="group1079-15">
          <g id="shape1080-16">
            <path id="path1401" class="cls-4" d="M68.14,15.37a12.47,12.47,0,0,0-1.73-1.82,12.55,12.55,0,0,0-8,1.54c.76.83,1.51,1.62,2.24,2.36C65,15,68.14,15.37,68.14,15.37Z"/>
          </g>
        </g>
        <g id="group1083-21">
          <g id="shape1084-22">
            <path id="path1417" class="cls-4" d="M55.9,25.79a22.67,22.67,0,0,1-2.27-2.13,13.15,13.15,0,0,0-1.14,1.95,25.16,25.16,0,0,0,2.09,1.9A19.15,19.15,0,0,0,67.14,31.9,9.13,9.13,0,0,0,68.68,30C67.45,30.21,62.19,30.9,55.9,25.79Z"/>
          </g>
        </g>
        <g id="group1085-24">
          <g id="shape1086-25">
            <path id="path1425" class="cls-4" d="M50.54,23.26a16.8,16.8,0,0,0,2,2.35,14.09,14.09,0,0,1,1.14-1.95,15.93,15.93,0,0,1-1.9-2.47A15.67,15.67,0,0,0,50.54,23.26Z"/>
          </g>
        </g>
        <g id="group1087-27">
          <g id="shape1088-28">
            <path id="path1433" class="cls-4" d="M59,18.49a98.68,98.68,0,0,0,11.15,8.83,10.76,10.76,0,0,0,.33-1.06,95,95,0,0,1-9.83-8.81A17.67,17.67,0,0,0,59,18.49Z"/>
          </g>
        </g>
        <g id="group1089-30">
          <g id="shape1090-31">
            <path id="path1441" class="cls-4" d="M58.38,15.08c-1.1-1.18-2.22-2.44-3.36-3.8a11.09,11.09,0,0,0-1.59.66,26.8,26.8,0,0,0,3.24,4.23A15.69,15.69,0,0,1,58.38,15.08Z"/>
          </g>
        </g>
        <g id="shape1091-33">
          <path id="path1447" class="cls-4" d="M58.45,15a18.74,18.74,0,0,0-1.87,1.19c.72.79,1.45,1.59,2.25,2.36.57-.41,1.34-.89,1.87-1.19C60,16.67,59.21,15.88,58.45,15Z"/>
        </g>
        <g id="shape1092-35">
          <path id="path1452" class="cls-4" d="M58.25,14.94a14.89,14.89,0,0,0-1.67,1.13c.72.78,1.74,1.8,2.54,2.57a18.53,18.53,0,0,1,1.58-1.11C60,16.8,59,15.78,58.25,14.94Z"/>
        </g>
      </g>
      <g id="group1093-37">
        <g id="shape1094-38">
          <path id="path1460" class="cls-4" d="M64.3,21.49a2.71,2.71,0,0,0-.48,3.71,2.55,2.55,0,0,0,3.63.5A2.72,2.72,0,0,0,67.93,22,2.55,2.55,0,0,0,64.3,21.49Z"/>
        </g>
      </g>
      <g id="group1095-40">
        <g id="shape1096-41">
          <path id="path1468" class="cls-4" d="M59.24,27.83a2.51,2.51,0,0,0-.45,3.43,2.37,2.37,0,0,0,3.36.46,2.49,2.49,0,0,0,.44-3.43A2.35,2.35,0,0,0,59.24,27.83Z"/>
        </g>
      </g>
      <g id="group1097-43">
        <g id="shape1098-44">
          <path id="path1476" class="cls-4" d="M50,20.3a3.79,3.79,0,0,0-.68,5.21,3.57,3.57,0,0,0,5.1.69A3.8,3.8,0,0,0,55.08,21,3.58,3.58,0,0,0,50,20.3Z"/>
        </g>
      </g>
      <g id="group1081-18">
        <g id="shape1082-19">
          <path id="path1409" class="cls-9" d="M50.6,23.07A19.94,19.94,0,0,1,51.79,21a9.83,9.83,0,0,1-1.6-6.79,13.9,13.9,0,0,0-1.29,1.6C48.52,17.42,48.5,20,50.6,23.07Z"/>
        </g>
      </g>
    </g>
  </g>
</svg>
