<svg id="svg95" xmlns="http://www.w3.org/2000/svg" viewBox="0 0 205.55 55.68">
  <defs>
    <style>
      .cls-1, .cls-4, .cls-5 {
        fill: #fff;
      }

      .cls-1 {
        stroke: #000;
        stroke-width: 0.24px;
      }

      .cls-1, .cls-3 {
        stroke-linecap: round;
        stroke-linejoin: round;
      }

      .cls-1, .cls-2, .cls-3, .cls-4, .cls-7 {
        fill-rule: evenodd;
      }

      .cls-10, .cls-2, .cls-3 {
        fill: #008bfd;
      }

      .cls-3 {
        stroke: gray;
        stroke-width: 0.75px;
      }

      .cls-6, .cls-7 {
        fill: #505050;
      }

      .cls-8 {
        isolation: isolate;
      }

      .cls-9 {
        fill: #00b0f0;
      }
    </style>
  </defs>
  <title>OJ104546506</title>
  <g>
    <g id="shape1000-1">
      <path id="path15" class="cls-1" d="M16,9.82.12,21.25,6.2,39.73H25.86l6.08-18.48Z"/>
    </g>
    <g id="group1216-3">
      <g id="group1217-4">
        <g id="group1218-5">
          <g id="group1219-6">
            <g id="shape1220-7">
              <path id="path28" class="cls-2" d="M15.7,16.94a4.49,4.49,0,0,0-3,5.66c.66,2.55,3,4.22,5.27,3.67a4.5,4.5,0,0,0,3-5.67C20.42,17.94,18,16.27,15.7,16.94Z"/>
            </g>
          </g>
          <g id="group1221-9">
            <g id="shape1222-10">
              <path id="path36" class="cls-2" d="M20.64,27c-.44,0-.88.78-1.54,1.11s-1.32.89-3.18,0-2.09-1.66-3.63-1.66-4.06,2.77-4.06,6.88H23.82a12.09,12.09,0,0,0-1.1-4.22C21.62,27,21.08,27,20.64,27Z"/>
            </g>
          </g>
        </g>
      </g>
      <g id="group1223-12">
        <g id="shape1224-13">
          <path id="path46" class="cls-3" d="M22.05,22H17.93a.71.71,0,0,0-.65.66v2.85a.72.72,0,0,0,.76.65h.76v5.15a1,1,0,0,0,1,1.1,1,1,0,0,0,1-1H21v-.65c0-.22.33-.33.33-.33v-.33c-.33-.11-.54-.33-.54-.44v-.33l.21-.22a3.55,3.55,0,0,0,.33-.54A2.4,2.4,0,0,1,21,28c-.1-.11-.1-.33-.21-.44v-.22a2.51,2.51,0,0,1,.76-1.1h.54a.7.7,0,0,0,.65-.65v-3A.63.63,0,0,0,22.05,22Zm-2.39,9.53c0,.22,0,.33-.21.33s-.22-.22-.22-.33V26.72c0-.22.11-.33.22-.33s.21.22.21.33ZM20,23.76a.69.69,0,0,1-.65-.65.7.7,0,0,1,.65-.66.71.71,0,0,1,.65.66A.62.62,0,0,1,20,23.76Z"/>
        </g>
        <g id="shape1225-15">
          <path id="path51" class="cls-4" d="M19.43,31.85a.24.24,0,0,1-.22-.22v-5a.22.22,0,0,1,.44,0v5.11C19.65,31.85,19.54,31.85,19.43,31.85Z"/>
        </g>
        <g id="shape1226-17">
          <ellipse id="ellipse56" class="cls-5" cx="20" cy="23.09" rx="0.66" ry="0.67"/>
        </g>
      </g>
    </g>
  </g>
  <path id="path65" class="cls-2" d="M192.6,8.81H172.1A1.09,1.09,0,0,0,171,9.91V26.65a1.1,1.1,0,0,0,1.09,1.11h5.28A3.29,3.29,0,0,0,180.59,30a3.38,3.38,0,0,0,0-6.75,3.29,3.29,0,0,0-3.21,2.27h-4.19v-12H191.5v12h-3.45A7.61,7.61,0,0,0,180.59,19a8.25,8.25,0,0,0-3.64.92l1,2a5.27,5.27,0,0,1,2.55-.67,5.46,5.46,0,0,1,0,10.91,5.27,5.27,0,0,1-2.55-.67l-1,2a7.51,7.51,0,0,0,3.64.92,7.61,7.61,0,0,0,7.46-6.56h4.55a1.1,1.1,0,0,0,1.09-1.11V9.91A1.14,1.14,0,0,0,192.6,8.81Z"/>
  <path id="path83" class="cls-2" d="M77.23,9.3H56.73a1.09,1.09,0,0,0-1.09,1.1V27.14a1.1,1.1,0,0,0,1.09,1.11H62a3.29,3.29,0,0,0,3.21,2.27,3.38,3.38,0,0,0,0-6.75A3.29,3.29,0,0,0,62,26H57.82v-12H76.13V26H72.68a7.61,7.61,0,0,0-7.46-6.56,8.25,8.25,0,0,0-3.64.92l1,2a5.27,5.27,0,0,1,2.55-.67,5.46,5.46,0,0,1,0,10.91,5.27,5.27,0,0,1-2.55-.67l-1,2a7.51,7.51,0,0,0,3.64.92,7.61,7.61,0,0,0,7.46-6.56h4.55a1.1,1.1,0,0,0,1.09-1.11V10.4A1.14,1.14,0,0,0,77.23,9.3Z"/>
  <g>
    <rect class="cls-6" x="78.32" y="21.08" width="85.85" height="0.96" rx="0.42"/>
    <g id="shape1230-28">
      <g id="use7">
        <g id="lend5">
          <path id="path4" class="cls-7" d="M162.52,17.59l8.06,4-7.94,4a9,9,0,0,0-.06-8"/>
        </g>
      </g>
    </g>
  </g>
  <g id="text76" class="cls-8">
    <path class="cls-9" d="M90.77,13.49a3.07,3.07,0,0,1-2.39-1A3.67,3.67,0,0,1,87.49,10a3.85,3.85,0,0,1,.91-2.7,3.2,3.2,0,0,1,2.49-1,3,3,0,0,1,2.33,1,3.66,3.66,0,0,1,.89,2.56,3.86,3.86,0,0,1-.91,2.71A3.12,3.12,0,0,1,90.77,13.49ZM90.83,7A2.25,2.25,0,0,0,89,7.79a3.08,3.08,0,0,0-.69,2.09A3.1,3.1,0,0,0,89,12a2.2,2.2,0,0,0,1.75.78A2.32,2.32,0,0,0,92.59,12a3.07,3.07,0,0,0,.66-2.1,3.23,3.23,0,0,0-.64-2.15A2.23,2.23,0,0,0,90.83,7Z"/>
    <path class="cls-9" d="M99.53,13.38h-.8V10.52c0-1.06-.39-1.59-1.16-1.59a1.27,1.27,0,0,0-1,.45,1.68,1.68,0,0,0-.39,1.14v2.86h-.8v-5h.8v.83h0a1.79,1.79,0,0,1,1.64-1,1.48,1.48,0,0,1,1.25.53,2.35,2.35,0,0,1,.44,1.53Z"/>
    <path class="cls-9" d="M101.15,13.38v-7h2a2.18,2.18,0,0,1,1.44.45A1.43,1.43,0,0,1,105.11,8a1.67,1.67,0,0,1-1.21,1.66v0a1.8,1.8,0,0,1,1.13.54,1.61,1.61,0,0,1,.43,1.17,1.84,1.84,0,0,1-.65,1.46,2.4,2.4,0,0,1-1.62.56ZM102,7.12V9.38h.84a1.6,1.6,0,0,0,1.06-.33,1.15,1.15,0,0,0,.38-.91c0-.68-.45-1-1.34-1Zm0,3v2.52h1.11a1.67,1.67,0,0,0,1.12-.34,1.19,1.19,0,0,0,.4-.94c0-.82-.57-1.24-1.69-1.24Z"/>
    <path class="cls-9" d="M110.79,11.08h-3.53a1.82,1.82,0,0,0,.45,1.28,1.52,1.52,0,0,0,1.18.46,2.46,2.46,0,0,0,1.55-.56V13a2.89,2.89,0,0,1-1.74.48,2.14,2.14,0,0,1-1.67-.68,2.8,2.8,0,0,1-.6-1.92,2.75,2.75,0,0,1,.66-1.9,2.12,2.12,0,0,1,1.64-.73,1.88,1.88,0,0,1,1.52.63,2.66,2.66,0,0,1,.54,1.77ZM110,10.4a1.64,1.64,0,0,0-.34-1.08,1.12,1.12,0,0,0-.91-.39,1.28,1.28,0,0,0-1,.41,1.78,1.78,0,0,0-.49,1.06Z"/>
    <path class="cls-9" d="M116.15,13.38h-.8V10.49c0-1-.39-1.56-1.16-1.56a1.28,1.28,0,0,0-1,.45,1.67,1.67,0,0,0-.4,1.16v2.84H112V6h.8V9.21h0a1.8,1.8,0,0,1,1.64-1c1.13,0,1.69.68,1.69,2Z"/>
    <path class="cls-9" d="M121.24,13.38h-.8v-.79h0a1.68,1.68,0,0,1-1.54.9,1.65,1.65,0,0,1-1.17-.39,1.39,1.39,0,0,1-.42-1c0-.94.55-1.48,1.65-1.63l1.5-.21c0-.85-.35-1.28-1-1.28a2.44,2.44,0,0,0-1.63.62V8.73a3,3,0,0,1,1.7-.47c1.17,0,1.76.62,1.76,1.86Zm-.8-2.53-1.21.16a2,2,0,0,0-.84.28.78.78,0,0,0-.28.7.79.79,0,0,0,.26.6,1,1,0,0,0,.7.23,1.29,1.29,0,0,0,1-.42,1.49,1.49,0,0,0,.39-1.06Z"/>
    <path class="cls-9" d="M123.55,13.38h-.8V6h.8Z"/>
    <path class="cls-9" d="M127.64,6.68a1,1,0,0,0-.53-.14c-.56,0-.84.36-.84,1.06v.78h1.17v.68h-1.17v4.32h-.8V9.06h-.85V8.38h.85V7.56a1.67,1.67,0,0,1,.46-1.24,1.54,1.54,0,0,1,1.13-.45,1.56,1.56,0,0,1,.58.08Z"/>
    <path class="cls-9" d="M131.23,13.49a3.07,3.07,0,0,1-2.39-1A3.67,3.67,0,0,1,128,10a3.85,3.85,0,0,1,.91-2.7,3.2,3.2,0,0,1,2.49-1,3,3,0,0,1,2.33,1,3.66,3.66,0,0,1,.89,2.56,3.86,3.86,0,0,1-.91,2.71A3.15,3.15,0,0,1,131.23,13.49ZM131.29,7a2.23,2.23,0,0,0-1.79.79,3.08,3.08,0,0,0-.69,2.09,3.1,3.1,0,0,0,.67,2.09,2.2,2.2,0,0,0,1.75.78A2.28,2.28,0,0,0,133,12a3,3,0,0,0,.67-2.1,3.23,3.23,0,0,0-.65-2.15A2.21,2.21,0,0,0,131.29,7Z"/>
    <path class="cls-9" d="M138.31,6.68a1.08,1.08,0,0,0-.53-.14c-.56,0-.84.36-.84,1.06v.78h1.17v.68h-1.17v4.32h-.8V9.06h-.85V8.38h.85V7.56a1.7,1.7,0,0,1,.45-1.24A1.79,1.79,0,0,1,138.31,6Z"/>
    <path class="cls-9" d="M141.53,10.9h-2.67v-.63h2.67Z"/>
    <path class="cls-9" d="M146.63,7.12h-2.74V9.54h2.53v.73h-2.53v3.11h-.82v-7h3.56Z"/>
    <path class="cls-9" d="M148.65,13.38h-.8V6h.8Z"/>
    <path class="cls-9" d="M152.36,13.49a2.31,2.31,0,0,1-1.77-.7,2.6,2.6,0,0,1-.66-1.86,2.68,2.68,0,0,1,.69-2,2.45,2.45,0,0,1,1.86-.71,2.22,2.22,0,0,1,1.74.69,2.72,2.72,0,0,1,.63,1.91,2.64,2.64,0,0,1-.68,1.91A2.36,2.36,0,0,1,152.36,13.49Zm.06-4.56a1.53,1.53,0,0,0-1.22.53,2.14,2.14,0,0,0-.45,1.44,2.08,2.08,0,0,0,.45,1.41,1.56,1.56,0,0,0,1.22.51,1.47,1.47,0,0,0,1.19-.5,2.21,2.21,0,0,0,.42-1.44,2.21,2.21,0,0,0-.42-1.44A1.45,1.45,0,0,0,152.42,8.93Z"/>
    <path class="cls-9" d="M162.43,8.38l-1.5,5h-.83l-1-3.58a2.19,2.19,0,0,1-.08-.47h0a2.15,2.15,0,0,1-.1.46l-1.12,3.59H157l-1.51-5h.84l1,3.75a2.37,2.37,0,0,1,.07.45h0a2,2,0,0,1,.09-.45l1.15-3.75h.73l1,3.76a3.91,3.91,0,0,1,.07.45h0a2.39,2.39,0,0,1,.08-.45l1-3.76Z"/>
  </g>
  <g id="text67" class="cls-8">
    <path class="cls-10" d="M170.23,47.32h-.91l-.74-2h-3l-.7,2H164l2.68-7h.85Zm-1.92-2.7-1.1-3a4.26,4.26,0,0,1-.11-.47h0a2.53,2.53,0,0,1-.11.47l-1.09,3Z"/>
    <path class="cls-10" d="M172.08,44.67v2.65h-.82v-7h1.92a2.56,2.56,0,0,1,1.74.55,1.92,1.92,0,0,1,.62,1.54,2.13,2.13,0,0,1-.68,1.63,2.61,2.61,0,0,1-1.86.64Zm0-3.61v2.87h.86a1.92,1.92,0,0,0,1.3-.39,1.41,1.41,0,0,0,.44-1.1c0-.92-.54-1.38-1.64-1.38Z"/>
    <path class="cls-10" d="M177.68,47.32h-.82v-7h.82Z"/>
    <path class="cls-10" d="M182,44.84h-2.66v-.63H182Z"/>
    <path class="cls-10" d="M188.94,47.32H188l-.74-2h-3l-.7,2h-.91l2.69-7h.85ZM187,44.62l-1.1-3a3,3,0,0,1-.1-.47h0a2.42,2.42,0,0,1-.12.47l-1.09,3Z"/>
    <path class="cls-10" d="M190.68,46.59h0v3h-.8v-7.3h.8v.87h0a1.9,1.9,0,0,1,1.73-1,1.82,1.82,0,0,1,1.51.67,2.8,2.8,0,0,1,.54,1.8,3.09,3.09,0,0,1-.61,2,2,2,0,0,1-1.67.75A1.68,1.68,0,0,1,190.68,46.59Zm0-2v.69a1.5,1.5,0,0,0,.41,1.06,1.43,1.43,0,0,0,2.16-.13,2.57,2.57,0,0,0,.41-1.55,2,2,0,0,0-.38-1.3,1.28,1.28,0,0,0-1-.48,1.4,1.4,0,0,0-1.12.49A1.8,1.8,0,0,0,190.66,44.58Z"/>
    <path class="cls-10" d="M196.56,46.59h0v3h-.8v-7.3h.8v.87h0a1.9,1.9,0,0,1,1.73-1,1.82,1.82,0,0,1,1.51.67,2.8,2.8,0,0,1,.54,1.8,3.09,3.09,0,0,1-.61,2,2,2,0,0,1-1.67.75A1.67,1.67,0,0,1,196.56,46.59Zm0-2v.69a1.5,1.5,0,0,0,.41,1.06,1.33,1.33,0,0,0,1,.43,1.36,1.36,0,0,0,1.14-.56,2.57,2.57,0,0,0,.41-1.55,2,2,0,0,0-.38-1.3,1.28,1.28,0,0,0-1-.48,1.4,1.4,0,0,0-1.12.49A1.75,1.75,0,0,0,196.54,44.58Z"/>
  </g>
  <g id="text85" class="cls-8">
    <path class="cls-10" d="M54.86,47.81H54l-.74-2h-3l-.7,2h-.91l2.68-7h.85Zm-1.92-2.7-1.1-3a2.53,2.53,0,0,1-.11-.47h0a2.53,2.53,0,0,1-.11.47l-1.09,3Z"/>
    <path class="cls-10" d="M56.71,45.16v2.65h-.82v-7h1.92a2.56,2.56,0,0,1,1.74.55,2,2,0,0,1,.62,1.54,2.14,2.14,0,0,1-.69,1.64,2.63,2.63,0,0,1-1.85.63Zm0-3.61v2.87h.86A1.91,1.91,0,0,0,58.86,44a1.37,1.37,0,0,0,.45-1.1c0-.92-.55-1.38-1.64-1.38Z"/>
    <path class="cls-10" d="M62.31,47.81h-.82v-7h.82Z"/>
    <path class="cls-10" d="M66.6,45.34H63.93v-.63H66.6Z"/>
    <path class="cls-10" d="M73.57,47.81h-.91l-.74-2H69l-.7,2h-.91l2.68-7h.85Zm-1.92-2.7-1.1-3a2.53,2.53,0,0,1-.11-.47h0a2.53,2.53,0,0,1-.11.47l-1.09,3Z"/>
    <path class="cls-10" d="M75.31,47.08h0v3h-.8v-7.3h.8v.88h0a1.88,1.88,0,0,1,1.73-1,1.83,1.83,0,0,1,1.51.67,2.8,2.8,0,0,1,.54,1.8,3.07,3.07,0,0,1-.61,2,2,2,0,0,1-1.67.75A1.67,1.67,0,0,1,75.31,47.08Zm0-2v.7a1.48,1.48,0,0,0,.4,1,1.34,1.34,0,0,0,1,.43,1.36,1.36,0,0,0,1.14-.56,2.56,2.56,0,0,0,.41-1.54,2,2,0,0,0-.39-1.31,1.25,1.25,0,0,0-1-.48,1.45,1.45,0,0,0-1.13.49A1.79,1.79,0,0,0,75.29,45.07Z"/>
    <path class="cls-10" d="M81.19,47.08h0v3h-.8v-7.3h.8v.88h0a1.88,1.88,0,0,1,1.73-1,1.84,1.84,0,0,1,1.51.67,2.8,2.8,0,0,1,.54,1.8,3.13,3.13,0,0,1-.61,2,2,2,0,0,1-1.67.75A1.67,1.67,0,0,1,81.19,47.08Zm0-2v.7a1.48,1.48,0,0,0,.4,1,1.43,1.43,0,0,0,2.16-.13,2.49,2.49,0,0,0,.42-1.54,2,2,0,0,0-.39-1.31,1.26,1.26,0,0,0-1-.48,1.45,1.45,0,0,0-1.13.49A1.79,1.79,0,0,0,81.17,45.07Z"/>
  </g>
</svg>
