<svg xmlns="http://www.w3.org/2000/svg" xmlns:xlink="http://www.w3.org/1999/xlink" viewBox="0 0 171.02 202.65"><defs><style>.cls-1{fill:#fff;}.cls-2,.cls-3,.cls-4{fill:#3c3c41;}.cls-2{opacity:0.05;}.cls-2,.cls-4{isolation:isolate;}.cls-4{opacity:0.2;}.cls-5{fill:url(#Degradado_sin_nombre);}.cls-6{fill:#767676;}.cls-7{fill:#f2f2f2;}.cls-8{fill:url(#Degradado_sin_nombre_2);}.cls-9{fill:url(#Degradado_sin_nombre_3);}.cls-10{fill:url(#Degradado_sin_nombre_4);}.cls-11{fill:none;stroke:#3c3c41;stroke-miterlimit:10;}.cls-12{fill:url(#Degradado_sin_nombre_5);}.cls-13{fill:url(#Degradado_sin_nombre_6);}.cls-14{fill:url(#Degradado_sin_nombre_7);}.cls-15{fill:#50e6ff;}.cls-16{fill:#1490df;}.cls-17{fill:#6ebcdb;}.cls-18{fill:#5db4d7;}.cls-19{fill:#e6e6e6;}.cls-20{fill:#86d633;}.cls-21,.cls-22{font-size:12.44px;}.cls-21,.cls-22,.cls-23,.cls-26,.cls-27{fill:#1e1e1e;font-family:SegoeUI, Segoe UI;}.cls-21{letter-spacing:0em;}.cls-22{letter-spacing:0.01em;}.cls-23{font-size:12.19px;letter-spacing:0em;}.cls-24{letter-spacing:-0.07em;}.cls-25{letter-spacing:0.01em;}.cls-26,.cls-27{font-size:10px;}.cls-26{letter-spacing:-0.02em;}</style><linearGradient id="Degradado_sin_nombre" x1="103.55" y1="-2024.2" x2="103.55" y2="-2011.41" gradientTransform="matrix(1, 0, 0, -1, 0, -1978.98)" gradientUnits="userSpaceOnUse"><stop offset="0" stop-color="#32bedd"/><stop offset="0.18" stop-color="#32caea"/><stop offset="0.41" stop-color="#32d2f2"/><stop offset="0.78" stop-color="#32d4f5"/></linearGradient><linearGradient id="Degradado_sin_nombre_2" x1="112.01" y1="-2030.48" x2="112.01" y2="-2017.69" xlink:href="#Degradado_sin_nombre"/><linearGradient id="Degradado_sin_nombre_3" x1="120.46" y1="-2036.76" x2="120.46" y2="-2023.96" xlink:href="#Degradado_sin_nombre"/><linearGradient id="Degradado_sin_nombre_4" x1="32.57" y1="309.48" x2="32.57" y2="288.9" gradientTransform="translate(0 -252.68)" xlink:href="#Degradado_sin_nombre"/><linearGradient id="Degradado_sin_nombre_5" x1="38.26" y1="428.03" x2="40.63" y2="430.4" gradientTransform="translate(2.9 -253.22)" gradientUnits="userSpaceOnUse"><stop offset="0" stop-color="#86d633"/><stop offset="0.24" stop-color="#83d232"/><stop offset="0.5" stop-color="#7cc52f"/><stop offset="0.76" stop-color="#6fb02a"/><stop offset="1" stop-color="#5e9624"/></linearGradient><linearGradient id="Degradado_sin_nombre_6" x1="32.91" y1="428.03" x2="35.27" y2="430.4" xlink:href="#Degradado_sin_nombre_5"/><linearGradient id="Degradado_sin_nombre_7" x1="27.56" y1="428.03" x2="29.92" y2="430.4" xlink:href="#Degradado_sin_nombre_5"/></defs><title>OJ104903208</title><g id="Target"><rect class="cls-1" width="170.48" height="202.65"/><rect class="cls-1" x="15.52" y="120.49" width="155" height="55" rx="5"/><rect class="cls-2" x="15.52" y="120.49" width="155" height="55" rx="5"/><path class="cls-3" d="M164.37,176h-1v-1h1Zm-3,0h-1v-1h1Zm-3,0h-1v-1h1Zm-3,0h-1v-1h1Zm-3,0h-1v-1h1Zm-3,0h-1v-1h1Zm-3,0h-1v-1h1Zm-3,0h-1v-1h1Zm-3,0h-1v-1h1Zm-3,0h-1v-1h1Zm-3,0h-1v-1h1Zm-3,0h-1v-1h1Zm-3,0h-1v-1h1Zm-3,0h-1v-1h1Zm-3,0h-1v-1h1Zm-3,0h-1v-1h1Zm-3,0h-1v-1h1Zm-3,0h-1v-1h1Zm-3,0h-1v-1h1Zm-3,0h-1v-1h1Zm-3,0h-1v-1h1Zm-3,0h-1v-1h1Zm-3,0h-1v-1h1Zm-3,0h-1v-1h1Zm-3,0h-1v-1h1Zm-3,0h-1v-1h1Zm-3,0h-1v-1h1Zm-3,0h-1v-1h1Zm-3,0h-1v-1h1Zm-3,0h-1v-1h1Zm-3,0h-1v-1h1Zm-3,0h-1v-1h1Zm-3,0h-1v-1h1Zm-3,0h-1v-1h1Zm-3,0h-1v-1h1Zm-3,0h-1v-1h1Zm-3,0h-1v-1h1Zm-3,0h-1v-1h1Zm-33,0a5.75,5.75,0,0,1-1.09-.17l.26-1a3.76,3.76,0,0,0,.88.14Zm146.23-.07-.17-1a5.11,5.11,0,0,0,.87-.25l.36.94a5.19,5.19,0,0,1-1.16.29ZM17.17,174.84a5.16,5.16,0,0,1-.8-.75l.76-.66a4.77,4.77,0,0,0,.65.62Zm152.18-.41-.7-.71a4.24,4.24,0,0,0,.58-.69l.83.57a5.65,5.65,0,0,1-.71.83ZM15.29,172.19a5.61,5.61,0,0,1-.23-1.08l1-.11a5.31,5.31,0,0,0,.19.88Zm155.62-.61-1-.2a4.41,4.41,0,0,0,.09-.89l1-.06v.06a5,5,0,0,1-.09,1.09ZM16,169.06H15v-1h1Zm155-.63h-1v-1h1ZM16,166.05H15v-1h1Zm155-.62h-1v-1h1ZM16,163.05H15v-1h1Zm155-.63h-1v-1h1ZM16,160.05H15v-1h1Zm155-.63h-1v-1h1ZM16,157.05H15v-1h1Zm155-.63h-1v-1h1ZM16,154H15v-1h1Zm155-.62h-1v-1h1ZM16,151H15v-1h1Zm155-.63h-1v-1h1ZM16,148H15v-1h1Zm155-.63h-1v-1h1ZM16,145H15v-1h1Zm155-.63h-1v-1h1ZM16,142H15v-1h1Zm155-.62h-1v-1h1ZM16,139H15v-1h1Zm155-.63h-1v-1h1ZM16,136H15v-1h1Zm155-.63h-1v-1h1ZM16,133H15v-1h1Zm155-.63h-1v-1h1ZM16,130H15v-1h1Zm155-.62h-1v-1h1ZM16,127H15v-1h1Zm155-.63h-1v-.9l1-.11Zm-154.8-2.2-1-.3a5.2,5.2,0,0,1,.43-1l.88.48a4.17,4.17,0,0,0-.29.84Zm153.41-.53a3.77,3.77,0,0,0-.45-.78l.82-.58a4.83,4.83,0,0,1,.54,1ZM17.71,122l-.62-.78a5.2,5.2,0,0,1,.92-.6l.46.89A4.69,4.69,0,0,0,17.71,122Zm150.16-.32a4.6,4.6,0,0,0-.8-.4l.34-.93a4.6,4.6,0,0,1,1,.48ZM20.19,121l-.08-1h1v1h-1Zm145.08,0h-1v-1h1Zm-3,0h-1v-1h1Zm-3,0h-1v-1h1Zm-3,0h-1v-1h1Zm-3,0h-1v-1h1Zm-3,0h-1v-1h1Zm-3,0h-1v-1h1Zm-3,0h-1v-1h1Zm-3,0h-1v-1h1Zm-3,0h-1v-1h1Zm-3,0h-1v-1h1Zm-3,0h-1v-1h1Zm-3,0h-1v-1h1Zm-3,0h-1v-1h1Zm-3,0h-1v-1h1Zm-3,0h-1v-1h1Zm-3,0h-1v-1h1Zm-3,0h-1v-1h1Zm-3,0h-1v-1h1Zm-3,0h-1v-1h1Zm-3,0h-1v-1h1Zm-3,0h-1v-1h1Zm-3,0h-1v-1h1Zm-3,0h-1v-1h1Zm-3,0h-1v-1h1Zm-3,0h-1v-1h1Zm-3,0h-1v-1h1Zm-3,0h-1v-1h1Zm-3,0h-1v-1h1Zm-3,0h-1v-1h1Zm-3,0h-1v-1h1Zm-3,0h-1v-1h1Zm-3,0h-1v-1h1Zm-3,0h-1v-1h1Zm-3,0h-1v-1h1Zm-3,0h-1v-1h1Zm-3,0h-1v-1h1Zm-3,0h-1v-1h1Zm-3,0h-1v-1h1Zm-3,0h-1v-1h1Zm-3,0h-1v-1h1Zm-3,0h-1v-1h1Zm-3,0h-1v-1h1Zm-3,0h-1v-1h1Zm-3,0h-1v-1h1Zm-3,0h-1v-1h1Zm-3,0h-1v-1h1Zm-3,0h-1v-1h1Z"/><rect class="cls-1" x="25.22" y="130.51" width="65.69" height="30" rx="0.3"/><rect class="cls-4" x="25.22" y="130.51" width="65.69" height="30" rx="0.3"/><rect class="cls-1" x="95.59" y="130.51" width="65.69" height="30" rx="0.3"/><rect class="cls-4" x="95.59" y="130.51" width="65.69" height="30" rx="0.3"/><path class="cls-5" d="M92.72,32.43h21.67V44.52a.73.73,0,0,1-.73.72H93.45a.73.73,0,0,1-.73-.72h0Z"/><path class="cls-6" d="M93.45,27.8h20.21a.73.73,0,0,1,.73.73h0v3.9H92.72v-3.9A.73.73,0,0,1,93.45,27.8Z"/><rect class="cls-7" x="95.64" y="29.19" width="15.84" height="1.86" rx="0.36"/><path class="cls-8" d="M101.17,38.69h21.68V50.77a.73.73,0,0,1-.73.73H101.89a.72.72,0,0,1-.72-.72h0Z"/><path class="cls-6" d="M101.89,34.08H122.1a.73.73,0,0,1,.73.73h0v3.88H101.19V34.81A.72.72,0,0,1,101.89,34.08Z"/><rect class="cls-7" x="104.08" y="35.47" width="15.84" height="1.86" rx="0.36"/><path class="cls-9" d="M109.63,45h21.66V57.07a.72.72,0,0,1-.71.73H110.36a.73.73,0,0,1-.73-.73h0Z"/><path class="cls-6" d="M110.36,40.36h20.21a.72.72,0,0,1,.72.72h0V45H109.63V41.1a.73.73,0,0,1,.72-.74Z"/><circle class="cls-7" cx="125.34" cy="50.6" r="1.76"/><circle class="cls-7" cx="120.54" cy="50.6" r="1.76"/><circle class="cls-7" cx="115.59" cy="50.6" r="1.76"/><rect class="cls-7" x="112.54" y="41.75" width="15.84" height="1.86" rx="0.36"/><path class="cls-10" d="M15.14,36.22H50V55.63a1.17,1.17,0,0,1-1.17,1.17H16.31a1.17,1.17,0,0,1-1.17-1.17Z"/><path class="cls-6" d="M16.31,28.8H48.79A1.17,1.17,0,0,1,50,29.93v6.32H15.14V30a1.17,1.17,0,0,1,1.14-1.2Z"/><circle class="cls-7" cx="40.38" cy="45.23" r="2.83"/><circle class="cls-7" cx="32.67" cy="45.23" r="2.83"/><circle class="cls-7" cx="24.73" cy="45.23" r="2.83"/><rect class="cls-7" x="19.83" y="31.01" width="25.46" height="2.99" rx="0.57"/><line class="cls-11" x1="71.09" y1="130.51" x2="71.09" y2="107.89"/><polygon class="cls-3" points="74.83 108.99 71.09 102.51 67.35 108.99 74.83 108.99"/><path class="cls-11" d="M58.59,75.61H37.33a5,5,0,0,1-5-5V55.29"/><polygon class="cls-3" points="36.07 56.39 32.33 49.91 28.59 56.39 36.07 56.39"/><path class="cls-11" d="M110.34,55.29V70.61a5,5,0,0,1-5,5H82"/><polygon class="cls-3" points="106.6 56.39 110.34 49.91 114.08 56.39 106.6 56.39"/><circle class="cls-12" cx="42.11" cy="175.76" r="1.67"/><circle class="cls-13" cx="36.77" cy="175.78" r="1.67"/><circle class="cls-14" cx="31.43" cy="175.78" r="1.67"/><path class="cls-15" d="M32.64,182.47l-.95,1a.44.44,0,0,1-.62,0h0L24,176.36a.87.87,0,0,1,0-1.23h0l.95-1h0l7.71,7.69a.43.43,0,0,1,0,.61h0Z"/><path class="cls-16" d="M31.54,168.14l1,1a.44.44,0,0,1,0,.62L25,177.35h0l-1-1a.89.89,0,0,1,0-1.23h0l7-7A.43.43,0,0,1,31.54,168.14Z"/><path class="cls-15" d="M48.49,174.16l1,1a.87.87,0,0,1,0,1.23h0l-7.1,7.07a.43.43,0,0,1-.61,0h0l-1-1a.43.43,0,0,1,0-.61h0Z"/><path class="cls-16" d="M49.45,176.34l-1,.95h0l-7.58-7.59a.44.44,0,0,1,0-.62h0l1-1a.43.43,0,0,1,.61,0h0l7,7a.87.87,0,0,1,0,1.23h0Z"/><g id="ad94e297-0e86-4eaf-aac0-d146ee9aea65"><path class="cls-17" d="M67,92.24,62.31,87.4a2.56,2.56,0,0,1-.78.14,2.43,2.43,0,1,1,2.24-3.33h4.62v1.62H63.84a2.94,2.94,0,0,1-.26.57l4.33,4.46,2.34-3.57V76.11H67.1l4-4,3.94,4H71.87v8.74l5.93-9-6-6a1,1,0,0,0-1.41,0s0,0,0,0h0L55.88,84.28a1,1,0,0,0-.05,1.41l.05,0h0l14.48,14.47L65.19,95Z"/><path class="cls-18" d="M70.25,92.45V87.28l-2.34,3.58,1.72,1.84A1.76,1.76,0,0,1,70.25,92.45Z"/><path class="cls-18" d="M86.28,84.28,77.8,75.8l-5.93,9v7.61a1.91,1.91,0,0,1,.54.3l6.22-6.29a2.53,2.53,0,0,1-.31-.64H73.65V84.21h4.73a2.42,2.42,0,1,1,2.24,3.33,3,3,0,0,1-.67-.11L73.34,94.1a2.59,2.59,0,0,1,.1.62,2.43,2.43,0,1,1-4.84.44,2.18,2.18,0,0,1,0-.25,2.29,2.29,0,0,1,.13-.9L67,92.29l-1.85,2.76,5.17,5.17a1,1,0,0,0,1.41,0l0,0L86.24,85.74a1,1,0,0,0,.05-1.41s0,0-.05,0Z"/><path class="cls-19" d="M78.38,84.21H73.65v1.62h4.67a2.22,2.22,0,0,1-.12-.72A2.3,2.3,0,0,1,78.38,84.21Z"/><path class="cls-19" d="M63.84,85.83h4.55V84.21H63.77a2.14,2.14,0,0,1,.19.9A2.22,2.22,0,0,1,63.84,85.83Z"/><path class="cls-19" d="M73.34,94.1,80,87.43a2.44,2.44,0,0,1-1.32-1l-6.22,6.29A2.31,2.31,0,0,1,73.34,94.1Z"/><path class="cls-19" d="M69.68,92.7,68,90.86,63.58,86.4a2.42,2.42,0,0,1-1.27,1L67,92.24,68.72,94A2.41,2.41,0,0,1,69.68,92.7Z"/><path class="cls-1" d="M75,76.11l-3.93-4-4,4h3.15V92.45a1.71,1.71,0,0,0-.57.25,2.41,2.41,0,1,0,3.62,2.71,2.68,2.68,0,0,0,.1-.69,2.59,2.59,0,0,0-.1-.62,2.32,2.32,0,0,0-.93-1.34,1.91,1.91,0,0,0-.54-.3V76.11Zm-3.93,20a1.34,1.34,0,1,1,1.34-1.34h0a1.33,1.33,0,0,1-1.33,1.29Z"/><path class="cls-1" d="M63.58,86.4a2.94,2.94,0,0,0,.26-.57,2.22,2.22,0,0,0,.12-.72,2.14,2.14,0,0,0-.19-.9,2.41,2.41,0,1,0-2.24,3.33,2.56,2.56,0,0,0,.78-.14A2.42,2.42,0,0,0,63.58,86.4Zm-2,0a1.35,1.35,0,1,1,1.35-1.35h0a1.34,1.34,0,0,1-1.28,1.4h-.07Z"/><path class="cls-1" d="M80,87.43a3,3,0,0,0,.67.11,2.43,2.43,0,1,0-2.24-3.33,2.3,2.3,0,0,0-.18.9,2.22,2.22,0,0,0,.12.72,2.53,2.53,0,0,0,.31.64A2.46,2.46,0,0,0,80,87.43Zm.67-3.65a1.33,1.33,0,1,1-.33,0h0a1,1,0,0,1,.25,0Z"/><path class="cls-20" d="M71.08,93.38a1.34,1.34,0,1,0,1.34,1.34h0A1.34,1.34,0,0,0,71.08,93.38Z"/><circle class="cls-20" cx="61.53" cy="85.11" r="1.34"/><path class="cls-20" d="M80.62,86.45a1.35,1.35,0,1,0-1.34-1.36v0h0A1.34,1.34,0,0,0,80.62,86.45Z"/></g></g><g id="Text"><text class="cls-21" transform="translate(31.29 148.95) scale(0.99 1)">Subnetz 1</text><text class="cls-22" transform="translate(23.81 197.64) scale(0.99 1)">Virtuelles Netzwerk</text><text class="cls-23" transform="translate(59.17 65.3) scale(0.98 1)">N<tspan class="cls-24" x="9.18" y="0">A</tspan><tspan class="cls-25" x="16.23" y="0">T</tspan></text><text class="cls-26" transform="translate(3.22 14.56) scale(0.98 1)">Öffentliche IP-<tspan x="13.37" y="10">Adresse</tspan></text><text class="cls-27" transform="translate(94.07 14.47) scale(0.98 1)">IP-Präfix</text><text class="cls-21" transform="translate(101.87 148.95) scale(0.99 1)">Subnetz 2</text></g></svg>