<svg id="Layer_1" data-name="Layer 1" xmlns="http://www.w3.org/2000/svg" xmlns:xlink="http://www.w3.org/1999/xlink" viewBox="0 0 325.49 212.9"><defs><style>.cls-1,.cls-10{fill:#fff;}.cls-2{fill:#0072c6;opacity:0.12;}.cls-2,.cls-6{isolation:isolate;}.cls-3{fill:url(#linear-gradient);}.cls-4{fill:#b4ec36;}.cls-5{fill:#5ea0ef;}.cls-6{opacity:0.9;fill:url(#linear-gradient-2);}.cls-7{fill:url(#linear-gradient-3);}.cls-8{fill:#0078d4;}.cls-10,.cls-8,.cls-9{fill-rule:evenodd;}.cls-9{fill:url(#linear-gradient-4);}.cls-11{fill:none;stroke:#3c3c41;stroke-miterlimit:10;}.cls-12{fill:url(#linear-gradient-5);}.cls-13{fill:#50e6ff;}.cls-14{fill:#c3f1ff;}.cls-15{fill:#9cebff;}.cls-16{fill:url(#linear-gradient-6);}.cls-17{fill:url(#linear-gradient-7);}.cls-18{fill:url(#linear-gradient-8);}.cls-19{fill:url(#linear-gradient-9);}.cls-20{fill:url(#linear-gradient-10);}.cls-21{fill:url(#linear-gradient-11);}.cls-22{fill:#e3e3e3;}.cls-23{fill:#1e1e1e;}</style><linearGradient id="linear-gradient" x1="126.49" y1="963.39" x2="126.49" y2="926.29" gradientTransform="translate(0 -837.21)" gradientUnits="userSpaceOnUse"><stop offset="0" stop-color="#5e9624"/><stop offset="0.02" stop-color="#5f9724"/><stop offset="1" stop-color="#76bc2d"/></linearGradient><linearGradient id="linear-gradient-2" x1="26.52" y1="92.8" x2="26.52" y2="120.83" gradientTransform="matrix(1, 0, 0, -1, 0, 213)" gradientUnits="userSpaceOnUse"><stop offset="0" stop-color="#d2ebff"/><stop offset="1" stop-color="#f0fffd"/></linearGradient><linearGradient id="linear-gradient-3" x1="26.13" y1="931.16" x2="26.13" y2="955.35" gradientTransform="translate(0 -837.21)" gradientUnits="userSpaceOnUse"><stop offset="0.09" stop-color="#6cc6b9"/><stop offset="0.46" stop-color="#6ac4b7"/><stop offset="0.64" stop-color="#62bdb0"/><stop offset="0.77" stop-color="#56b1a4"/><stop offset="0.88" stop-color="#439f93"/><stop offset="0.98" stop-color="#2c897d"/><stop offset="1" stop-color="#258277"/></linearGradient><linearGradient id="linear-gradient-4" x1="26.13" y1="86.52" x2="26.13" y2="89.34" gradientTransform="matrix(1, 0, 0, -1, 0, 213)" gradientUnits="userSpaceOnUse"><stop offset="0" stop-color="#0078d4"/><stop offset="0.17" stop-color="#1c84dc"/><stop offset="0.38" stop-color="#3990e4"/><stop offset="0.59" stop-color="#4d99ea"/><stop offset="0.8" stop-color="#5a9eee"/><stop offset="1" stop-color="#5ea0ef"/></linearGradient><linearGradient id="linear-gradient-5" x1="249.56" y1="898.87" x2="249.56" y2="880.1" gradientTransform="translate(0 -837.21)" gradientUnits="userSpaceOnUse"><stop offset="0" stop-color="#0078d4"/><stop offset="0.82" stop-color="#5ea0ef"/></linearGradient><linearGradient id="linear-gradient-6" x1="249.56" y1="906.1" x2="249.56" y2="898.87" gradientTransform="translate(0 -837.21)" gradientUnits="userSpaceOnUse"><stop offset="0.15" stop-color="#ccc"/><stop offset="1" stop-color="#707070"/></linearGradient><linearGradient id="linear-gradient-7" x1="249.56" y1="952.87" x2="249.56" y2="934.1" xlink:href="#linear-gradient-5"/><linearGradient id="linear-gradient-8" x1="249.56" y1="960.1" x2="249.56" y2="952.87" xlink:href="#linear-gradient-6"/><linearGradient id="linear-gradient-9" x1="249.56" y1="1011.37" x2="249.56" y2="992.6" xlink:href="#linear-gradient-5"/><linearGradient id="linear-gradient-10" x1="249.56" y1="1018.6" x2="249.56" y2="1011.37" xlink:href="#linear-gradient-6"/><linearGradient id="linear-gradient-11" x1="220.69" y1="862.31" x2="220.69" y2="832.51" gradientTransform="translate(0 -837.21)" gradientUnits="userSpaceOnUse"><stop offset="0" stop-color="#0078d4"/><stop offset="0.16" stop-color="#1380da"/><stop offset="0.53" stop-color="#3c91e5"/><stop offset="0.82" stop-color="#559cec"/><stop offset="1" stop-color="#5ea0ef"/></linearGradient></defs><rect class="cls-1" width="325.49" height="212.9"/><path class="cls-1" d="M325.49,187.9h-105V12.9h86.4a18.59,18.59,0,0,1,18.6,18.59Z"/><path class="cls-2" d="M325.49,187.9h-105V12.9h86.4a18.59,18.59,0,0,1,18.6,18.59Z"/><path class="cls-3" d="M110.81,106.13l14.91-14.91a1.07,1.07,0,0,1,1.51,0l0,0,14.91,14.91a1.06,1.06,0,0,1,0,1.51l0,0-14.93,14.93a1.06,1.06,0,0,1-1.49,0l-14.93-14.93a1.07,1.07,0,0,1,0-1.51Z"/><path class="cls-4" d="M130.4,98l-3.77-3.75a.23.23,0,0,0-.29,0L122.58,98a.17.17,0,0,0,0,.25.18.18,0,0,0,.19.07h2.2a.2.2,0,0,1,.2.19h0v3.56a.19.19,0,0,0,.19.19h2.35a.19.19,0,0,0,.2-.19h0V98.52a.19.19,0,0,1,.19-.19h2.21a.18.18,0,0,0,.21-.13.18.18,0,0,0-.07-.19Z"/><path class="cls-4" d="M117.6,102.65l-3.73,3.78a.2.2,0,0,0,0,.27l3.73,3.75a.2.2,0,0,0,.34-.14v-2.19a.18.18,0,0,1,.19-.19h3.56a.18.18,0,0,0,.18-.18s0,0,0,0v-2.35a.16.16,0,0,0-.06-.24l-.06,0h-3.55a.18.18,0,0,1-.2-.16v-2.17a.22.22,0,0,0-.12-.27.21.21,0,0,0-.27.13Z"/><path class="cls-4" d="M135.52,110.45l3.78-3.77a.19.19,0,0,0,0-.26l-3.78-3.77a.2.2,0,0,0-.28,0,.19.19,0,0,0,0,.12V105a.18.18,0,0,1-.18.18h-3.57a.18.18,0,0,0-.18.18v2.36a.18.18,0,0,0,.16.2H135a.19.19,0,0,1,.2.19v2.21a.2.2,0,0,0,.21.17A.22.22,0,0,0,135.52,110.45Z"/><path class="cls-1" d="M131.45,106.9a5,5,0,1,0-6.3,4.74v1.69a3,3,0,1,0,2.79,0v-1.78A4.93,4.93,0,0,0,131.45,106.9Z"/><circle id="e99c3387-15c3-4f28-bd4b-cb209b430e06" class="cls-5" cx="126.5" cy="106.88" r="2.88"/><rect class="cls-6" x="4.02" y="92.17" width="45.01" height="28.04"/><path class="cls-7" d="M13.86,96.72H38.42a.75.75,0,0,1,.78.71v17.06a.75.75,0,0,1-.78.71H13.86a.76.76,0,0,1-.79-.71v-17a.76.76,0,0,1,.79-.74Z"/><path id="bd0aa3dd-0b00-4321-a08d-35d4016600a8" class="cls-1" d="M23.92,98.91H35.65a.23.23,0,0,1,.23.21v6.48a.23.23,0,0,1-.23.22H23.92a.23.23,0,0,1-.23-.22V99.11A.23.23,0,0,1,23.92,98.91Z"/><rect id="bda038fc-05f8-4c73-8191-dcc998cc8c65" class="cls-1" x="16.31" y="98.89" width="4.94" height="13.93" rx="0.22"/><path id="f698805f-4654-42cb-b2bf-38f0a925cdbf" class="cls-1" d="M31.06,107.78h4.55a.21.21,0,0,1,.21.22v4.62a.21.21,0,0,1-.21.2H31.06a.22.22,0,0,1-.22-.2V108a.22.22,0,0,1,.22-.22Z"/><path id="f83fd769-9efd-4d02-bd0d-a012d7e875a2" class="cls-1" d="M23.85,107.78h4.42a.22.22,0,0,1,.22.22h0v4.62a.2.2,0,0,1-.2.2H23.92a.21.21,0,0,1-.21-.21V108A.21.21,0,0,1,23.85,107.78Z"/><path class="cls-8" d="M4.59,93.8a1,1,0,0,1,1-1H46.68a1,1,0,0,1,1,1h0v24.3a1,1,0,0,1-1,1H5.59a1,1,0,0,1-1-1h0ZM2.32,92.63v26.59a2.15,2.15,0,0,0,2.15,2.15H47.8A2.15,2.15,0,0,0,50,119.22h0V92.63a2.15,2.15,0,0,0-2.15-2.15H4.47a2.15,2.15,0,0,0-2.15,2.15Z"/><path class="cls-9" d="M.57,123.66H51.7a.57.57,0,0,1,.57.57h0v1.68a.58.58,0,0,1-.57.57H.57a.58.58,0,0,1-.57-.57H0v-1.68a.56.56,0,0,1,.57-.57Z"/><path class="cls-10" d="M20.3,124.66H32a.16.16,0,0,1,.16.17h0v.48a.17.17,0,0,1-.16.17H20.3a.17.17,0,0,1-.16-.17h0v-.48a.16.16,0,0,1,.16-.17Z"/><line class="cls-11" x1="115.49" y1="94.07" x2="58.17" y2="94.07"/><line class="cls-11" x1="105.49" y1="105.98" x2="58.17" y2="105.98"/><line class="cls-11" x1="230.49" y1="105.98" x2="147.17" y2="105.98"/><line class="cls-11" x1="115.49" y1="117.9" x2="58.17" y2="117.9"/><rect class="cls-12" x="235.49" y="42.9" width="28.14" height="18.76" rx="0.94"/><polygon class="cls-13" points="254.25 49.54 254.25 55 249.56 57.75 249.56 52.28 254.25 49.54"/><polygon class="cls-14" points="254.25 49.54 249.56 52.29 244.87 49.54 249.56 46.8 254.25 49.54"/><polygon class="cls-15" points="249.56 52.29 249.56 57.75 244.87 55 244.87 49.54 249.56 52.29"/><polygon class="cls-14" points="244.87 55 249.56 52.28 249.56 57.75 244.87 55"/><polygon class="cls-15" points="254.25 55 249.56 52.28 249.56 57.75 254.25 55"/><path class="cls-16" d="M255.2,67.33c-2.78-.43-2.89-2.44-2.89-5.67h-5.52c0,3.23-.09,5.24-2.88,5.67a1.58,1.58,0,0,0-1.39,1.57h14.07A1.56,1.56,0,0,0,255.2,67.33Z"/><rect class="cls-17" x="235.49" y="96.9" width="28.14" height="18.76" rx="0.94"/><polygon class="cls-13" points="254.25 103.54 254.25 109 249.56 111.75 249.56 106.28 254.25 103.54"/><polygon class="cls-14" points="254.25 103.54 249.56 106.29 244.87 103.54 249.56 100.81 254.25 103.54"/><polygon class="cls-15" points="249.56 106.29 249.56 111.75 244.87 109 244.87 103.54 249.56 106.29"/><polygon class="cls-14" points="244.87 109 249.56 106.28 249.56 111.75 244.87 109"/><polygon class="cls-15" points="254.25 109 249.56 106.28 249.56 111.75 254.25 109"/><path class="cls-18" d="M255.2,121.33c-2.78-.43-2.89-2.44-2.89-5.67h-5.52c0,3.23-.09,5.24-2.88,5.67a1.58,1.58,0,0,0-1.39,1.57h14.07A1.56,1.56,0,0,0,255.2,121.33Z"/><rect class="cls-19" x="235.49" y="155.4" width="28.14" height="18.76" rx="0.94"/><polygon class="cls-13" points="254.25 162.04 254.25 167.5 249.56 170.25 249.56 164.78 254.25 162.04"/><polygon class="cls-14" points="254.25 162.04 249.56 164.79 244.87 162.04 249.56 159.31 254.25 162.04"/><polygon class="cls-15" points="249.56 164.79 249.56 170.25 244.87 167.5 244.87 162.04 249.56 164.79"/><polygon class="cls-14" points="244.87 167.5 249.56 164.78 249.56 170.25 244.87 167.5"/><polygon class="cls-15" points="254.25 167.5 249.56 164.78 249.56 170.25 254.25 167.5"/><path class="cls-20" d="M255.2,179.83c-2.78-.43-2.89-2.44-2.89-5.67h-5.52c0,3.23-.09,5.24-2.88,5.67a1.58,1.58,0,0,0-1.39,1.57h14.07A1.56,1.56,0,0,0,255.2,179.83Z"/><path class="cls-21" d="M235.69,15a6.84,6.84,0,0,0-5.85-6.66A8.56,8.56,0,0,0,221.09,0a8.76,8.76,0,0,0-8.33,5.79,8.12,8.12,0,0,0-7.07,8,8.24,8.24,0,0,0,8.45,8h14.79A6.89,6.89,0,0,0,235.69,15Z"/><circle class="cls-22" cx="214.43" cy="13.5" r="1.18"/><path class="cls-1" d="M218.59,14V13h-.13l-1-.33-.26-.65.51-1.1-.66-.67h-.14l-.95.5-.65-.26-.41-1.15h-.95v.13l-.34,1-.7.26-1.08-.51-.67.66V11l.49,1-.27.65-1.17.41v1h.14l1,.33.27.65-.52,1.1.67.67h.13l1-.49.65.27.42,1.15h1v-.13l.33-1,.65-.27,1.1.52.67-.67v-.13l-.48-1,.26-.65Zm-4.16,1.39a1.82,1.82,0,1,1,1.83-1.8,1.81,1.81,0,0,1-1.83,1.8Z"/><circle class="cls-22" cx="222.36" cy="8.4" r="1.4"/><path class="cls-1" d="M227.36,8.94V7.8h-.15L226,7.42l-.29-.85.62-1.33-.8-.8h-.15L224.21,5l-.77-.32-.5-1.38h-1.18v.17l-.4,1.21-.78.32-1.3-.62-.8.8.08.15L219,6.59l-.27.83-1.4.45V9.09h.17l1.21.4.29.75-.62,1.33.83.85.17-.08,1.13-.59.79.32.5,1.38H223v-.16l.4-1.22.78-.32,1.32.62.8-.8-.08-.15-.49-1.2.32-.78Zm-5,1.66a2.2,2.2,0,1,1,2.2-2.2h0a2.18,2.18,0,0,1-2.17,2.2Z"/><path class="cls-11" d="M230.49,52.9H210.83A8.31,8.31,0,0,0,205.71,55L169,91.94a8.24,8.24,0,0,1-5.11,2.13H138.17"/><path class="cls-11" d="M138.17,117.9h25.71a7.47,7.47,0,0,1,5,2.26l37,42.65a7.49,7.49,0,0,0,5,2.26h19.66"/><path class="cls-23" d="M93.43,152.36a1.17,1.17,0,0,1-.88-.36,1.19,1.19,0,0,1-.38-.88,1.28,1.28,0,0,1,1.26-1.26,1.25,1.25,0,0,1,1.24,1.26,1.23,1.23,0,0,1-1.23,1.24Z"/><path class="cls-23" d="M93.43,166.1a1.17,1.17,0,0,1-.88-.36,1.19,1.19,0,0,1-.38-.88,1.28,1.28,0,0,1,1.26-1.26,1.25,1.25,0,0,1,1.24,1.26,1.23,1.23,0,0,1-1.23,1.24Z"/><path class="cls-23" d="M93.43,179.77a1.17,1.17,0,0,1-.88-.36,1.16,1.16,0,0,1-.38-.88,1.27,1.27,0,0,1,1.26-1.25,1.25,1.25,0,0,1,1.24,1.25,1.23,1.23,0,0,1-1.23,1.24Z"/><path class="cls-23" d="M93.43,192.79a1.25,1.25,0,0,1-.88-.36,1.19,1.19,0,0,1-.38-.88,1.28,1.28,0,0,1,1.26-1.26,1.25,1.25,0,0,1,1.24,1.26,1.23,1.23,0,0,1-1.23,1.24Z"/><path class="cls-23" d="M93.43,205.35a1.25,1.25,0,0,1-.88-.36,1.19,1.19,0,0,1-.38-.88,1.27,1.27,0,0,1,1.26-1.26,1.16,1.16,0,0,1,.88.37,1.18,1.18,0,0,1,.36.89,1.24,1.24,0,0,1-1.23,1.24Z"/><path class="cls-23" d="M95.12,139.85a2.24,2.24,0,0,1-.16.84,2,2,0,0,1-.45.64,1.92,1.92,0,0,1-.71.41,2.65,2.65,0,0,1-.92.15,2.59,2.59,0,0,1-1.3-.26v-.77a2.35,2.35,0,0,0,1.31.41,1.72,1.72,0,0,0,.62-.1,1.31,1.31,0,0,0,.47-.28,1.17,1.17,0,0,0,.29-.43,1.47,1.47,0,0,0,.11-.56,1.21,1.21,0,0,0-.42-1,1.81,1.81,0,0,0-1.2-.35h-.55l-.27,0-.24,0,.21-3.16h2.92v.65H92.54L92.41,138l.3,0H93a2.73,2.73,0,0,1,.89.13,2,2,0,0,1,.68.37,1.65,1.65,0,0,1,.41.6A2,2,0,0,1,95.12,139.85Z"/><path class="cls-23" d="M98.74,139.56h-2.4V139h2.4Z"/><path class="cls-23" d="M103.86,136.15H102v5.63h-.74v-5.63H99.49v-.67h4.37Z"/><path class="cls-23" d="M108.39,141.78h-.72v-.71h0a1.48,1.48,0,0,1-1.39.81c-1.07,0-1.6-.63-1.6-1.91v-2.69h.71v2.57c0,1,.37,1.43,1.09,1.43a1.11,1.11,0,0,0,.87-.39,1.48,1.48,0,0,0,.34-1v-2.59h.72Z"/><path class="cls-23" d="M110.58,141.13h0v2.72h-.72v-6.57h.72v.79h0a1.72,1.72,0,0,1,1.56-.9,1.67,1.67,0,0,1,1.36.61,2.52,2.52,0,0,1,.49,1.62,2.85,2.85,0,0,1-.55,1.81,1.84,1.84,0,0,1-1.51.67A1.52,1.52,0,0,1,110.58,141.13Zm0-1.82v.63a1.36,1.36,0,0,0,.36.95,1.2,1.2,0,0,0,.92.39,1.22,1.22,0,0,0,1-.5,2.38,2.38,0,0,0,.37-1.4,1.79,1.79,0,0,0-.35-1.17,1.14,1.14,0,0,0-.94-.43,1.27,1.27,0,0,0-1,.44A1.58,1.58,0,0,0,110.57,139.31Z"/><path class="cls-23" d="M118.75,139.71h-3.17a1.66,1.66,0,0,0,.4,1.16,1.4,1.4,0,0,0,1.06.41,2.22,2.22,0,0,0,1.4-.5v.67a2.59,2.59,0,0,1-1.57.43,1.92,1.92,0,0,1-1.5-.61,2.9,2.9,0,0,1,0-3.44,1.92,1.92,0,0,1,1.48-.66,1.67,1.67,0,0,1,1.37.58,2.37,2.37,0,0,1,.48,1.58Zm-.73-.61a1.48,1.48,0,0,0-.31-1,1,1,0,0,0-.82-.35,1.19,1.19,0,0,0-.87.36,1.78,1.78,0,0,0-.44,1Z"/><path class="cls-23" d="M120.56,141.78h-.72v-6.66h.72Z"/><path class="cls-23" d="M124.33,139.56h-2.4V139h2.4Z"/><path class="cls-23" d="M130.46,141.78h-.74v-2.87h-3.26v2.87h-.74v-6.3h.74v2.76h3.26v-2.76h.74Z"/><path class="cls-23" d="M135.23,141.78h-.72v-.7h0a1.49,1.49,0,0,1-1.38.8,1.45,1.45,0,0,1-1.05-.35,1.21,1.21,0,0,1-.38-.95c0-.84.49-1.33,1.48-1.46l1.35-.19c0-.77-.31-1.15-.93-1.15a2.18,2.18,0,0,0-1.46.55v-.73a2.71,2.71,0,0,1,1.53-.43c1,0,1.58.56,1.58,1.68Zm-.72-2.28-1.08.15a1.78,1.78,0,0,0-.76.25.72.72,0,0,0-.25.63.68.68,0,0,0,.23.54.92.92,0,0,0,.63.21,1.16,1.16,0,0,0,.88-.38,1.31,1.31,0,0,0,.35-1Z"/><path class="cls-23" d="M136.32,141.62v-.78a2.12,2.12,0,0,0,1.29.44c.64,0,.95-.21.95-.63a.51.51,0,0,0-.08-.31.66.66,0,0,0-.22-.22,1.92,1.92,0,0,0-.32-.18l-.4-.16a2.91,2.91,0,0,1-.53-.24,1.61,1.61,0,0,1-.38-.27,1.13,1.13,0,0,1-.23-.34,1.27,1.27,0,0,1-.07-.46,1.16,1.16,0,0,1,.14-.56,1.35,1.35,0,0,1,.39-.4,1.63,1.63,0,0,1,.55-.25,2.3,2.3,0,0,1,.64-.09,2.52,2.52,0,0,1,1,.21v.73a2.06,2.06,0,0,0-1.15-.33,1.36,1.36,0,0,0-.36.05.8.8,0,0,0-.28.13.49.49,0,0,0-.18.2.51.51,0,0,0-.06.25.67.67,0,0,0,.06.3.54.54,0,0,0,.19.21,1.58,1.58,0,0,0,.29.17l.4.16a4.61,4.61,0,0,1,.54.23,1.74,1.74,0,0,1,.41.28,1,1,0,0,1,.25.35,1.09,1.09,0,0,1,.09.47,1.21,1.21,0,0,1-.14.58,1.18,1.18,0,0,1-.4.4,1.86,1.86,0,0,1-.57.25,2.87,2.87,0,0,1-.67.07A2.65,2.65,0,0,1,136.32,141.62Z"/><path class="cls-23" d="M144.15,141.78h-.73v-2.59c0-.94-.34-1.41-1-1.41a1.15,1.15,0,0,0-.89.41,1.51,1.51,0,0,0-.36,1v2.55h-.72v-6.66h.72V138h0a1.63,1.63,0,0,1,1.47-.86c1,0,1.53.62,1.53,1.84Z"/><path class="cls-23" d="M105.87,155.08a2.79,2.79,0,0,1-2.15-.88,3.3,3.3,0,0,1-.8-2.3,3.45,3.45,0,0,1,.82-2.42,2.87,2.87,0,0,1,2.24-.91,2.68,2.68,0,0,1,2.1.88,3.3,3.3,0,0,1,.8,2.3,3.46,3.46,0,0,1-.82,2.44,3.51,3.51,0,0,1-.41.37l1.77,1.27h-1.34l-1.19-.89A3.31,3.31,0,0,1,105.87,155.08Zm.06-5.84a2,2,0,0,0-1.62.72,2.77,2.77,0,0,0-.62,1.88,2.8,2.8,0,0,0,.6,1.87,2,2,0,0,0,1.58.71,2.06,2.06,0,0,0,1.64-.68,2.75,2.75,0,0,0,.59-1.89,2.85,2.85,0,0,0-.58-1.93A2,2,0,0,0,105.93,149.24Z"/><path class="cls-23" d="M113.66,155h-.72v-.71h0a1.48,1.48,0,0,1-1.39.81c-1.07,0-1.61-.63-1.61-1.91v-2.69h.72v2.57c0,.95.36,1.43,1.09,1.43a1.11,1.11,0,0,0,.87-.39,1.48,1.48,0,0,0,.34-1v-2.59h.72Z"/><path class="cls-23" d="M118.73,152.91h-3.18a1.71,1.71,0,0,0,.41,1.16,1.4,1.4,0,0,0,1.06.41,2.24,2.24,0,0,0,1.4-.5v.67a2.61,2.61,0,0,1-1.57.43,1.89,1.89,0,0,1-1.5-.61,2.52,2.52,0,0,1-.54-1.72,2.48,2.48,0,0,1,.59-1.72,1.92,1.92,0,0,1,1.48-.66,1.7,1.7,0,0,1,1.37.57,2.41,2.41,0,0,1,.48,1.59Zm-.74-.61a1.43,1.43,0,0,0-.3-1,1,1,0,0,0-.82-.35,1.19,1.19,0,0,0-.87.36,1.71,1.71,0,0,0-.44,1Z"/><path class="cls-23" d="M120.54,155h-.72v-6.66h.72Z"/><path class="cls-23" d="M122.72,155H122v-6.66h.72Z"/><path class="cls-23" d="M126.48,152.75h-2.4v-.56h2.4Z"/><path class="cls-23" d="M128.61,155h-.73v-6.3h.73Z"/><path class="cls-23" d="M131,152.6V155h-.74v-6.3H132a2.27,2.27,0,0,1,1.57.49,1.76,1.76,0,0,1,.56,1.39,1.93,1.93,0,0,1-.62,1.47,2.37,2.37,0,0,1-1.67.57Zm0-3.26v2.59h.77a1.76,1.76,0,0,0,1.17-.35,1.23,1.23,0,0,0,.4-1c0-.83-.49-1.25-1.47-1.25Z"/><path class="cls-23" d="M105.87,168.29a2.8,2.8,0,0,1-2.15-.89,3.3,3.3,0,0,1-.8-2.3,3.45,3.45,0,0,1,.82-2.42,2.87,2.87,0,0,1,2.24-.91,2.72,2.72,0,0,1,2.1.88,3.3,3.3,0,0,1,.8,2.3,3.46,3.46,0,0,1-.82,2.44,2.8,2.8,0,0,1-.41.37l1.77,1.27h-1.34l-1.19-.89A3.31,3.31,0,0,1,105.87,168.29Zm.06-5.85a2,2,0,0,0-1.62.72,2.77,2.77,0,0,0-.62,1.88,2.8,2.8,0,0,0,.6,1.87,2,2,0,0,0,1.58.71,2.08,2.08,0,0,0,1.64-.67,2.79,2.79,0,0,0,.59-1.9,2.87,2.87,0,0,0-.58-1.93A2,2,0,0,0,105.93,162.44Z"/><path class="cls-23" d="M113.66,168.18h-.72v-.71h0a1.49,1.49,0,0,1-1.39.82c-1.07,0-1.61-.64-1.61-1.92v-2.69h.72v2.57c0,.95.36,1.43,1.09,1.43a1.11,1.11,0,0,0,.87-.39,1.48,1.48,0,0,0,.34-1v-2.59h.72Z"/><path class="cls-23" d="M118.73,166.11h-3.18a1.71,1.71,0,0,0,.41,1.16,1.4,1.4,0,0,0,1.06.41,2.24,2.24,0,0,0,1.4-.5v.67a2.61,2.61,0,0,1-1.57.44,1.89,1.89,0,0,1-1.5-.62,2.52,2.52,0,0,1-.54-1.72,2.44,2.44,0,0,1,.59-1.71,1.89,1.89,0,0,1,1.48-.67,1.67,1.67,0,0,1,1.37.58,2.37,2.37,0,0,1,.48,1.58Zm-.74-.61a1.43,1.43,0,0,0-.3-1,1,1,0,0,0-.82-.35,1.19,1.19,0,0,0-.87.36,1.71,1.71,0,0,0-.44,1Z"/><path class="cls-23" d="M120.54,168.18h-.72v-6.66h.72Z"/><path class="cls-23" d="M122.72,168.18H122v-6.66h.72Z"/><path class="cls-23" d="M124.92,167.53h0v2.72h-.72v-6.57h.72v.79h0a1.69,1.69,0,0,1,1.55-.9,1.66,1.66,0,0,1,1.36.61,2.47,2.47,0,0,1,.49,1.62,2.79,2.79,0,0,1-.55,1.81,1.84,1.84,0,0,1-1.5.68A1.5,1.5,0,0,1,124.92,167.53Zm0-1.82v.63a1.36,1.36,0,0,0,.36.95,1.3,1.3,0,0,0,1.95-.11,2.29,2.29,0,0,0,.37-1.39,1.75,1.75,0,0,0-.35-1.18,1.13,1.13,0,0,0-.94-.43,1.3,1.3,0,0,0-1,.44A1.63,1.63,0,0,0,124.9,165.71Z"/><path class="cls-23" d="M131.35,168.29a2.07,2.07,0,0,1-1.59-.64,2.31,2.31,0,0,1-.6-1.67,2.46,2.46,0,0,1,.62-1.77,2.26,2.26,0,0,1,1.68-.64,2,2,0,0,1,1.57.62,2.51,2.51,0,0,1,.56,1.72,2.41,2.41,0,0,1-.61,1.73A2.13,2.13,0,0,1,131.35,168.29Zm.05-4.11a1.37,1.37,0,0,0-1.09.47,2,2,0,0,0-.41,1.31,1.85,1.85,0,0,0,.41,1.26,1.38,1.38,0,0,0,1.09.46,1.33,1.33,0,0,0,1.08-.45,2.45,2.45,0,0,0,0-2.59A1.3,1.3,0,0,0,131.4,164.18Z"/><path class="cls-23" d="M137.09,164.41a.85.85,0,0,0-.54-.15.94.94,0,0,0-.78.44,2.05,2.05,0,0,0-.3,1.19v2.29h-.73v-4.5h.73v.93h0a1.58,1.58,0,0,1,.47-.74,1.07,1.07,0,0,1,.71-.27,1.19,1.19,0,0,1,.43.06Z"/><path class="cls-23" d="M140,168.14a1.42,1.42,0,0,1-.67.14c-.79,0-1.18-.44-1.18-1.32v-2.67h-.78v-.61h.78v-1.1l.72-.23v1.33H140v.61h-1.13v2.54a1.09,1.09,0,0,0,.15.65.6.6,0,0,0,.51.19.75.75,0,0,0,.47-.15Z"/><path class="cls-23" d="M107.45,175.26l-3.7,5.46h3.61v.66h-4.71v-.2l3.66-5.43H103v-.67h4.5Z"/><path class="cls-23" d="M108.74,175.74a.44.44,0,0,1-.33-.13.45.45,0,0,1-.14-.33.46.46,0,0,1,.14-.34.48.48,0,0,1,.66,0,.42.42,0,0,1,.14.34.42.42,0,0,1-.14.33A.44.44,0,0,1,108.74,175.74Zm.35,5.64h-.72v-4.5h.72Z"/><path class="cls-23" d="M114.17,179.31H111a1.64,1.64,0,0,0,.4,1.16,1.37,1.37,0,0,0,1.07.41,2.16,2.16,0,0,0,1.39-.5v.68a2.59,2.59,0,0,1-1.57.43,1.88,1.88,0,0,1-1.49-.61,2.5,2.5,0,0,1-.55-1.73,2.44,2.44,0,0,1,.6-1.71,1.9,1.9,0,0,1,1.47-.66,1.7,1.7,0,0,1,1.37.57,2.4,2.4,0,0,1,.49,1.59Zm-.74-.61a1.56,1.56,0,0,0-.3-1,1,1,0,0,0-.83-.34,1.15,1.15,0,0,0-.86.36,1.59,1.59,0,0,0-.44.95Z"/><path class="cls-23" d="M116,181.38h-.73v-6.66H116Z"/><path class="cls-23" d="M119.74,179.16h-2.4v-.57h2.4Z"/><path class="cls-23" d="M121.87,181.38h-.74v-6.3h.74Z"/><path class="cls-23" d="M124.26,179v2.38h-.73v-6.3h1.73a2.27,2.27,0,0,1,1.56.5,1.74,1.74,0,0,1,.56,1.38,1.92,1.92,0,0,1-.62,1.47,2.37,2.37,0,0,1-1.67.57Zm0-3.25v2.58H125a1.71,1.71,0,0,0,1.16-.34,1.26,1.26,0,0,0,.41-1c0-.83-.5-1.25-1.48-1.25Z"/><path class="cls-23" d="M107.45,188.45l-3.7,5.46h3.61v.67h-4.71v-.21l3.66-5.42H103v-.67h4.5Z"/><path class="cls-23" d="M108.74,188.94a.45.45,0,0,1-.33-.14.42.42,0,0,1-.14-.33.48.48,0,0,1,.14-.34.48.48,0,0,1,.66,0,.44.44,0,0,1,.14.34.42.42,0,0,1-.14.33A.45.45,0,0,1,108.74,188.94Zm.35,5.64h-.72v-4.5h.72Z"/><path class="cls-23" d="M114.17,192.51H111a1.66,1.66,0,0,0,.4,1.16,1.41,1.41,0,0,0,1.07.41,2.22,2.22,0,0,0,1.39-.5v.67a2.59,2.59,0,0,1-1.57.43,1.88,1.88,0,0,1-1.49-.61,2.86,2.86,0,0,1,0-3.44,1.9,1.9,0,0,1,1.47-.66,1.7,1.7,0,0,1,1.37.57,2.42,2.42,0,0,1,.49,1.59Zm-.74-.61a1.54,1.54,0,0,0-.3-1,1.05,1.05,0,0,0-.83-.35,1.15,1.15,0,0,0-.86.36,1.65,1.65,0,0,0-.44,1Z"/><path class="cls-23" d="M116,194.58h-.73v-6.66H116Z"/><path class="cls-23" d="M118.17,193.93h0v2.72h-.73v-6.57h.73v.79h0a1.72,1.72,0,0,1,1.56-.9,1.64,1.64,0,0,1,1.36.61,2.52,2.52,0,0,1,.48,1.62A2.79,2.79,0,0,1,121,194a1.81,1.81,0,0,1-1.5.67A1.52,1.52,0,0,1,118.17,193.93Zm0-1.82v.63a1.36,1.36,0,0,0,.36.95,1.29,1.29,0,0,0,1.94-.11,2.31,2.31,0,0,0,.38-1.4,1.79,1.79,0,0,0-.35-1.17,1.14,1.14,0,0,0-.94-.43,1.27,1.27,0,0,0-1,.44A1.56,1.56,0,0,0,118.16,192.11Z"/><path class="cls-23" d="M124.61,194.68a2.1,2.1,0,0,1-1.6-.63,2.35,2.35,0,0,1-.59-1.67,2.42,2.42,0,0,1,.62-1.77,2.24,2.24,0,0,1,1.67-.64,2,2,0,0,1,1.57.62,2.82,2.82,0,0,1,0,3.45A2.14,2.14,0,0,1,124.61,194.68Zm0-4.1a1.39,1.39,0,0,0-1.1.47,2,2,0,0,0-.4,1.31,1.85,1.85,0,0,0,.4,1.26,1.43,1.43,0,0,0,1.1.46,1.31,1.31,0,0,0,1.07-.45,2.4,2.4,0,0,0,0-2.59A1.28,1.28,0,0,0,124.66,190.58Z"/><path class="cls-23" d="M130.35,190.81a.88.88,0,0,0-.55-.15.92.92,0,0,0-.77.44,2,2,0,0,0-.31,1.19v2.29H128v-4.5h.72V191h0a1.51,1.51,0,0,1,.47-.74,1.05,1.05,0,0,1,.71-.27,1.23,1.23,0,0,1,.43.06Z"/><path class="cls-23" d="M133.22,194.54a1.46,1.46,0,0,1-.68.14c-.79,0-1.18-.44-1.18-1.32v-2.67h-.77v-.61h.77V189l.72-.23v1.33h1.14v.61h-1.14v2.54a1,1,0,0,0,.16.65.63.63,0,0,0,.51.19.78.78,0,0,0,.47-.15Z"/><path class="cls-23" d="M104.07,205.4v2.38h-.74v-6.3h1.73a2.27,2.27,0,0,1,1.57.49,1.76,1.76,0,0,1,.56,1.39,1.92,1.92,0,0,1-.62,1.47,2.37,2.37,0,0,1-1.67.57Zm0-3.25v2.58h.77a1.76,1.76,0,0,0,1.17-.35,1.23,1.23,0,0,0,.4-1c0-.83-.49-1.24-1.47-1.24Z"/><path class="cls-23" d="M110.62,204a.83.83,0,0,0-.54-.15.91.91,0,0,0-.77.44,2,2,0,0,0-.31,1.19v2.29h-.72v-4.5H109v.93h0a1.58,1.58,0,0,1,.47-.74,1.09,1.09,0,0,1,.71-.27,1.19,1.19,0,0,1,.43.06Z"/><path class="cls-23" d="M113.29,207.88a2.1,2.1,0,0,1-1.6-.63,2.35,2.35,0,0,1-.59-1.67,2.42,2.42,0,0,1,.62-1.77,2.24,2.24,0,0,1,1.67-.64,2,2,0,0,1,1.57.62,2.82,2.82,0,0,1,0,3.45A2.14,2.14,0,0,1,113.29,207.88Zm0-4.1a1.39,1.39,0,0,0-1.1.47,2,2,0,0,0-.4,1.31,1.85,1.85,0,0,0,.4,1.26,1.4,1.4,0,0,0,1.1.46,1.32,1.32,0,0,0,1.07-.45,2.4,2.4,0,0,0,0-2.59A1.3,1.3,0,0,0,113.34,203.78Z"/><path class="cls-23" d="M118.77,207.74a1.46,1.46,0,0,1-.68.14c-.78,0-1.18-.44-1.18-1.32v-2.67h-.77v-.61h.77v-1.1l.72-.23v1.33h1.14v.61h-1.14v2.54a1,1,0,0,0,.16.65.6.6,0,0,0,.51.19.78.78,0,0,0,.47-.15Z"/><path class="cls-23" d="M121.61,207.88a2.06,2.06,0,0,1-1.59-.63,2.31,2.31,0,0,1-.6-1.67,2.46,2.46,0,0,1,.62-1.77,2.24,2.24,0,0,1,1.67-.64,2,2,0,0,1,1.58.62,2.51,2.51,0,0,1,.56,1.72,2.42,2.42,0,0,1-.61,1.73A2.12,2.12,0,0,1,121.61,207.88Zm0-4.1a1.39,1.39,0,0,0-1.1.47,2,2,0,0,0-.4,1.31,1.85,1.85,0,0,0,.41,1.26,1.38,1.38,0,0,0,1.09.46,1.33,1.33,0,0,0,1.08-.45,2.45,2.45,0,0,0,0-2.59A1.3,1.3,0,0,0,121.66,203.78Z"/><path class="cls-23" d="M128.74,207.78h-1l-2-2.16h0v2.16H125v-6.66h.72v4.22h0l1.89-2.06h.94l-2.08,2.17Z"/><path class="cls-23" d="M131.36,207.88a2.1,2.1,0,0,1-1.6-.63,2.35,2.35,0,0,1-.59-1.67,2.42,2.42,0,0,1,.62-1.77,2.24,2.24,0,0,1,1.67-.64,2,2,0,0,1,1.57.62,2.82,2.82,0,0,1,0,3.45A2.14,2.14,0,0,1,131.36,207.88Zm0-4.1a1.39,1.39,0,0,0-1.1.47,2,2,0,0,0-.4,1.31,1.85,1.85,0,0,0,.4,1.26,1.4,1.4,0,0,0,1.1.46,1.31,1.31,0,0,0,1.07-.45,2.4,2.4,0,0,0,0-2.59A1.28,1.28,0,0,0,131.41,203.78Z"/><path class="cls-23" d="M135.47,207.78h-.72v-6.66h.72Z"/><path class="cls-23" d="M137.65,207.78h-.72v-6.66h.72Z"/><path class="cls-23" d="M237.05,36V38.4h-.74V32.09H238a2.28,2.28,0,0,1,1.57.5,1.74,1.74,0,0,1,.56,1.38,1.92,1.92,0,0,1-.62,1.47,2.37,2.37,0,0,1-1.67.57Zm0-3.25v2.59h.77A1.76,1.76,0,0,0,239,35a1.25,1.25,0,0,0,.4-1c0-.83-.49-1.25-1.47-1.25Z"/><path class="cls-23" d="M243.38,34.63a.88.88,0,0,0-.55-.15.94.94,0,0,0-.77.44,2,2,0,0,0-.31,1.18v2.3H241V33.9h.72v.92h0a1.6,1.6,0,0,1,.47-.74,1.11,1.11,0,0,1,.71-.26,1.23,1.23,0,0,1,.43.06Z"/><path class="cls-23" d="M244.3,32.75a.46.46,0,0,1-.33-.13.44.44,0,0,1-.13-.33A.45.45,0,0,1,244,32a.46.46,0,0,1,.33-.13.45.45,0,0,1,.34.13.46.46,0,0,1,.14.34.46.46,0,0,1-.48.46Zm.36,5.65h-.73V33.9h.73Z"/><path class="cls-23" d="M249.43,33.9l-1.8,4.5h-.7l-1.71-4.5H246l1.15,3.27a3.22,3.22,0,0,1,.15.62h0a3.42,3.42,0,0,1,.14-.61l1.2-3.28Z"/><path class="cls-23" d="M253.2,38.4h-.72v-.71h0a1.51,1.51,0,0,1-1.39.81,1.53,1.53,0,0,1-1-.35,1.27,1.27,0,0,1-.38-.95c0-.84.5-1.33,1.49-1.47l1.35-.19q0-1.14-.93-1.14a2.22,2.22,0,0,0-1.47.55v-.74a2.79,2.79,0,0,1,1.53-.42q1.59,0,1.59,1.68Zm-.72-2.28-1.09.15a1.83,1.83,0,0,0-.76.25.72.72,0,0,0-.25.63.68.68,0,0,0,.24.54.87.87,0,0,0,.62.2,1.17,1.17,0,0,0,.89-.37,1.36,1.36,0,0,0,.35-1Z"/><path class="cls-23" d="M256.42,38.35a1.33,1.33,0,0,1-.67.14c-.79,0-1.19-.44-1.19-1.32V34.51h-.77V33.9h.77V32.8l.72-.24V33.9h1.14v.61h-1.14v2.54a1,1,0,0,0,.16.64.61.61,0,0,0,.51.2.75.75,0,0,0,.47-.15Z"/><path class="cls-23" d="M260.77,36.33h-3.18a1.73,1.73,0,0,0,.41,1.16,1.39,1.39,0,0,0,1.06.4,2.19,2.19,0,0,0,1.4-.5v.68a2.61,2.61,0,0,1-1.57.43,1.89,1.89,0,0,1-1.5-.61,2.54,2.54,0,0,1-.54-1.73,2.44,2.44,0,0,1,.59-1.71,1.92,1.92,0,0,1,1.48-.66,1.7,1.7,0,0,1,1.37.57,2.4,2.4,0,0,1,.48,1.59Zm-.74-.62a1.46,1.46,0,0,0-.3-1,1,1,0,0,0-.82-.34,1.19,1.19,0,0,0-.87.36,1.65,1.65,0,0,0-.44,1Z"/><path class="cls-23" d="M264.71,38.4H264V32.09h.74Z"/><path class="cls-23" d="M266.88,36V38.4h-.74V32.09h1.74a2.27,2.27,0,0,1,1.56.5A1.74,1.74,0,0,1,270,34a1.92,1.92,0,0,1-.62,1.47,2.37,2.37,0,0,1-1.67.57Zm0-3.25v2.59h.78a1.73,1.73,0,0,0,1.16-.35,1.25,1.25,0,0,0,.4-1c0-.83-.49-1.25-1.47-1.25Z"/><path class="cls-23" d="M273.17,36.17h-2.4V35.6h2.4Z"/><path class="cls-23" d="M279.21,38.4h-.82l-.66-1.77h-2.68l-.63,1.77h-.82L276,32.09h.77ZM277.48,36l-1-2.69a1.84,1.84,0,0,1-.1-.42h0a2.17,2.17,0,0,1-.1.42l-1,2.69Z"/><path class="cls-23" d="M283.66,38.4h-.72v-.77h0a1.82,1.82,0,0,1-2.9.27,2.49,2.49,0,0,1-.51-1.65,2.74,2.74,0,0,1,.56-1.79,1.86,1.86,0,0,1,1.5-.67,1.43,1.43,0,0,1,1.35.73h0V31.73h.72Zm-.72-2V35.7a1.31,1.31,0,0,0-.36-.93,1.34,1.34,0,0,0-1.95.11,2.08,2.08,0,0,0-.38,1.34,1.91,1.91,0,0,0,.36,1.22,1.19,1.19,0,0,0,1,.45,1.23,1.23,0,0,0,1-.43A1.63,1.63,0,0,0,282.94,36.36Z"/><path class="cls-23" d="M287.24,34.63a.88.88,0,0,0-.55-.15.94.94,0,0,0-.77.44,2,2,0,0,0-.31,1.18v2.3h-.72V33.9h.72v.92h0a1.6,1.6,0,0,1,.47-.74,1.11,1.11,0,0,1,.71-.26,1.19,1.19,0,0,1,.43.06Z"/><path class="cls-23" d="M291.41,36.33h-3.18a1.73,1.73,0,0,0,.41,1.16,1.39,1.39,0,0,0,1.06.4,2.19,2.19,0,0,0,1.4-.5v.68a2.61,2.61,0,0,1-1.57.43,1.92,1.92,0,0,1-1.5-.61,2.54,2.54,0,0,1-.54-1.73,2.48,2.48,0,0,1,.59-1.71,1.92,1.92,0,0,1,1.48-.66,1.7,1.7,0,0,1,1.37.57,2.4,2.4,0,0,1,.48,1.59Zm-.74-.62a1.46,1.46,0,0,0-.3-1,1,1,0,0,0-.82-.34,1.19,1.19,0,0,0-.87.36,1.72,1.72,0,0,0-.44,1Z"/><path class="cls-23" d="M292,38.23v-.77a2.16,2.16,0,0,0,1.3.43c.63,0,.95-.21.95-.63a.56.56,0,0,0-.08-.3,1,1,0,0,0-.22-.23,1.69,1.69,0,0,0-.33-.17l-.4-.16a5.2,5.2,0,0,1-.52-.24,1.42,1.42,0,0,1-.38-.27,1,1,0,0,1-.23-.35,1.21,1.21,0,0,1-.08-.45,1,1,0,0,1,.15-.56,1.24,1.24,0,0,1,.38-.41,2,2,0,0,1,.56-.25,2.67,2.67,0,0,1,.64-.08,2.64,2.64,0,0,1,1,.2v.73a2,2,0,0,0-1.14-.32,1.4,1.4,0,0,0-.37,0,1,1,0,0,0-.27.13.72.72,0,0,0-.19.2.58.58,0,0,0-.06.26.6.6,0,0,0,.06.29.76.76,0,0,0,.19.21,1.07,1.07,0,0,0,.3.17l.4.16.54.24a2,2,0,0,1,.4.27,1.1,1.1,0,0,1,.26.35,1.13,1.13,0,0,1,.09.47,1.09,1.09,0,0,1-.15.58,1.27,1.27,0,0,1-.39.41,1.81,1.81,0,0,1-.57.24,2.93,2.93,0,0,1-.67.08A2.57,2.57,0,0,1,292,38.23Z"/><path class="cls-23" d="M295.6,38.23v-.77a2.11,2.11,0,0,0,1.29.43c.64,0,.95-.21.95-.63a.48.48,0,0,0-.08-.3.8.8,0,0,0-.22-.23,1.91,1.91,0,0,0-.32-.17l-.4-.16a5.46,5.46,0,0,1-.53-.24,1.61,1.61,0,0,1-.38-.27,1,1,0,0,1-.23-.35,1.22,1.22,0,0,1-.07-.45,1.13,1.13,0,0,1,.14-.56,1.38,1.38,0,0,1,.39-.41,1.85,1.85,0,0,1,.55-.25,2.74,2.74,0,0,1,.64-.08,2.69,2.69,0,0,1,1.05.2v.73a2.06,2.06,0,0,0-1.15-.32,1.37,1.37,0,0,0-.36,0,1,1,0,0,0-.28.13.57.57,0,0,0-.18.2.57.57,0,0,0,0,.55.54.54,0,0,0,.19.21,1.17,1.17,0,0,0,.29.17c.12,0,.25.11.4.16l.54.24a1.75,1.75,0,0,1,.4.27,1,1,0,0,1,.26.35,1.13,1.13,0,0,1,.09.47,1.16,1.16,0,0,1-.54,1,1.63,1.63,0,0,1-.57.24,2.86,2.86,0,0,1-.67.08A2.53,2.53,0,0,1,295.6,38.23Z"/><path class="cls-23" d="M303.08,36.33H299.9a1.73,1.73,0,0,0,.41,1.16,1.39,1.39,0,0,0,1.06.4,2.19,2.19,0,0,0,1.4-.5v.68a2.61,2.61,0,0,1-1.57.43,1.89,1.89,0,0,1-1.5-.61,2.54,2.54,0,0,1-.54-1.73,2.44,2.44,0,0,1,.59-1.71,1.92,1.92,0,0,1,1.48-.66,1.7,1.7,0,0,1,1.37.57,2.4,2.4,0,0,1,.48,1.59Zm-.74-.62a1.46,1.46,0,0,0-.3-1,1,1,0,0,0-.82-.34,1.19,1.19,0,0,0-.87.36,1.65,1.65,0,0,0-.44,1Z"/><path class="cls-23" d="M304.61,37.39l-.71,2.17h-.51l.51-2.17Z"/><path class="cls-23" d="M308.75,36V38.4H308V32.09h1.73a2.29,2.29,0,0,1,1.57.5,1.74,1.74,0,0,1,.55,1.38,1.91,1.91,0,0,1-.61,1.47,2.38,2.38,0,0,1-1.67.57Zm0-3.25v2.59h.77a1.76,1.76,0,0,0,1.17-.35,1.25,1.25,0,0,0,.4-1c0-.83-.49-1.25-1.48-1.25Z"/><path class="cls-23" d="M314.27,38.5a2.09,2.09,0,0,1-1.59-.63,2.32,2.32,0,0,1-.59-1.67,2.39,2.39,0,0,1,.62-1.77,2.2,2.2,0,0,1,1.67-.64,2,2,0,0,1,1.57.62,2.8,2.8,0,0,1,0,3.44A2.12,2.12,0,0,1,314.27,38.5Zm.06-4.1a1.35,1.35,0,0,0-1.1.47,1.93,1.93,0,0,0-.41,1.3,1.82,1.82,0,0,0,.41,1.26,1.4,1.4,0,0,0,1.1.46,1.32,1.32,0,0,0,1.07-.45,2,2,0,0,0,.38-1.29,2,2,0,0,0-.38-1.3A1.32,1.32,0,0,0,314.33,34.4Z"/><path class="cls-23" d="M319.79,34.63a.88.88,0,0,0-.55-.15.94.94,0,0,0-.77.44,2,2,0,0,0-.31,1.18v2.3h-.72V33.9h.72v.92h0a1.6,1.6,0,0,1,.47-.74,1.11,1.11,0,0,1,.71-.26,1.19,1.19,0,0,1,.43.06Z"/><path class="cls-23" d="M322.43,38.35a1.31,1.31,0,0,1-.67.14c-.79,0-1.18-.44-1.18-1.32V34.51h-.77V33.9h.77V32.8l.72-.24V33.9h1.13v.61H321.3v2.54a1.06,1.06,0,0,0,.15.64.63.63,0,0,0,.51.2.73.73,0,0,0,.47-.15Z"/><path class="cls-23" d="M273.48,51.73,271.15,58h-.81l-2.29-6.3h.82l1.75,5a3.57,3.57,0,0,1,.13.56h0a2.68,2.68,0,0,1,.15-.57l1.78-5Z"/><path class="cls-23" d="M280.59,58h-.74V53.81c0-.34,0-.75.07-1.23h0a4.16,4.16,0,0,1-.19.61L277.56,58h-.36l-2.15-4.8a3.55,3.55,0,0,1-.19-.65h0c0,.25,0,.66,0,1.24V58h-.72v-6.3h1l1.93,4.4a5.05,5.05,0,0,1,.29.75h0c.12-.34.23-.6.3-.77l2-4.38h.92Z"/><path class="cls-23" d="M237.05,90V92.4h-.74V86.09H238a2.28,2.28,0,0,1,1.57.5,1.75,1.75,0,0,1,.56,1.39,1.91,1.91,0,0,1-.62,1.46,2.37,2.37,0,0,1-1.67.57Zm0-3.25v2.59h.77A1.76,1.76,0,0,0,239,89a1.24,1.24,0,0,0,.4-1c0-.83-.49-1.25-1.47-1.25Z"/><path class="cls-23" d="M243.38,88.63a.88.88,0,0,0-.55-.15.94.94,0,0,0-.77.44,2,2,0,0,0-.31,1.18v2.3H241V87.9h.72v.92h0a1.6,1.6,0,0,1,.47-.74,1.11,1.11,0,0,1,.71-.26,1.23,1.23,0,0,1,.43.06Z"/><path class="cls-23" d="M244.3,86.75a.46.46,0,0,1-.33-.13.44.44,0,0,1-.13-.33A.45.45,0,0,1,244,86a.46.46,0,0,1,.33-.13.45.45,0,0,1,.34.13.46.46,0,0,1,.14.34.46.46,0,0,1-.48.46Zm.36,5.65h-.73V87.9h.73Z"/><path class="cls-23" d="M249.43,87.9l-1.8,4.5h-.7l-1.71-4.5H246l1.15,3.27a3.22,3.22,0,0,1,.15.62h0a3.42,3.42,0,0,1,.14-.61l1.2-3.28Z"/><path class="cls-23" d="M253.2,92.4h-.72v-.71h0a1.51,1.51,0,0,1-1.39.81,1.53,1.53,0,0,1-1-.35,1.27,1.27,0,0,1-.38-1c0-.84.5-1.33,1.49-1.47l1.35-.19q0-1.14-.93-1.14a2.22,2.22,0,0,0-1.47.55v-.74a2.79,2.79,0,0,1,1.53-.42q1.59,0,1.59,1.68Zm-.72-2.28-1.09.15a1.83,1.83,0,0,0-.76.25.72.72,0,0,0-.25.63.68.68,0,0,0,.24.54.88.88,0,0,0,.62.21,1.18,1.18,0,0,0,.89-.38,1.36,1.36,0,0,0,.35-1Z"/><path class="cls-23" d="M256.42,92.35a1.33,1.33,0,0,1-.67.14c-.79,0-1.19-.44-1.19-1.32V88.51h-.77V87.9h.77V86.8l.72-.24V87.9h1.14v.61h-1.14v2.54a1,1,0,0,0,.16.64.61.61,0,0,0,.51.2.75.75,0,0,0,.47-.15Z"/><path class="cls-23" d="M260.77,90.33h-3.18a1.73,1.73,0,0,0,.41,1.16,1.4,1.4,0,0,0,1.06.41,2.2,2.2,0,0,0,1.4-.51v.68a2.61,2.61,0,0,1-1.57.43,1.89,1.89,0,0,1-1.5-.61,2.54,2.54,0,0,1-.54-1.73,2.44,2.44,0,0,1,.59-1.71,1.92,1.92,0,0,1,1.48-.66,1.7,1.7,0,0,1,1.37.57,2.4,2.4,0,0,1,.48,1.59Zm-.74-.61a1.47,1.47,0,0,0-.3-1,1,1,0,0,0-.82-.34,1.19,1.19,0,0,0-.87.36,1.68,1.68,0,0,0-.44,1Z"/><path class="cls-23" d="M264.71,92.4H264V86.09h.74Z"/><path class="cls-23" d="M266.88,90V92.4h-.74V86.09h1.74a2.27,2.27,0,0,1,1.56.5A1.75,1.75,0,0,1,270,88a1.91,1.91,0,0,1-.62,1.46,2.37,2.37,0,0,1-1.67.57Zm0-3.25v2.59h.78a1.73,1.73,0,0,0,1.16-.35,1.24,1.24,0,0,0,.4-1c0-.83-.49-1.25-1.47-1.25Z"/><path class="cls-23" d="M273.17,90.17h-2.4V89.6h2.4Z"/><path class="cls-23" d="M279.21,92.4h-.82l-.66-1.77h-2.68l-.63,1.77h-.82L276,86.09h.77ZM277.48,90l-1-2.69a1.84,1.84,0,0,1-.1-.42h0a2.17,2.17,0,0,1-.1.42l-1,2.69Z"/><path class="cls-23" d="M283.66,92.4h-.72v-.77h0a1.82,1.82,0,0,1-2.9.27,2.49,2.49,0,0,1-.51-1.65,2.74,2.74,0,0,1,.56-1.79,1.89,1.89,0,0,1,1.5-.67,1.43,1.43,0,0,1,1.35.73h0V85.73h.72Zm-.72-2V89.7a1.31,1.31,0,0,0-.36-.93,1.34,1.34,0,0,0-1.95.11,2.08,2.08,0,0,0-.38,1.34,1.91,1.91,0,0,0,.36,1.22,1.19,1.19,0,0,0,1,.46,1.24,1.24,0,0,0,1-.44A1.63,1.63,0,0,0,282.94,90.36Z"/><path class="cls-23" d="M287.24,88.63a.88.88,0,0,0-.55-.15.94.94,0,0,0-.77.44,2,2,0,0,0-.31,1.18v2.3h-.72V87.9h.72v.92h0a1.6,1.6,0,0,1,.47-.74,1.11,1.11,0,0,1,.71-.26,1.19,1.19,0,0,1,.43.06Z"/><path class="cls-23" d="M291.41,90.33h-3.18a1.73,1.73,0,0,0,.41,1.16,1.4,1.4,0,0,0,1.06.41,2.2,2.2,0,0,0,1.4-.51v.68a2.61,2.61,0,0,1-1.57.43,1.92,1.92,0,0,1-1.5-.61,2.54,2.54,0,0,1-.54-1.73,2.48,2.48,0,0,1,.59-1.71,1.92,1.92,0,0,1,1.48-.66,1.7,1.7,0,0,1,1.37.57,2.4,2.4,0,0,1,.48,1.59Zm-.74-.61a1.47,1.47,0,0,0-.3-1,1,1,0,0,0-.82-.34,1.19,1.19,0,0,0-.87.36,1.75,1.75,0,0,0-.44,1Z"/><path class="cls-23" d="M292,92.23v-.77a2.17,2.17,0,0,0,1.3.44c.63,0,.95-.22.95-.64a.56.56,0,0,0-.08-.3,1,1,0,0,0-.22-.23,1.69,1.69,0,0,0-.33-.17l-.4-.16a5.2,5.2,0,0,1-.52-.24,1.42,1.42,0,0,1-.38-.27,1,1,0,0,1-.23-.35,1.21,1.21,0,0,1-.08-.45,1,1,0,0,1,.15-.56,1.24,1.24,0,0,1,.38-.41,2,2,0,0,1,.56-.25,2.67,2.67,0,0,1,.64-.08,2.64,2.64,0,0,1,1,.2v.73a2.08,2.08,0,0,0-1.14-.32,1.4,1.4,0,0,0-.37,0,1,1,0,0,0-.27.13.72.72,0,0,0-.19.2.58.58,0,0,0-.06.26.6.6,0,0,0,.06.29.76.76,0,0,0,.19.21,1.07,1.07,0,0,0,.3.17l.4.16.54.24a2,2,0,0,1,.4.27,1.1,1.1,0,0,1,.26.35,1.13,1.13,0,0,1,.09.47,1.09,1.09,0,0,1-.15.58,1.27,1.27,0,0,1-.39.41,1.81,1.81,0,0,1-.57.24,2.46,2.46,0,0,1-.67.08A2.57,2.57,0,0,1,292,92.23Z"/><path class="cls-23" d="M295.6,92.23v-.77a2.12,2.12,0,0,0,1.29.44c.64,0,.95-.22.95-.64a.48.48,0,0,0-.08-.3.8.8,0,0,0-.22-.23,1.91,1.91,0,0,0-.32-.17l-.4-.16a5.46,5.46,0,0,1-.53-.24,1.61,1.61,0,0,1-.38-.27,1,1,0,0,1-.23-.35,1.22,1.22,0,0,1-.07-.45,1.13,1.13,0,0,1,.14-.56,1.38,1.38,0,0,1,.39-.41,1.85,1.85,0,0,1,.55-.25,2.74,2.74,0,0,1,.64-.08,2.69,2.69,0,0,1,1.05.2v.73a2.14,2.14,0,0,0-1.15-.32,1.37,1.37,0,0,0-.36,0,1,1,0,0,0-.28.13.57.57,0,0,0-.18.2.57.57,0,0,0,0,.55.54.54,0,0,0,.19.21,1.17,1.17,0,0,0,.29.17c.12,0,.25.11.4.16l.54.24a1.75,1.75,0,0,1,.4.27,1,1,0,0,1,.26.35,1.13,1.13,0,0,1,.09.47,1.16,1.16,0,0,1-.54,1,1.63,1.63,0,0,1-.57.24,2.41,2.41,0,0,1-.67.08A2.53,2.53,0,0,1,295.6,92.23Z"/><path class="cls-23" d="M303.08,90.33H299.9a1.73,1.73,0,0,0,.41,1.16,1.4,1.4,0,0,0,1.06.41,2.2,2.2,0,0,0,1.4-.51v.68a2.61,2.61,0,0,1-1.57.43,1.89,1.89,0,0,1-1.5-.61,2.54,2.54,0,0,1-.54-1.73,2.44,2.44,0,0,1,.59-1.71,1.92,1.92,0,0,1,1.48-.66,1.7,1.7,0,0,1,1.37.57,2.4,2.4,0,0,1,.48,1.59Zm-.74-.61a1.47,1.47,0,0,0-.3-1,1,1,0,0,0-.82-.34,1.19,1.19,0,0,0-.87.36,1.68,1.68,0,0,0-.44,1Z"/><path class="cls-23" d="M304.61,91.39l-.71,2.17h-.51l.51-2.17Z"/><path class="cls-23" d="M308.75,90V92.4H308V86.09h1.73a2.29,2.29,0,0,1,1.57.5,1.74,1.74,0,0,1,.55,1.39,1.9,1.9,0,0,1-.61,1.46,2.38,2.38,0,0,1-1.67.57Zm0-3.25v2.59h.77a1.76,1.76,0,0,0,1.17-.35,1.24,1.24,0,0,0,.4-1c0-.83-.49-1.25-1.48-1.25Z"/><path class="cls-23" d="M314.27,92.5a2.09,2.09,0,0,1-1.59-.63,2.32,2.32,0,0,1-.59-1.67,2.39,2.39,0,0,1,.62-1.77,2.2,2.2,0,0,1,1.67-.64,2,2,0,0,1,1.57.62,2.8,2.8,0,0,1,0,3.44A2.12,2.12,0,0,1,314.27,92.5Zm.06-4.1a1.35,1.35,0,0,0-1.1.47,1.93,1.93,0,0,0-.41,1.3,1.82,1.82,0,0,0,.41,1.26,1.41,1.41,0,0,0,1.1.47,1.33,1.33,0,0,0,1.07-.46,2,2,0,0,0,.38-1.29,2,2,0,0,0-.38-1.3A1.32,1.32,0,0,0,314.33,88.4Z"/><path class="cls-23" d="M319.79,88.63a.88.88,0,0,0-.55-.15.94.94,0,0,0-.77.44,2,2,0,0,0-.31,1.18v2.3h-.72V87.9h.72v.92h0a1.6,1.6,0,0,1,.47-.74,1.11,1.11,0,0,1,.71-.26,1.19,1.19,0,0,1,.43.06Z"/><path class="cls-23" d="M322.43,92.35a1.31,1.31,0,0,1-.67.14c-.79,0-1.18-.44-1.18-1.32V88.51h-.77V87.9h.77V86.8l.72-.24V87.9h1.13v.61H321.3v2.54a1.06,1.06,0,0,0,.15.64.63.63,0,0,0,.51.2.73.73,0,0,0,.47-.15Z"/><path class="cls-23" d="M273.48,105.73l-2.33,6.3h-.81l-2.29-6.3h.82l1.75,5a3.57,3.57,0,0,1,.13.56h0a2.68,2.68,0,0,1,.15-.57l1.78-5Z"/><path class="cls-23" d="M280.59,112h-.74v-4.22c0-.34,0-.75.07-1.23h0a4.16,4.16,0,0,1-.19.61L277.56,112h-.36l-2.15-4.8a3.55,3.55,0,0,1-.19-.65h0c0,.25,0,.66,0,1.24V112h-.72v-6.3h1l1.93,4.4a5.05,5.05,0,0,1,.29.75h0c.12-.34.23-.6.3-.77l2-4.38h.92Z"/><path class="cls-23" d="M237.05,148.51v2.39h-.74v-6.31H238a2.28,2.28,0,0,1,1.57.5,1.76,1.76,0,0,1,.56,1.39,1.91,1.91,0,0,1-.62,1.46,2.37,2.37,0,0,1-1.67.57Zm0-3.25v2.59h.77a1.76,1.76,0,0,0,1.17-.35,1.24,1.24,0,0,0,.4-1c0-.83-.49-1.25-1.47-1.25Z"/><path class="cls-23" d="M243.38,147.13a.88.88,0,0,0-.55-.15.94.94,0,0,0-.77.44,2,2,0,0,0-.31,1.18v2.3H241v-4.5h.72v.92h0a1.6,1.6,0,0,1,.47-.74,1.11,1.11,0,0,1,.71-.26,1.23,1.23,0,0,1,.43.06Z"/><path class="cls-23" d="M244.3,145.25a.46.46,0,0,1-.33-.13.44.44,0,0,1-.13-.33.45.45,0,0,1,.13-.34.46.46,0,0,1,.33-.13.45.45,0,0,1,.34.13.46.46,0,0,1,.14.34.46.46,0,0,1-.48.46Zm.36,5.65h-.73v-4.5h.73Z"/><path class="cls-23" d="M249.43,146.4l-1.8,4.5h-.7l-1.71-4.5H246l1.15,3.27a3.22,3.22,0,0,1,.15.62h0a3.64,3.64,0,0,1,.14-.61l1.2-3.28Z"/><path class="cls-23" d="M253.2,150.9h-.72v-.71h0a1.51,1.51,0,0,1-1.39.81,1.53,1.53,0,0,1-1-.35,1.27,1.27,0,0,1-.38-1c0-.84.5-1.33,1.49-1.47l1.35-.19q0-1.14-.93-1.14a2.22,2.22,0,0,0-1.47.55v-.74a2.79,2.79,0,0,1,1.53-.42q1.59,0,1.59,1.68Zm-.72-2.28-1.09.15a1.83,1.83,0,0,0-.76.25.72.72,0,0,0-.25.63.68.68,0,0,0,.24.54.88.88,0,0,0,.62.21,1.18,1.18,0,0,0,.89-.38,1.36,1.36,0,0,0,.35-1Z"/><path class="cls-23" d="M256.42,150.85a1.33,1.33,0,0,1-.67.14c-.79,0-1.19-.44-1.19-1.32V147h-.77v-.61h.77v-1.1l.72-.24v1.34h1.14V147h-1.14v2.54a1,1,0,0,0,.16.64.61.61,0,0,0,.51.2.75.75,0,0,0,.47-.15Z"/><path class="cls-23" d="M260.77,148.83h-3.18A1.73,1.73,0,0,0,258,150a1.4,1.4,0,0,0,1.06.41,2.2,2.2,0,0,0,1.4-.51v.68a2.61,2.61,0,0,1-1.57.43,1.89,1.89,0,0,1-1.5-.61,2.53,2.53,0,0,1-.54-1.73,2.44,2.44,0,0,1,.59-1.71,1.92,1.92,0,0,1,1.48-.66,1.7,1.7,0,0,1,1.37.57,2.4,2.4,0,0,1,.48,1.59Zm-.74-.61a1.47,1.47,0,0,0-.3-1,1,1,0,0,0-.82-.34,1.19,1.19,0,0,0-.87.36,1.68,1.68,0,0,0-.44,1Z"/><path class="cls-23" d="M264.71,150.9H264v-6.31h.74Z"/><path class="cls-23" d="M266.88,148.51v2.39h-.74v-6.31h1.74a2.27,2.27,0,0,1,1.56.5,1.76,1.76,0,0,1,.56,1.39,1.91,1.91,0,0,1-.62,1.46,2.37,2.37,0,0,1-1.67.57Zm0-3.25v2.59h.78a1.73,1.73,0,0,0,1.16-.35,1.24,1.24,0,0,0,.4-1c0-.83-.49-1.25-1.47-1.25Z"/><path class="cls-23" d="M273.17,148.67h-2.4v-.56h2.4Z"/><path class="cls-23" d="M279.21,150.9h-.82l-.66-1.77h-2.68l-.63,1.77h-.82l2.42-6.31h.77Zm-1.73-2.43-1-2.69a1.84,1.84,0,0,1-.1-.42h0a2.17,2.17,0,0,1-.1.42l-1,2.69Z"/><path class="cls-23" d="M283.66,150.9h-.72v-.77h0a1.82,1.82,0,0,1-2.9.27,2.47,2.47,0,0,1-.51-1.65,2.74,2.74,0,0,1,.56-1.79,1.89,1.89,0,0,1,1.5-.67,1.43,1.43,0,0,1,1.35.73h0v-2.79h.72Zm-.72-2v-.66a1.27,1.27,0,0,0-.36-.92,1.19,1.19,0,0,0-.92-.38,1.23,1.23,0,0,0-1,.48,2.08,2.08,0,0,0-.38,1.34,1.94,1.94,0,0,0,.36,1.23,1.19,1.19,0,0,0,1,.45,1.24,1.24,0,0,0,1-.44A1.63,1.63,0,0,0,282.94,148.86Z"/><path class="cls-23" d="M287.24,147.13a.88.88,0,0,0-.55-.15.94.94,0,0,0-.77.44,2,2,0,0,0-.31,1.18v2.3h-.72v-4.5h.72v.92h0a1.6,1.6,0,0,1,.47-.74,1.11,1.11,0,0,1,.71-.26,1.19,1.19,0,0,1,.43.06Z"/><path class="cls-23" d="M291.41,148.83h-3.18a1.73,1.73,0,0,0,.41,1.16,1.4,1.4,0,0,0,1.06.41,2.2,2.2,0,0,0,1.4-.51v.68a2.61,2.61,0,0,1-1.57.43,1.92,1.92,0,0,1-1.5-.61,2.53,2.53,0,0,1-.54-1.73,2.48,2.48,0,0,1,.59-1.71,1.92,1.92,0,0,1,1.48-.66,1.7,1.7,0,0,1,1.37.57,2.4,2.4,0,0,1,.48,1.59Zm-.74-.61a1.47,1.47,0,0,0-.3-1,1,1,0,0,0-.82-.34,1.19,1.19,0,0,0-.87.36,1.75,1.75,0,0,0-.44,1Z"/><path class="cls-23" d="M292,150.73V150a2.17,2.17,0,0,0,1.3.44c.63,0,.95-.22.95-.64a.56.56,0,0,0-.08-.3.77.77,0,0,0-.22-.22,1.29,1.29,0,0,0-.33-.18l-.4-.16a5.2,5.2,0,0,1-.52-.24,1.42,1.42,0,0,1-.38-.27,1,1,0,0,1-.23-.35,1.21,1.21,0,0,1-.08-.45,1,1,0,0,1,.15-.56,1.24,1.24,0,0,1,.38-.41,1.76,1.76,0,0,1,.56-.24,2.25,2.25,0,0,1,.64-.09,2.64,2.64,0,0,1,1,.2v.73a2.08,2.08,0,0,0-1.14-.32,1.4,1.4,0,0,0-.37,0,1,1,0,0,0-.27.13.89.89,0,0,0-.19.2.58.58,0,0,0-.06.26.6.6,0,0,0,.06.29,1,1,0,0,0,.19.22,1.39,1.39,0,0,0,.3.16l.4.17a4.61,4.61,0,0,1,.54.23,2,2,0,0,1,.4.27,1.1,1.1,0,0,1,.26.35,1.13,1.13,0,0,1,.09.47,1.06,1.06,0,0,1-.15.58,1.27,1.27,0,0,1-.39.41,1.81,1.81,0,0,1-.57.24,2.46,2.46,0,0,1-.67.08A2.57,2.57,0,0,1,292,150.73Z"/><path class="cls-23" d="M295.6,150.73V150a2.12,2.12,0,0,0,1.29.44c.64,0,.95-.22.95-.64a.48.48,0,0,0-.08-.3.66.66,0,0,0-.22-.22,1.4,1.4,0,0,0-.32-.18l-.4-.16a5.46,5.46,0,0,1-.53-.24,1.61,1.61,0,0,1-.38-.27,1,1,0,0,1-.23-.35,1.22,1.22,0,0,1-.07-.45,1.13,1.13,0,0,1,.14-.56,1.38,1.38,0,0,1,.39-.41,1.61,1.61,0,0,1,.55-.24,2.3,2.3,0,0,1,.64-.09,2.69,2.69,0,0,1,1.05.2v.73a2.14,2.14,0,0,0-1.15-.32,1.37,1.37,0,0,0-.36,0,1,1,0,0,0-.28.13.67.67,0,0,0-.18.2.57.57,0,0,0,0,.55.64.64,0,0,0,.19.22,1.57,1.57,0,0,0,.29.16l.4.17a4.61,4.61,0,0,1,.54.23,1.75,1.75,0,0,1,.4.27,1,1,0,0,1,.26.35,1.13,1.13,0,0,1,.09.47,1.06,1.06,0,0,1-.15.58,1.09,1.09,0,0,1-.39.41,1.63,1.63,0,0,1-.57.24,2.41,2.41,0,0,1-.67.08A2.53,2.53,0,0,1,295.6,150.73Z"/><path class="cls-23" d="M303.08,148.83H299.9a1.73,1.73,0,0,0,.41,1.16,1.4,1.4,0,0,0,1.06.41,2.2,2.2,0,0,0,1.4-.51v.68a2.61,2.61,0,0,1-1.57.43,1.89,1.89,0,0,1-1.5-.61,2.53,2.53,0,0,1-.54-1.73,2.44,2.44,0,0,1,.59-1.71,1.92,1.92,0,0,1,1.48-.66,1.7,1.7,0,0,1,1.37.57,2.4,2.4,0,0,1,.48,1.59Zm-.74-.61a1.47,1.47,0,0,0-.3-1,1,1,0,0,0-.82-.34,1.19,1.19,0,0,0-.87.36,1.68,1.68,0,0,0-.44,1Z"/><path class="cls-23" d="M304.61,149.89l-.71,2.17h-.51l.51-2.17Z"/><path class="cls-23" d="M308.75,148.51v2.39H308v-6.31h1.73a2.29,2.29,0,0,1,1.57.5,1.76,1.76,0,0,1,.55,1.39,1.9,1.9,0,0,1-.61,1.46,2.38,2.38,0,0,1-1.67.57Zm0-3.25v2.59h.77a1.76,1.76,0,0,0,1.17-.35,1.24,1.24,0,0,0,.4-1c0-.83-.49-1.25-1.48-1.25Z"/><path class="cls-23" d="M314.27,151a2.09,2.09,0,0,1-1.59-.63,2.32,2.32,0,0,1-.59-1.67,2.39,2.39,0,0,1,.62-1.77,2.2,2.2,0,0,1,1.67-.64,2,2,0,0,1,1.57.62,2.8,2.8,0,0,1,0,3.44A2.12,2.12,0,0,1,314.27,151Zm.06-4.1a1.35,1.35,0,0,0-1.1.47,1.93,1.93,0,0,0-.41,1.3,1.82,1.82,0,0,0,.41,1.26,1.41,1.41,0,0,0,1.1.47,1.3,1.3,0,0,0,1.07-.46,2,2,0,0,0,.38-1.28,2,2,0,0,0-.38-1.31A1.32,1.32,0,0,0,314.33,146.9Z"/><path class="cls-23" d="M319.79,147.13a.88.88,0,0,0-.55-.15.94.94,0,0,0-.77.44,2,2,0,0,0-.31,1.18v2.3h-.72v-4.5h.72v.92h0a1.6,1.6,0,0,1,.47-.74,1.11,1.11,0,0,1,.71-.26,1.19,1.19,0,0,1,.43.06Z"/><path class="cls-23" d="M322.43,150.85a1.31,1.31,0,0,1-.67.14c-.79,0-1.18-.44-1.18-1.32V147h-.77v-.61h.77v-1.1l.72-.24v1.34h1.13V147H321.3v2.54a1.06,1.06,0,0,0,.15.64.63.63,0,0,0,.51.2.73.73,0,0,0,.47-.15Z"/><path class="cls-23" d="M273.48,164.23l-2.33,6.31h-.81l-2.29-6.31h.82l1.75,5a3.57,3.57,0,0,1,.13.56h0a2.68,2.68,0,0,1,.15-.57l1.78-5Z"/><path class="cls-23" d="M280.59,170.54h-.74v-4.23c0-.34,0-.75.07-1.23h0a4.16,4.16,0,0,1-.19.61l-2.15,4.85h-.36l-2.15-4.81a3.55,3.55,0,0,1-.19-.65h0c0,.25,0,.67,0,1.24v4.22h-.72v-6.31h1l1.93,4.4a5.05,5.05,0,0,1,.29.75h0c.12-.34.23-.6.3-.77l2-4.38h.92Z"/></svg>