<svg xmlns="http://www.w3.org/2000/svg" xmlns:xlink="http://www.w3.org/1999/xlink" viewBox="0 0 240.5 395.47"><defs><style>.cls-1{fill:#fff;}.cls-2,.cls-3,.cls-9{fill:#3c3c41;}.cls-2{opacity:0.05;}.cls-2,.cls-9{isolation:isolate;}.cls-4{fill:url(#linear-gradient);}.cls-5{fill:url(#linear-gradient-2);}.cls-6{fill:url(#linear-gradient-3);}.cls-7{fill:#50e6ff;}.cls-8{fill:#1490df;}.cls-9{opacity:0.25;}.cls-10{fill:url(#linear-gradient-4);}.cls-11{fill:url(#linear-gradient-5);}.cls-12{fill:#b4ec36;}.cls-13{fill:#5ea0ef;}.cls-14{fill:url(#linear-gradient-6);}.cls-15{fill:#c3f1ff;}.cls-16{fill:#9cebff;}.cls-17{fill:url(#linear-gradient-7);}.cls-18{fill:url(#linear-gradient-8);}.cls-19{fill:url(#linear-gradient-9);}.cls-20{fill:url(#linear-gradient-10);}.cls-21{fill:url(#linear-gradient-11);}.cls-22{fill:none;stroke:#3c3c41;stroke-miterlimit:10;}.cls-23{fill:url(#linear-gradient-12);}.cls-24{fill:url(#linear-gradient-13);}.cls-25{fill:url(#linear-gradient-14);}.cls-26{fill:url(#linear-gradient-15);}.cls-27{fill:url(#linear-gradient-16);}.cls-28{fill:url(#linear-gradient-17);}.cls-29{fill:url(#linear-gradient-18);}.cls-30{fill:#1e1e1e;}</style><linearGradient id="linear-gradient" x1="21.67" y1="639.04" x2="24.04" y2="641.41" gradientTransform="translate(2.11 -270.55) rotate(-0.08)" gradientUnits="userSpaceOnUse"><stop offset="0" stop-color="#86d633"/><stop offset="0.24" stop-color="#83d232"/><stop offset="0.5" stop-color="#7cc52f"/><stop offset="0.76" stop-color="#6fb02a"/><stop offset="1" stop-color="#5e9624"/></linearGradient><linearGradient id="linear-gradient-2" x1="16.33" y1="639.04" x2="18.69" y2="641.41" xlink:href="#linear-gradient"/><linearGradient id="linear-gradient-3" x1="10.99" y1="639.04" x2="13.35" y2="641.4" xlink:href="#linear-gradient"/><linearGradient id="linear-gradient-4" x1="149.14" y1="265.29" x2="149.14" y2="301.06" gradientTransform="translate(0 -269.39)" gradientUnits="userSpaceOnUse"><stop offset="0.18" stop-color="#5ea0ef"/><stop offset="1" stop-color="#0078d4"/></linearGradient><linearGradient id="linear-gradient-5" x1="149.14" y1="380.98" x2="149.14" y2="343.89" gradientTransform="translate(0 -269.39)" gradientUnits="userSpaceOnUse"><stop offset="0" stop-color="#5e9624"/><stop offset="0.02" stop-color="#5f9724"/><stop offset="1" stop-color="#76bc2d"/></linearGradient><linearGradient id="linear-gradient-6" x1="148.74" y1="438.34" x2="148.74" y2="416.7" gradientTransform="translate(0 -269.39)" gradientUnits="userSpaceOnUse"><stop offset="0" stop-color="#0078d4"/><stop offset="0.82" stop-color="#5ea0ef"/></linearGradient><linearGradient id="linear-gradient-7" x1="148.74" y1="446.7" x2="148.74" y2="438.34" gradientTransform="translate(0 -269.39)" gradientUnits="userSpaceOnUse"><stop offset="0.15" stop-color="#ccc"/><stop offset="1" stop-color="#707070"/></linearGradient><linearGradient id="linear-gradient-8" x1="96.24" y1="438.34" x2="96.24" y2="416.7" xlink:href="#linear-gradient-6"/><linearGradient id="linear-gradient-9" x1="96.24" y1="446.7" x2="96.24" y2="438.34" xlink:href="#linear-gradient-7"/><linearGradient id="linear-gradient-10" x1="201.24" y1="438.34" x2="201.24" y2="416.7" xlink:href="#linear-gradient-6"/><linearGradient id="linear-gradient-11" x1="201.24" y1="446.7" x2="201.24" y2="438.34" xlink:href="#linear-gradient-7"/><linearGradient id="linear-gradient-12" x1="149.14" y1="533.3" x2="149.14" y2="496.2" xlink:href="#linear-gradient-5"/><linearGradient id="linear-gradient-13" x1="148.74" y1="588.34" x2="148.74" y2="566.7" xlink:href="#linear-gradient-6"/><linearGradient id="linear-gradient-14" x1="148.74" y1="596.7" x2="148.74" y2="588.34" xlink:href="#linear-gradient-7"/><linearGradient id="linear-gradient-15" x1="96.24" y1="588.34" x2="96.24" y2="566.7" xlink:href="#linear-gradient-6"/><linearGradient id="linear-gradient-16" x1="96.24" y1="596.7" x2="96.24" y2="588.34" xlink:href="#linear-gradient-7"/><linearGradient id="linear-gradient-17" x1="201.24" y1="588.34" x2="201.24" y2="566.7" xlink:href="#linear-gradient-6"/><linearGradient id="linear-gradient-18" x1="201.24" y1="596.7" x2="201.24" y2="588.34" xlink:href="#linear-gradient-7"/></defs><g id="shapes"><rect class="cls-1" width="240.5" height="395.47"/><rect class="cls-1" x="0.5" y="64.8" width="240" height="305" rx="5"/><rect class="cls-2" x="0.5" y="64.8" width="240" height="305" rx="5"/><path class="cls-3" d="M234.34,370.3h-1v-1h1Zm-3,0h-1v-1h1Zm-3,0h-1v-1h1Zm-3,0h-1v-1h1Zm-3,0h-1v-1h1Zm-3,0h-1v-1h1Zm-3,0h-1v-1h1Zm-3,0h-1v-1h1Zm-3,0h-1v-1h1Zm-3,0h-1v-1h1Zm-3,0h-1v-1h1Zm-3,0h-1v-1h1Zm-3,0h-1v-1h1Zm-3,0h-1v-1h1Zm-3,0h-1v-1h1Zm-3,0h-1v-1h1Zm-3,0h-1v-1h1Zm-3,0h-1v-1h1Zm-3,0h-1v-1h1Zm-3,0h-1v-1h1Zm-3,0h-1v-1h1Zm-3,0h-1v-1h1Zm-3,0h-1v-1h1Zm-3,0h-1v-1h1Zm-3,0h-1v-1h1Zm-3,0h-1v-1h1Zm-3,0h-1v-1h1Zm-3,0h-1v-1h1Zm-3,0h-1v-1h1Zm-3,0h-1v-1h1Zm-3,0h-1v-1h1Zm-3,0h-1v-1h1Zm-3,0h-1v-1h1Zm-3,0h-1v-1h1Zm-3,0h-1v-1h1Zm-3,0h-1v-1h1Zm-3,0h-1v-1h1Zm-3,0h-1v-1h1Zm-3,0h-1v-1h1Zm-3,0h-1v-1h1Zm-3,0h-1v-1h1Zm-3,0h-1v-1h1Zm-3,0h-1v-1h1Zm-3,0h-1v-1h1Zm-3,0h-1v-1h1Zm-3,0h-1v-1h1Zm-3,0h-1v-1h1Zm-3,0h-1v-1h1Zm-3,0h-1v-1h1Zm-3,0h-1v-1h1Zm-3,0h-1v-1h1Zm-3,0h-1v-1h1Zm-3,0h-1v-1h1Zm-3,0h-1v-1h1Zm-3,0h-1v-1h1Zm-3,0h-1v-1h1Zm-3,0h-1v-1h1Zm-3,0h-1v-1h1Zm-3,0h-1v-1h1Zm-3,0h-1v-1h1Zm-3,0h-1v-1h1Zm-3,0h-1v-1h1Zm-3,0h-1v-1h1Zm-3,0h-1v-1h1Zm-3,0h-1v-1h1Zm-3,0h-1v-1h1Zm-3,0h-1v-1h1Zm-30,0H5.5a4,4,0,0,1-.49,0l.09-1h1Zm230.36-.07-.16-1a4.4,4.4,0,0,0,.86-.24l.36.93a5.37,5.37,0,0,1-1.06.3ZM2.91,369.65A6,6,0,0,1,2,369l.64-.77a4.26,4.26,0,0,0,.75.5Zm236.41-.9-.69-.72a4.82,4.82,0,0,0,.58-.69l.82.57a5.64,5.64,0,0,1-.71.84ZM.63,367.34a5.09,5.09,0,0,1-.42-1l1-.27a4.48,4.48,0,0,0,.33.83Zm240.26-1.44-1-.2a4.58,4.58,0,0,0,.09-.9l1-.05v.05A5.78,5.78,0,0,1,240.89,365.9ZM1,364.2H0v-1H1Zm240-1.46h-1v-1h1ZM1,361.2H0v-1H1Zm240-1.46h-1v-1h1ZM1,358.19H0v-1H1Zm240-1.45h-1v-1h1ZM1,355.19H0v-1H1Zm240-1.46h-1v-1h1ZM1,352.19H0v-1H1Zm240-1.46h-1v-1h1ZM1,349.18H0v-1H1Zm240-1.46h-1v-1h1ZM1,346.18H0v-1H1Zm240-1.46h-1v-1h1ZM1,343.17H0v-1H1Zm240-1.45h-1v-1h1ZM1,340.17H0v-1H1Zm240-1.46h-1v-1h1ZM1,337.17H0v-1H1Zm240-1.46h-1v-1h1ZM1,334.16H0v-1H1Zm240-1.46h-1v-1h1ZM1,331.16H0v-1H1Zm240-1.46h-1v-1h1ZM1,328.16H0v-1H1Zm240-1.46h-1v-1h1ZM1,325.15H0v-1H1Zm240-1.46h-1v-1h1ZM1,322.15H0v-1H1Zm240-1.46h-1v-1h1ZM1,319.14H0v-1H1Zm240-1.45h-1v-1h1ZM1,316.14H0v-1H1Zm240-1.46h-1v-1h1ZM1,313.14H0v-1H1Zm240-1.46h-1v-1h1ZM1,310.13H0v-1H1Zm240-1.46h-1v-1h1ZM1,307.13H0v-1H1Zm240-1.46h-1v-1h1ZM1,304.13H0v-1H1Zm240-1.46h-1v-1h1ZM1,301.12H0v-1H1Zm240-1.46h-1v-1h1ZM1,298.12H0v-1H1Zm240-1.46h-1v-1h1ZM1,295.11H0v-1H1Zm240-1.45h-1v-1h1ZM1,292.11H0v-1H1Zm240-1.46h-1v-1h1ZM1,289.11H0v-1H1Zm240-1.46h-1v-1h1ZM1,286.1H0v-1H1Zm240-1.46h-1v-1h1ZM1,283.1H0v-1H1Zm240-1.46h-1v-1h1ZM1,280.1H0v-1H1Zm240-1.46h-1v-1h1ZM1,277.09H0v-1H1Zm240-1.46h-1v-1h1ZM1,274.09H0v-1H1Zm240-1.46h-1v-1h1ZM1,271.08H0v-1H1Zm240-1.45h-1v-1h1ZM1,268.08H0v-1H1Zm240-1.46h-1v-1h1ZM1,265.08H0v-1H1Zm240-1.46h-1v-1h1ZM1,262.07H0v-1H1Zm240-1.45h-1v-1h1ZM1,259.07H0v-1H1Zm240-1.46h-1v-1h1ZM1,256.07H0v-1H1Zm240-1.46h-1v-1h1ZM1,253.06H0v-1H1Zm240-1.46h-1v-1h1ZM1,250.06H0v-1H1Zm240-1.46h-1v-1h1ZM1,247.05H0v-1H1Zm240-1.45h-1v-1h1ZM1,244.05H0v-1H1Zm240-1.46h-1v-1h1ZM1,241.05H0v-1H1Zm240-1.46h-1v-1h1ZM1,238H0v-1H1Zm240-1.46h-1v-1h1ZM1,235H0v-1H1Zm240-1.46h-1v-1h1ZM1,232H0v-1H1Zm240-1.46h-1v-1h1ZM1,229H0v-1H1Zm240-1.46h-1v-1h1ZM1,226H0v-1H1Zm240-1.46h-1v-1h1ZM1,223H0v-1H1Zm240-1.45h-1v-1h1ZM1,220H0v-1H1Zm240-1.46h-1v-1h1ZM1,217H0v-1H1Zm240-1.46h-1v-1h1ZM1,214H0v-1H1Zm240-1.45h-1v-1h1ZM1,211H0v-1H1Zm240-1.46h-1v-1h1ZM1,208H0v-1H1Zm240-1.46h-1v-1h1ZM1,205H0v-1H1Zm240-1.46h-1v-1h1ZM1,202H0v-1H1Zm240-1.46h-1v-1h1ZM1,199H0v-1H1Zm240-1.45h-1v-1h1ZM1,196H0v-1H1Zm240-1.46h-1v-1h1ZM1,193H0v-1H1Zm240-1.46h-1v-1h1ZM1,190H0v-1H1Zm240-1.46h-1v-1h1ZM1,187H0v-1H1Zm240-1.46h-1v-1h1ZM1,184H0v-1H1Zm240-1.46h-1v-1h1ZM1,181H0v-1H1Zm240-1.46h-1v-1h1ZM1,178H0v-1H1Zm240-1.46h-1v-1h1ZM1,175H0v-1H1Zm240-1.45h-1v-1h1ZM1,172H0v-1H1Zm240-1.46h-1v-1h1ZM1,169H0v-1H1Zm240-1.46h-1v-1h1ZM1,166H0v-1H1Zm240-1.45h-1v-1h1ZM1,163H0v-1H1Zm240-1.46h-1v-1h1ZM1,160H0v-1H1Zm240-1.46h-1v-1h1ZM1,156.94H0v-1H1Zm240-1.46h-1v-1h1ZM1,153.94H0v-1H1Zm240-1.46h-1v-1h1ZM1,150.93H0v-1H1Zm240-1.45h-1v-1h1ZM1,147.93H0v-1H1Zm240-1.46h-1v-1h1ZM1,144.93H0v-1H1Zm240-1.46h-1v-1h1ZM1,141.92H0v-1H1Zm240-1.46h-1v-1h1ZM1,138.92H0v-1H1Zm240-1.46h-1v-1h1ZM1,135.92H0v-1H1Zm240-1.46h-1v-1h1ZM1,132.91H0v-1H1Zm240-1.46h-1v-1h1ZM1,129.91H0v-1H1Zm240-1.46h-1v-1h1ZM1,126.9H0v-1H1Zm240-1.45h-1v-1h1ZM1,123.9H0v-1H1Zm240-1.46h-1v-1h1ZM1,120.9H0v-1H1Zm240-1.46h-1v-1h1ZM1,117.89H0v-1H1Zm240-1.46h-1v-1h1ZM1,114.89H0v-1H1Zm240-1.46h-1v-1h1ZM1,111.89H0v-1H1Zm240-1.46h-1v-1h1ZM1,108.88H0v-1H1Zm240-1.46h-1v-1h1ZM1,105.88H0v-1H1Zm240-1.46h-1v-1h1ZM1,102.87H0v-1H1Zm240-1.45h-1v-1h1ZM1,99.87H0v-1H1Zm240-1.46h-1v-1h1ZM1,96.87H0v-1H1Zm240-1.46h-1v-1h1ZM1,93.86H0v-1H1ZM241,92.4h-1v-1h1ZM1,90.86H0v-1H1ZM241,89.4h-1v-1h1ZM1,87.86H0v-1H1ZM241,86.4h-1v-1h1ZM1,84.85H0v-1H1Zm240-1.46h-1v-1h1ZM1,81.85H0v-1H1Zm240-1.46h-1v-1h1ZM1,78.84H0v-1H1Zm240-1.45h-1v-1h1ZM1,75.84H0v-1H1Zm240-1.46h-1v-1h1ZM1,72.84H0v-1H1Zm240-1.46h-1v-1h1ZM0,69.83v0a5.44,5.44,0,0,1,.1-1.06l1,.2A4.91,4.91,0,0,0,1,69.8Zm239.82-1.29a5.09,5.09,0,0,0-.34-.84l.88-.46a6,6,0,0,1,.42,1Zm-238-1.25L1,66.72a6.24,6.24,0,0,1,.7-.84l.7.71A5.45,5.45,0,0,0,1.78,67.29Zm236.56-1a4.26,4.26,0,0,0-.75-.5l.47-.88a5,5,0,0,1,.91.61ZM3.86,65.62l-.37-.93a4.84,4.84,0,0,1,1-.3l.18,1A4.06,4.06,0,0,0,3.86,65.62Zm232-.3-.37,0h-.59v-1h.59l.46,0Zm-3,0h-1v-1h1Zm-3,0h-1v-1h1Zm-3,0h-1v-1h1Zm-3,0h-1v-1h1Zm-3,0h-1v-1h1Zm-3,0h-1v-1h1Zm-3,0h-1v-1h1Zm-3,0h-1v-1h1Zm-3,0h-1v-1h1Zm-3,0h-1v-1h1Zm-3,0h-1v-1h1Zm-3,0h-1v-1h1Zm-3,0h-1v-1h1Zm-3,0h-1v-1h1Zm-3,0h-1v-1h1Zm-3,0h-1v-1h1Zm-3,0h-1v-1h1Zm-3,0h-1v-1h1Zm-3,0h-1v-1h1Zm-3,0h-1v-1h1Zm-3,0h-1v-1h1Zm-3,0h-1v-1h1Zm-3,0h-1v-1h1Zm-3,0h-1v-1h1Zm-3,0h-1v-1h1Zm-3,0h-1v-1h1Zm-3,0h-1v-1h1Zm-3,0h-1v-1h1Zm-3,0h-1v-1h1Zm-3,0h-1v-1h1Zm-3,0h-1v-1h1Zm-3,0h-1v-1h1Zm-3,0h-1v-1h1Zm-3,0h-1v-1h1Zm-3,0h-1v-1h1Zm-3,0h-1v-1h1Zm-3,0h-1v-1h1Zm-3,0h-1v-1h1Zm-3,0h-1v-1h1Zm-3,0h-1v-1h1Zm-3,0h-1v-1h1Zm-3,0h-1v-1h1Zm-3,0h-1v-1h1Zm-3,0h-1v-1h1Zm-3,0h-1v-1h1Zm-3,0h-1v-1h1Zm-3,0h-1v-1h1Zm-3,0h-1v-1h1Zm-3,0h-1v-1h1Zm-3,0h-1v-1h1Zm-3,0h-1v-1h1Zm-3,0h-1v-1h1Zm-3,0h-1v-1h1Zm-3,0h-1v-1h1Zm-3,0h-1v-1h1Zm-3,0h-1v-1h1Zm-3,0h-1v-1h1Zm-3,0h-1v-1h1Zm-3,0h-1v-1h1Zm-3,0h-1v-1h1Zm-3,0h-1v-1h1Zm-3,0h-1v-1h1Zm-3,0h-1v-1h1Zm-3,0h-1v-1h1Zm-3,0h-1v-1h1Zm-3,0h-1v-1h1Zm-3,0h-1v-1h1Zm-3,0h-1v-1h1Zm-3,0h-1v-1h1Zm-3,0h-1v-1h1Zm-3,0h-1v-1h1Zm-3,0h-1v-1h1Zm-3,0h-1v-1h1Zm-3,0h-1v-1h1Zm-3,0h-1v-1h1Zm-3,0h-1v-1h1Z"/><circle class="cls-4" cx="25.86" cy="369.64" r="1.67"/><circle class="cls-5" cx="20.52" cy="369.65" r="1.67"/><circle class="cls-6" cx="15.18" cy="369.65" r="1.67"/><path class="cls-7" d="M16.39,376.35l-1,1a.44.44,0,0,1-.62,0h0l-7.09-7.07a.87.87,0,0,1,0-1.23h0l.95-1h0l7.71,7.69a.43.43,0,0,1,0,.61Z"/><path class="cls-8" d="M15.29,362l1,1a.43.43,0,0,1,0,.61l-7.57,7.6h0l-1-1a.87.87,0,0,1,0-1.22h0l7-7A.43.43,0,0,1,15.29,362Z"/><path class="cls-7" d="M32.24,368l1,1a.86.86,0,0,1,0,1.22h0l-7.1,7.08a.43.43,0,0,1-.61,0h0l-1-1a.43.43,0,0,1,0-.61h0L32.24,368Z"/><path class="cls-8" d="M33.2,370.21l-1,1h0l-7.58-7.6a.43.43,0,0,1,0-.61h0l1-1a.44.44,0,0,1,.61,0h0l7,7a.86.86,0,0,1,0,1.22h0Z"/><rect class="cls-1" x="10" y="139.3" width="220" height="65"/><rect class="cls-9" x="10" y="139.3" width="220" height="65"/><path class="cls-10" d="M167,17.85a8.16,8.16,0,0,0-7-7.91A10.26,10.26,0,0,0,149.59,0a10.52,10.52,0,0,0-9.94,7,9.67,9.67,0,0,0-8.4,9.45A10,10,0,0,0,141.34,26H159A8.25,8.25,0,0,0,167,17.85Z"/><path class="cls-11" d="M133.47,91.54l14.91-14.91a1.05,1.05,0,0,1,1.51,0l0,0,14.91,14.91a1.07,1.07,0,0,1,0,1.51l0,0L149.89,108a1.08,1.08,0,0,1-1.49,0L133.47,93.07a1.06,1.06,0,0,1,0-1.51Z"/><path class="cls-12" d="M153.05,83.42l-3.76-3.75a.21.21,0,0,0-.29,0l-3.77,3.75a.18.18,0,0,0,0,.24.22.22,0,0,0,.2.08h2.2a.19.19,0,0,1,.2.19v3.56a.19.19,0,0,0,.19.19h2.35a.19.19,0,0,0,.19-.19V83.93a.19.19,0,0,1,.2-.19h2.2a.19.19,0,0,0,.22-.13.16.16,0,0,0-.08-.19Z"/><path class="cls-12" d="M140.26,88.06l-3.74,3.78a.2.2,0,0,0,0,.27l3.74,3.75a.19.19,0,0,0,.27,0,.18.18,0,0,0,.06-.15V93.53a.2.2,0,0,1,.2-.2h3.55a.17.17,0,0,0,.18-.17V90.79a.18.18,0,0,0-.06-.24l-.06,0h-3.56a.18.18,0,0,1-.19-.16V88.2a.21.21,0,0,0-.13-.27A.2.2,0,0,0,140.26,88.06Z"/><path class="cls-12" d="M158.17,95.86,162,92.09a.2.2,0,0,0,0-.27l-3.79-3.76a.19.19,0,0,0-.27,0,.22.22,0,0,0-.05.12v2.22a.18.18,0,0,1-.17.18H154.1a.18.18,0,0,0-.18.17h0v2.37a.19.19,0,0,0,.16.19h3.58a.19.19,0,0,1,.19.2h0v2.2a.19.19,0,0,0,.22.17A.18.18,0,0,0,158.17,95.86Z"/><path class="cls-1" d="M154.1,92.3a5,5,0,1,0-6.29,4.75v1.69a3.05,3.05,0,1,0,2.79,0V97A4.92,4.92,0,0,0,154.1,92.3Z"/><circle id="e99c3387-15c3-4f28-bd4b-cb209b430e06" class="cls-13" cx="149.16" cy="92.29" r="2.88"/><rect class="cls-14" x="132.5" y="147.3" width="32.47" height="21.65" rx="1.08"/><polygon class="cls-7" points="154.15 154.97 154.15 161.27 148.74 164.44 148.74 158.13 154.15 154.97"/><polygon class="cls-15" points="154.15 154.97 148.74 158.15 143.32 154.97 148.74 151.81 154.15 154.97"/><polygon class="cls-16" points="148.74 158.15 148.74 164.44 143.32 161.27 143.32 154.97 148.74 158.15"/><polygon class="cls-15" points="143.32 161.27 148.74 158.13 148.74 164.44 143.32 161.27"/><polygon class="cls-16" points="154.15 161.27 148.74 158.13 148.74 164.44 154.15 161.27"/><path class="cls-17" d="M155.25,175.5c-3.21-.51-3.34-2.81-3.34-6.55h-6.37c0,3.74-.11,6-3.32,6.55a1.8,1.8,0,0,0-1.6,1.8h16.23A1.79,1.79,0,0,0,155.25,175.5Z"/><rect class="cls-18" x="80" y="147.3" width="32.47" height="21.65" rx="1.08"/><polygon class="cls-7" points="101.65 154.97 101.65 161.27 96.24 164.44 96.24 158.13 101.65 154.97"/><polygon class="cls-15" points="101.65 154.97 96.24 158.15 90.82 154.97 96.24 151.81 101.65 154.97"/><polygon class="cls-16" points="96.24 158.15 96.24 164.44 90.82 161.27 90.82 154.97 96.24 158.15"/><polygon class="cls-15" points="90.82 161.27 96.24 158.13 96.24 164.44 90.82 161.27"/><polygon class="cls-16" points="101.65 161.27 96.24 158.13 96.24 164.44 101.65 161.27"/><path class="cls-19" d="M102.75,175.5c-3.21-.51-3.34-2.81-3.34-6.55H93c0,3.74-.11,6-3.32,6.55a1.8,1.8,0,0,0-1.6,1.8h16.23A1.79,1.79,0,0,0,102.75,175.5Z"/><rect class="cls-20" x="185" y="147.3" width="32.47" height="21.65" rx="1.08"/><polygon class="cls-7" points="206.65 154.97 206.65 161.27 201.24 164.44 201.24 158.13 206.65 154.97"/><polygon class="cls-15" points="206.65 154.97 201.24 158.15 195.82 154.97 201.24 151.81 206.65 154.97"/><polygon class="cls-16" points="201.24 158.15 201.24 164.44 195.82 161.27 195.82 154.97 201.24 158.15"/><polygon class="cls-15" points="195.82 161.27 201.24 158.13 201.24 164.44 195.82 161.27"/><polygon class="cls-16" points="206.65 161.27 201.24 158.13 201.24 164.44 206.65 161.27"/><path class="cls-21" d="M207.75,175.5c-3.21-.51-3.34-2.81-3.34-6.55H198c0,3.74-.11,6-3.32,6.55a1.8,1.8,0,0,0-1.6,1.8h16.23A1.79,1.79,0,0,0,207.75,175.5Z"/><line class="cls-22" x1="149.14" y1="29.3" x2="149.14" y2="41.8"/><line class="cls-22" x1="149.14" y1="59.3" x2="149.14" y2="73.3"/><path class="cls-23" d="M133.47,243.86l14.91-14.92a1.07,1.07,0,0,1,1.51,0l0,0,14.91,14.92a1.06,1.06,0,0,1,0,1.5l0,0-14.93,14.94a1.08,1.08,0,0,1-1.49,0l-14.93-14.94a1.05,1.05,0,0,1,0-1.5h0Z"/><path class="cls-12" d="M153.05,235.73,149.29,232a.23.23,0,0,0-.29,0l-3.77,3.75a.18.18,0,0,0,.15.32h2.2a.2.2,0,0,1,.2.2v3.55a.19.19,0,0,0,.19.2h2.35a.19.19,0,0,0,.19-.2v-3.55a.2.2,0,0,1,.2-.2h2.2a.18.18,0,0,0,.22-.13.17.17,0,0,0-.08-.19Z"/><path class="cls-12" d="M140.26,240.37l-3.74,3.79a.19.19,0,0,0,0,.26l3.74,3.76a.19.19,0,0,0,.27,0,.17.17,0,0,0,.06-.15v-2.18a.2.2,0,0,1,.2-.2h3.55a.18.18,0,0,0,.18-.18h0v-2.35a.17.17,0,0,0-.06-.24s0,0-.06,0h-3.56a.18.18,0,0,1-.19-.16v-2.17a.2.2,0,0,0-.13-.26.2.2,0,0,0-.26.12Z"/><path class="cls-12" d="M158.17,248.18l3.79-3.77a.2.2,0,0,0,0-.27l-3.79-3.77a.18.18,0,0,0-.27,0,.16.16,0,0,0-.05.11v2.23a.18.18,0,0,1-.17.17H154.1a.18.18,0,0,0-.18.18h0v2.37a.19.19,0,0,0,.16.19h3.58a.19.19,0,0,1,.19.2h0v2.2a.2.2,0,0,0,.22.17l.1,0Z"/><path class="cls-1" d="M154.1,244.62a5,5,0,1,0-6.29,4.75v1.68a3,3,0,1,0,2.79,0v-1.77A4.92,4.92,0,0,0,154.1,244.62Z"/><circle id="e99c3387-15c3-4f28-bd4b-cb209b430e06-2" class="cls-13" cx="149.16" cy="244.6" r="2.88"/><line class="cls-22" x1="149.14" y1="197.12" x2="149.14" y2="226.44"/><line class="cls-22" x1="149.14" y1="132.69" x2="149.14" y2="144.8"/><line class="cls-22" x1="149.14" y1="112.99" x2="149.14" y2="121.66"/><path class="cls-22" d="M100.91,128.09l-2.45,1a4.62,4.62,0,0,0-2.44,4V144.8"/><line class="cls-22" x1="143.96" y1="110.3" x2="115.93" y2="121.88"/><path class="cls-22" d="M144,228.79l-25.25-10.43-5.55-2.29-9.48-3.92L98.46,210A4.6,4.6,0,0,1,96,206v-8.86"/><path class="cls-22" d="M156,228.79l25.26-10.43,5.54-2.29,9.48-3.92L201.5,210a4.58,4.58,0,0,0,2.44-4v-8.86"/><path class="cls-22" d="M199.05,128.09l2.45,1a4.6,4.6,0,0,1,2.44,4V144.8"/><line class="cls-22" x1="156" y1="110.3" x2="184.03" y2="121.88"/><rect class="cls-1" x="10" y="289.3" width="220" height="65"/><rect class="cls-9" x="10" y="289.3" width="220" height="65"/><rect class="cls-24" x="132.5" y="297.3" width="32.47" height="21.65" rx="1.08"/><polygon class="cls-7" points="154.15 304.97 154.15 311.27 148.74 314.44 148.74 308.13 154.15 304.97"/><polygon class="cls-15" points="154.15 304.97 148.74 308.14 143.32 304.97 148.74 301.81 154.15 304.97"/><polygon class="cls-16" points="148.74 308.14 148.74 314.44 143.32 311.27 143.32 304.97 148.74 308.14"/><polygon class="cls-15" points="143.32 311.27 148.74 308.13 148.74 314.44 143.32 311.27"/><polygon class="cls-16" points="154.15 311.27 148.74 308.13 148.74 314.44 154.15 311.27"/><path class="cls-25" d="M155.25,325.5c-3.21-.51-3.34-2.81-3.34-6.55h-6.37c0,3.74-.11,6-3.32,6.55a1.8,1.8,0,0,0-1.6,1.8h16.23A1.79,1.79,0,0,0,155.25,325.5Z"/><rect class="cls-26" x="80" y="297.3" width="32.47" height="21.65" rx="1.08"/><polygon class="cls-7" points="101.65 304.97 101.65 311.27 96.24 314.44 96.24 308.13 101.65 304.97"/><polygon class="cls-15" points="101.65 304.97 96.24 308.14 90.82 304.97 96.24 301.81 101.65 304.97"/><polygon class="cls-16" points="96.24 308.14 96.24 314.44 90.82 311.27 90.82 304.97 96.24 308.14"/><polygon class="cls-15" points="90.82 311.27 96.24 308.13 96.24 314.44 90.82 311.27"/><polygon class="cls-16" points="101.65 311.27 96.24 308.13 96.24 314.44 101.65 311.27"/><path class="cls-27" d="M102.75,325.5c-3.21-.51-3.34-2.81-3.34-6.55H93c0,3.74-.11,6-3.32,6.55a1.8,1.8,0,0,0-1.6,1.8h16.23A1.79,1.79,0,0,0,102.75,325.5Z"/><rect class="cls-28" x="185" y="297.3" width="32.47" height="21.65" rx="1.08"/><polygon class="cls-7" points="206.65 304.97 206.65 311.27 201.24 314.44 201.24 308.13 206.65 304.97"/><polygon class="cls-15" points="206.65 304.97 201.24 308.14 195.82 304.97 201.24 301.81 206.65 304.97"/><polygon class="cls-16" points="201.24 308.14 201.24 314.44 195.82 311.27 195.82 304.97 201.24 308.14"/><polygon class="cls-15" points="195.82 311.27 201.24 308.13 201.24 314.44 195.82 311.27"/><polygon class="cls-16" points="206.65 311.27 201.24 308.13 201.24 314.44 206.65 311.27"/><path class="cls-29" d="M207.75,325.5c-3.21-.51-3.34-2.81-3.34-6.55H198c0,3.74-.11,6-3.32,6.55a1.8,1.8,0,0,0-1.6,1.8h16.23A1.79,1.79,0,0,0,207.75,325.5Z"/><line class="cls-22" x1="149.14" y1="284.6" x2="149.14" y2="296.71"/><line class="cls-22" x1="149.14" y1="262.1" x2="149.14" y2="272.71"/><path class="cls-22" d="M100.91,280l-2.45,1A4.6,4.6,0,0,0,96,285v11.69"/><line class="cls-22" x1="143.96" y1="262.21" x2="121.18" y2="271.62"/><path class="cls-22" d="M195.32,280l2.44,1a4.59,4.59,0,0,1,2.45,4v11.69"/><line class="cls-22" x1="152.27" y1="262.21" x2="175.04" y2="271.62"/></g><g id="text"><path class="cls-30" d="M14.93,382.74l-3.12,8.4H10.73l-3.05-8.4h1.1l2.33,6.66a4.63,4.63,0,0,1,.17.75h0a3.38,3.38,0,0,1,.19-.76l2.38-6.65Z"/><path class="cls-30" d="M16.51,383.62a.6.6,0,0,1-.44-.18.57.57,0,0,1-.18-.44.61.61,0,0,1,.18-.45.6.6,0,0,1,.44-.18.64.64,0,0,1,.45.18.61.61,0,0,1,.18.45.6.6,0,0,1-.18.44A.64.64,0,0,1,16.51,383.62Zm.47,7.52H16v-6h1Z"/><path class="cls-30" d="M22.06,386.12a1.14,1.14,0,0,0-.72-.2,1.24,1.24,0,0,0-1,.58,2.67,2.67,0,0,0-.41,1.58v3.06h-1v-6h1v1.24h0a2.09,2.09,0,0,1,.63-1,1.61,1.61,0,0,1,1.51-.27Z"/><path class="cls-30" d="M25.9,391.08a1.8,1.8,0,0,1-.9.19c-1.05,0-1.57-.58-1.57-1.76V386h-1v-.82h1v-1.46l1-.31v1.77H25.9V386H24.39v3.38a1.49,1.49,0,0,0,.2.87.83.83,0,0,0,.68.25,1,1,0,0,0,.63-.2Z"/><path class="cls-30" d="M32.05,391.14h-1v-.95h0a2,2,0,0,1-1.85,1.09c-1.43,0-2.14-.85-2.14-2.55v-3.59H28v3.44c0,1.26.49,1.89,1.46,1.89a1.47,1.47,0,0,0,1.15-.51,2,2,0,0,0,.46-1.36v-3.46h1Z"/><path class="cls-30" d="M38.29,391.14h-1v-.93h0a2,2,0,0,1-1.85,1.07,2,2,0,0,1-1.4-.47,1.65,1.65,0,0,1-.51-1.26c0-1.12.66-1.77,2-2l1.8-.25q0-1.53-1.23-1.53a3,3,0,0,0-2,.74v-1a3.76,3.76,0,0,1,2-.56c1.41,0,2.11.75,2.11,2.24Zm-1-3-1.44.2a2.25,2.25,0,0,0-1,.33,1,1,0,0,0-.34.84.92.92,0,0,0,.31.72,1.25,1.25,0,0,0,.84.27,1.53,1.53,0,0,0,1.18-.5,1.76,1.76,0,0,0,.46-1.26Z"/><path class="cls-30" d="M41.08,391.14h-1v-8.88h1Z"/><path class="cls-30" d="M53.24,391.14H52l-4.32-6.69a2.94,2.94,0,0,1-.27-.53h0a8.6,8.6,0,0,1,.05,1.15v6.07h-1v-8.4h1.28L52,389.33c.17.28.29.46.34.56h0a8.58,8.58,0,0,1-.06-1.23v-5.92h1Z"/><path class="cls-30" d="M60.15,388.38H55.91a2.19,2.19,0,0,0,.54,1.55,1.85,1.85,0,0,0,1.42.54,3,3,0,0,0,1.86-.66v.9a3.52,3.52,0,0,1-2.09.57,2.54,2.54,0,0,1-2-.81,3.34,3.34,0,0,1-.73-2.3,3.29,3.29,0,0,1,.8-2.29,2.56,2.56,0,0,1,2-.88,2.28,2.28,0,0,1,1.82.76,3.2,3.2,0,0,1,.65,2.12Zm-1-.81a2,2,0,0,0-.4-1.3,1.36,1.36,0,0,0-1.1-.46,1.52,1.52,0,0,0-1.15.49,2.13,2.13,0,0,0-.59,1.27Z"/><path class="cls-30" d="M64.39,391.08a1.76,1.76,0,0,1-.89.19c-1,0-1.58-.58-1.58-1.76V386h-1v-.82h1v-1.46l1-.31v1.77h1.51V386H62.88v3.38a1.41,1.41,0,0,0,.21.87.81.81,0,0,0,.68.25.94.94,0,0,0,.62-.2Z"/><path class="cls-30" d="M73.25,385.14l-1.8,6h-1l-1.23-4.29a3,3,0,0,1-.1-.56h0a2.64,2.64,0,0,1-.12.55l-1.35,4.3h-1l-1.81-6h1l1.25,4.51a3.12,3.12,0,0,1,.08.54h0a2.38,2.38,0,0,1,.1-.55l1.38-4.5h.88l1.24,4.53a3,3,0,0,1,.09.54h0a2.4,2.4,0,0,1,.1-.54l1.22-4.53Z"/><path class="cls-30" d="M76.88,391.28a2.77,2.77,0,0,1-2.12-.84,3.11,3.11,0,0,1-.8-2.23,3.26,3.26,0,0,1,.83-2.36A3,3,0,0,1,77,385a2.71,2.71,0,0,1,2.1.83,3.27,3.27,0,0,1,.75,2.29,3.23,3.23,0,0,1-.81,2.3A2.83,2.83,0,0,1,76.88,391.28Zm.07-5.47a1.81,1.81,0,0,0-1.46.63,2.59,2.59,0,0,0-.54,1.74,2.46,2.46,0,0,0,.54,1.68,1.85,1.85,0,0,0,1.46.61,1.75,1.75,0,0,0,1.43-.6,2.58,2.58,0,0,0,.5-1.72,2.62,2.62,0,0,0-.5-1.73A1.73,1.73,0,0,0,77,385.81Z"/><path class="cls-30" d="M84.54,386.12a1.14,1.14,0,0,0-.72-.2,1.24,1.24,0,0,0-1,.58,2.67,2.67,0,0,0-.41,1.58v3.06h-1v-6h1v1.24h0a2.17,2.17,0,0,1,.63-1,1.61,1.61,0,0,1,1.51-.27Z"/><path class="cls-30" d="M90.58,391.14H89.23l-2.65-2.88h0v2.88h-1v-8.88h1v5.63h0l2.52-2.75h1.26L87.58,388Z"/><path class="cls-30" d="M147.13,332.4,144,340.8h-1.08l-3.05-8.4H141l2.32,6.66a3.77,3.77,0,0,1,.17.75h0a3.38,3.38,0,0,1,.19-.76l2.37-6.65Z"/><path class="cls-30" d="M156.92,340.8h-1v-5.63c0-.45,0-1,.08-1.64h0a5.64,5.64,0,0,1-.25.82l-2.87,6.45h-.48l-2.87-6.41a4.44,4.44,0,0,1-.25-.86h0c0,.34.05.89.05,1.65v5.62h-1v-8.4h1.3l2.58,5.86a7.92,7.92,0,0,1,.39,1h0c.17-.46.31-.81.41-1l2.63-5.84h1.23Z"/><path class="cls-30" d="M94.46,332.4l-3.11,8.4H90.27l-3-8.4h1.1l2.32,6.66a3.77,3.77,0,0,1,.17.75h0a3.38,3.38,0,0,1,.19-.76l2.37-6.65Z"/><path class="cls-30" d="M104.25,340.8h-1v-5.63c0-.45,0-1,.08-1.64h0a5.64,5.64,0,0,1-.25.82l-2.87,6.45h-.48l-2.87-6.41a4.44,4.44,0,0,1-.25-.86h0c0,.34,0,.89,0,1.65v5.62h-.95v-8.4H97l2.58,5.86a7.92,7.92,0,0,1,.39,1h0c.17-.46.31-.81.41-1L103,332.4h1.23Z"/><path class="cls-30" d="M103.58,269.73v5.55h1.08v.88h-1.08v2h-1v-2H98.68v-.83c.37-.41.74-.86,1.11-1.33s.74-.95,1.08-1.43.66-1,.95-1.45a12.5,12.5,0,0,0,.73-1.39Zm-3.82,5.55h2.87v-4.11c-.29.51-.57,1-.83,1.37s-.51.77-.75,1.1-.46.62-.68.89Z"/><path class="cls-30" d="M110.06,269.73v5.55h1.08v.88h-1.08v2h-1v-2h-4v-.83c.37-.41.74-.86,1.11-1.33s.74-.95,1.08-1.43.66-1,1-1.45a12.5,12.5,0,0,0,.73-1.39Zm-3.81,5.55h2.86v-4.11c-.29.51-.57,1-.83,1.37s-.51.77-.75,1.1-.46.62-.68.89Z"/><path class="cls-30" d="M117.14,275.76a2.46,2.46,0,0,1-.21,1,2.25,2.25,0,0,1-.6.8,2.83,2.83,0,0,1-.94.51,3.78,3.78,0,0,1-1.2.18,3.53,3.53,0,0,1-1.91-.45v-1a3.06,3.06,0,0,0,2,.67,2.48,2.48,0,0,0,.79-.11,1.69,1.69,0,0,0,.61-.32,1.39,1.39,0,0,0,.39-.51,1.6,1.6,0,0,0,.14-.67q0-1.65-2.34-1.65h-.7v-.82h.66c1.38,0,2.07-.51,2.07-1.54s-.52-1.43-1.58-1.43a2.7,2.7,0,0,0-1.67.6v-.94a3.66,3.66,0,0,1,1.91-.48,2.93,2.93,0,0,1,1,.15,2.16,2.16,0,0,1,.73.41,1.93,1.93,0,0,1,.47.63,2,2,0,0,1,.17.82,2.06,2.06,0,0,1-1.68,2.13v0a2.78,2.78,0,0,1,.79.21,2,2,0,0,1,.63.42,1.73,1.73,0,0,1,.41.61A1.92,1.92,0,0,1,117.14,275.76Z"/><path class="cls-30" d="M144.53,274.79v5.55h1.08v.88h-1.08v2h-.95v-2h-4v-.83c.37-.42.74-.86,1.11-1.33s.74-.95,1.08-1.43.66-1,1-1.45a13.45,13.45,0,0,0,.73-1.39Zm-3.82,5.55h2.87v-4.11c-.29.51-.57,1-.83,1.37s-.51.77-.75,1.09-.46.63-.68.89Z"/><path class="cls-30" d="M151,274.79v5.55h1.08v.88H151v2h-.95v-2h-3.95v-.83c.37-.42.74-.86,1.11-1.33s.74-.95,1.08-1.43.66-1,.95-1.45a13.45,13.45,0,0,0,.73-1.39Zm-3.82,5.55h2.87v-4.11c-.29.51-.57,1-.83,1.37s-.51.77-.75,1.09-.46.63-.68.89Z"/><path class="cls-30" d="M158.09,280.82a2.5,2.5,0,0,1-.21,1,2.25,2.25,0,0,1-.6.8,2.83,2.83,0,0,1-.94.51,3.78,3.78,0,0,1-1.2.18,3.44,3.44,0,0,1-1.91-.46v-1a3,3,0,0,0,1.94.67,2.81,2.81,0,0,0,.8-.11,1.86,1.86,0,0,0,.61-.32,1.39,1.39,0,0,0,.39-.51,1.65,1.65,0,0,0,.14-.68c0-1.09-.78-1.64-2.35-1.64h-.69v-.82h.66c1.38,0,2.07-.51,2.07-1.54s-.52-1.43-1.58-1.43a2.75,2.75,0,0,0-1.67.59v-.93a3.66,3.66,0,0,1,1.91-.48,2.93,2.93,0,0,1,1,.15,2.16,2.16,0,0,1,.73.41,1.74,1.74,0,0,1,.47.63,2,2,0,0,1,.17.82,2.06,2.06,0,0,1-1.68,2.13v0a2.49,2.49,0,0,1,.79.21,2.17,2.17,0,0,1,.63.42,1.78,1.78,0,0,1,.41.6A2,2,0,0,1,158.09,280.82Z"/><path class="cls-30" d="M181.48,269.73v5.55h1.08v.88h-1.08v2h-.94v-2h-3.95v-.83c.36-.41.73-.86,1.11-1.33s.73-.95,1.07-1.43.66-1,.95-1.45a12.65,12.65,0,0,0,.74-1.39Zm-3.81,5.55h2.87v-4.11c-.3.51-.58,1-.84,1.37s-.51.77-.74,1.1l-.68.89C178.06,274.79,177.86,275,177.67,275.28Z"/><path class="cls-30" d="M188,269.73v5.55H189v.88H188v2H187v-2h-4v-.83c.36-.41.74-.86,1.11-1.33s.73-.95,1.08-1.43.65-1,1-1.45a12.5,12.5,0,0,0,.73-1.39Zm-3.82,5.55H187v-4.11c-.3.51-.57,1-.84,1.37s-.51.77-.74,1.1-.46.62-.68.89Z"/><path class="cls-30" d="M195.05,275.76a2.46,2.46,0,0,1-.21,1,2.4,2.4,0,0,1-.61.8,2.79,2.79,0,0,1-.93.51,3.87,3.87,0,0,1-1.2.18,3.53,3.53,0,0,1-1.91-.45v-1a3,3,0,0,0,1.94.67,2.54,2.54,0,0,0,.8-.11,1.78,1.78,0,0,0,.61-.32,1.39,1.39,0,0,0,.39-.51,1.6,1.6,0,0,0,.14-.67c0-1.1-.79-1.65-2.35-1.65H191v-.82h.67c1.38,0,2.07-.51,2.07-1.54s-.53-1.43-1.58-1.43a2.68,2.68,0,0,0-1.67.6v-.94a3.64,3.64,0,0,1,1.91-.48,2.83,2.83,0,0,1,1,.15,2.21,2.21,0,0,1,.74.41,1.93,1.93,0,0,1,.47.63,2,2,0,0,1,.17.82,2.06,2.06,0,0,1-1.68,2.13v0a3.27,3.27,0,0,1,.79.21,2.31,2.31,0,0,1,.63.42,2,2,0,0,1,.41.61A1.92,1.92,0,0,1,195.05,275.76Z"/><path class="cls-30" d="M143.52,129a2.27,2.27,0,0,1,.1-.67,2.31,2.31,0,0,1,.31-.63,2.65,2.65,0,0,1,.48-.53,2.41,2.41,0,0,1,.66-.38,2.52,2.52,0,0,1-.87-.78,1.89,1.89,0,0,1-.32-1.06,2,2,0,0,1,.68-1.54,2.16,2.16,0,0,1,.75-.44,2.56,2.56,0,0,1,.93-.16,2.67,2.67,0,0,1,.95.16,2.34,2.34,0,0,1,.75.45,2.08,2.08,0,0,1,.49.68,2,2,0,0,1,.17.85,1.81,1.81,0,0,1-.32,1.06,2.46,2.46,0,0,1-.85.78,2.22,2.22,0,0,1,.65.38,2.65,2.65,0,0,1,.48.53,2.6,2.6,0,0,1,.3.63,2.29,2.29,0,0,1,.11.67,2.53,2.53,0,0,1-.2,1,2.11,2.11,0,0,1-.56.78,2.55,2.55,0,0,1-.86.51,3.27,3.27,0,0,1-1.11.18,3.16,3.16,0,0,1-1.09-.18,2.55,2.55,0,0,1-.86-.51,2.13,2.13,0,0,1-.57-.78A2.53,2.53,0,0,1,143.52,129Zm1-.08a2,2,0,0,0,.12.71,1.66,1.66,0,0,0,.34.54,1.55,1.55,0,0,0,.53.34,2,2,0,0,0,.7.12,1.87,1.87,0,0,0,.68-.12,1.49,1.49,0,0,0,.53-.35,1.42,1.42,0,0,0,.36-.53,2,2,0,0,0,.12-.71,1.84,1.84,0,0,0-.12-.66,1.7,1.7,0,0,0-.34-.54,1.8,1.8,0,0,0-.53-.37,1.75,1.75,0,0,0-.7-.13,1.81,1.81,0,0,0-.67.12,1.65,1.65,0,0,0-.54.36,1.69,1.69,0,0,0-.48,1.22Zm.3-3.89a1.42,1.42,0,0,0,.11.55,1.37,1.37,0,0,0,.3.45,1.35,1.35,0,0,0,.44.29,1.38,1.38,0,0,0,1.08,0,1.23,1.23,0,0,0,.44-.3,1.37,1.37,0,0,0,.3-.45,1.24,1.24,0,0,0,.11-.54,1.52,1.52,0,0,0-.1-.57,1.55,1.55,0,0,0-.3-.44,1.32,1.32,0,0,0-.44-.3,1.46,1.46,0,0,0-.55-.11,1.44,1.44,0,0,0-1,.42,1.28,1.28,0,0,0-.28.45A1.42,1.42,0,0,0,144.86,125Z"/><path class="cls-30" d="M155.45,127.08a8.62,8.62,0,0,1-.19,1.87,4.57,4.57,0,0,1-.55,1.38,2.46,2.46,0,0,1-.89.84,2.54,2.54,0,0,1-2.32,0,2.38,2.38,0,0,1-.83-.81,4.22,4.22,0,0,1-.52-1.31,8,8,0,0,1-.17-1.78,9.38,9.38,0,0,1,.18-2,4.32,4.32,0,0,1,.54-1.41,2.36,2.36,0,0,1,2.11-1.15Q155.45,122.78,155.45,127.08Zm-1,.1c0-2.39-.56-3.59-1.7-3.59s-1.8,1.22-1.8,3.65c0,2.27.59,3.4,1.76,3.4S154.46,129.49,154.46,127.18Z"/><path class="cls-30" d="M184.11,129a2.29,2.29,0,0,1,.11-.67,2.6,2.6,0,0,1,.3-.63,2.43,2.43,0,0,1,.49-.53,2.15,2.15,0,0,1,.66-.38,2.36,2.36,0,0,1-.87-.78,1.81,1.81,0,0,1-.32-1.06,2.07,2.07,0,0,1,.18-.86,2.19,2.19,0,0,1,.49-.68,2.16,2.16,0,0,1,.75-.44,2.84,2.84,0,0,1,1.88,0,2.34,2.34,0,0,1,.75.45,1.94,1.94,0,0,1,.49.68,2,2,0,0,1,.18.85,1.89,1.89,0,0,1-.32,1.06,2.49,2.49,0,0,1-.86.78,2.22,2.22,0,0,1,.65.38,2.71,2.71,0,0,1,.49.53,2.6,2.6,0,0,1,.3.63,2.27,2.27,0,0,1,.1.67,2.37,2.37,0,0,1-.2,1,2.11,2.11,0,0,1-.56.78,2.46,2.46,0,0,1-.86.51,3.21,3.21,0,0,1-1.1.18,3.25,3.25,0,0,1-1.1-.18,2.55,2.55,0,0,1-.86-.51,2.11,2.11,0,0,1-.56-.78A2.37,2.37,0,0,1,184.11,129Zm1-.08a2,2,0,0,0,.12.71,1.5,1.5,0,0,0,.34.54,1.38,1.38,0,0,0,.53.34,1.92,1.92,0,0,0,.69.12,1.83,1.83,0,0,0,.68-.12,1.53,1.53,0,0,0,.54-.35,1.4,1.4,0,0,0,.35-.53,1.94,1.94,0,0,0,0-1.37,1.9,1.9,0,0,0-.34-.54,1.73,1.73,0,0,0-.54-.37,1.75,1.75,0,0,0-.7-.13,1.85,1.85,0,0,0-.67.12,1.61,1.61,0,0,0-.53.36,1.58,1.58,0,0,0-.35.53A1.73,1.73,0,0,0,185.16,128.89Zm.3-3.89a1.42,1.42,0,0,0,.1.55,1.77,1.77,0,0,0,.3.45,1.51,1.51,0,0,0,.45.29,1.17,1.17,0,0,0,.53.11,1.26,1.26,0,0,0,.55-.11,1.32,1.32,0,0,0,.44-.3,1.77,1.77,0,0,0,.3-.45,1.41,1.41,0,0,0,.11-.54,1.52,1.52,0,0,0-.11-.57,1.43,1.43,0,0,0-.74-.74,1.42,1.42,0,0,0-.55-.11,1.31,1.31,0,0,0-.56.12,1.23,1.23,0,0,0-.44.3,1.15,1.15,0,0,0-.28.45A1.42,1.42,0,0,0,185.46,125Z"/><path class="cls-30" d="M196,127.08a8,8,0,0,1-.19,1.87,4.33,4.33,0,0,1-.55,1.38,2.43,2.43,0,0,1-.88.84,2.36,2.36,0,0,1-1.19.29,2.3,2.3,0,0,1-1.13-.27,2.49,2.49,0,0,1-.84-.81,4.22,4.22,0,0,1-.51-1.31,7.93,7.93,0,0,1-.18-1.78,8.71,8.71,0,0,1,.19-2,4.32,4.32,0,0,1,.54-1.41,2.36,2.36,0,0,1,2.1-1.15Q196,122.78,196,127.08Zm-1,.1c0-2.39-.57-3.59-1.71-3.59s-1.79,1.22-1.79,3.65c0,2.27.58,3.4,1.76,3.4S195.06,129.49,195.06,127.18Z"/><path class="cls-30" d="M103.82,129a2.29,2.29,0,0,1,.11-.67,2.6,2.6,0,0,1,.3-.63,2.43,2.43,0,0,1,.49-.53,2.22,2.22,0,0,1,.65-.38,2.4,2.4,0,0,1-.86-.78,1.81,1.81,0,0,1-.32-1.06,2.06,2.06,0,0,1,.17-.86,2.22,2.22,0,0,1,.5-.68,2.16,2.16,0,0,1,.75-.44,2.84,2.84,0,0,1,1.88,0,2.34,2.34,0,0,1,.75.45,2.08,2.08,0,0,1,.49.68,2,2,0,0,1,.18.85,1.89,1.89,0,0,1-.32,1.06,2.49,2.49,0,0,1-.86.78,2.22,2.22,0,0,1,.65.38,2.55,2.55,0,0,1,.79,1.16,2.27,2.27,0,0,1,.1.67,2.53,2.53,0,0,1-.2,1,2.11,2.11,0,0,1-.56.78,2.55,2.55,0,0,1-.86.51,3.45,3.45,0,0,1-2.2,0,2.55,2.55,0,0,1-.86-.51A2.25,2.25,0,0,1,104,130,2.53,2.53,0,0,1,103.82,129Zm1-.08a2,2,0,0,0,.12.71,1.66,1.66,0,0,0,.34.54,1.5,1.5,0,0,0,.54.34,1.92,1.92,0,0,0,.69.12,1.87,1.87,0,0,0,.68-.12,1.53,1.53,0,0,0,.54-.35,1.4,1.4,0,0,0,.35-.53,2,2,0,0,0,.13-.71,1.84,1.84,0,0,0-.12-.66,1.73,1.73,0,0,0-.35-.54,1.68,1.68,0,0,0-.53-.37,1.75,1.75,0,0,0-.7-.13,1.85,1.85,0,0,0-.67.12,1.61,1.61,0,0,0-.53.36,1.77,1.77,0,0,0-.36.53A1.93,1.93,0,0,0,104.86,128.89Zm.3-3.89a1.42,1.42,0,0,0,.11.55,1.37,1.37,0,0,0,.3.45,1.6,1.6,0,0,0,.44.29,1.38,1.38,0,0,0,1.08,0,1.37,1.37,0,0,0,.45-.3,1.77,1.77,0,0,0,.3-.45A1.41,1.41,0,0,0,108,125a1.52,1.52,0,0,0-.11-.57,1.43,1.43,0,0,0-.74-.74,1.42,1.42,0,0,0-.55-.11,1.31,1.31,0,0,0-.56.12,1.23,1.23,0,0,0-.44.3,1.17,1.17,0,0,0-.29.45A1.63,1.63,0,0,0,105.16,125Z"/><path class="cls-30" d="M115.75,127.08a8,8,0,0,1-.19,1.87,4.57,4.57,0,0,1-.55,1.38,2.43,2.43,0,0,1-.88.84,2.37,2.37,0,0,1-1.2.29,2.29,2.29,0,0,1-1.12-.27,2.49,2.49,0,0,1-.84-.81,4,4,0,0,1-.51-1.31,7.93,7.93,0,0,1-.18-1.78,9.38,9.38,0,0,1,.18-2,4.56,4.56,0,0,1,.55-1.41,2.34,2.34,0,0,1,.88-.86,2.45,2.45,0,0,1,1.22-.29Q115.75,122.78,115.75,127.08Zm-1,.1c0-2.39-.57-3.59-1.71-3.59s-1.8,1.22-1.8,3.65c0,2.27.59,3.4,1.77,3.4S114.77,129.49,114.77,127.18Z"/><path class="cls-30" d="M199.46,332.4l-3.11,8.4h-1.08l-3.05-8.4h1.1l2.32,6.66a3.77,3.77,0,0,1,.17.75h0a3.38,3.38,0,0,1,.19-.76l2.37-6.65Z"/><path class="cls-30" d="M209.25,340.8h-1v-5.63c0-.45,0-1,.08-1.64h0a5.64,5.64,0,0,1-.25.82l-2.87,6.45h-.48l-2.87-6.41a4.44,4.44,0,0,1-.25-.86h0c0,.34,0,.89,0,1.65v5.62h-.95v-8.4H202l2.58,5.86a7.92,7.92,0,0,1,.39,1h0c.17-.46.31-.81.41-1L208,332.4h1.23Z"/><path class="cls-30" d="M147.13,182.4,144,190.8h-1.08l-3.05-8.4H141l2.32,6.66a3.77,3.77,0,0,1,.17.75h0a3.38,3.38,0,0,1,.19-.76l2.37-6.65Z"/><path class="cls-30" d="M156.92,190.8h-1v-5.63c0-.45,0-1,.08-1.64h0a5.64,5.64,0,0,1-.25.82l-2.87,6.45h-.48l-2.87-6.41a4.44,4.44,0,0,1-.25-.86h0c0,.34.05.89.05,1.65v5.62h-1v-8.4h1.3l2.58,5.86a7.92,7.92,0,0,1,.39,1h0c.17-.46.31-.81.41-1l2.63-5.84h1.23Z"/><path class="cls-30" d="M94.46,182.4l-3.11,8.4H90.27l-3-8.4h1.1l2.32,6.66a3.77,3.77,0,0,1,.17.75h0a3.38,3.38,0,0,1,.19-.76l2.37-6.65Z"/><path class="cls-30" d="M104.25,190.8h-1v-5.63c0-.45,0-1,.08-1.64h0a5.64,5.64,0,0,1-.25.82l-2.87,6.45h-.48l-2.87-6.41a4.44,4.44,0,0,1-.25-.86h0c0,.34,0,.89,0,1.65v5.62h-.95v-8.4H97l2.58,5.86a7.92,7.92,0,0,1,.39,1h0c.17-.46.31-.81.41-1L103,182.4h1.23Z"/><path class="cls-30" d="M199.46,182.4l-3.11,8.4h-1.08l-3.05-8.4h1.1l2.32,6.66a3.77,3.77,0,0,1,.17.75h0a3.38,3.38,0,0,1,.19-.76l2.37-6.65Z"/><path class="cls-30" d="M209.25,190.8h-1v-5.63c0-.45,0-1,.08-1.64h0a5.64,5.64,0,0,1-.25.82l-2.87,6.45h-.48l-2.87-6.41a4.44,4.44,0,0,1-.25-.86h0c0,.34,0,.89,0,1.65v5.62h-.95v-8.4H202l2.58,5.86a7.92,7.92,0,0,1,.39,1h0c.17-.46.31-.81.41-1L208,182.4h1.23Z"/><path class="cls-30" d="M26.09,306.79v-1.16a2.5,2.5,0,0,0,.48.32,3.8,3.8,0,0,0,.59.23,3.39,3.39,0,0,0,.61.15,3.09,3.09,0,0,0,.58.06,2.31,2.31,0,0,0,1.36-.34,1.17,1.17,0,0,0,.44-1,1.13,1.13,0,0,0-.15-.59,1.6,1.6,0,0,0-.41-.46,3.91,3.91,0,0,0-.62-.4l-.78-.4c-.29-.15-.57-.3-.82-.45a3.85,3.85,0,0,1-.66-.51,1.95,1.95,0,0,1-.61-1.44,1.93,1.93,0,0,1,.26-1,2.2,2.2,0,0,1,.66-.7,3,3,0,0,1,.93-.41,4.29,4.29,0,0,1,1.07-.13,4.08,4.08,0,0,1,1.81.3V300a3.29,3.29,0,0,0-1.91-.51,3.47,3.47,0,0,0-.64.06,2,2,0,0,0-.58.22,1.56,1.56,0,0,0-.41.4,1.06,1.06,0,0,0-.15.58,1.22,1.22,0,0,0,.12.56,1.28,1.28,0,0,0,.35.43,3.75,3.75,0,0,0,.57.37l.78.4c.3.15.58.31.85.47a4,4,0,0,1,.71.54,2.27,2.27,0,0,1,.49.67,1.84,1.84,0,0,1,.17.83,2.14,2.14,0,0,1-.24,1.05,2,2,0,0,1-.65.7,2.94,2.94,0,0,1-1,.39,5.22,5.22,0,0,1-1.13.12l-.5,0a4.28,4.28,0,0,1-.59-.1,4.45,4.45,0,0,1-.58-.15A2,2,0,0,1,26.09,306.79Z"/><path class="cls-30" d="M37.6,307.13h-1v-.95h0a2,2,0,0,1-1.85,1.09c-1.43,0-2.15-.85-2.15-2.55v-3.59h1v3.43c0,1.27.48,1.9,1.45,1.9a1.46,1.46,0,0,0,1.16-.52,2,2,0,0,0,.45-1.35v-3.46h1Z"/><path class="cls-30" d="M40.53,306.26h0v.87h-1v-8.88h1v3.93h0A2.27,2.27,0,0,1,42.6,301a2.21,2.21,0,0,1,1.81.8,3.32,3.32,0,0,1,.66,2.16,3.74,3.74,0,0,1-.74,2.42,2.42,2.42,0,0,1-2,.9A2,2,0,0,1,40.53,306.26Zm0-2.42v.84a1.77,1.77,0,0,0,.48,1.26,1.59,1.59,0,0,0,1.23.52,1.6,1.6,0,0,0,1.37-.67,3,3,0,0,0,.49-1.85,2.41,2.41,0,0,0-.46-1.57,1.54,1.54,0,0,0-1.26-.57,1.69,1.69,0,0,0-1.34.58A2.15,2.15,0,0,0,40.51,303.84Z"/><path class="cls-30" d="M51.59,307.13h-1v-3.42c0-1.28-.46-1.91-1.39-1.91a1.5,1.5,0,0,0-1.19.54,2,2,0,0,0-.48,1.37v3.42h-1v-6h1v1h0a2.16,2.16,0,0,1,2-1.14,1.82,1.82,0,0,1,1.5.64,2.79,2.79,0,0,1,.52,1.83Z"/><path class="cls-30" d="M58.24,304.37H54a2.3,2.3,0,0,0,.54,1.55,1.87,1.87,0,0,0,1.42.54,2.91,2.91,0,0,0,1.86-.67v.91a3.5,3.5,0,0,1-2.09.57,2.53,2.53,0,0,1-2-.82,3.35,3.35,0,0,1-.72-2.3,3.28,3.28,0,0,1,.79-2.28,2.54,2.54,0,0,1,2-.88,2.24,2.24,0,0,1,1.82.76,3.18,3.18,0,0,1,.65,2.12Zm-1-.81a1.91,1.91,0,0,0-.4-1.3,1.36,1.36,0,0,0-1.1-.46,1.56,1.56,0,0,0-1.15.48,2.25,2.25,0,0,0-.59,1.28Z"/><path class="cls-30" d="M62.49,307.07a1.82,1.82,0,0,1-.9.19c-1.05,0-1.58-.59-1.58-1.76V302H59v-.82h1v-1.46l1-.32v1.78h1.51V302H61v3.38a1.38,1.38,0,0,0,.2.86.83.83,0,0,0,.68.26,1.05,1.05,0,0,0,.63-.2Z"/><path class="cls-30" d="M68,301.41l-3.56,4.9h3.52v.82H63v-.3L66.55,302H63.34v-.82H68Z"/><path class="cls-30" d="M33,312.81a.59.59,0,0,1-.44-.18.56.56,0,0,1-.19-.44.63.63,0,0,1,.63-.63.6.6,0,0,1,.44.18.58.58,0,0,1,.19.45.59.59,0,0,1-.19.44A.6.6,0,0,1,33,312.81Zm.46,7.52h-1v-6h1Z"/><path class="cls-30" d="M40.4,320.33h-1v-3.42c0-1.28-.46-1.91-1.39-1.91a1.54,1.54,0,0,0-1.2.54,2,2,0,0,0-.47,1.37v3.42h-1v-6h1v1h0a2.16,2.16,0,0,1,2-1.14,1.83,1.83,0,0,1,1.51.64,2.79,2.79,0,0,1,.52,1.83Z"/><path class="cls-30" d="M50.64,320.33h-1v-1h0a2.23,2.23,0,0,1-2.06,1.16,2.25,2.25,0,0,1-1.81-.8,3.33,3.33,0,0,1-.68-2.2,3.57,3.57,0,0,1,.75-2.38,2.48,2.48,0,0,1,2-.9,1.91,1.91,0,0,1,1.8,1h0v-3.71h1Zm-1-2.71v-.89a1.73,1.73,0,0,0-.48-1.23A1.62,1.62,0,0,0,48,315a1.66,1.66,0,0,0-1.38.64,2.87,2.87,0,0,0-.5,1.78,2.54,2.54,0,0,0,.48,1.64,1.59,1.59,0,0,0,1.3.6,1.63,1.63,0,0,0,1.3-.58A2.11,2.11,0,0,0,49.68,317.62Z"/><path class="cls-30" d="M57.42,317.57H53.19a2.21,2.21,0,0,0,.54,1.55,1.85,1.85,0,0,0,1.41.54A2.94,2.94,0,0,0,57,319v.91a3.52,3.52,0,0,1-2.09.57,2.52,2.52,0,0,1-2-.82,3.81,3.81,0,0,1,.07-4.58,2.51,2.51,0,0,1,2-.88,2.25,2.25,0,0,1,1.82.76,3.18,3.18,0,0,1,.64,2.12Zm-1-.81a2,2,0,0,0-.4-1.3,1.37,1.37,0,0,0-1.1-.46,1.55,1.55,0,0,0-1.15.48,2.19,2.19,0,0,0-.59,1.28Z"/><path class="cls-30" d="M62,315.3a1.18,1.18,0,0,0-.73-.19,1.23,1.23,0,0,0-1,.58,2.72,2.72,0,0,0-.41,1.58v3.06h-1v-6h1v1.24h0a2.12,2.12,0,0,1,.63-1,1.42,1.42,0,0,1,.94-.36,1.46,1.46,0,0,1,.58.09Z"/><path class="cls-30" d="M26.91,330.13q0,3.54-3.2,3.54t-3.06-3.4v-5.14h1v5.07c0,1.72.73,2.59,2.18,2.59s2.1-.84,2.1-2.5v-5.16h1Z"/><path class="cls-30" d="M33.87,333.53h-1v-3.42c0-1.28-.47-1.91-1.4-1.91a1.5,1.5,0,0,0-1.19.54,2,2,0,0,0-.47,1.37v3.42h-1v-6h1v1h0a2.17,2.17,0,0,1,2-1.14,1.83,1.83,0,0,1,1.51.64,2.85,2.85,0,0,1,.52,1.83Z"/><path class="cls-30" d="M38.47,333.47a1.76,1.76,0,0,1-.89.19c-1,0-1.58-.59-1.58-1.76v-3.55H35v-.82h1v-1.46l1-.32v1.78h1.51v.82H37v3.38a1.37,1.37,0,0,0,.21.86.81.81,0,0,0,.68.26,1,1,0,0,0,.62-.2Z"/><path class="cls-30" d="M44.59,330.77H40.35a2.3,2.3,0,0,0,.54,1.55,1.88,1.88,0,0,0,1.42.54,2.94,2.94,0,0,0,1.87-.67v.91a3.53,3.53,0,0,1-2.1.57,2.51,2.51,0,0,1-2-.82,3.83,3.83,0,0,1,.06-4.58,2.54,2.54,0,0,1,2-.88,2.26,2.26,0,0,1,1.83.76,3.18,3.18,0,0,1,.64,2.12Zm-1-.81a2,2,0,0,0-.4-1.3,1.37,1.37,0,0,0-1.1-.46,1.57,1.57,0,0,0-1.16.48,2.24,2.24,0,0,0-.58,1.28Z"/><path class="cls-30" d="M49.19,328.5a1.2,1.2,0,0,0-.73-.19,1.23,1.23,0,0,0-1,.58,2.64,2.64,0,0,0-.41,1.58v3.06h-1v-6h1v1.24h0a2.12,2.12,0,0,1,.63-1,1.4,1.4,0,0,1,.94-.36,1.5,1.5,0,0,1,.58.09Z"/><path class="cls-30" d="M55.22,333.53h-1v-3.42c0-1.28-.47-1.91-1.39-1.91a1.52,1.52,0,0,0-1.2.54,2,2,0,0,0-.47,1.37v3.42h-1v-6h1v1h0a2.17,2.17,0,0,1,2-1.14,1.83,1.83,0,0,1,1.51.64,2.79,2.79,0,0,1,.52,1.83Z"/><path class="cls-30" d="M61.87,330.77H57.63a2.21,2.21,0,0,0,.54,1.55,1.85,1.85,0,0,0,1.42.54,2.93,2.93,0,0,0,1.86-.67v.91a3.52,3.52,0,0,1-2.09.57,2.52,2.52,0,0,1-2-.82,3.36,3.36,0,0,1-.73-2.3,3.29,3.29,0,0,1,.8-2.28,2.53,2.53,0,0,1,2-.88,2.25,2.25,0,0,1,1.82.76,3.18,3.18,0,0,1,.65,2.12Zm-1-.81a2,2,0,0,0-.4-1.3,1.36,1.36,0,0,0-1.1-.46,1.55,1.55,0,0,0-1.15.48,2.19,2.19,0,0,0-.59,1.28Z"/><path class="cls-30" d="M68.31,333.53h-1v-3.46c0-1.25-.46-1.87-1.39-1.87a1.53,1.53,0,0,0-1.19.54,2,2,0,0,0-.48,1.39v3.4h-1v-8.88h1v3.88h0a2.19,2.19,0,0,1,2-1.14c1.36,0,2,.81,2,2.44Z"/><path class="cls-30" d="M73.2,330.57H70v-.76h3.2Z"/><path class="cls-30" d="M23.63,346.73h-1v-3.45a2.65,2.65,0,0,0-.31-1.44,1.18,1.18,0,0,0-1-.44,1.28,1.28,0,0,0-1,.56,2.12,2.12,0,0,0-.43,1.35v3.42h-1v-3.56c0-1.18-.46-1.77-1.37-1.77a1.24,1.24,0,0,0-1,.53,2.2,2.2,0,0,0-.41,1.38v3.42h-1v-6h1v.95h0A2,2,0,0,1,18,340.59a1.73,1.73,0,0,1,1.07.34,1.81,1.81,0,0,1,.63.9,2.13,2.13,0,0,1,2-1.24c1.32,0,2,.81,2,2.44Z"/><path class="cls-30" d="M30.28,344H26a2.3,2.3,0,0,0,.54,1.55,1.88,1.88,0,0,0,1.42.54,2.89,2.89,0,0,0,1.86-.67v.91a3.47,3.47,0,0,1-2.09.57,2.53,2.53,0,0,1-2-.82,3.35,3.35,0,0,1-.72-2.3,3.28,3.28,0,0,1,.79-2.28,2.54,2.54,0,0,1,2-.88,2.22,2.22,0,0,1,1.82.76,3.18,3.18,0,0,1,.65,2.12Zm-1-.81a1.91,1.91,0,0,0-.4-1.3,1.36,1.36,0,0,0-1.1-.46,1.56,1.56,0,0,0-1.15.48,2.25,2.25,0,0,0-.59,1.28Z"/><path class="cls-30" d="M36.72,346.73h-1v-3.42c0-1.28-.46-1.91-1.39-1.91a1.5,1.5,0,0,0-1.19.54,2,2,0,0,0-.47,1.37v3.42h-1v-6h1v1h0a2.16,2.16,0,0,1,2-1.14,1.83,1.83,0,0,1,1.5.63,2.84,2.84,0,0,1,.52,1.84Z"/><path class="cls-30" d="M38.18,346.51v-1a2.84,2.84,0,0,0,1.73.58c.85,0,1.27-.28,1.27-.84a.76.76,0,0,0-.11-.41,1.17,1.17,0,0,0-.29-.3,3,3,0,0,0-.44-.23l-.53-.21a6.76,6.76,0,0,1-.7-.32,2.55,2.55,0,0,1-.51-.36,1.52,1.52,0,0,1-.3-.46,1.66,1.66,0,0,1-.1-.61,1.38,1.38,0,0,1,.19-.74,1.78,1.78,0,0,1,.51-.55,2.26,2.26,0,0,1,.74-.33,3.59,3.59,0,0,1,2.25.16v1a2.71,2.71,0,0,0-1.53-.43,1.75,1.75,0,0,0-.48.06,1.15,1.15,0,0,0-.37.17.68.68,0,0,0-.24.27.67.67,0,0,0-.09.34.75.75,0,0,0,.09.39.81.81,0,0,0,.24.29,2.48,2.48,0,0,0,.4.22l.54.21c.26.11.5.21.71.32a2.82,2.82,0,0,1,.54.36,1.41,1.41,0,0,1,.34.47,1.46,1.46,0,0,1,.12.62,1.5,1.5,0,0,1-.19.78,1.61,1.61,0,0,1-.53.54,2.3,2.3,0,0,1-.75.32,3.82,3.82,0,0,1-.9.11A3.41,3.41,0,0,1,38.18,346.51Z"/><path class="cls-30" d="M43.29,346.51v-1a2.82,2.82,0,0,0,1.73.58q1.26,0,1.26-.84a.68.68,0,0,0-.11-.41,1.17,1.17,0,0,0-.29-.3,2.86,2.86,0,0,0-.43-.23l-.54-.21c-.26-.11-.5-.21-.7-.32a2.22,2.22,0,0,1-.5-.36,1.38,1.38,0,0,1-.31-.46,1.66,1.66,0,0,1-.1-.61,1.38,1.38,0,0,1,.19-.74A1.7,1.7,0,0,1,44,341a2.21,2.21,0,0,1,.73-.33,3.49,3.49,0,0,1,.86-.11,3.41,3.41,0,0,1,1.39.27v1a2.7,2.7,0,0,0-1.52-.43,1.88,1.88,0,0,0-.49.06,1.26,1.26,0,0,0-.37.17.88.88,0,0,0-.24.27.67.67,0,0,0-.09.34.75.75,0,0,0,.09.39,1,1,0,0,0,.25.29,2.11,2.11,0,0,0,.4.22l.53.21c.26.11.5.21.71.32a2.53,2.53,0,0,1,.54.36,1.37,1.37,0,0,1,.47,1.09,1.51,1.51,0,0,1-.2.78,1.68,1.68,0,0,1-.52.54,2.35,2.35,0,0,1-.76.32,3.76,3.76,0,0,1-.9.11A3.37,3.37,0,0,1,43.29,346.51Z"/><path class="cls-30" d="M52.84,346.45a3.08,3.08,0,0,1-1.64.42,2.75,2.75,0,0,1-2.07-.83,3.06,3.06,0,0,1-.79-2.17,3.35,3.35,0,0,1,.85-2.38,3,3,0,0,1,2.27-.9,3.27,3.27,0,0,1,1.4.29v1a2.42,2.42,0,0,0-1.43-.47,1.92,1.92,0,0,0-1.51.66,2.5,2.5,0,0,0-.59,1.73,2.36,2.36,0,0,0,.55,1.66,1.91,1.91,0,0,0,1.49.61,2.38,2.38,0,0,0,1.47-.52Z"/><path class="cls-30" d="M59.29,346.73h-1v-3.46c0-1.25-.47-1.87-1.4-1.87a1.53,1.53,0,0,0-1.18.54,2,2,0,0,0-.48,1.39v3.4h-1v-8.88h1v3.88h0a2.18,2.18,0,0,1,2-1.14c1.35,0,2,.81,2,2.44Z"/><path class="cls-30" d="M61.6,339.21a.63.63,0,0,1,0-1.25.61.61,0,0,1,.45.18.58.58,0,0,1,.19.44.56.56,0,0,1-.19.44A.58.58,0,0,1,61.6,339.21Zm.47,7.52h-1v-6h1Z"/><path class="cls-30" d="M68.12,346.45a3.1,3.1,0,0,1-1.64.42,2.73,2.73,0,0,1-2.07-.83,3,3,0,0,1-.79-2.17,3.3,3.3,0,0,1,.85-2.38,3,3,0,0,1,2.27-.9,3.2,3.2,0,0,1,1.39.29v1a2.38,2.38,0,0,0-1.43-.47,2,2,0,0,0-1.51.66,2.5,2.5,0,0,0-.58,1.73,2.36,2.36,0,0,0,.55,1.66,1.89,1.89,0,0,0,1.48.61,2.39,2.39,0,0,0,1.48-.52Z"/><path class="cls-30" d="M74.57,346.73h-1v-3.46c0-1.25-.47-1.87-1.4-1.87a1.51,1.51,0,0,0-1.18.54,2,2,0,0,0-.48,1.39v3.4h-1v-8.88h1v3.88h0a2.18,2.18,0,0,1,2-1.14c1.35,0,2,.81,2,2.44Z"/><path class="cls-30" d="M79.17,346.67a1.76,1.76,0,0,1-.89.19c-1,0-1.58-.59-1.58-1.76v-3.55h-1v-.82h1v-1.47l1-.31v1.78h1.51v.82H77.66v3.38a1.37,1.37,0,0,0,.21.86.81.81,0,0,0,.68.26,1,1,0,0,0,.62-.2Z"/><path class="cls-30" d="M123.93,46.79H121.5V54.3h-1V46.79H118.1V45.9h5.83Z"/><path class="cls-30" d="M130.42,54a4.89,4.89,0,0,1-2.32.49,3.74,3.74,0,0,1-2.87-1.15,4.26,4.26,0,0,1-1.08-3A4.48,4.48,0,0,1,125.37,47a4.08,4.08,0,0,1,3.07-1.24,4.91,4.91,0,0,1,2,.35v1a4.05,4.05,0,0,0-2-.5,3,3,0,0,0-2.35,1,3.62,3.62,0,0,0-.9,2.58,3.47,3.47,0,0,0,.84,2.45,2.86,2.86,0,0,0,2.21.91,4.2,4.2,0,0,0,2.19-.56Z"/><path class="cls-30" d="M133.13,51.13V54.3h-1V45.9h2.31a3,3,0,0,1,2.09.66,2.31,2.31,0,0,1,.74,1.85,2.54,2.54,0,0,1-.82,2,3.18,3.18,0,0,1-2.22.76Zm0-4.34v3.45h1a2.33,2.33,0,0,0,1.56-.47,1.67,1.67,0,0,0,.53-1.31c0-1.11-.65-1.67-2-1.67Z"/><path class="cls-30" d="M141.82,51.34h-3.2v-.76h3.2Z"/><path class="cls-30" d="M144.67,51.13V54.3h-1V45.9H146a3,3,0,0,1,2.09.66,2.34,2.34,0,0,1,.74,1.85,2.55,2.55,0,0,1-.83,2,3.16,3.16,0,0,1-2.22.76Zm0-4.34v3.45h1a2.33,2.33,0,0,0,1.56-.47,1.64,1.64,0,0,0,.54-1.31c0-1.11-.66-1.67-2-1.67Z"/><path class="cls-30" d="M152.35,54.44a2.79,2.79,0,0,1-2.12-.84,3.1,3.1,0,0,1-.79-2.23,3.26,3.26,0,0,1,.82-2.36,3,3,0,0,1,2.24-.85,2.69,2.69,0,0,1,2.09.83,3.27,3.27,0,0,1,.75,2.29,3.23,3.23,0,0,1-.81,2.3A2.83,2.83,0,0,1,152.35,54.44Zm.07-5.47a1.83,1.83,0,0,0-1.46.63,2.59,2.59,0,0,0-.54,1.74A2.41,2.41,0,0,0,151,53a1.85,1.85,0,0,0,1.45.62,1.78,1.78,0,0,0,1.44-.61,2.63,2.63,0,0,0,.5-1.72,2.68,2.68,0,0,0-.5-1.73A1.75,1.75,0,0,0,152.42,49Z"/><path class="cls-30" d="M160,49.28a1.18,1.18,0,0,0-.73-.2,1.25,1.25,0,0,0-1,.58,2.74,2.74,0,0,0-.41,1.58V54.3h-1v-6h1v1.24h0a2.17,2.17,0,0,1,.63-1,1.46,1.46,0,0,1,.94-.35,1.71,1.71,0,0,1,.58.08Z"/><path class="cls-30" d="M163.86,54.24a1.82,1.82,0,0,1-.9.19c-1.05,0-1.58-.58-1.58-1.76V49.12h-1V48.3h1V46.84l1-.31V48.3h1.51v.82h-1.51V52.5a1.41,1.41,0,0,0,.2.87.82.82,0,0,0,.68.25,1,1,0,0,0,.63-.2Z"/><path class="cls-30" d="M168,52a2.22,2.22,0,0,1,.1-.67,2.29,2.29,0,0,1,.3-.63,2.45,2.45,0,0,1,.49-.53,2.4,2.4,0,0,1,.66-.39,2.52,2.52,0,0,1-.87-.78,1.89,1.89,0,0,1-.32-1.06,2,2,0,0,1,.18-.85,2.08,2.08,0,0,1,.49-.68,2.34,2.34,0,0,1,.75-.45,2.84,2.84,0,0,1,1.88,0,2.2,2.2,0,0,1,.75.46,2,2,0,0,1,.5.68,2.14,2.14,0,0,1,.17.84,1.89,1.89,0,0,1-.32,1.06,2.49,2.49,0,0,1-.86.78,2.34,2.34,0,0,1,.65.39,2.22,2.22,0,0,1,.49.53,2.29,2.29,0,0,1,.3.63,2.24,2.24,0,0,1,.11.67,2.56,2.56,0,0,1-.2,1,2.43,2.43,0,0,1-.56.78,2.5,2.5,0,0,1-.87.51,3.21,3.21,0,0,1-1.1.18,3.25,3.25,0,0,1-1.1-.18,2.65,2.65,0,0,1-.86-.51,2.29,2.29,0,0,1-.56-.78A2.4,2.4,0,0,1,168,52Zm1-.08a2,2,0,0,0,.12.71,1.5,1.5,0,0,0,.34.54,1.61,1.61,0,0,0,.53.34,1.94,1.94,0,0,0,.7.12,1.91,1.91,0,0,0,.68-.12,1.75,1.75,0,0,0,.53-.35,1.53,1.53,0,0,0,.35-.54,1.91,1.91,0,0,0,0-1.36,1.5,1.5,0,0,0-.34-.54,1.58,1.58,0,0,0-.54-.37,1.7,1.7,0,0,0-.69-.14,1.6,1.6,0,0,0-.67.13,1.54,1.54,0,0,0-.89.89A1.73,1.73,0,0,0,169.05,51.88Zm.3-3.9a1.26,1.26,0,0,0,.11.55,1.51,1.51,0,0,0,.29.45,1.42,1.42,0,0,0,1,.41,1.33,1.33,0,0,0,1-.42,1.23,1.23,0,0,0,.3-.44,1.42,1.42,0,0,0,.11-.55,1.47,1.47,0,0,0-.11-.56,1.27,1.27,0,0,0-.74-.74,1.24,1.24,0,0,0-.54-.11,1.48,1.48,0,0,0-.57.11,1.23,1.23,0,0,0-.44.3,1.31,1.31,0,0,0-.28.45A1.45,1.45,0,0,0,169.35,48Z"/><path class="cls-30" d="M179.94,50.07a8.75,8.75,0,0,1-.19,1.87,4.41,4.41,0,0,1-.55,1.37,2.37,2.37,0,0,1-2.08,1.14,2.22,2.22,0,0,1-2-1.09,4.12,4.12,0,0,1-.52-1.31,7.93,7.93,0,0,1-.18-1.78,9.3,9.3,0,0,1,.19-1.94,4.3,4.3,0,0,1,.54-1.42,2.36,2.36,0,0,1,.89-.86,2.52,2.52,0,0,1,1.21-.29Q179.95,45.76,179.94,50.07Zm-1,.09c0-2.39-.57-3.59-1.7-3.59s-1.8,1.22-1.8,3.66c0,2.26.59,3.4,1.76,3.4S179,52.47,179,50.16Z"/><path class="cls-30" d="M23.15,162.24v-1.16a2.83,2.83,0,0,0,.48.31,3,3,0,0,0,.59.24,6.23,6.23,0,0,0,.62.15,3.88,3.88,0,0,0,.57.05,2.29,2.29,0,0,0,1.36-.33,1.15,1.15,0,0,0,.45-1,1.16,1.16,0,0,0-.15-.6,1.79,1.79,0,0,0-.42-.46,3.91,3.91,0,0,0-.62-.39l-.78-.41a9.13,9.13,0,0,1-.82-.45,3.81,3.81,0,0,1-.66-.5,2.06,2.06,0,0,1-.44-.62,1.94,1.94,0,0,1-.16-.82,1.9,1.9,0,0,1,.25-1,2.21,2.21,0,0,1,.66-.7,3.08,3.08,0,0,1,.94-.41,5,5,0,0,1,2.88.16v1.11a3.35,3.35,0,0,0-1.92-.52,3.58,3.58,0,0,0-.64.07,1.93,1.93,0,0,0-.57.22,1.18,1.18,0,0,0-.41.39,1,1,0,0,0-.16.59,1.25,1.25,0,0,0,.12.56,1.38,1.38,0,0,0,.35.42,3.76,3.76,0,0,0,.57.38l.78.4c.3.15.59.3.86.47a3.51,3.51,0,0,1,.7.54,2.36,2.36,0,0,1,.49.66,1.89,1.89,0,0,1,.18.84,2,2,0,0,1-.25,1,2.07,2.07,0,0,1-.65.7,3,3,0,0,1-1,.39,5.24,5.24,0,0,1-1.14.12l-.49,0-.6-.1a4.91,4.91,0,0,1-.58-.15A2,2,0,0,1,23.15,162.24Z"/><path class="cls-30" d="M34.66,162.58h-1v-1h0a2,2,0,0,1-1.85,1.09c-1.43,0-2.14-.85-2.14-2.56v-3.58h.95V160c0,1.27.49,1.9,1.45,1.9a1.46,1.46,0,0,0,1.16-.52A2,2,0,0,0,33.7,160v-3.45h1Z"/><path class="cls-30" d="M37.59,161.71h0v.87h-1v-8.89h1v3.94h0a2.28,2.28,0,0,1,2.08-1.19,2.16,2.16,0,0,1,1.8.8,3.32,3.32,0,0,1,.66,2.16,3.76,3.76,0,0,1-.73,2.41,2.44,2.44,0,0,1-2,.91A2,2,0,0,1,37.59,161.71Zm0-2.42v.84a1.8,1.8,0,0,0,.48,1.26,1.73,1.73,0,0,0,2.6-.15,3,3,0,0,0,.49-1.86,2.43,2.43,0,0,0-.46-1.57,1.53,1.53,0,0,0-1.25-.57,1.71,1.71,0,0,0-1.35.59A2.13,2.13,0,0,0,37.57,159.29Z"/><path class="cls-30" d="M48.66,162.58h-1v-3.43c0-1.27-.46-1.91-1.39-1.91a1.51,1.51,0,0,0-1.19.55,2,2,0,0,0-.47,1.36v3.43h-1v-6h1v1h0a2.15,2.15,0,0,1,2-1.13,1.83,1.83,0,0,1,1.5.63,2.84,2.84,0,0,1,.53,1.84Z"/><path class="cls-30" d="M55.3,159.82H51.06a2.27,2.27,0,0,0,.54,1.54,1.85,1.85,0,0,0,1.42.55,2.89,2.89,0,0,0,1.86-.67v.9a3.41,3.41,0,0,1-2.09.58,2.56,2.56,0,0,1-2-.82,3.37,3.37,0,0,1-.72-2.3,3.28,3.28,0,0,1,.79-2.28,2.54,2.54,0,0,1,2-.88,2.26,2.26,0,0,1,1.83.76,3.17,3.17,0,0,1,.64,2.11Zm-1-.82a2,2,0,0,0-.41-1.29,1.36,1.36,0,0,0-1.09-.47,1.58,1.58,0,0,0-1.16.49,2.24,2.24,0,0,0-.58,1.27Z"/><path class="cls-30" d="M59.55,162.52a1.94,1.94,0,0,1-.9.19c-1,0-1.57-.59-1.57-1.76V157.4H56v-.82h1v-1.47l1-.31v1.78h1.51v.82H58v3.38a1.45,1.45,0,0,0,.2.86.84.84,0,0,0,.68.26,1.05,1.05,0,0,0,.63-.2Z"/><path class="cls-30" d="M65,156.85l-3.55,4.91H65v.82H60.06v-.3l3.56-4.88H60.4v-.82H65Z"/><path class="cls-30" d="M30.06,168.25a.64.64,0,0,1-.44-.17.65.65,0,0,1,0-.9.6.6,0,0,1,.44-.17.63.63,0,0,1,.45.17.61.61,0,0,1,.18.45.6.6,0,0,1-.18.44A.64.64,0,0,1,30.06,168.25Zm.47,7.53h-1v-6h1Z"/><path class="cls-30" d="M37.46,175.78h-1v-3.43c0-1.27-.46-1.91-1.39-1.91a1.51,1.51,0,0,0-1.19.55,2,2,0,0,0-.48,1.36v3.43h-1v-6h1v1h0a2.17,2.17,0,0,1,2-1.13,1.83,1.83,0,0,1,1.5.63,2.84,2.84,0,0,1,.52,1.84Z"/><path class="cls-30" d="M47.71,175.78h-1v-1h0a2.21,2.21,0,0,1-2.06,1.16,2.24,2.24,0,0,1-1.81-.81,3.31,3.31,0,0,1-.67-2.19,3.62,3.62,0,0,1,.75-2.39,2.48,2.48,0,0,1,2-.89,1.91,1.91,0,0,1,1.8,1h0v-3.72h1Zm-1-2.72v-.88a1.7,1.7,0,0,0-.48-1.23,1.61,1.61,0,0,0-1.22-.51,1.68,1.68,0,0,0-1.39.65,2.85,2.85,0,0,0-.5,1.78,2.56,2.56,0,0,0,.48,1.64,1.6,1.6,0,0,0,1.3.6,1.65,1.65,0,0,0,1.31-.58A2.2,2.2,0,0,0,46.75,173.06Z"/><path class="cls-30" d="M54.49,173H50.25a2.26,2.26,0,0,0,.54,1.54,1.84,1.84,0,0,0,1.42.55,2.93,2.93,0,0,0,1.86-.67v.9a3.43,3.43,0,0,1-2.09.58,2.52,2.52,0,0,1-2-.82,3.36,3.36,0,0,1-.73-2.3,3.29,3.29,0,0,1,.8-2.28,2.53,2.53,0,0,1,2-.88,2.25,2.25,0,0,1,1.82.76,3.17,3.17,0,0,1,.65,2.11Zm-1-.82a2,2,0,0,0-.4-1.29,1.36,1.36,0,0,0-1.1-.47,1.56,1.56,0,0,0-1.15.49,2.25,2.25,0,0,0-.59,1.27Z"/><path class="cls-30" d="M59.08,170.75a1.18,1.18,0,0,0-.73-.19,1.2,1.2,0,0,0-1,.58,2.62,2.62,0,0,0-.42,1.58v3.06H56v-6h1V171h0a2,2,0,0,1,.62-1,1.43,1.43,0,0,1,.95-.36,1.65,1.65,0,0,1,.57.08Z"/><path class="cls-30" d="M24.48,180.57,22.11,189H21l-1.73-6.14a3.87,3.87,0,0,1-.13-.86h0a3.89,3.89,0,0,1-.15.84L17.17,189H16l-2.46-8.41h1.08L16.44,187a4.6,4.6,0,0,1,.14.84h0a5.39,5.39,0,0,1,.18-.84l1.86-6.45h.94l1.78,6.5a3.9,3.9,0,0,1,.14.78h0a4.35,4.35,0,0,1,.16-.81l1.71-6.47Z"/><path class="cls-30" d="M30,186.22H25.73a2.16,2.16,0,0,0,.54,1.54,1.82,1.82,0,0,0,1.41.55,2.94,2.94,0,0,0,1.87-.67v.9a3.45,3.45,0,0,1-2.09.58,2.52,2.52,0,0,1-2-.82,3.83,3.83,0,0,1,.06-4.58,2.55,2.55,0,0,1,2-.88,2.25,2.25,0,0,1,1.82.76,3.17,3.17,0,0,1,.64,2.11Zm-1-.82a2,2,0,0,0-.4-1.29,1.37,1.37,0,0,0-1.1-.46,1.59,1.59,0,0,0-1.16.48,2.24,2.24,0,0,0-.58,1.27Z"/><path class="cls-30" d="M32.41,188.11h0V189h-1v-8.89h1V184h0a2.28,2.28,0,0,1,2.08-1.19,2.16,2.16,0,0,1,1.8.8A3.32,3.32,0,0,1,37,185.8a3.74,3.74,0,0,1-.73,2.41,2.44,2.44,0,0,1-2,.91A2,2,0,0,1,32.41,188.11Zm0-2.42v.84a1.8,1.8,0,0,0,.48,1.26,1.59,1.59,0,0,0,1.23.52,1.6,1.6,0,0,0,1.37-.67,3,3,0,0,0,.49-1.86,2.43,2.43,0,0,0-.46-1.57,1.53,1.53,0,0,0-1.25-.56,1.7,1.7,0,0,0-1.35.58A2.13,2.13,0,0,0,32.39,185.69Z"/><path class="cls-30" d="M38.13,188.76v-1a2.84,2.84,0,0,0,1.73.58c.84,0,1.27-.28,1.27-.84a.76.76,0,0,0-.11-.41,1.07,1.07,0,0,0-.3-.3,2.44,2.44,0,0,0-.43-.23l-.54-.21-.7-.32a2.16,2.16,0,0,1-.5-.37,1.19,1.19,0,0,1-.3-.46,1.57,1.57,0,0,1-.11-.6,1.45,1.45,0,0,1,.2-.75,1.87,1.87,0,0,1,.51-.54,2.26,2.26,0,0,1,.74-.33,3,3,0,0,1,.85-.11,3.41,3.41,0,0,1,1.39.27v1a2.68,2.68,0,0,0-1.52-.43,1.75,1.75,0,0,0-.48.06,1.33,1.33,0,0,0-.38.17.78.78,0,0,0-.24.27.74.74,0,0,0-.08.34.87.87,0,0,0,.08.39.83.83,0,0,0,.25.28,2.11,2.11,0,0,0,.4.23l.53.21a6.17,6.17,0,0,1,.72.32,2.12,2.12,0,0,1,.54.36,1.38,1.38,0,0,1,.34.46,1.54,1.54,0,0,1,.12.63,1.51,1.51,0,0,1-.2.78,1.67,1.67,0,0,1-.52.54,2.49,2.49,0,0,1-.76.32,3.68,3.68,0,0,1-.89.11A3.39,3.39,0,0,1,38.13,188.76Z"/><path class="cls-30" d="M47.69,188.7a3.1,3.1,0,0,1-1.64.42,2.69,2.69,0,0,1-2.07-.84,3,3,0,0,1-.79-2.16,3.3,3.3,0,0,1,.85-2.38,3,3,0,0,1,2.27-.9,3.09,3.09,0,0,1,1.39.29v1a2.46,2.46,0,0,0-1.43-.46,1.93,1.93,0,0,0-1.51.65,2.53,2.53,0,0,0-.59,1.74,2.38,2.38,0,0,0,.56,1.66,1.89,1.89,0,0,0,1.48.61,2.39,2.39,0,0,0,1.48-.52Z"/><path class="cls-30" d="M54.13,189h-1v-3.46c0-1.25-.46-1.87-1.39-1.87a1.51,1.51,0,0,0-1.18.54,2,2,0,0,0-.49,1.39V189h-1v-8.89h1V184h0a2.19,2.19,0,0,1,2-1.13c1.35,0,2,.81,2,2.44Z"/><path class="cls-30" d="M56.45,181.45a.6.6,0,0,1-.44-.17.65.65,0,0,1,0-.9.64.64,0,0,1,.44-.17.68.68,0,0,1,.45.17.61.61,0,0,1,.18.45.6.6,0,0,1-.18.44A.64.64,0,0,1,56.45,181.45Zm.47,7.53H56v-6h1Z"/><path class="cls-30" d="M63,188.7a3.08,3.08,0,0,1-1.64.42,2.72,2.72,0,0,1-2.07-.84,3,3,0,0,1-.79-2.16,3.35,3.35,0,0,1,.85-2.38,3,3,0,0,1,2.27-.9,3.13,3.13,0,0,1,1.4.29v1a2.48,2.48,0,0,0-1.43-.46,1.91,1.91,0,0,0-1.51.65,2.53,2.53,0,0,0-.59,1.74A2.38,2.38,0,0,0,60,187.7a1.91,1.91,0,0,0,1.49.61,2.38,2.38,0,0,0,1.47-.52Z"/><path class="cls-30" d="M69.41,189h-1v-3.46c0-1.25-.47-1.87-1.39-1.87a1.53,1.53,0,0,0-1.19.54,2,2,0,0,0-.48,1.39V189h-1v-8.89h1V184h0a2.2,2.2,0,0,1,2-1.13c1.35,0,2,.81,2,2.44Z"/><path class="cls-30" d="M74,188.92a1.94,1.94,0,0,1-.9.19c-1.05,0-1.58-.59-1.58-1.76V183.8h-1V183h1v-1.47l1-.31V183H74v.82H72.5v3.38a1.37,1.37,0,0,0,.21.86.83.83,0,0,0,.68.26,1.05,1.05,0,0,0,.63-.2Z"/><path class="cls-30" d="M88.76,241.62h-1v-8.4h1Z"/><path class="cls-30" d="M95.83,241.62h-1V238.2c0-1.27-.47-1.91-1.4-1.91a1.52,1.52,0,0,0-1.19.54,2,2,0,0,0-.47,1.37v3.42h-1v-6h1v1h0a2.17,2.17,0,0,1,2-1.14,1.83,1.83,0,0,1,1.51.64,2.86,2.86,0,0,1,.52,1.84Z"/><path class="cls-30" d="M100.43,241.56a1.76,1.76,0,0,1-.89.19c-1.05,0-1.58-.58-1.58-1.76v-3.55h-1v-.82h1v-1.46l1-.31v1.77h1.51v.82H98.92v3.38a1.41,1.41,0,0,0,.21.87.81.81,0,0,0,.68.25.94.94,0,0,0,.62-.2Z"/><path class="cls-30" d="M106.55,238.86h-4.23a2.23,2.23,0,0,0,.53,1.55,1.89,1.89,0,0,0,1.42.55,3,3,0,0,0,1.87-.67v.9a3.53,3.53,0,0,1-2.1.57,2.53,2.53,0,0,1-2-.81,3.34,3.34,0,0,1-.73-2.3,3.29,3.29,0,0,1,.79-2.29,2.58,2.58,0,0,1,2-.88,2.29,2.29,0,0,1,1.83.76,3.19,3.19,0,0,1,.64,2.12Zm-1-.81a2,2,0,0,0-.4-1.3,1.4,1.4,0,0,0-1.1-.46,1.54,1.54,0,0,0-1.16.49,2.21,2.21,0,0,0-.58,1.27Z"/><path class="cls-30" d="M111.15,236.6a1.18,1.18,0,0,0-.73-.2,1.25,1.25,0,0,0-1,.58,2.74,2.74,0,0,0-.41,1.58v3.06h-1v-6h1v1.24h0a2.17,2.17,0,0,1,.63-1,1.44,1.44,0,0,1,.94-.35,1.52,1.52,0,0,1,.58.08Z"/><path class="cls-30" d="M117.18,241.62h-1V238.2c0-1.27-.46-1.91-1.39-1.91a1.54,1.54,0,0,0-1.2.54,2,2,0,0,0-.47,1.37v3.42h-1v-6h1v1h0a2.15,2.15,0,0,1,2-1.14,1.83,1.83,0,0,1,1.51.64,2.8,2.8,0,0,1,.52,1.84Z"/><path class="cls-30" d="M123.83,238.86h-4.24a2.19,2.19,0,0,0,.54,1.55,1.86,1.86,0,0,0,1.42.55,3,3,0,0,0,1.86-.67v.9a3.5,3.5,0,0,1-2.09.57,2.54,2.54,0,0,1-2-.81,3.39,3.39,0,0,1-.73-2.3,3.29,3.29,0,0,1,.8-2.29,2.56,2.56,0,0,1,2-.88,2.28,2.28,0,0,1,1.82.76,3.2,3.2,0,0,1,.65,2.12Zm-1-.81a2,2,0,0,0-.4-1.3,1.39,1.39,0,0,0-1.1-.46,1.52,1.52,0,0,0-1.15.49,2.22,2.22,0,0,0-.59,1.27Z"/><path class="cls-30" d="M128.42,236.6a1.18,1.18,0,0,0-.73-.2,1.22,1.22,0,0,0-1,.58,2.67,2.67,0,0,0-.42,1.58v3.06h-1v-6h1v1.24h0a2.08,2.08,0,0,1,.62-1,1.47,1.47,0,0,1,.95-.35,1.44,1.44,0,0,1,.57.08Z"/><path class="cls-30" d="M50.33,254.82H46v-8.4h1v7.51h3.38Z"/><path class="cls-30" d="M55.8,254.82h-1v-.93h0A2,2,0,0,1,53,255a2,2,0,0,1-1.41-.47,1.64,1.64,0,0,1-.5-1.26c0-1.12.66-1.77,2-2l1.79-.25q0-1.53-1.23-1.53a3,3,0,0,0-2,.74v-1a3.68,3.68,0,0,1,2-.57c1.41,0,2.12.75,2.12,2.24Zm-1-3-1.44.2a2.3,2.3,0,0,0-1,.33,1,1,0,0,0-.34.84.92.92,0,0,0,.31.72,1.25,1.25,0,0,0,.84.28,1.54,1.54,0,0,0,1.18-.51,1.76,1.76,0,0,0,.46-1.26Z"/><path class="cls-30" d="M57.25,254.61v-1a2.9,2.9,0,0,0,1.73.58c.85,0,1.27-.29,1.27-.85a.78.78,0,0,0-.11-.41,1,1,0,0,0-.29-.29,2.27,2.27,0,0,0-.44-.23l-.53-.22a5.16,5.16,0,0,1-.7-.32,1.94,1.94,0,0,1-.51-.36,1.41,1.41,0,0,1-.3-.46,1.57,1.57,0,0,1-.1-.6,1.44,1.44,0,0,1,.19-.75,1.58,1.58,0,0,1,.52-.54,2.45,2.45,0,0,1,.73-.34A3.59,3.59,0,0,1,61,249v1a2.79,2.79,0,0,0-1.53-.43,1.75,1.75,0,0,0-.48.06,1,1,0,0,0-.37.18.66.66,0,0,0-.24.26.69.69,0,0,0-.09.34.82.82,0,0,0,.09.4.9.9,0,0,0,.24.28,1.89,1.89,0,0,0,.4.22l.54.22a6.85,6.85,0,0,1,.71.31,2.44,2.44,0,0,1,.54.37,1.38,1.38,0,0,1,.34.46,1.54,1.54,0,0,1,.12.63A1.49,1.49,0,0,1,61,254a1.74,1.74,0,0,1-.53.55,2.54,2.54,0,0,1-.75.32,3.82,3.82,0,0,1-.9.1A3.54,3.54,0,0,1,57.25,254.61Z"/><path class="cls-30" d="M65.5,254.76a1.76,1.76,0,0,1-.89.19c-1,0-1.58-.58-1.58-1.76v-3.55H62v-.82h1v-1.46l1-.31v1.77H65.5v.82H64V253a1.41,1.41,0,0,0,.21.87.81.81,0,0,0,.68.25.94.94,0,0,0,.62-.2Z"/><path class="cls-30" d="M71.62,252.06H67.39a2.23,2.23,0,0,0,.53,1.55,1.89,1.89,0,0,0,1.42.55,3,3,0,0,0,1.87-.67v.9a3.53,3.53,0,0,1-2.1.57,2.53,2.53,0,0,1-2-.81,3.34,3.34,0,0,1-.73-2.3,3.29,3.29,0,0,1,.79-2.29,2.58,2.58,0,0,1,2-.88,2.28,2.28,0,0,1,1.82.76,3.19,3.19,0,0,1,.64,2.12Zm-1-.81a2,2,0,0,0-.4-1.3,1.4,1.4,0,0,0-1.1-.46A1.54,1.54,0,0,0,68,250a2.21,2.21,0,0,0-.58,1.27Z"/><path class="cls-30" d="M78.07,254.82h-1V251.4c0-1.27-.47-1.91-1.4-1.91a1.5,1.5,0,0,0-1.19.54,2,2,0,0,0-.47,1.37v3.42h-1v-6h1v1h0a2.16,2.16,0,0,1,2-1.14,1.83,1.83,0,0,1,1.51.64,2.86,2.86,0,0,1,.52,1.84Z"/><path class="cls-30" d="M84.19,254.82h-1v-.93h0A2,2,0,0,1,81.35,255a2,2,0,0,1-1.4-.47,1.65,1.65,0,0,1-.51-1.26c0-1.12.66-1.77,2-2l1.79-.25q0-1.53-1.23-1.53a3,3,0,0,0-2,.74v-1a3.68,3.68,0,0,1,2-.57c1.41,0,2.12.75,2.12,2.24Zm-1-3-1.44.2a2.3,2.3,0,0,0-1,.33,1,1,0,0,0-.34.84.92.92,0,0,0,.31.72,1.25,1.25,0,0,0,.84.28,1.54,1.54,0,0,0,1.18-.51,1.76,1.76,0,0,0,.46-1.26Z"/><path class="cls-30" d="M90.86,254.82h-1v-.95h0A2,2,0,0,1,88,255c-1.43,0-2.14-.85-2.14-2.55v-3.59h1v3.44c0,1.26.49,1.9,1.46,1.9a1.47,1.47,0,0,0,1.15-.52,2,2,0,0,0,.46-1.36v-3.46h1Z"/><path class="cls-30" d="M92.45,254.61v-1a2.88,2.88,0,0,0,1.73.58c.84,0,1.26-.29,1.26-.85a.7.7,0,0,0-.11-.41,1,1,0,0,0-.29-.29,2.18,2.18,0,0,0-.43-.23l-.54-.22a5.79,5.79,0,0,1-.7-.32,1.74,1.74,0,0,1-.5-.36,1.29,1.29,0,0,1-.31-.46,1.57,1.57,0,0,1-.1-.6,1.44,1.44,0,0,1,.19-.75,1.58,1.58,0,0,1,.52-.54,2.45,2.45,0,0,1,.73-.34,3.49,3.49,0,0,1,.86-.11,3.41,3.41,0,0,1,1.39.27v1a2.78,2.78,0,0,0-1.52-.43,1.88,1.88,0,0,0-.49.06,1.06,1.06,0,0,0-.37.18.85.85,0,0,0-.24.26.69.69,0,0,0-.09.34.82.82,0,0,0,.09.4.94.94,0,0,0,.25.28,1.67,1.67,0,0,0,.4.22l.53.22a6,6,0,0,1,.71.31,2.23,2.23,0,0,1,.54.37,1.41,1.41,0,0,1,.35.46,1.54,1.54,0,0,1,.12.63,1.5,1.5,0,0,1-.2.77,1.82,1.82,0,0,1-.52.55,2.6,2.6,0,0,1-.76.32,3.76,3.76,0,0,1-.9.1A3.49,3.49,0,0,1,92.45,254.61Z"/><path class="cls-30" d="M103,254.34q0,3.32-3.17,3.31a4.23,4.23,0,0,1-1.94-.42v-1a3.94,3.94,0,0,0,1.93.57c1.48,0,2.21-.79,2.21-2.36v-.65h0A2.25,2.25,0,0,1,100,255a2.22,2.22,0,0,1-1.8-.8A3.15,3.15,0,0,1,97.5,252a3.78,3.78,0,0,1,.74-2.44,2.46,2.46,0,0,1,2-.9,2,2,0,0,1,1.8,1h0v-.84h1Zm-1-2.23v-.88a1.73,1.73,0,0,0-.48-1.23,1.58,1.58,0,0,0-1.2-.51,1.68,1.68,0,0,0-1.4.65,2.91,2.91,0,0,0-.5,1.81,2.48,2.48,0,0,0,.48,1.6,1.54,1.54,0,0,0,1.28.61,1.7,1.7,0,0,0,1.32-.58A2.12,2.12,0,0,0,102.07,252.11Z"/><path class="cls-30" d="M106,254.82h-1v-8.88h1Z"/><path class="cls-30" d="M112.73,252.06H108.5a2.19,2.19,0,0,0,.54,1.55,1.85,1.85,0,0,0,1.41.55,3,3,0,0,0,1.87-.67v.9a3.52,3.52,0,0,1-2.09.57,2.54,2.54,0,0,1-2-.81,3.85,3.85,0,0,1,.06-4.59,2.58,2.58,0,0,1,2-.88,2.28,2.28,0,0,1,1.82.76,3.19,3.19,0,0,1,.64,2.12Zm-1-.81a2,2,0,0,0-.4-1.3,1.4,1.4,0,0,0-1.1-.46,1.56,1.56,0,0,0-1.16.49,2.21,2.21,0,0,0-.58,1.27Z"/><path class="cls-30" d="M114.69,247.3a.6.6,0,0,1-.44-.18.57.57,0,0,1-.18-.44.61.61,0,0,1,.18-.45.6.6,0,0,1,.44-.18.62.62,0,0,1,.63.63.6.6,0,0,1-.18.44A.61.61,0,0,1,114.69,247.3Zm.47,7.52h-1v-6h1Z"/><path class="cls-30" d="M121.21,254.55a3.1,3.1,0,0,1-1.64.41,2.72,2.72,0,0,1-2.08-.83,3.06,3.06,0,0,1-.78-2.17,3.32,3.32,0,0,1,.85-2.38,3,3,0,0,1,2.26-.9,3.1,3.1,0,0,1,1.4.3v1a2.47,2.47,0,0,0-1.43-.47,1.93,1.93,0,0,0-1.51.66,2.52,2.52,0,0,0-.59,1.73,2.45,2.45,0,0,0,.55,1.67,1.94,1.94,0,0,0,1.49.61,2.42,2.42,0,0,0,1.48-.53Z"/><path class="cls-30" d="M127.65,254.82h-1v-3.45c0-1.25-.46-1.88-1.39-1.88a1.53,1.53,0,0,0-1.19.54,2,2,0,0,0-.48,1.39v3.4h-1v-8.88h1v3.88h0a2.17,2.17,0,0,1,2-1.14c1.35,0,2,.82,2,2.45Z"/><path class="cls-30" d="M70.56,89.4a3.68,3.68,0,0,1-2.86-1.18,4.33,4.33,0,0,1-1.08-3.06,4.66,4.66,0,0,1,1.1-3.24,3.83,3.83,0,0,1,3-1.2,3.62,3.62,0,0,1,2.81,1.17A4.41,4.41,0,0,1,74.57,85a4.66,4.66,0,0,1-1.09,3.26A3.78,3.78,0,0,1,70.56,89.4Zm.07-7.79a2.73,2.73,0,0,0-2.15,1,4.28,4.28,0,0,0,0,5,2.64,2.64,0,0,0,2.1,1,2.77,2.77,0,0,0,2.18-.91,3.68,3.68,0,0,0,.8-2.52,3.81,3.81,0,0,0-.78-2.57A2.62,2.62,0,0,0,70.63,81.61ZM69.5,80.1a.57.57,0,0,1-.42-.17.55.55,0,0,1-.18-.41.57.57,0,0,1,.17-.41.59.59,0,0,1,1,.41.57.57,0,0,1-.17.41A.56.56,0,0,1,69.5,80.1Zm2.25,0a.56.56,0,0,1-.41-.16.57.57,0,0,1-.17-.42.6.6,0,0,1,.16-.41.55.55,0,0,1,.4-.16.57.57,0,0,1,.42.16.58.58,0,0,1,.17.41.6.6,0,0,1-.16.41A.57.57,0,0,1,71.75,80.1Z"/><path class="cls-30" d="M79.07,81.22a1.35,1.35,0,0,0-.64-.16c-.67,0-1,.43-1,1.27v.93h1.41v.82H77.42v5.18h-1V84.08h-1v-.82h1v-1A2,2,0,0,1,77,80.8a1.84,1.84,0,0,1,1.36-.55,1.89,1.89,0,0,1,.7.1Z"/><path class="cls-30" d="M82.84,81.22a1.35,1.35,0,0,0-.64-.16c-.67,0-1,.43-1,1.27v.93H82.6v.82H81.19v5.18h-1V84.08h-1v-.82h1v-1a2,2,0,0,1,.54-1.49,1.82,1.82,0,0,1,1.36-.55,1.92,1.92,0,0,1,.7.1Z"/><path class="cls-30" d="M88.46,86.5H84.23a2.21,2.21,0,0,0,.54,1.55,1.85,1.85,0,0,0,1.41.54,2.94,2.94,0,0,0,1.87-.67v.91A3.52,3.52,0,0,1,86,89.4a2.52,2.52,0,0,1-2-.82A3.83,3.83,0,0,1,84,84a2.55,2.55,0,0,1,2-.88,2.25,2.25,0,0,1,1.82.76A3.18,3.18,0,0,1,88.46,86Zm-1-.81a2,2,0,0,0-.4-1.3,1.37,1.37,0,0,0-1.1-.46,1.59,1.59,0,0,0-1.16.48,2.24,2.24,0,0,0-.58,1.28Z"/><path class="cls-30" d="M94.91,89.26H94V85.84c0-1.28-.47-1.91-1.4-1.91a1.5,1.5,0,0,0-1.19.54,2,2,0,0,0-.47,1.37v3.42h-1v-6h1v1h0a2.17,2.17,0,0,1,2-1.14,1.85,1.85,0,0,1,1.51.63,2.9,2.9,0,0,1,.52,1.84Z"/><path class="cls-30" d="M99.51,89.2a1.76,1.76,0,0,1-.89.19c-1.05,0-1.58-.59-1.58-1.76V84.08H96v-.82h1V81.79l1-.31v1.78h1.51v.82H98v3.38a1.37,1.37,0,0,0,.21.86.81.81,0,0,0,.68.26,1,1,0,0,0,.62-.2Z"/><path class="cls-30" d="M101.77,89.26h-1V80.38h1Z"/><path class="cls-30" d="M104.22,81.74a.61.61,0,0,1-.62-.62.61.61,0,0,1,.18-.45.6.6,0,0,1,.44-.18.63.63,0,0,1,.45.18.61.61,0,0,1,.18.45.58.58,0,0,1-.18.43A.6.6,0,0,1,104.22,81.74Zm.47,7.52h-1v-6h1Z"/><path class="cls-30" d="M110.74,89a3.13,3.13,0,0,1-1.64.42,2.76,2.76,0,0,1-2.08-.83,3.06,3.06,0,0,1-.78-2.17,3.3,3.3,0,0,1,.85-2.38,3,3,0,0,1,2.26-.9,3.24,3.24,0,0,1,1.4.29v1a2.4,2.4,0,0,0-1.43-.47,1.92,1.92,0,0,0-1.51.66,2.5,2.5,0,0,0-.59,1.73,2.36,2.36,0,0,0,.55,1.66,1.91,1.91,0,0,0,1.49.61,2.43,2.43,0,0,0,1.48-.52Z"/><path class="cls-30" d="M117.18,89.26h-1V85.8c0-1.25-.46-1.87-1.39-1.87a1.53,1.53,0,0,0-1.19.54,2,2,0,0,0-.48,1.39v3.4h-1V80.38h1v3.88h0a2.17,2.17,0,0,1,2-1.14c1.36,0,2,.81,2,2.44Z"/><path class="cls-30" d="M123.83,86.5h-4.24a2.3,2.3,0,0,0,.54,1.55,1.87,1.87,0,0,0,1.42.54,2.93,2.93,0,0,0,1.86-.67v.91a3.5,3.5,0,0,1-2.09.57,2.52,2.52,0,0,1-2-.82,3.36,3.36,0,0,1-.73-2.3,3.29,3.29,0,0,1,.8-2.28,2.53,2.53,0,0,1,2-.88,2.25,2.25,0,0,1,1.82.76,3.18,3.18,0,0,1,.65,2.12Zm-1-.81a2,2,0,0,0-.4-1.3,1.36,1.36,0,0,0-1.1-.46,1.55,1.55,0,0,0-1.15.48,2.25,2.25,0,0,0-.59,1.28Z"/><path class="cls-30" d="M128.42,84.23a1.18,1.18,0,0,0-.73-.19,1.2,1.2,0,0,0-1,.58,2.64,2.64,0,0,0-.42,1.58v3.06h-1v-6h1V84.5h0a2,2,0,0,1,.62-1,1.43,1.43,0,0,1,.95-.36,1.41,1.41,0,0,1,.57.09Z"/><path class="cls-30" d="M59.89,102.46H55.53v-8.4h1v7.51h3.37Z"/><path class="cls-30" d="M63.57,102.6a2.77,2.77,0,0,1-2.12-.84,3.11,3.11,0,0,1-.8-2.23,3.25,3.25,0,0,1,.83-2.36,3,3,0,0,1,2.23-.85,2.68,2.68,0,0,1,2.1.83,3.77,3.77,0,0,1-.06,4.59A2.87,2.87,0,0,1,63.57,102.6Zm.07-5.47a1.81,1.81,0,0,0-1.46.63,2.59,2.59,0,0,0-.54,1.74,2.46,2.46,0,0,0,.54,1.68,1.86,1.86,0,0,0,1.46.61,1.75,1.75,0,0,0,1.43-.6,3.17,3.17,0,0,0,0-3.45A1.73,1.73,0,0,0,63.64,97.13Z"/><path class="cls-30" d="M72.4,102.46h-1v-.94h0a2,2,0,0,1-1.85,1.08,2,2,0,0,1-1.4-.47,1.65,1.65,0,0,1-.51-1.26c0-1.12.66-1.78,2-2l1.8-.25c0-1-.41-1.53-1.24-1.53a2.9,2.9,0,0,0-2,.74v-1a3.76,3.76,0,0,1,2-.56c1.41,0,2.11.75,2.11,2.24Zm-1-3-1.45.2a2.37,2.37,0,0,0-1,.34.93.93,0,0,0-.34.84.89.89,0,0,0,.31.71,1.19,1.19,0,0,0,.83.28,1.51,1.51,0,0,0,1.18-.5,1.75,1.75,0,0,0,.47-1.27Z"/><path class="cls-30" d="M79.35,102.46h-1v-1h0a2.42,2.42,0,0,1-3.87.35,3.28,3.28,0,0,1-.68-2.19,3.57,3.57,0,0,1,.75-2.38,2.48,2.48,0,0,1,2-.9,1.91,1.91,0,0,1,1.8,1h0V93.58h1Zm-1-2.71v-.89a1.73,1.73,0,0,0-.48-1.23,1.61,1.61,0,0,0-1.21-.5,1.67,1.67,0,0,0-1.39.64,2.87,2.87,0,0,0-.5,1.78,2.54,2.54,0,0,0,.48,1.64,1.59,1.59,0,0,0,1.3.6,1.63,1.63,0,0,0,1.3-.58A2.11,2.11,0,0,0,78.38,99.75Z"/><path class="cls-30" d="M84.73,102.46v-8.4h2.39a2.65,2.65,0,0,1,1.73.53A1.72,1.72,0,0,1,89.49,96a2,2,0,0,1-.39,1.24A2.11,2.11,0,0,1,88,98v0a2.1,2.1,0,0,1,1.35.64,2,2,0,0,1,.51,1.41,2.17,2.17,0,0,1-.77,1.74,2.85,2.85,0,0,1-1.95.67Zm1-7.51v2.71h1A1.89,1.89,0,0,0,88,97.27a1.35,1.35,0,0,0,.47-1.1c0-.81-.54-1.22-1.61-1.22Zm0,3.6v3h1.34a2,2,0,0,0,1.35-.41,1.43,1.43,0,0,0,.47-1.13c0-1-.67-1.48-2-1.48Z"/><path class="cls-30" d="M95.79,102.46h-1v-.94h0a2.2,2.2,0,0,1-3.25.61,1.68,1.68,0,0,1-.5-1.26c0-1.12.66-1.78,2-2l1.8-.25c0-1-.42-1.53-1.24-1.53a2.92,2.92,0,0,0-2,.74v-1a3.76,3.76,0,0,1,2-.56c1.41,0,2.12.75,2.12,2.24Zm-1-3-1.45.2a2.43,2.43,0,0,0-1,.34,1.08,1.08,0,0,0,0,1.55,1.2,1.2,0,0,0,.84.28,1.51,1.51,0,0,0,1.18-.5,1.8,1.8,0,0,0,.47-1.27Z"/><path class="cls-30" d="M98.57,102.46h-1V93.58h1Z"/><path class="cls-30" d="M104.82,102.46h-1v-.94h0a2.2,2.2,0,0,1-3.25.61,1.65,1.65,0,0,1-.51-1.26c0-1.12.66-1.78,2-2l1.8-.25q0-1.53-1.23-1.53a2.91,2.91,0,0,0-2,.74v-1a3.76,3.76,0,0,1,2-.56c1.41,0,2.11.75,2.11,2.24Zm-1-3-1.44.2a2.37,2.37,0,0,0-1,.34.93.93,0,0,0-.34.84.89.89,0,0,0,.31.71,1.2,1.2,0,0,0,.84.28,1.53,1.53,0,0,0,1.18-.5,1.79,1.79,0,0,0,.46-1.27Z"/><path class="cls-30" d="M111.63,102.46h-1V99c0-1.28-.47-1.91-1.4-1.91a1.5,1.5,0,0,0-1.19.54,2,2,0,0,0-.47,1.37v3.42h-1v-6h1v1h0a2.16,2.16,0,0,1,2-1.14,1.81,1.81,0,0,1,1.5.64,2.79,2.79,0,0,1,.53,1.83Z"/><path class="cls-30" d="M117.54,102.18a3.1,3.1,0,0,1-1.64.42,2.72,2.72,0,0,1-2.07-.83A3,3,0,0,1,113,99.6a3.3,3.3,0,0,1,.85-2.38,3,3,0,0,1,2.27-.9,3.23,3.23,0,0,1,1.39.29v1a2.4,2.4,0,0,0-1.43-.47,1.93,1.93,0,0,0-1.51.66,2.5,2.5,0,0,0-.59,1.73,2.36,2.36,0,0,0,.56,1.66,1.89,1.89,0,0,0,1.48.61,2.39,2.39,0,0,0,1.48-.52Z"/><path class="cls-30" d="M123.83,99.7h-4.24a2.21,2.21,0,0,0,.54,1.55,1.85,1.85,0,0,0,1.42.54,2.93,2.93,0,0,0,1.86-.67V102a3.5,3.5,0,0,1-2.09.57,2.52,2.52,0,0,1-2-.82,3.36,3.36,0,0,1-.73-2.3,3.29,3.29,0,0,1,.8-2.28,2.53,2.53,0,0,1,2-.88,2.25,2.25,0,0,1,1.82.76,3.18,3.18,0,0,1,.65,2.12Zm-1-.81a2,2,0,0,0-.4-1.3,1.36,1.36,0,0,0-1.1-.46,1.55,1.55,0,0,0-1.15.48,2.25,2.25,0,0,0-.59,1.28Z"/><path class="cls-30" d="M128.42,97.43a1.18,1.18,0,0,0-.73-.19,1.23,1.23,0,0,0-1,.58,2.72,2.72,0,0,0-.41,1.58v3.06h-1v-6h1V97.7h0a2.12,2.12,0,0,1,.63-1,1.42,1.42,0,0,1,.94-.36,1.46,1.46,0,0,1,.58.09Z"/></g></svg>